<svg width="1600px" height="900px" viewBox="-25 -13 16.3292717 21.292512"><g id="layer1" transform="rotate(90,-2.4945089,-5.5210241)"><image x="0" y="0" width="800" height="800" xlink:href="../Maps/nonstandard_size/ewap_eth_modified.png" />
<rect id="rect0" style="stroke-width:0.000000;fill:#ffffff;stroke:none;" x="-20.000000" y="-20.000000" width="680.000000" height="520.000000" />
<circle id="circle1" r="0.069566" cx="-0.555426" cy="-2.951879" style="stroke-width:0.000000;fill:#555555;stroke:none;"/>
<circle id="circle2" r="0.069566" cx="-0.509393" cy="-1.011321" style="stroke-width:0.000000;fill:#555555;stroke:none;"/>
<circle id="circle3" r="0.069566" cx="-0.511067" cy="1.088441" style="stroke-width:0.000000;fill:#555555;stroke:none;"/>
<path id="path4" style="stroke-width:0.000000;fill:#555555;stroke:none;" d="M -0.617364,-3.021445  L -0.491147,-3.021445  L -0.491147,-2.882313  L -0.617364,-2.882313  L -0.617364,-3.021445  z " />
<circle id="circle5" r="0.750000" cx="-4.546597" cy="2.259814" style="stroke-width:0.000000;fill:#00ff00;stroke:none;"/>
<circle id="circle6" r="0.500000" cx="-4.546597" cy="2.259814" style="stroke-width:0.000000;fill:#ffffff;stroke:none;"/>
<circle id="circle7" r="0.187500" cx="-4.546597" cy="2.259814" style="stroke-width:0.000000;fill:#00ff00;stroke:none;"/>
<circle id="circle8" r="0.750000" cx="2.204527" cy="-1.489741" style="stroke-width:0.000000;fill:#ff0000;stroke:none;"/>
<circle id="circle9" r="0.500000" cx="2.204527" cy="-1.489741" style="stroke-width:0.000000;fill:#ffffff;stroke:none;"/>
<circle id="circle10" r="0.187500" cx="2.204527" cy="-1.489741" style="stroke-width:0.000000;fill:#ff0000;stroke:none;"/>
<ellipse id="ellipse11" rx="0.300000" ry="0.150000" cx="-1000.000000" cy="-1000.000000" style="stroke-width:0.000000;fill:#44ccee;stroke:none;" transform="rotate(0.000000, -1000.000000, -1000.000000)"/>
<ellipse id="ellipse12" rx="0.300000" ry="0.150000" cx="-1000.000000" cy="-1000.000000" style="stroke-width:0.000000;fill:#44ccee;stroke:none;" transform="rotate(0.000000, -1000.000000, -1000.000000)"/>
<ellipse id="ellipse13" rx="0.300000" ry="0.150000" cx="-1000.000000" cy="-1000.000000" style="stroke-width:0.000000;fill:#44ccee;stroke:none;" transform="rotate(0.000000, -1000.000000, -1000.000000)"/>
<ellipse id="ellipse14" rx="0.300000" ry="0.150000" cx="-1000.000000" cy="-1000.000000" style="stroke-width:0.000000;fill:#44ccee;stroke:none;" transform="rotate(0.000000, -1000.000000, -1000.000000)"/>
<ellipse id="ellipse15" rx="0.300000" ry="0.150000" cx="-1000.000000" cy="-1000.000000" style="stroke-width:0.000000;fill:#44ccee;stroke:none;" transform="rotate(0.000000, -1000.000000, -1000.000000)"/>
<ellipse id="ellipse16" rx="0.300000" ry="0.150000" cx="-1000.000000" cy="-1000.000000" style="stroke-width:0.000000;fill:#44ccee;stroke:none;" transform="rotate(0.000000, -1000.000000, -1000.000000)"/>
<ellipse id="ellipse17" rx="0.300000" ry="0.150000" cx="-1000.000000" cy="-1000.000000" style="stroke-width:0.000000;fill:#44ccee;stroke:none;" transform="rotate(0.000000, -1000.000000, -1000.000000)"/>
<ellipse id="ellipse18" rx="0.300000" ry="0.150000" cx="-1000.000000" cy="-1000.000000" style="stroke-width:0.000000;fill:#44ccee;stroke:none;" transform="rotate(0.000000, -1000.000000, -1000.000000)"/>
<ellipse id="ellipse19" rx="0.300000" ry="0.150000" cx="-1000.000000" cy="-1000.000000" style="stroke-width:0.000000;fill:#44ccee;stroke:none;" transform="rotate(0.000000, -1000.000000, -1000.000000)"/>
<ellipse id="ellipse20" rx="0.300000" ry="0.150000" cx="-1000.000000" cy="-1000.000000" style="stroke-width:0.000000;fill:#44ccee;stroke:none;" transform="rotate(0.000000, -1000.000000, -1000.000000)"/>
<ellipse id="ellipse21" rx="0.300000" ry="0.150000" cx="-1000.000000" cy="-1000.000000" style="stroke-width:0.000000;fill:#44ccee;stroke:none;" transform="rotate(0.000000, -1000.000000, -1000.000000)"/>
<ellipse id="ellipse22" rx="0.300000" ry="0.150000" cx="-1000.000000" cy="-1000.000000" style="stroke-width:0.000000;fill:#44ccee;stroke:none;" transform="rotate(0.000000, -1000.000000, -1000.000000)"/>
<ellipse id="ellipse23" rx="0.300000" ry="0.150000" cx="-1000.000000" cy="-1000.000000" style="stroke-width:0.000000;fill:#44ccee;stroke:none;" transform="rotate(0.000000, -1000.000000, -1000.000000)"/>
<ellipse id="ellipse24" rx="0.300000" ry="0.150000" cx="-1000.000000" cy="-1000.000000" style="stroke-width:0.000000;fill:#44ccee;stroke:none;" transform="rotate(0.000000, -1000.000000, -1000.000000)"/>
<ellipse id="ellipse25" rx="0.300000" ry="0.150000" cx="-1000.000000" cy="-1000.000000" style="stroke-width:0.000000;fill:#44ccee;stroke:none;" transform="rotate(0.000000, -1000.000000, -1000.000000)"/>
<ellipse id="ellipse26" rx="0.300000" ry="0.150000" cx="-1000.000000" cy="-1000.000000" style="stroke-width:0.000000;fill:#44ccee;stroke:none;" transform="rotate(0.000000, -1000.000000, -1000.000000)"/>
<ellipse id="ellipse27" rx="0.300000" ry="0.150000" cx="-1000.000000" cy="-1000.000000" style="stroke-width:0.000000;fill:#44ccee;stroke:none;" transform="rotate(0.000000, -1000.000000, -1000.000000)"/>
<ellipse id="ellipse28" rx="0.300000" ry="0.150000" cx="-1000.000000" cy="-1000.000000" style="stroke-width:0.000000;fill:#44ccee;stroke:none;" transform="rotate(0.000000, -1000.000000, -1000.000000)"/>
<ellipse id="ellipse29" rx="0.300000" ry="0.150000" cx="-1000.000000" cy="-1000.000000" style="stroke-width:0.000000;fill:#44ccee;stroke:none;" transform="rotate(0.000000, -1000.000000, -1000.000000)"/>
<ellipse id="ellipse30" rx="0.300000" ry="0.150000" cx="-1000.000000" cy="-1000.000000" style="stroke-width:0.000000;fill:#44ccee;stroke:none;" transform="rotate(0.000000, -1000.000000, -1000.000000)"/>
<ellipse id="ellipse31" rx="0.300000" ry="0.150000" cx="-1000.000000" cy="-1000.000000" style="stroke-width:0.000000;fill:#44ccee;stroke:none;" transform="rotate(0.000000, -1000.000000, -1000.000000)"/>
<ellipse id="ellipse32" rx="0.300000" ry="0.150000" cx="-1000.000000" cy="-1000.000000" style="stroke-width:0.000000;fill:#44ccee;stroke:none;" transform="rotate(0.000000, -1000.000000, -1000.000000)"/>
<ellipse id="ellipse33" rx="0.300000" ry="0.150000" cx="-1000.000000" cy="-1000.000000" style="stroke-width:0.000000;fill:#44ccee;stroke:none;" transform="rotate(0.000000, -1000.000000, -1000.000000)"/>
<ellipse id="ellipse34" rx="0.300000" ry="0.150000" cx="-1000.000000" cy="-1000.000000" style="stroke-width:0.000000;fill:#44ccee;stroke:none;" transform="rotate(0.000000, -1000.000000, -1000.000000)"/>
<ellipse id="ellipse35" rx="0.300000" ry="0.150000" cx="-1000.000000" cy="-1000.000000" style="stroke-width:0.000000;fill:#44ccee;stroke:none;" transform="rotate(0.000000, -1000.000000, -1000.000000)"/>
<ellipse id="ellipse36" rx="0.300000" ry="0.150000" cx="-1000.000000" cy="-1000.000000" style="stroke-width:0.000000;fill:#44ccee;stroke:none;" transform="rotate(0.000000, -1000.000000, -1000.000000)"/>
<ellipse id="ellipse37" rx="0.300000" ry="0.150000" cx="-1000.000000" cy="-1000.000000" style="stroke-width:0.000000;fill:#44ccee;stroke:none;" transform="rotate(0.000000, -1000.000000, -1000.000000)"/>
<ellipse id="ellipse38" rx="0.300000" ry="0.150000" cx="-1000.000000" cy="-1000.000000" style="stroke-width:0.000000;fill:#44ccee;stroke:none;" transform="rotate(0.000000, -1000.000000, -1000.000000)"/>
<ellipse id="ellipse39" rx="0.300000" ry="0.150000" cx="-1000.000000" cy="-1000.000000" style="stroke-width:0.000000;fill:#44ccee;stroke:none;" transform="rotate(0.000000, -1000.000000, -1000.000000)"/>
<ellipse id="ellipse40" rx="0.300000" ry="0.150000" cx="-1000.000000" cy="-1000.000000" style="stroke-width:0.000000;fill:#44ccee;stroke:none;" transform="rotate(0.000000, -1000.000000, -1000.000000)"/>
<ellipse id="ellipse41" rx="0.300000" ry="0.150000" cx="-1000.000000" cy="-1000.000000" style="stroke-width:0.000000;fill:#44ccee;stroke:none;" transform="rotate(0.000000, -1000.000000, -1000.000000)"/>
<ellipse id="ellipse42" rx="0.300000" ry="0.150000" cx="-1000.000000" cy="-1000.000000" style="stroke-width:0.000000;fill:#44ccee;stroke:none;" transform="rotate(0.000000, -1000.000000, -1000.000000)"/>
<ellipse id="ellipse43" rx="0.300000" ry="0.150000" cx="-1000.000000" cy="-1000.000000" style="stroke-width:0.000000;fill:#44ccee;stroke:none;" transform="rotate(0.000000, -1000.000000, -1000.000000)"/>
<ellipse id="ellipse44" rx="0.300000" ry="0.150000" cx="-1000.000000" cy="-1000.000000" style="stroke-width:0.000000;fill:#44ccee;stroke:none;" transform="rotate(0.000000, -1000.000000, -1000.000000)"/>
<ellipse id="ellipse45" rx="0.300000" ry="0.150000" cx="-1000.000000" cy="-1000.000000" style="stroke-width:0.000000;fill:#44ccee;stroke:none;" transform="rotate(0.000000, -1000.000000, -1000.000000)"/>
<ellipse id="ellipse46" rx="0.300000" ry="0.150000" cx="-1000.000000" cy="-1000.000000" style="stroke-width:0.000000;fill:#44ccee;stroke:none;" transform="rotate(0.000000, -1000.000000, -1000.000000)"/>
<ellipse id="ellipse47" rx="0.300000" ry="0.150000" cx="-1000.000000" cy="-1000.000000" style="stroke-width:0.000000;fill:#44ccee;stroke:none;" transform="rotate(0.000000, -1000.000000, -1000.000000)"/>
<ellipse id="ellipse48" rx="0.300000" ry="0.150000" cx="-1000.000000" cy="-1000.000000" style="stroke-width:0.000000;fill:#44ccee;stroke:none;" transform="rotate(0.000000, -1000.000000, -1000.000000)"/>
<ellipse id="ellipse49" rx="0.300000" ry="0.150000" cx="-1000.000000" cy="-1000.000000" style="stroke-width:0.000000;fill:#44ccee;stroke:none;" transform="rotate(0.000000, -1000.000000, -1000.000000)"/>
<ellipse id="ellipse50" rx="0.300000" ry="0.150000" cx="-1000.000000" cy="-1000.000000" style="stroke-width:0.000000;fill:#44ccee;stroke:none;" transform="rotate(0.000000, -1000.000000, -1000.000000)"/>
<ellipse id="ellipse51" rx="0.300000" ry="0.150000" cx="-1000.000000" cy="-1000.000000" style="stroke-width:0.000000;fill:#44ccee;stroke:none;" transform="rotate(0.000000, -1000.000000, -1000.000000)"/>
<ellipse id="ellipse52" rx="0.300000" ry="0.150000" cx="-1000.000000" cy="-1000.000000" style="stroke-width:0.000000;fill:#44ccee;stroke:none;" transform="rotate(0.000000, -1000.000000, -1000.000000)"/>
<ellipse id="ellipse53" rx="0.300000" ry="0.150000" cx="-1000.000000" cy="-1000.000000" style="stroke-width:0.000000;fill:#44ccee;stroke:none;" transform="rotate(0.000000, -1000.000000, -1000.000000)"/>
<ellipse id="ellipse54" rx="0.300000" ry="0.150000" cx="-1000.000000" cy="-1000.000000" style="stroke-width:0.000000;fill:#44ccee;stroke:none;" transform="rotate(0.000000, -1000.000000, -1000.000000)"/>
<ellipse id="ellipse55" rx="0.300000" ry="0.150000" cx="-1000.000000" cy="-1000.000000" style="stroke-width:0.000000;fill:#44ccee;stroke:none;" transform="rotate(0.000000, -1000.000000, -1000.000000)"/>
<ellipse id="ellipse56" rx="0.300000" ry="0.150000" cx="-1000.000000" cy="-1000.000000" style="stroke-width:0.000000;fill:#44ccee;stroke:none;" transform="rotate(0.000000, -1000.000000, -1000.000000)"/>
<ellipse id="ellipse57" rx="0.300000" ry="0.150000" cx="-1000.000000" cy="-1000.000000" style="stroke-width:0.000000;fill:#44ccee;stroke:none;" transform="rotate(0.000000, -1000.000000, -1000.000000)"/>
<ellipse id="ellipse58" rx="0.300000" ry="0.150000" cx="-1000.000000" cy="-1000.000000" style="stroke-width:0.000000;fill:#44ccee;stroke:none;" transform="rotate(0.000000, -1000.000000, -1000.000000)"/>
<ellipse id="ellipse59" rx="0.300000" ry="0.150000" cx="-1000.000000" cy="-1000.000000" style="stroke-width:0.000000;fill:#44ccee;stroke:none;" transform="rotate(0.000000, -1000.000000, -1000.000000)"/>
<ellipse id="ellipse60" rx="0.300000" ry="0.150000" cx="-1000.000000" cy="-1000.000000" style="stroke-width:0.000000;fill:#44ccee;stroke:none;" transform="rotate(0.000000, -1000.000000, -1000.000000)"/>
<ellipse id="ellipse61" rx="0.300000" ry="0.150000" cx="-1000.000000" cy="-1000.000000" style="stroke-width:0.000000;fill:#44ccee;stroke:none;" transform="rotate(0.000000, -1000.000000, -1000.000000)"/>
<ellipse id="ellipse62" rx="0.300000" ry="0.150000" cx="-1000.000000" cy="-1000.000000" style="stroke-width:0.000000;fill:#44ccee;stroke:none;" transform="rotate(0.000000, -1000.000000, -1000.000000)"/>
<ellipse id="ellipse63" rx="0.300000" ry="0.150000" cx="-1000.000000" cy="-1000.000000" style="stroke-width:0.000000;fill:#44ccee;stroke:none;" transform="rotate(0.000000, -1000.000000, -1000.000000)"/>
<ellipse id="ellipse64" rx="0.300000" ry="0.150000" cx="-1000.000000" cy="-1000.000000" style="stroke-width:0.000000;fill:#44ccee;stroke:none;" transform="rotate(0.000000, -1000.000000, -1000.000000)"/>
<ellipse id="ellipse65" rx="0.300000" ry="0.150000" cx="-1000.000000" cy="-1000.000000" style="stroke-width:0.000000;fill:#44ccee;stroke:none;" transform="rotate(0.000000, -1000.000000, -1000.000000)"/>
<ellipse id="ellipse66" rx="0.300000" ry="0.150000" cx="-1000.000000" cy="-1000.000000" style="stroke-width:0.000000;fill:#44ccee;stroke:none;" transform="rotate(0.000000, -1000.000000, -1000.000000)"/>
<ellipse id="ellipse67" rx="0.300000" ry="0.150000" cx="-1000.000000" cy="-1000.000000" style="stroke-width:0.000000;fill:#44ccee;stroke:none;" transform="rotate(0.000000, -1000.000000, -1000.000000)"/>
<ellipse id="ellipse68" rx="0.300000" ry="0.150000" cx="-1000.000000" cy="-1000.000000" style="stroke-width:0.000000;fill:#44ccee;stroke:none;" transform="rotate(0.000000, -1000.000000, -1000.000000)"/>
<ellipse id="ellipse69" rx="0.300000" ry="0.150000" cx="-1000.000000" cy="-1000.000000" style="stroke-width:0.000000;fill:#44ccee;stroke:none;" transform="rotate(0.000000, -1000.000000, -1000.000000)"/>
<ellipse id="ellipse70" rx="0.300000" ry="0.150000" cx="-1000.000000" cy="-1000.000000" style="stroke-width:0.000000;fill:#44ccee;stroke:none;" transform="rotate(0.000000, -1000.000000, -1000.000000)"/>
<ellipse id="ellipse71" rx="0.300000" ry="0.150000" cx="-1000.000000" cy="-1000.000000" style="stroke-width:0.000000;fill:#44ccee;stroke:none;" transform="rotate(0.000000, -1000.000000, -1000.000000)"/>
<ellipse id="ellipse72" rx="0.300000" ry="0.150000" cx="-1000.000000" cy="-1000.000000" style="stroke-width:0.000000;fill:#44ccee;stroke:none;" transform="rotate(0.000000, -1000.000000, -1000.000000)"/>
<ellipse id="ellipse73" rx="0.300000" ry="0.150000" cx="-1000.000000" cy="-1000.000000" style="stroke-width:0.000000;fill:#44ccee;stroke:none;" transform="rotate(0.000000, -1000.000000, -1000.000000)"/>
<ellipse id="ellipse74" rx="0.300000" ry="0.150000" cx="-1000.000000" cy="-1000.000000" style="stroke-width:0.000000;fill:#44ccee;stroke:none;" transform="rotate(0.000000, -1000.000000, -1000.000000)"/>
<ellipse id="ellipse75" rx="0.300000" ry="0.150000" cx="-1000.000000" cy="-1000.000000" style="stroke-width:0.000000;fill:#44ccee;stroke:none;" transform="rotate(0.000000, -1000.000000, -1000.000000)"/>
<ellipse id="ellipse76" rx="0.300000" ry="0.150000" cx="-1000.000000" cy="-1000.000000" style="stroke-width:0.000000;fill:#44ccee;stroke:none;" transform="rotate(0.000000, -1000.000000, -1000.000000)"/>
<ellipse id="ellipse77" rx="0.300000" ry="0.150000" cx="-1000.000000" cy="-1000.000000" style="stroke-width:0.000000;fill:#44ccee;stroke:none;" transform="rotate(0.000000, -1000.000000, -1000.000000)"/>
<ellipse id="ellipse78" rx="0.300000" ry="0.150000" cx="-1000.000000" cy="-1000.000000" style="stroke-width:0.000000;fill:#44ccee;stroke:none;" transform="rotate(0.000000, -1000.000000, -1000.000000)"/>
<ellipse id="ellipse79" rx="0.300000" ry="0.150000" cx="-1000.000000" cy="-1000.000000" style="stroke-width:0.000000;fill:#44ccee;stroke:none;" transform="rotate(0.000000, -1000.000000, -1000.000000)"/>
<ellipse id="ellipse80" rx="0.300000" ry="0.150000" cx="-1000.000000" cy="-1000.000000" style="stroke-width:0.000000;fill:#44ccee;stroke:none;" transform="rotate(0.000000, -1000.000000, -1000.000000)"/>
<ellipse id="ellipse81" rx="0.300000" ry="0.150000" cx="-1000.000000" cy="-1000.000000" style="stroke-width:0.000000;fill:#44ccee;stroke:none;" transform="rotate(0.000000, -1000.000000, -1000.000000)"/>
<ellipse id="ellipse82" rx="0.300000" ry="0.150000" cx="-1000.000000" cy="-1000.000000" style="stroke-width:0.000000;fill:#44ccee;stroke:none;" transform="rotate(0.000000, -1000.000000, -1000.000000)"/>
<ellipse id="ellipse83" rx="0.300000" ry="0.150000" cx="-1000.000000" cy="-1000.000000" style="stroke-width:0.000000;fill:#44ccee;stroke:none;" transform="rotate(0.000000, -1000.000000, -1000.000000)"/>
<ellipse id="ellipse84" rx="0.300000" ry="0.150000" cx="-1000.000000" cy="-1000.000000" style="stroke-width:0.000000;fill:#44ccee;stroke:none;" transform="rotate(0.000000, -1000.000000, -1000.000000)"/>
<ellipse id="ellipse85" rx="0.300000" ry="0.150000" cx="-1000.000000" cy="-1000.000000" style="stroke-width:0.000000;fill:#44ccee;stroke:none;" transform="rotate(0.000000, -1000.000000, -1000.000000)"/>
<ellipse id="ellipse86" rx="0.300000" ry="0.150000" cx="-1000.000000" cy="-1000.000000" style="stroke-width:0.000000;fill:#44ccee;stroke:none;" transform="rotate(0.000000, -1000.000000, -1000.000000)"/>
<ellipse id="ellipse87" rx="0.300000" ry="0.150000" cx="-1000.000000" cy="-1000.000000" style="stroke-width:0.000000;fill:#44ccee;stroke:none;" transform="rotate(0.000000, -1000.000000, -1000.000000)"/>
<ellipse id="ellipse88" rx="0.300000" ry="0.150000" cx="-1000.000000" cy="-1000.000000" style="stroke-width:0.000000;fill:#44ccee;stroke:none;" transform="rotate(0.000000, -1000.000000, -1000.000000)"/>
<ellipse id="ellipse89" rx="0.300000" ry="0.150000" cx="-1000.000000" cy="-1000.000000" style="stroke-width:0.000000;fill:#44ccee;stroke:none;" transform="rotate(0.000000, -1000.000000, -1000.000000)"/>
<ellipse id="ellipse90" rx="0.300000" ry="0.150000" cx="-1000.000000" cy="-1000.000000" style="stroke-width:0.000000;fill:#44ccee;stroke:none;" transform="rotate(0.000000, -1000.000000, -1000.000000)"/>
<ellipse id="ellipse91" rx="0.300000" ry="0.150000" cx="-1000.000000" cy="-1000.000000" style="stroke-width:0.000000;fill:#44ccee;stroke:none;" transform="rotate(0.000000, -1000.000000, -1000.000000)"/>
<ellipse id="ellipse92" rx="0.300000" ry="0.150000" cx="-1000.000000" cy="-1000.000000" style="stroke-width:0.000000;fill:#44ccee;stroke:none;" transform="rotate(0.000000, -1000.000000, -1000.000000)"/>
<ellipse id="ellipse93" rx="0.300000" ry="0.150000" cx="-1000.000000" cy="-1000.000000" style="stroke-width:0.000000;fill:#44ccee;stroke:none;" transform="rotate(0.000000, -1000.000000, -1000.000000)"/>
<ellipse id="ellipse94" rx="0.300000" ry="0.150000" cx="-1000.000000" cy="-1000.000000" style="stroke-width:0.000000;fill:#44ccee;stroke:none;" transform="rotate(0.000000, -1000.000000, -1000.000000)"/>
<ellipse id="ellipse95" rx="0.300000" ry="0.150000" cx="-1000.000000" cy="-1000.000000" style="stroke-width:0.000000;fill:#44ccee;stroke:none;" transform="rotate(0.000000, -1000.000000, -1000.000000)"/>
<ellipse id="ellipse96" rx="0.300000" ry="0.150000" cx="-1000.000000" cy="-1000.000000" style="stroke-width:0.000000;fill:#44ccee;stroke:none;" transform="rotate(0.000000, -1000.000000, -1000.000000)"/>
<ellipse id="ellipse97" rx="0.300000" ry="0.150000" cx="-1000.000000" cy="-1000.000000" style="stroke-width:0.000000;fill:#44ccee;stroke:none;" transform="rotate(0.000000, -1000.000000, -1000.000000)"/>
<ellipse id="ellipse98" rx="0.300000" ry="0.150000" cx="-1000.000000" cy="-1000.000000" style="stroke-width:0.000000;fill:#44ccee;stroke:none;" transform="rotate(0.000000, -1000.000000, -1000.000000)"/>
<ellipse id="ellipse99" rx="0.300000" ry="0.150000" cx="-1000.000000" cy="-1000.000000" style="stroke-width:0.000000;fill:#44ccee;stroke:none;" transform="rotate(0.000000, -1000.000000, -1000.000000)"/>
<ellipse id="ellipse100" rx="0.300000" ry="0.150000" cx="-1000.000000" cy="-1000.000000" style="stroke-width:0.000000;fill:#44ccee;stroke:none;" transform="rotate(0.000000, -1000.000000, -1000.000000)"/>
<ellipse id="ellipse101" rx="0.300000" ry="0.150000" cx="-1000.000000" cy="-1000.000000" style="stroke-width:0.000000;fill:#44ccee;stroke:none;" transform="rotate(0.000000, -1000.000000, -1000.000000)"/>
<ellipse id="ellipse102" rx="0.300000" ry="0.150000" cx="-1000.000000" cy="-1000.000000" style="stroke-width:0.000000;fill:#44ccee;stroke:none;" transform="rotate(0.000000, -1000.000000, -1000.000000)"/>
<ellipse id="ellipse103" rx="0.300000" ry="0.150000" cx="-1000.000000" cy="-1000.000000" style="stroke-width:0.000000;fill:#44ccee;stroke:none;" transform="rotate(0.000000, -1000.000000, -1000.000000)"/>
<ellipse id="ellipse104" rx="0.300000" ry="0.150000" cx="-1000.000000" cy="-1000.000000" style="stroke-width:0.000000;fill:#44ccee;stroke:none;" transform="rotate(0.000000, -1000.000000, -1000.000000)"/>
<ellipse id="ellipse105" rx="0.300000" ry="0.150000" cx="-1000.000000" cy="-1000.000000" style="stroke-width:0.000000;fill:#44ccee;stroke:none;" transform="rotate(0.000000, -1000.000000, -1000.000000)"/>
<ellipse id="ellipse106" rx="0.300000" ry="0.150000" cx="-1000.000000" cy="-1000.000000" style="stroke-width:0.000000;fill:#44ccee;stroke:none;" transform="rotate(0.000000, -1000.000000, -1000.000000)"/>
<ellipse id="ellipse107" rx="0.300000" ry="0.150000" cx="-1000.000000" cy="-1000.000000" style="stroke-width:0.000000;fill:#44ccee;stroke:none;" transform="rotate(0.000000, -1000.000000, -1000.000000)"/>
<ellipse id="ellipse108" rx="0.300000" ry="0.150000" cx="-1000.000000" cy="-1000.000000" style="stroke-width:0.000000;fill:#44ccee;stroke:none;" transform="rotate(0.000000, -1000.000000, -1000.000000)"/>
<ellipse id="ellipse109" rx="0.300000" ry="0.150000" cx="-1000.000000" cy="-1000.000000" style="stroke-width:0.000000;fill:#44ccee;stroke:none;" transform="rotate(0.000000, -1000.000000, -1000.000000)"/>
<ellipse id="ellipse110" rx="0.300000" ry="0.150000" cx="-1000.000000" cy="-1000.000000" style="stroke-width:0.000000;fill:#44ccee;stroke:none;" transform="rotate(0.000000, -1000.000000, -1000.000000)"/>
<ellipse id="ellipse111" rx="0.300000" ry="0.150000" cx="-1000.000000" cy="-1000.000000" style="stroke-width:0.000000;fill:#44ccee;stroke:none;" transform="rotate(0.000000, -1000.000000, -1000.000000)"/>
<ellipse id="ellipse112" rx="0.300000" ry="0.150000" cx="-1000.000000" cy="-1000.000000" style="stroke-width:0.000000;fill:#44ccee;stroke:none;" transform="rotate(0.000000, -1000.000000, -1000.000000)"/>
<ellipse id="ellipse113" rx="0.300000" ry="0.150000" cx="-1000.000000" cy="-1000.000000" style="stroke-width:0.000000;fill:#44ccee;stroke:none;" transform="rotate(0.000000, -1000.000000, -1000.000000)"/>
<ellipse id="ellipse114" rx="0.300000" ry="0.150000" cx="-1000.000000" cy="-1000.000000" style="stroke-width:0.000000;fill:#44ccee;stroke:none;" transform="rotate(0.000000, -1000.000000, -1000.000000)"/>
<ellipse id="ellipse115" rx="0.300000" ry="0.150000" cx="-1000.000000" cy="-1000.000000" style="stroke-width:0.000000;fill:#44ccee;stroke:none;" transform="rotate(0.000000, -1000.000000, -1000.000000)"/>
<ellipse id="ellipse116" rx="0.300000" ry="0.150000" cx="-1000.000000" cy="-1000.000000" style="stroke-width:0.000000;fill:#44ccee;stroke:none;" transform="rotate(0.000000, -1000.000000, -1000.000000)"/>
<ellipse id="ellipse117" rx="0.300000" ry="0.150000" cx="-1000.000000" cy="-1000.000000" style="stroke-width:0.000000;fill:#44ccee;stroke:none;" transform="rotate(0.000000, -1000.000000, -1000.000000)"/>
<ellipse id="ellipse118" rx="0.300000" ry="0.150000" cx="-1000.000000" cy="-1000.000000" style="stroke-width:0.000000;fill:#44ccee;stroke:none;" transform="rotate(0.000000, -1000.000000, -1000.000000)"/>
<ellipse id="ellipse119" rx="0.300000" ry="0.150000" cx="-1000.000000" cy="-1000.000000" style="stroke-width:0.000000;fill:#44ccee;stroke:none;" transform="rotate(0.000000, -1000.000000, -1000.000000)"/>
<ellipse id="ellipse120" rx="0.300000" ry="0.150000" cx="-1000.000000" cy="-1000.000000" style="stroke-width:0.000000;fill:#44ccee;stroke:none;" transform="rotate(0.000000, -1000.000000, -1000.000000)"/>
<ellipse id="ellipse121" rx="0.300000" ry="0.150000" cx="-1000.000000" cy="-1000.000000" style="stroke-width:0.000000;fill:#44ccee;stroke:none;" transform="rotate(0.000000, -1000.000000, -1000.000000)"/>
<ellipse id="ellipse122" rx="0.300000" ry="0.150000" cx="-1000.000000" cy="-1000.000000" style="stroke-width:0.000000;fill:#44ccee;stroke:none;" transform="rotate(0.000000, -1000.000000, -1000.000000)"/>
<ellipse id="ellipse123" rx="0.300000" ry="0.150000" cx="-1000.000000" cy="-1000.000000" style="stroke-width:0.000000;fill:#44ccee;stroke:none;" transform="rotate(0.000000, -1000.000000, -1000.000000)"/>
<ellipse id="ellipse124" rx="0.300000" ry="0.150000" cx="-1000.000000" cy="-1000.000000" style="stroke-width:0.000000;fill:#44ccee;stroke:none;" transform="rotate(0.000000, -1000.000000, -1000.000000)"/>
<ellipse id="ellipse125" rx="0.300000" ry="0.150000" cx="-1000.000000" cy="-1000.000000" style="stroke-width:0.000000;fill:#44ccee;stroke:none;" transform="rotate(0.000000, -1000.000000, -1000.000000)"/>
<ellipse id="ellipse126" rx="0.300000" ry="0.150000" cx="-1000.000000" cy="-1000.000000" style="stroke-width:0.000000;fill:#44ccee;stroke:none;" transform="rotate(0.000000, -1000.000000, -1000.000000)"/>
<ellipse id="ellipse127" rx="0.300000" ry="0.150000" cx="-1000.000000" cy="-1000.000000" style="stroke-width:0.000000;fill:#44ccee;stroke:none;" transform="rotate(0.000000, -1000.000000, -1000.000000)"/>
<ellipse id="ellipse128" rx="0.300000" ry="0.150000" cx="-1000.000000" cy="-1000.000000" style="stroke-width:0.000000;fill:#44ccee;stroke:none;" transform="rotate(0.000000, -1000.000000, -1000.000000)"/>
<ellipse id="ellipse129" rx="0.300000" ry="0.150000" cx="-1000.000000" cy="-1000.000000" style="stroke-width:0.000000;fill:#44ccee;stroke:none;" transform="rotate(0.000000, -1000.000000, -1000.000000)"/>
<ellipse id="ellipse130" rx="0.300000" ry="0.150000" cx="-1000.000000" cy="-1000.000000" style="stroke-width:0.000000;fill:#44ccee;stroke:none;" transform="rotate(0.000000, -1000.000000, -1000.000000)"/>
<ellipse id="ellipse131" rx="0.300000" ry="0.150000" cx="-1000.000000" cy="-1000.000000" style="stroke-width:0.000000;fill:#44ccee;stroke:none;" transform="rotate(0.000000, -1000.000000, -1000.000000)"/>
<ellipse id="ellipse132" rx="0.300000" ry="0.150000" cx="-1000.000000" cy="-1000.000000" style="stroke-width:0.000000;fill:#44ccee;stroke:none;" transform="rotate(0.000000, -1000.000000, -1000.000000)"/>
<ellipse id="ellipse133" rx="0.300000" ry="0.150000" cx="-1000.000000" cy="-1000.000000" style="stroke-width:0.000000;fill:#44ccee;stroke:none;" transform="rotate(0.000000, -1000.000000, -1000.000000)"/>
<ellipse id="ellipse134" rx="0.300000" ry="0.150000" cx="-1000.000000" cy="-1000.000000" style="stroke-width:0.000000;fill:#44ccee;stroke:none;" transform="rotate(0.000000, -1000.000000, -1000.000000)"/>
<ellipse id="ellipse135" rx="0.300000" ry="0.150000" cx="-1000.000000" cy="-1000.000000" style="stroke-width:0.000000;fill:#44ccee;stroke:none;" transform="rotate(0.000000, -1000.000000, -1000.000000)"/>
<ellipse id="ellipse136" rx="0.300000" ry="0.150000" cx="-1000.000000" cy="-1000.000000" style="stroke-width:0.000000;fill:#44ccee;stroke:none;" transform="rotate(0.000000, -1000.000000, -1000.000000)"/>
<ellipse id="ellipse137" rx="0.300000" ry="0.150000" cx="-1000.000000" cy="-1000.000000" style="stroke-width:0.000000;fill:#44ccee;stroke:none;" transform="rotate(0.000000, -1000.000000, -1000.000000)"/>
<ellipse id="ellipse138" rx="0.300000" ry="0.150000" cx="-1000.000000" cy="-1000.000000" style="stroke-width:0.000000;fill:#44ccee;stroke:none;" transform="rotate(0.000000, -1000.000000, -1000.000000)"/>
<ellipse id="ellipse139" rx="0.300000" ry="0.150000" cx="-1000.000000" cy="-1000.000000" style="stroke-width:0.000000;fill:#44ccee;stroke:none;" transform="rotate(0.000000, -1000.000000, -1000.000000)"/>
<ellipse id="ellipse140" rx="0.300000" ry="0.150000" cx="-1000.000000" cy="-1000.000000" style="stroke-width:0.000000;fill:#44ccee;stroke:none;" transform="rotate(0.000000, -1000.000000, -1000.000000)"/>
<ellipse id="ellipse141" rx="0.300000" ry="0.150000" cx="-1000.000000" cy="-1000.000000" style="stroke-width:0.000000;fill:#44ccee;stroke:none;" transform="rotate(0.000000, -1000.000000, -1000.000000)"/>
<ellipse id="ellipse142" rx="0.300000" ry="0.150000" cx="-1000.000000" cy="-1000.000000" style="stroke-width:0.000000;fill:#44ccee;stroke:none;" transform="rotate(0.000000, -1000.000000, -1000.000000)"/>
<ellipse id="ellipse143" rx="0.300000" ry="0.150000" cx="-1000.000000" cy="-1000.000000" style="stroke-width:0.000000;fill:#44ccee;stroke:none;" transform="rotate(0.000000, -1000.000000, -1000.000000)"/>
<ellipse id="ellipse144" rx="0.300000" ry="0.150000" cx="-1000.000000" cy="-1000.000000" style="stroke-width:0.000000;fill:#44ccee;stroke:none;" transform="rotate(0.000000, -1000.000000, -1000.000000)"/>
<ellipse id="ellipse145" rx="0.300000" ry="0.150000" cx="-1000.000000" cy="-1000.000000" style="stroke-width:0.000000;fill:#44ccee;stroke:none;" transform="rotate(0.000000, -1000.000000, -1000.000000)"/>
<ellipse id="ellipse146" rx="0.300000" ry="0.150000" cx="-1000.000000" cy="-1000.000000" style="stroke-width:0.000000;fill:#44ccee;stroke:none;" transform="rotate(0.000000, -1000.000000, -1000.000000)"/>
<ellipse id="ellipse147" rx="0.300000" ry="0.150000" cx="-1000.000000" cy="-1000.000000" style="stroke-width:0.000000;fill:#44ccee;stroke:none;" transform="rotate(0.000000, -1000.000000, -1000.000000)"/>
<ellipse id="ellipse148" rx="0.300000" ry="0.150000" cx="-1000.000000" cy="-1000.000000" style="stroke-width:0.000000;fill:#44ccee;stroke:none;" transform="rotate(0.000000, -1000.000000, -1000.000000)"/>
<ellipse id="ellipse149" rx="0.300000" ry="0.150000" cx="-1000.000000" cy="-1000.000000" style="stroke-width:0.000000;fill:#44ccee;stroke:none;" transform="rotate(0.000000, -1000.000000, -1000.000000)"/>
<ellipse id="ellipse150" rx="0.300000" ry="0.150000" cx="-1000.000000" cy="-1000.000000" style="stroke-width:0.000000;fill:#44ccee;stroke:none;" transform="rotate(0.000000, -1000.000000, -1000.000000)"/>
<ellipse id="ellipse151" rx="0.300000" ry="0.150000" cx="-1000.000000" cy="-1000.000000" style="stroke-width:0.000000;fill:#44ccee;stroke:none;" transform="rotate(0.000000, -1000.000000, -1000.000000)"/>
<ellipse id="ellipse152" rx="0.300000" ry="0.150000" cx="-1000.000000" cy="-1000.000000" style="stroke-width:0.000000;fill:#44ccee;stroke:none;" transform="rotate(0.000000, -1000.000000, -1000.000000)"/>
<ellipse id="ellipse153" rx="0.300000" ry="0.150000" cx="-1000.000000" cy="-1000.000000" style="stroke-width:0.000000;fill:#44ccee;stroke:none;" transform="rotate(0.000000, -1000.000000, -1000.000000)"/>
<ellipse id="ellipse154" rx="0.300000" ry="0.150000" cx="-1000.000000" cy="-1000.000000" style="stroke-width:0.000000;fill:#44ccee;stroke:none;" transform="rotate(0.000000, -1000.000000, -1000.000000)"/>
<ellipse id="ellipse155" rx="0.300000" ry="0.150000" cx="-1000.000000" cy="-1000.000000" style="stroke-width:0.000000;fill:#44ccee;stroke:none;" transform="rotate(0.000000, -1000.000000, -1000.000000)"/>
<ellipse id="ellipse156" rx="0.300000" ry="0.150000" cx="-1000.000000" cy="-1000.000000" style="stroke-width:0.000000;fill:#44ccee;stroke:none;" transform="rotate(0.000000, -1000.000000, -1000.000000)"/>
<ellipse id="ellipse157" rx="0.300000" ry="0.150000" cx="-1000.000000" cy="-1000.000000" style="stroke-width:0.000000;fill:#44ccee;stroke:none;" transform="rotate(0.000000, -1000.000000, -1000.000000)"/>
<ellipse id="ellipse158" rx="0.300000" ry="0.150000" cx="-1000.000000" cy="-1000.000000" style="stroke-width:0.000000;fill:#44ccee;stroke:none;" transform="rotate(0.000000, -1000.000000, -1000.000000)"/>
<ellipse id="ellipse159" rx="0.300000" ry="0.150000" cx="-1000.000000" cy="-1000.000000" style="stroke-width:0.000000;fill:#44ccee;stroke:none;" transform="rotate(0.000000, -1000.000000, -1000.000000)"/>
<ellipse id="ellipse160" rx="0.300000" ry="0.150000" cx="-1000.000000" cy="-1000.000000" style="stroke-width:0.000000;fill:#44ccee;stroke:none;" transform="rotate(0.000000, -1000.000000, -1000.000000)"/>
<ellipse id="ellipse161" rx="0.300000" ry="0.150000" cx="-1000.000000" cy="-1000.000000" style="stroke-width:0.000000;fill:#44ccee;stroke:none;" transform="rotate(0.000000, -1000.000000, -1000.000000)"/>
<ellipse id="ellipse162" rx="0.300000" ry="0.150000" cx="-1000.000000" cy="-1000.000000" style="stroke-width:0.000000;fill:#44ccee;stroke:none;" transform="rotate(0.000000, -1000.000000, -1000.000000)"/>
<ellipse id="ellipse163" rx="0.300000" ry="0.150000" cx="-1000.000000" cy="-1000.000000" style="stroke-width:0.000000;fill:#44ccee;stroke:none;" transform="rotate(0.000000, -1000.000000, -1000.000000)"/>
<ellipse id="ellipse164" rx="0.300000" ry="0.150000" cx="-1000.000000" cy="-1000.000000" style="stroke-width:0.000000;fill:#44ccee;stroke:none;" transform="rotate(0.000000, -1000.000000, -1000.000000)"/>
<ellipse id="ellipse165" rx="0.300000" ry="0.150000" cx="-1000.000000" cy="-1000.000000" style="stroke-width:0.000000;fill:#44ccee;stroke:none;" transform="rotate(0.000000, -1000.000000, -1000.000000)"/>
<ellipse id="ellipse166" rx="0.300000" ry="0.150000" cx="-1000.000000" cy="-1000.000000" style="stroke-width:0.000000;fill:#44ccee;stroke:none;" transform="rotate(0.000000, -1000.000000, -1000.000000)"/>
<ellipse id="ellipse167" rx="0.300000" ry="0.150000" cx="-1000.000000" cy="-1000.000000" style="stroke-width:0.000000;fill:#44ccee;stroke:none;" transform="rotate(0.000000, -1000.000000, -1000.000000)"/>
<ellipse id="ellipse168" rx="0.300000" ry="0.150000" cx="-1000.000000" cy="-1000.000000" style="stroke-width:0.000000;fill:#44ccee;stroke:none;" transform="rotate(0.000000, -1000.000000, -1000.000000)"/>
<ellipse id="ellipse169" rx="0.300000" ry="0.150000" cx="-1000.000000" cy="-1000.000000" style="stroke-width:0.000000;fill:#44ccee;stroke:none;" transform="rotate(0.000000, -1000.000000, -1000.000000)"/>
<ellipse id="ellipse170" rx="0.300000" ry="0.150000" cx="-1000.000000" cy="-1000.000000" style="stroke-width:0.000000;fill:#44ccee;stroke:none;" transform="rotate(0.000000, -1000.000000, -1000.000000)"/>
<ellipse id="ellipse171" rx="0.300000" ry="0.150000" cx="-1000.000000" cy="-1000.000000" style="stroke-width:0.000000;fill:#44ccee;stroke:none;" transform="rotate(0.000000, -1000.000000, -1000.000000)"/>
<ellipse id="ellipse172" rx="0.300000" ry="0.150000" cx="-1000.000000" cy="-1000.000000" style="stroke-width:0.000000;fill:#44ccee;stroke:none;" transform="rotate(0.000000, -1000.000000, -1000.000000)"/>
<ellipse id="ellipse173" rx="0.300000" ry="0.150000" cx="-1000.000000" cy="-1000.000000" style="stroke-width:0.000000;fill:#44ccee;stroke:none;" transform="rotate(0.000000, -1000.000000, -1000.000000)"/>
<ellipse id="ellipse174" rx="0.300000" ry="0.150000" cx="-1000.000000" cy="-1000.000000" style="stroke-width:0.000000;fill:#44ccee;stroke:none;" transform="rotate(0.000000, -1000.000000, -1000.000000)"/>
<ellipse id="ellipse175" rx="0.300000" ry="0.150000" cx="-1000.000000" cy="-1000.000000" style="stroke-width:0.000000;fill:#44ccee;stroke:none;" transform="rotate(0.000000, -1000.000000, -1000.000000)"/>
<ellipse id="ellipse176" rx="0.300000" ry="0.150000" cx="-1000.000000" cy="-1000.000000" style="stroke-width:0.000000;fill:#44ccee;stroke:none;" transform="rotate(0.000000, -1000.000000, -1000.000000)"/>
<ellipse id="ellipse177" rx="0.300000" ry="0.150000" cx="-1000.000000" cy="-1000.000000" style="stroke-width:0.000000;fill:#44ccee;stroke:none;" transform="rotate(0.000000, -1000.000000, -1000.000000)"/>
<ellipse id="ellipse178" rx="0.300000" ry="0.150000" cx="-0.755848" cy="-1.447687" style="stroke-width:0.000000;fill:#44ccee;stroke:none;" transform="rotate(0.000000, -0.755848, -1.447687)"/>
<ellipse id="ellipse179" rx="0.300000" ry="0.150000" cx="-1000.000000" cy="-1000.000000" style="stroke-width:0.000000;fill:#44ccee;stroke:none;" transform="rotate(0.000000, -1000.000000, -1000.000000)"/>
<ellipse id="ellipse180" rx="0.300000" ry="0.150000" cx="-1000.000000" cy="-1000.000000" style="stroke-width:0.000000;fill:#44ccee;stroke:none;" transform="rotate(0.000000, -1000.000000, -1000.000000)"/>
<ellipse id="ellipse181" rx="0.300000" ry="0.150000" cx="-1000.000000" cy="-1000.000000" style="stroke-width:0.000000;fill:#44ccee;stroke:none;" transform="rotate(0.000000, -1000.000000, -1000.000000)"/>
<ellipse id="ellipse182" rx="0.300000" ry="0.150000" cx="-1000.000000" cy="-1000.000000" style="stroke-width:0.000000;fill:#44ccee;stroke:none;" transform="rotate(0.000000, -1000.000000, -1000.000000)"/>
<ellipse id="ellipse183" rx="0.300000" ry="0.150000" cx="-1000.000000" cy="-1000.000000" style="stroke-width:0.000000;fill:#44ccee;stroke:none;" transform="rotate(0.000000, -1000.000000, -1000.000000)"/>
<ellipse id="ellipse184" rx="0.300000" ry="0.150000" cx="-1000.000000" cy="-1000.000000" style="stroke-width:0.000000;fill:#44ccee;stroke:none;" transform="rotate(0.000000, -1000.000000, -1000.000000)"/>
<ellipse id="ellipse185" rx="0.300000" ry="0.150000" cx="-1000.000000" cy="-1000.000000" style="stroke-width:0.000000;fill:#44ccee;stroke:none;" transform="rotate(0.000000, -1000.000000, -1000.000000)"/>
<ellipse id="ellipse186" rx="0.300000" ry="0.150000" cx="-1000.000000" cy="-1000.000000" style="stroke-width:0.000000;fill:#44ccee;stroke:none;" transform="rotate(0.000000, -1000.000000, -1000.000000)"/>
<ellipse id="ellipse187" rx="0.300000" ry="0.150000" cx="-1000.000000" cy="-1000.000000" style="stroke-width:0.000000;fill:#44ccee;stroke:none;" transform="rotate(0.000000, -1000.000000, -1000.000000)"/>
<ellipse id="ellipse188" rx="0.300000" ry="0.150000" cx="-1000.000000" cy="-1000.000000" style="stroke-width:0.000000;fill:#44ccee;stroke:none;" transform="rotate(0.000000, -1000.000000, -1000.000000)"/>
<ellipse id="ellipse189" rx="0.300000" ry="0.150000" cx="-1000.000000" cy="-1000.000000" style="stroke-width:0.000000;fill:#44ccee;stroke:none;" transform="rotate(0.000000, -1000.000000, -1000.000000)"/>
<ellipse id="ellipse190" rx="0.300000" ry="0.150000" cx="-1000.000000" cy="-1000.000000" style="stroke-width:0.000000;fill:#44ccee;stroke:none;" transform="rotate(0.000000, -1000.000000, -1000.000000)"/>
<ellipse id="ellipse191" rx="0.300000" ry="0.150000" cx="-1000.000000" cy="-1000.000000" style="stroke-width:0.000000;fill:#44ccee;stroke:none;" transform="rotate(0.000000, -1000.000000, -1000.000000)"/>
<ellipse id="ellipse192" rx="0.300000" ry="0.150000" cx="-1000.000000" cy="-1000.000000" style="stroke-width:0.000000;fill:#44ccee;stroke:none;" transform="rotate(0.000000, -1000.000000, -1000.000000)"/>
<ellipse id="ellipse193" rx="0.300000" ry="0.150000" cx="-1000.000000" cy="-1000.000000" style="stroke-width:0.000000;fill:#44ccee;stroke:none;" transform="rotate(0.000000, -1000.000000, -1000.000000)"/>
<ellipse id="ellipse194" rx="0.300000" ry="0.150000" cx="-1000.000000" cy="-1000.000000" style="stroke-width:0.000000;fill:#44ccee;stroke:none;" transform="rotate(0.000000, -1000.000000, -1000.000000)"/>
<ellipse id="ellipse195" rx="0.300000" ry="0.150000" cx="-1000.000000" cy="-1000.000000" style="stroke-width:0.000000;fill:#44ccee;stroke:none;" transform="rotate(0.000000, -1000.000000, -1000.000000)"/>
<ellipse id="ellipse196" rx="0.300000" ry="0.150000" cx="-1000.000000" cy="-1000.000000" style="stroke-width:0.000000;fill:#44ccee;stroke:none;" transform="rotate(0.000000, -1000.000000, -1000.000000)"/>
<ellipse id="ellipse197" rx="0.300000" ry="0.150000" cx="-1000.000000" cy="-1000.000000" style="stroke-width:0.000000;fill:#44ccee;stroke:none;" transform="rotate(0.000000, -1000.000000, -1000.000000)"/>
<ellipse id="ellipse198" rx="0.300000" ry="0.150000" cx="-1000.000000" cy="-1000.000000" style="stroke-width:0.000000;fill:#44ccee;stroke:none;" transform="rotate(0.000000, -1000.000000, -1000.000000)"/>
<ellipse id="ellipse199" rx="0.300000" ry="0.150000" cx="-1000.000000" cy="-1000.000000" style="stroke-width:0.000000;fill:#44ccee;stroke:none;" transform="rotate(0.000000, -1000.000000, -1000.000000)"/>
<ellipse id="ellipse200" rx="0.300000" ry="0.150000" cx="-1000.000000" cy="-1000.000000" style="stroke-width:0.000000;fill:#44ccee;stroke:none;" transform="rotate(0.000000, -1000.000000, -1000.000000)"/>
<ellipse id="ellipse201" rx="0.300000" ry="0.150000" cx="-1000.000000" cy="-1000.000000" style="stroke-width:0.000000;fill:#44ccee;stroke:none;" transform="rotate(0.000000, -1000.000000, -1000.000000)"/>
<ellipse id="ellipse202" rx="0.300000" ry="0.150000" cx="-1000.000000" cy="-1000.000000" style="stroke-width:0.000000;fill:#44ccee;stroke:none;" transform="rotate(0.000000, -1000.000000, -1000.000000)"/>
<ellipse id="ellipse203" rx="0.300000" ry="0.150000" cx="-1000.000000" cy="-1000.000000" style="stroke-width:0.000000;fill:#44ccee;stroke:none;" transform="rotate(0.000000, -1000.000000, -1000.000000)"/>
<ellipse id="ellipse204" rx="0.300000" ry="0.150000" cx="-1000.000000" cy="-1000.000000" style="stroke-width:0.000000;fill:#44ccee;stroke:none;" transform="rotate(0.000000, -1000.000000, -1000.000000)"/>
<ellipse id="ellipse205" rx="0.300000" ry="0.150000" cx="-1000.000000" cy="-1000.000000" style="stroke-width:0.000000;fill:#44ccee;stroke:none;" transform="rotate(0.000000, -1000.000000, -1000.000000)"/>
<ellipse id="ellipse206" rx="0.300000" ry="0.150000" cx="-1000.000000" cy="-1000.000000" style="stroke-width:0.000000;fill:#44ccee;stroke:none;" transform="rotate(0.000000, -1000.000000, -1000.000000)"/>
<ellipse id="ellipse207" rx="0.300000" ry="0.150000" cx="-1000.000000" cy="-1000.000000" style="stroke-width:0.000000;fill:#44ccee;stroke:none;" transform="rotate(0.000000, -1000.000000, -1000.000000)"/>
<ellipse id="ellipse208" rx="0.300000" ry="0.150000" cx="-1000.000000" cy="-1000.000000" style="stroke-width:0.000000;fill:#44ccee;stroke:none;" transform="rotate(0.000000, -1000.000000, -1000.000000)"/>
<ellipse id="ellipse209" rx="0.300000" ry="0.150000" cx="-1000.000000" cy="-1000.000000" style="stroke-width:0.000000;fill:#44ccee;stroke:none;" transform="rotate(0.000000, -1000.000000, -1000.000000)"/>
<ellipse id="ellipse210" rx="0.300000" ry="0.150000" cx="-1000.000000" cy="-1000.000000" style="stroke-width:0.000000;fill:#44ccee;stroke:none;" transform="rotate(0.000000, -1000.000000, -1000.000000)"/>
<ellipse id="ellipse211" rx="0.300000" ry="0.150000" cx="-1000.000000" cy="-1000.000000" style="stroke-width:0.000000;fill:#44ccee;stroke:none;" transform="rotate(0.000000, -1000.000000, -1000.000000)"/>
<ellipse id="ellipse212" rx="0.300000" ry="0.150000" cx="-1000.000000" cy="-1000.000000" style="stroke-width:0.000000;fill:#44ccee;stroke:none;" transform="rotate(0.000000, -1000.000000, -1000.000000)"/>
<ellipse id="ellipse213" rx="0.300000" ry="0.150000" cx="-1000.000000" cy="-1000.000000" style="stroke-width:0.000000;fill:#44ccee;stroke:none;" transform="rotate(0.000000, -1000.000000, -1000.000000)"/>
<ellipse id="ellipse214" rx="0.300000" ry="0.150000" cx="-1000.000000" cy="-1000.000000" style="stroke-width:0.000000;fill:#44ccee;stroke:none;" transform="rotate(0.000000, -1000.000000, -1000.000000)"/>
<ellipse id="ellipse215" rx="0.300000" ry="0.150000" cx="-1000.000000" cy="-1000.000000" style="stroke-width:0.000000;fill:#44ccee;stroke:none;" transform="rotate(0.000000, -1000.000000, -1000.000000)"/>
<ellipse id="ellipse216" rx="0.300000" ry="0.150000" cx="-1000.000000" cy="-1000.000000" style="stroke-width:0.000000;fill:#44ccee;stroke:none;" transform="rotate(0.000000, -1000.000000, -1000.000000)"/>
<ellipse id="ellipse217" rx="0.300000" ry="0.150000" cx="-1000.000000" cy="-1000.000000" style="stroke-width:0.000000;fill:#44ccee;stroke:none;" transform="rotate(0.000000, -1000.000000, -1000.000000)"/>
<ellipse id="ellipse218" rx="0.300000" ry="0.150000" cx="-1000.000000" cy="-1000.000000" style="stroke-width:0.000000;fill:#44ccee;stroke:none;" transform="rotate(0.000000, -1000.000000, -1000.000000)"/>
<ellipse id="ellipse219" rx="0.300000" ry="0.150000" cx="-1000.000000" cy="-1000.000000" style="stroke-width:0.000000;fill:#44ccee;stroke:none;" transform="rotate(0.000000, -1000.000000, -1000.000000)"/>
<ellipse id="ellipse220" rx="0.300000" ry="0.150000" cx="-1000.000000" cy="-1000.000000" style="stroke-width:0.000000;fill:#44ccee;stroke:none;" transform="rotate(0.000000, -1000.000000, -1000.000000)"/>
<ellipse id="ellipse221" rx="0.300000" ry="0.150000" cx="-1000.000000" cy="-1000.000000" style="stroke-width:0.000000;fill:#44ccee;stroke:none;" transform="rotate(0.000000, -1000.000000, -1000.000000)"/>
<ellipse id="ellipse222" rx="0.300000" ry="0.150000" cx="-1000.000000" cy="-1000.000000" style="stroke-width:0.000000;fill:#44ccee;stroke:none;" transform="rotate(0.000000, -1000.000000, -1000.000000)"/>
<ellipse id="ellipse223" rx="0.300000" ry="0.150000" cx="-1000.000000" cy="-1000.000000" style="stroke-width:0.000000;fill:#44ccee;stroke:none;" transform="rotate(0.000000, -1000.000000, -1000.000000)"/>
<ellipse id="ellipse224" rx="0.300000" ry="0.150000" cx="-1000.000000" cy="-1000.000000" style="stroke-width:0.000000;fill:#44ccee;stroke:none;" transform="rotate(0.000000, -1000.000000, -1000.000000)"/>
<ellipse id="ellipse225" rx="0.300000" ry="0.150000" cx="-1000.000000" cy="-1000.000000" style="stroke-width:0.000000;fill:#44ccee;stroke:none;" transform="rotate(0.000000, -1000.000000, -1000.000000)"/>
<ellipse id="ellipse226" rx="0.300000" ry="0.150000" cx="-1000.000000" cy="-1000.000000" style="stroke-width:0.000000;fill:#44ccee;stroke:none;" transform="rotate(0.000000, -1000.000000, -1000.000000)"/>
<ellipse id="ellipse227" rx="0.300000" ry="0.150000" cx="-1000.000000" cy="-1000.000000" style="stroke-width:0.000000;fill:#44ccee;stroke:none;" transform="rotate(0.000000, -1000.000000, -1000.000000)"/>
<ellipse id="ellipse228" rx="0.300000" ry="0.150000" cx="-1000.000000" cy="-1000.000000" style="stroke-width:0.000000;fill:#44ccee;stroke:none;" transform="rotate(0.000000, -1000.000000, -1000.000000)"/>
<ellipse id="ellipse229" rx="0.300000" ry="0.150000" cx="-1000.000000" cy="-1000.000000" style="stroke-width:0.000000;fill:#44ccee;stroke:none;" transform="rotate(0.000000, -1000.000000, -1000.000000)"/>
<ellipse id="ellipse230" rx="0.300000" ry="0.150000" cx="-1000.000000" cy="-1000.000000" style="stroke-width:0.000000;fill:#44ccee;stroke:none;" transform="rotate(0.000000, -1000.000000, -1000.000000)"/>
<ellipse id="ellipse231" rx="0.300000" ry="0.150000" cx="-1000.000000" cy="-1000.000000" style="stroke-width:0.000000;fill:#44ccee;stroke:none;" transform="rotate(0.000000, -1000.000000, -1000.000000)"/>
<ellipse id="ellipse232" rx="0.300000" ry="0.150000" cx="-1000.000000" cy="-1000.000000" style="stroke-width:0.000000;fill:#44ccee;stroke:none;" transform="rotate(0.000000, -1000.000000, -1000.000000)"/>
<ellipse id="ellipse233" rx="0.300000" ry="0.150000" cx="-1000.000000" cy="-1000.000000" style="stroke-width:0.000000;fill:#44ccee;stroke:none;" transform="rotate(0.000000, -1000.000000, -1000.000000)"/>
<ellipse id="ellipse234" rx="0.300000" ry="0.150000" cx="-1000.000000" cy="-1000.000000" style="stroke-width:0.000000;fill:#44ccee;stroke:none;" transform="rotate(0.000000, -1000.000000, -1000.000000)"/>
<ellipse id="ellipse235" rx="0.300000" ry="0.150000" cx="-1000.000000" cy="-1000.000000" style="stroke-width:0.000000;fill:#44ccee;stroke:none;" transform="rotate(0.000000, -1000.000000, -1000.000000)"/>
<ellipse id="ellipse236" rx="0.300000" ry="0.150000" cx="-1000.000000" cy="-1000.000000" style="stroke-width:0.000000;fill:#44ccee;stroke:none;" transform="rotate(0.000000, -1000.000000, -1000.000000)"/>
<ellipse id="ellipse237" rx="0.300000" ry="0.150000" cx="-1000.000000" cy="-1000.000000" style="stroke-width:0.000000;fill:#44ccee;stroke:none;" transform="rotate(0.000000, -1000.000000, -1000.000000)"/>
<ellipse id="ellipse238" rx="0.300000" ry="0.150000" cx="-1000.000000" cy="-1000.000000" style="stroke-width:0.000000;fill:#44ccee;stroke:none;" transform="rotate(0.000000, -1000.000000, -1000.000000)"/>
<ellipse id="ellipse239" rx="0.300000" ry="0.150000" cx="-1000.000000" cy="-1000.000000" style="stroke-width:0.000000;fill:#44ccee;stroke:none;" transform="rotate(0.000000, -1000.000000, -1000.000000)"/>
<ellipse id="ellipse240" rx="0.300000" ry="0.150000" cx="-1000.000000" cy="-1000.000000" style="stroke-width:0.000000;fill:#44ccee;stroke:none;" transform="rotate(0.000000, -1000.000000, -1000.000000)"/>
<ellipse id="ellipse241" rx="0.300000" ry="0.150000" cx="-1000.000000" cy="-1000.000000" style="stroke-width:0.000000;fill:#44ccee;stroke:none;" transform="rotate(0.000000, -1000.000000, -1000.000000)"/>
<ellipse id="ellipse242" rx="0.300000" ry="0.150000" cx="-1000.000000" cy="-1000.000000" style="stroke-width:0.000000;fill:#44ccee;stroke:none;" transform="rotate(0.000000, -1000.000000, -1000.000000)"/>
<ellipse id="ellipse243" rx="0.300000" ry="0.150000" cx="-1000.000000" cy="-1000.000000" style="stroke-width:0.000000;fill:#44ccee;stroke:none;" transform="rotate(0.000000, -1000.000000, -1000.000000)"/>
<ellipse id="ellipse244" rx="0.300000" ry="0.150000" cx="-1000.000000" cy="-1000.000000" style="stroke-width:0.000000;fill:#44ccee;stroke:none;" transform="rotate(0.000000, -1000.000000, -1000.000000)"/>
<ellipse id="ellipse245" rx="0.300000" ry="0.150000" cx="-1000.000000" cy="-1000.000000" style="stroke-width:0.000000;fill:#44ccee;stroke:none;" transform="rotate(0.000000, -1000.000000, -1000.000000)"/>
<ellipse id="ellipse246" rx="0.300000" ry="0.150000" cx="-1000.000000" cy="-1000.000000" style="stroke-width:0.000000;fill:#44ccee;stroke:none;" transform="rotate(0.000000, -1000.000000, -1000.000000)"/>
<ellipse id="ellipse247" rx="0.300000" ry="0.150000" cx="-1000.000000" cy="-1000.000000" style="stroke-width:0.000000;fill:#44ccee;stroke:none;" transform="rotate(0.000000, -1000.000000, -1000.000000)"/>
<ellipse id="ellipse248" rx="0.300000" ry="0.150000" cx="-1000.000000" cy="-1000.000000" style="stroke-width:0.000000;fill:#44ccee;stroke:none;" transform="rotate(0.000000, -1000.000000, -1000.000000)"/>
<ellipse id="ellipse249" rx="0.300000" ry="0.150000" cx="-1000.000000" cy="-1000.000000" style="stroke-width:0.000000;fill:#44ccee;stroke:none;" transform="rotate(0.000000, -1000.000000, -1000.000000)"/>
<ellipse id="ellipse250" rx="0.300000" ry="0.150000" cx="-1000.000000" cy="-1000.000000" style="stroke-width:0.000000;fill:#44ccee;stroke:none;" transform="rotate(0.000000, -1000.000000, -1000.000000)"/>
<ellipse id="ellipse251" rx="0.300000" ry="0.150000" cx="-1000.000000" cy="-1000.000000" style="stroke-width:0.000000;fill:#44ccee;stroke:none;" transform="rotate(0.000000, -1000.000000, -1000.000000)"/>
<ellipse id="ellipse252" rx="0.300000" ry="0.150000" cx="-1000.000000" cy="-1000.000000" style="stroke-width:0.000000;fill:#44ccee;stroke:none;" transform="rotate(0.000000, -1000.000000, -1000.000000)"/>
<ellipse id="ellipse253" rx="0.300000" ry="0.150000" cx="-1000.000000" cy="-1000.000000" style="stroke-width:0.000000;fill:#44ccee;stroke:none;" transform="rotate(0.000000, -1000.000000, -1000.000000)"/>
<ellipse id="ellipse254" rx="0.300000" ry="0.150000" cx="-1000.000000" cy="-1000.000000" style="stroke-width:0.000000;fill:#44ccee;stroke:none;" transform="rotate(0.000000, -1000.000000, -1000.000000)"/>
<ellipse id="ellipse255" rx="0.300000" ry="0.150000" cx="-1000.000000" cy="-1000.000000" style="stroke-width:0.000000;fill:#44ccee;stroke:none;" transform="rotate(0.000000, -1000.000000, -1000.000000)"/>
<ellipse id="ellipse256" rx="0.300000" ry="0.150000" cx="-1000.000000" cy="-1000.000000" style="stroke-width:0.000000;fill:#44ccee;stroke:none;" transform="rotate(0.000000, -1000.000000, -1000.000000)"/>
<ellipse id="ellipse257" rx="0.300000" ry="0.150000" cx="0.927584" cy="-1.585502" style="stroke-width:0.000000;fill:#44ccee;stroke:none;" transform="rotate(0.000000, 0.927584, -1.585502)"/>
<ellipse id="ellipse258" rx="0.300000" ry="0.150000" cx="-1000.000000" cy="-1000.000000" style="stroke-width:0.000000;fill:#44ccee;stroke:none;" transform="rotate(0.000000, -1000.000000, -1000.000000)"/>
<ellipse id="ellipse259" rx="0.300000" ry="0.150000" cx="-1000.000000" cy="-1000.000000" style="stroke-width:0.000000;fill:#44ccee;stroke:none;" transform="rotate(0.000000, -1000.000000, -1000.000000)"/>
<ellipse id="ellipse260" rx="0.300000" ry="0.150000" cx="-1000.000000" cy="-1000.000000" style="stroke-width:0.000000;fill:#44ccee;stroke:none;" transform="rotate(0.000000, -1000.000000, -1000.000000)"/>
<ellipse id="ellipse261" rx="0.300000" ry="0.150000" cx="-1000.000000" cy="-1000.000000" style="stroke-width:0.000000;fill:#44ccee;stroke:none;" transform="rotate(0.000000, -1000.000000, -1000.000000)"/>
<ellipse id="ellipse262" rx="0.300000" ry="0.150000" cx="-1000.000000" cy="-1000.000000" style="stroke-width:0.000000;fill:#44ccee;stroke:none;" transform="rotate(0.000000, -1000.000000, -1000.000000)"/>
<ellipse id="ellipse263" rx="0.300000" ry="0.150000" cx="-1000.000000" cy="-1000.000000" style="stroke-width:0.000000;fill:#44ccee;stroke:none;" transform="rotate(0.000000, -1000.000000, -1000.000000)"/>
<ellipse id="ellipse264" rx="0.300000" ry="0.150000" cx="-1000.000000" cy="-1000.000000" style="stroke-width:0.000000;fill:#44ccee;stroke:none;" transform="rotate(0.000000, -1000.000000, -1000.000000)"/>
<ellipse id="ellipse265" rx="0.300000" ry="0.150000" cx="-1000.000000" cy="-1000.000000" style="stroke-width:0.000000;fill:#44ccee;stroke:none;" transform="rotate(0.000000, -1000.000000, -1000.000000)"/>
<ellipse id="ellipse266" rx="0.300000" ry="0.150000" cx="-1000.000000" cy="-1000.000000" style="stroke-width:0.000000;fill:#44ccee;stroke:none;" transform="rotate(0.000000, -1000.000000, -1000.000000)"/>
<ellipse id="ellipse267" rx="0.300000" ry="0.150000" cx="-1000.000000" cy="-1000.000000" style="stroke-width:0.000000;fill:#44ccee;stroke:none;" transform="rotate(0.000000, -1000.000000, -1000.000000)"/>
<ellipse id="ellipse268" rx="0.300000" ry="0.150000" cx="-1000.000000" cy="-1000.000000" style="stroke-width:0.000000;fill:#44ccee;stroke:none;" transform="rotate(0.000000, -1000.000000, -1000.000000)"/>
<ellipse id="ellipse269" rx="0.300000" ry="0.150000" cx="-1000.000000" cy="-1000.000000" style="stroke-width:0.000000;fill:#44ccee;stroke:none;" transform="rotate(0.000000, -1000.000000, -1000.000000)"/>
<ellipse id="ellipse270" rx="0.300000" ry="0.150000" cx="-1000.000000" cy="-1000.000000" style="stroke-width:0.000000;fill:#44ccee;stroke:none;" transform="rotate(0.000000, -1000.000000, -1000.000000)"/>
<ellipse id="ellipse271" rx="0.300000" ry="0.150000" cx="-1000.000000" cy="-1000.000000" style="stroke-width:0.000000;fill:#44ccee;stroke:none;" transform="rotate(0.000000, -1000.000000, -1000.000000)"/>
<ellipse id="ellipse272" rx="0.300000" ry="0.150000" cx="-1000.000000" cy="-1000.000000" style="stroke-width:0.000000;fill:#44ccee;stroke:none;" transform="rotate(0.000000, -1000.000000, -1000.000000)"/>
<ellipse id="ellipse273" rx="0.300000" ry="0.150000" cx="-1000.000000" cy="-1000.000000" style="stroke-width:0.000000;fill:#44ccee;stroke:none;" transform="rotate(0.000000, -1000.000000, -1000.000000)"/>
<ellipse id="ellipse274" rx="0.300000" ry="0.150000" cx="-1000.000000" cy="-1000.000000" style="stroke-width:0.000000;fill:#44ccee;stroke:none;" transform="rotate(0.000000, -1000.000000, -1000.000000)"/>
<ellipse id="ellipse275" rx="0.300000" ry="0.150000" cx="-1000.000000" cy="-1000.000000" style="stroke-width:0.000000;fill:#44ccee;stroke:none;" transform="rotate(0.000000, -1000.000000, -1000.000000)"/>
<ellipse id="ellipse276" rx="0.300000" ry="0.150000" cx="-1000.000000" cy="-1000.000000" style="stroke-width:0.000000;fill:#44ccee;stroke:none;" transform="rotate(0.000000, -1000.000000, -1000.000000)"/>
<ellipse id="ellipse277" rx="0.300000" ry="0.150000" cx="-1000.000000" cy="-1000.000000" style="stroke-width:0.000000;fill:#44ccee;stroke:none;" transform="rotate(0.000000, -1000.000000, -1000.000000)"/>
<ellipse id="ellipse278" rx="0.300000" ry="0.150000" cx="-1000.000000" cy="-1000.000000" style="stroke-width:0.000000;fill:#44ccee;stroke:none;" transform="rotate(0.000000, -1000.000000, -1000.000000)"/>
<ellipse id="ellipse279" rx="0.300000" ry="0.150000" cx="-1000.000000" cy="-1000.000000" style="stroke-width:0.000000;fill:#44ccee;stroke:none;" transform="rotate(0.000000, -1000.000000, -1000.000000)"/>
<ellipse id="ellipse280" rx="0.300000" ry="0.150000" cx="-1000.000000" cy="-1000.000000" style="stroke-width:0.000000;fill:#44ccee;stroke:none;" transform="rotate(0.000000, -1000.000000, -1000.000000)"/>
<ellipse id="ellipse281" rx="0.300000" ry="0.150000" cx="-1000.000000" cy="-1000.000000" style="stroke-width:0.000000;fill:#44ccee;stroke:none;" transform="rotate(0.000000, -1000.000000, -1000.000000)"/>
<ellipse id="ellipse282" rx="0.300000" ry="0.150000" cx="-1000.000000" cy="-1000.000000" style="stroke-width:0.000000;fill:#44ccee;stroke:none;" transform="rotate(0.000000, -1000.000000, -1000.000000)"/>
<ellipse id="ellipse283" rx="0.300000" ry="0.150000" cx="-1000.000000" cy="-1000.000000" style="stroke-width:0.000000;fill:#44ccee;stroke:none;" transform="rotate(0.000000, -1000.000000, -1000.000000)"/>
<ellipse id="ellipse284" rx="0.300000" ry="0.150000" cx="-1000.000000" cy="-1000.000000" style="stroke-width:0.000000;fill:#44ccee;stroke:none;" transform="rotate(0.000000, -1000.000000, -1000.000000)"/>
<ellipse id="ellipse285" rx="0.300000" ry="0.150000" cx="-1000.000000" cy="-1000.000000" style="stroke-width:0.000000;fill:#44ccee;stroke:none;" transform="rotate(0.000000, -1000.000000, -1000.000000)"/>
<ellipse id="ellipse286" rx="0.300000" ry="0.150000" cx="-1000.000000" cy="-1000.000000" style="stroke-width:0.000000;fill:#44ccee;stroke:none;" transform="rotate(0.000000, -1000.000000, -1000.000000)"/>
<ellipse id="ellipse287" rx="0.300000" ry="0.150000" cx="-1000.000000" cy="-1000.000000" style="stroke-width:0.000000;fill:#44ccee;stroke:none;" transform="rotate(0.000000, -1000.000000, -1000.000000)"/>
<ellipse id="ellipse288" rx="0.300000" ry="0.150000" cx="-1000.000000" cy="-1000.000000" style="stroke-width:0.000000;fill:#44ccee;stroke:none;" transform="rotate(0.000000, -1000.000000, -1000.000000)"/>
<ellipse id="ellipse289" rx="0.300000" ry="0.150000" cx="-1000.000000" cy="-1000.000000" style="stroke-width:0.000000;fill:#44ccee;stroke:none;" transform="rotate(0.000000, -1000.000000, -1000.000000)"/>
<ellipse id="ellipse290" rx="0.300000" ry="0.150000" cx="-1000.000000" cy="-1000.000000" style="stroke-width:0.000000;fill:#44ccee;stroke:none;" transform="rotate(0.000000, -1000.000000, -1000.000000)"/>
<ellipse id="ellipse291" rx="0.300000" ry="0.150000" cx="-1000.000000" cy="-1000.000000" style="stroke-width:0.000000;fill:#44ccee;stroke:none;" transform="rotate(0.000000, -1000.000000, -1000.000000)"/>
<ellipse id="ellipse292" rx="0.300000" ry="0.150000" cx="-1000.000000" cy="-1000.000000" style="stroke-width:0.000000;fill:#44ccee;stroke:none;" transform="rotate(0.000000, -1000.000000, -1000.000000)"/>
<ellipse id="ellipse293" rx="0.300000" ry="0.150000" cx="-1000.000000" cy="-1000.000000" style="stroke-width:0.000000;fill:#44ccee;stroke:none;" transform="rotate(0.000000, -1000.000000, -1000.000000)"/>
<ellipse id="ellipse294" rx="0.300000" ry="0.150000" cx="-1000.000000" cy="-1000.000000" style="stroke-width:0.000000;fill:#44ccee;stroke:none;" transform="rotate(0.000000, -1000.000000, -1000.000000)"/>
<ellipse id="ellipse295" rx="0.300000" ry="0.150000" cx="-1000.000000" cy="-1000.000000" style="stroke-width:0.000000;fill:#44ccee;stroke:none;" transform="rotate(0.000000, -1000.000000, -1000.000000)"/>
<ellipse id="ellipse296" rx="0.300000" ry="0.150000" cx="-1000.000000" cy="-1000.000000" style="stroke-width:0.000000;fill:#44ccee;stroke:none;" transform="rotate(0.000000, -1000.000000, -1000.000000)"/>
<ellipse id="ellipse297" rx="0.300000" ry="0.150000" cx="-1000.000000" cy="-1000.000000" style="stroke-width:0.000000;fill:#44ccee;stroke:none;" transform="rotate(0.000000, -1000.000000, -1000.000000)"/>
<ellipse id="ellipse298" rx="0.300000" ry="0.150000" cx="-1000.000000" cy="-1000.000000" style="stroke-width:0.000000;fill:#44ccee;stroke:none;" transform="rotate(0.000000, -1000.000000, -1000.000000)"/>
<ellipse id="ellipse299" rx="0.300000" ry="0.150000" cx="-1000.000000" cy="-1000.000000" style="stroke-width:0.000000;fill:#44ccee;stroke:none;" transform="rotate(0.000000, -1000.000000, -1000.000000)"/>
<ellipse id="ellipse300" rx="0.300000" ry="0.150000" cx="-1000.000000" cy="-1000.000000" style="stroke-width:0.000000;fill:#44ccee;stroke:none;" transform="rotate(0.000000, -1000.000000, -1000.000000)"/>
<ellipse id="ellipse301" rx="0.300000" ry="0.150000" cx="-1000.000000" cy="-1000.000000" style="stroke-width:0.000000;fill:#44ccee;stroke:none;" transform="rotate(0.000000, -1000.000000, -1000.000000)"/>
<ellipse id="ellipse302" rx="0.300000" ry="0.150000" cx="-1000.000000" cy="-1000.000000" style="stroke-width:0.000000;fill:#44ccee;stroke:none;" transform="rotate(0.000000, -1000.000000, -1000.000000)"/>
<ellipse id="ellipse303" rx="0.300000" ry="0.150000" cx="-1000.000000" cy="-1000.000000" style="stroke-width:0.000000;fill:#44ccee;stroke:none;" transform="rotate(0.000000, -1000.000000, -1000.000000)"/>
<ellipse id="ellipse304" rx="0.300000" ry="0.150000" cx="-1000.000000" cy="-1000.000000" style="stroke-width:0.000000;fill:#44ccee;stroke:none;" transform="rotate(0.000000, -1000.000000, -1000.000000)"/>
<ellipse id="ellipse305" rx="0.300000" ry="0.150000" cx="-1000.000000" cy="-1000.000000" style="stroke-width:0.000000;fill:#44ccee;stroke:none;" transform="rotate(0.000000, -1000.000000, -1000.000000)"/>
<ellipse id="ellipse306" rx="0.300000" ry="0.150000" cx="-1000.000000" cy="-1000.000000" style="stroke-width:0.000000;fill:#44ccee;stroke:none;" transform="rotate(0.000000, -1000.000000, -1000.000000)"/>
<ellipse id="ellipse307" rx="0.300000" ry="0.150000" cx="-1000.000000" cy="-1000.000000" style="stroke-width:0.000000;fill:#44ccee;stroke:none;" transform="rotate(0.000000, -1000.000000, -1000.000000)"/>
<ellipse id="ellipse308" rx="0.300000" ry="0.150000" cx="-1000.000000" cy="-1000.000000" style="stroke-width:0.000000;fill:#44ccee;stroke:none;" transform="rotate(0.000000, -1000.000000, -1000.000000)"/>
<ellipse id="ellipse309" rx="0.300000" ry="0.150000" cx="-1000.000000" cy="-1000.000000" style="stroke-width:0.000000;fill:#44ccee;stroke:none;" transform="rotate(0.000000, -1000.000000, -1000.000000)"/>
<ellipse id="ellipse310" rx="0.300000" ry="0.150000" cx="-1000.000000" cy="-1000.000000" style="stroke-width:0.000000;fill:#44ccee;stroke:none;" transform="rotate(0.000000, -1000.000000, -1000.000000)"/>
<ellipse id="ellipse311" rx="0.300000" ry="0.150000" cx="-1000.000000" cy="-1000.000000" style="stroke-width:0.000000;fill:#44ccee;stroke:none;" transform="rotate(0.000000, -1000.000000, -1000.000000)"/>
<ellipse id="ellipse312" rx="0.300000" ry="0.150000" cx="-1000.000000" cy="-1000.000000" style="stroke-width:0.000000;fill:#44ccee;stroke:none;" transform="rotate(0.000000, -1000.000000, -1000.000000)"/>
<ellipse id="ellipse313" rx="0.300000" ry="0.150000" cx="-1000.000000" cy="-1000.000000" style="stroke-width:0.000000;fill:#44ccee;stroke:none;" transform="rotate(0.000000, -1000.000000, -1000.000000)"/>
<ellipse id="ellipse314" rx="0.300000" ry="0.150000" cx="-1000.000000" cy="-1000.000000" style="stroke-width:0.000000;fill:#44ccee;stroke:none;" transform="rotate(0.000000, -1000.000000, -1000.000000)"/>
<ellipse id="ellipse315" rx="0.300000" ry="0.150000" cx="-1000.000000" cy="-1000.000000" style="stroke-width:0.000000;fill:#44ccee;stroke:none;" transform="rotate(0.000000, -1000.000000, -1000.000000)"/>
<ellipse id="ellipse316" rx="0.300000" ry="0.150000" cx="-1000.000000" cy="-1000.000000" style="stroke-width:0.000000;fill:#44ccee;stroke:none;" transform="rotate(0.000000, -1000.000000, -1000.000000)"/>
<ellipse id="ellipse317" rx="0.300000" ry="0.150000" cx="-1000.000000" cy="-1000.000000" style="stroke-width:0.000000;fill:#44ccee;stroke:none;" transform="rotate(0.000000, -1000.000000, -1000.000000)"/>
<ellipse id="ellipse318" rx="0.300000" ry="0.150000" cx="-1000.000000" cy="-1000.000000" style="stroke-width:0.000000;fill:#44ccee;stroke:none;" transform="rotate(0.000000, -1000.000000, -1000.000000)"/>
<ellipse id="ellipse319" rx="0.300000" ry="0.150000" cx="-1000.000000" cy="-1000.000000" style="stroke-width:0.000000;fill:#44ccee;stroke:none;" transform="rotate(0.000000, -1000.000000, -1000.000000)"/>
<ellipse id="ellipse320" rx="0.300000" ry="0.150000" cx="-1000.000000" cy="-1000.000000" style="stroke-width:0.000000;fill:#44ccee;stroke:none;" transform="rotate(0.000000, -1000.000000, -1000.000000)"/>
<ellipse id="ellipse321" rx="0.300000" ry="0.150000" cx="-1000.000000" cy="-1000.000000" style="stroke-width:0.000000;fill:#44ccee;stroke:none;" transform="rotate(0.000000, -1000.000000, -1000.000000)"/>
<ellipse id="ellipse322" rx="0.300000" ry="0.150000" cx="-1000.000000" cy="-1000.000000" style="stroke-width:0.000000;fill:#44ccee;stroke:none;" transform="rotate(0.000000, -1000.000000, -1000.000000)"/>
<ellipse id="ellipse323" rx="0.300000" ry="0.150000" cx="-1000.000000" cy="-1000.000000" style="stroke-width:0.000000;fill:#44ccee;stroke:none;" transform="rotate(0.000000, -1000.000000, -1000.000000)"/>
<ellipse id="ellipse324" rx="0.300000" ry="0.150000" cx="-1000.000000" cy="-1000.000000" style="stroke-width:0.000000;fill:#44ccee;stroke:none;" transform="rotate(0.000000, -1000.000000, -1000.000000)"/>
<ellipse id="ellipse325" rx="0.300000" ry="0.150000" cx="-1000.000000" cy="-1000.000000" style="stroke-width:0.000000;fill:#44ccee;stroke:none;" transform="rotate(0.000000, -1000.000000, -1000.000000)"/>
<ellipse id="ellipse326" rx="0.300000" ry="0.150000" cx="-1000.000000" cy="-1000.000000" style="stroke-width:0.000000;fill:#44ccee;stroke:none;" transform="rotate(0.000000, -1000.000000, -1000.000000)"/>
<ellipse id="ellipse327" rx="0.300000" ry="0.150000" cx="-1000.000000" cy="-1000.000000" style="stroke-width:0.000000;fill:#44ccee;stroke:none;" transform="rotate(0.000000, -1000.000000, -1000.000000)"/>
<ellipse id="ellipse328" rx="0.300000" ry="0.150000" cx="-1000.000000" cy="-1000.000000" style="stroke-width:0.000000;fill:#44ccee;stroke:none;" transform="rotate(0.000000, -1000.000000, -1000.000000)"/>
<ellipse id="ellipse329" rx="0.300000" ry="0.150000" cx="-1000.000000" cy="-1000.000000" style="stroke-width:0.000000;fill:#44ccee;stroke:none;" transform="rotate(0.000000, -1000.000000, -1000.000000)"/>
<ellipse id="ellipse330" rx="0.300000" ry="0.150000" cx="-1000.000000" cy="-1000.000000" style="stroke-width:0.000000;fill:#44ccee;stroke:none;" transform="rotate(0.000000, -1000.000000, -1000.000000)"/>
<ellipse id="ellipse331" rx="0.300000" ry="0.150000" cx="-1000.000000" cy="-1000.000000" style="stroke-width:0.000000;fill:#44ccee;stroke:none;" transform="rotate(0.000000, -1000.000000, -1000.000000)"/>
<ellipse id="ellipse332" rx="0.300000" ry="0.150000" cx="-1000.000000" cy="-1000.000000" style="stroke-width:0.000000;fill:#44ccee;stroke:none;" transform="rotate(0.000000, -1000.000000, -1000.000000)"/>
<ellipse id="ellipse333" rx="0.300000" ry="0.150000" cx="-1000.000000" cy="-1000.000000" style="stroke-width:0.000000;fill:#44ccee;stroke:none;" transform="rotate(0.000000, -1000.000000, -1000.000000)"/>
<ellipse id="ellipse334" rx="0.300000" ry="0.150000" cx="-1000.000000" cy="-1000.000000" style="stroke-width:0.000000;fill:#44ccee;stroke:none;" transform="rotate(0.000000, -1000.000000, -1000.000000)"/>
<ellipse id="ellipse335" rx="0.300000" ry="0.150000" cx="-1000.000000" cy="-1000.000000" style="stroke-width:0.000000;fill:#44ccee;stroke:none;" transform="rotate(0.000000, -1000.000000, -1000.000000)"/>
<ellipse id="ellipse336" rx="0.300000" ry="0.150000" cx="-1000.000000" cy="-1000.000000" style="stroke-width:0.000000;fill:#44ccee;stroke:none;" transform="rotate(0.000000, -1000.000000, -1000.000000)"/>
<ellipse id="ellipse337" rx="0.300000" ry="0.150000" cx="-1000.000000" cy="-1000.000000" style="stroke-width:0.000000;fill:#44ccee;stroke:none;" transform="rotate(0.000000, -1000.000000, -1000.000000)"/>
<ellipse id="ellipse338" rx="0.300000" ry="0.150000" cx="-1000.000000" cy="-1000.000000" style="stroke-width:0.000000;fill:#44ccee;stroke:none;" transform="rotate(0.000000, -1000.000000, -1000.000000)"/>
<ellipse id="ellipse339" rx="0.300000" ry="0.150000" cx="-1000.000000" cy="-1000.000000" style="stroke-width:0.000000;fill:#44ccee;stroke:none;" transform="rotate(0.000000, -1000.000000, -1000.000000)"/>
<ellipse id="ellipse340" rx="0.300000" ry="0.150000" cx="-1000.000000" cy="-1000.000000" style="stroke-width:0.000000;fill:#44ccee;stroke:none;" transform="rotate(0.000000, -1000.000000, -1000.000000)"/>
<ellipse id="ellipse341" rx="0.300000" ry="0.150000" cx="-1000.000000" cy="-1000.000000" style="stroke-width:0.000000;fill:#44ccee;stroke:none;" transform="rotate(0.000000, -1000.000000, -1000.000000)"/>
<ellipse id="ellipse342" rx="0.300000" ry="0.150000" cx="-1000.000000" cy="-1000.000000" style="stroke-width:0.000000;fill:#44ccee;stroke:none;" transform="rotate(0.000000, -1000.000000, -1000.000000)"/>
<ellipse id="ellipse343" rx="0.300000" ry="0.150000" cx="-1000.000000" cy="-1000.000000" style="stroke-width:0.000000;fill:#44ccee;stroke:none;" transform="rotate(0.000000, -1000.000000, -1000.000000)"/>
<ellipse id="ellipse344" rx="0.300000" ry="0.150000" cx="-1000.000000" cy="-1000.000000" style="stroke-width:0.000000;fill:#44ccee;stroke:none;" transform="rotate(0.000000, -1000.000000, -1000.000000)"/>
<ellipse id="ellipse345" rx="0.300000" ry="0.150000" cx="-1000.000000" cy="-1000.000000" style="stroke-width:0.000000;fill:#44ccee;stroke:none;" transform="rotate(0.000000, -1000.000000, -1000.000000)"/>
<ellipse id="ellipse346" rx="0.300000" ry="0.150000" cx="-1000.000000" cy="-1000.000000" style="stroke-width:0.000000;fill:#44ccee;stroke:none;" transform="rotate(0.000000, -1000.000000, -1000.000000)"/>
<ellipse id="ellipse347" rx="0.300000" ry="0.150000" cx="-1000.000000" cy="-1000.000000" style="stroke-width:0.000000;fill:#44ccee;stroke:none;" transform="rotate(0.000000, -1000.000000, -1000.000000)"/>
<ellipse id="ellipse348" rx="0.300000" ry="0.150000" cx="-1000.000000" cy="-1000.000000" style="stroke-width:0.000000;fill:#44ccee;stroke:none;" transform="rotate(0.000000, -1000.000000, -1000.000000)"/>
<ellipse id="ellipse349" rx="0.300000" ry="0.150000" cx="-1000.000000" cy="-1000.000000" style="stroke-width:0.000000;fill:#44ccee;stroke:none;" transform="rotate(0.000000, -1000.000000, -1000.000000)"/>
<ellipse id="ellipse350" rx="0.300000" ry="0.150000" cx="-1000.000000" cy="-1000.000000" style="stroke-width:0.000000;fill:#44ccee;stroke:none;" transform="rotate(0.000000, -1000.000000, -1000.000000)"/>
<ellipse id="ellipse351" rx="0.300000" ry="0.150000" cx="-1000.000000" cy="-1000.000000" style="stroke-width:0.000000;fill:#44ccee;stroke:none;" transform="rotate(0.000000, -1000.000000, -1000.000000)"/>
<ellipse id="ellipse352" rx="0.300000" ry="0.150000" cx="-1000.000000" cy="-1000.000000" style="stroke-width:0.000000;fill:#44ccee;stroke:none;" transform="rotate(0.000000, -1000.000000, -1000.000000)"/>
<ellipse id="ellipse353" rx="0.300000" ry="0.150000" cx="-1000.000000" cy="-1000.000000" style="stroke-width:0.000000;fill:#44ccee;stroke:none;" transform="rotate(0.000000, -1000.000000, -1000.000000)"/>
<ellipse id="ellipse354" rx="0.300000" ry="0.150000" cx="-1000.000000" cy="-1000.000000" style="stroke-width:0.000000;fill:#44ccee;stroke:none;" transform="rotate(0.000000, -1000.000000, -1000.000000)"/>
<ellipse id="ellipse355" rx="0.300000" ry="0.150000" cx="-1000.000000" cy="-1000.000000" style="stroke-width:0.000000;fill:#44ccee;stroke:none;" transform="rotate(0.000000, -1000.000000, -1000.000000)"/>
<ellipse id="ellipse356" rx="0.300000" ry="0.150000" cx="-1000.000000" cy="-1000.000000" style="stroke-width:0.000000;fill:#44ccee;stroke:none;" transform="rotate(0.000000, -1000.000000, -1000.000000)"/>
<ellipse id="ellipse357" rx="0.300000" ry="0.150000" cx="-1000.000000" cy="-1000.000000" style="stroke-width:0.000000;fill:#44ccee;stroke:none;" transform="rotate(0.000000, -1000.000000, -1000.000000)"/>
<ellipse id="ellipse358" rx="0.300000" ry="0.150000" cx="-1000.000000" cy="-1000.000000" style="stroke-width:0.000000;fill:#44ccee;stroke:none;" transform="rotate(0.000000, -1000.000000, -1000.000000)"/>
<ellipse id="ellipse359" rx="0.300000" ry="0.150000" cx="-1000.000000" cy="-1000.000000" style="stroke-width:0.000000;fill:#44ccee;stroke:none;" transform="rotate(0.000000, -1000.000000, -1000.000000)"/>
<ellipse id="ellipse360" rx="0.300000" ry="0.150000" cx="-1000.000000" cy="-1000.000000" style="stroke-width:0.000000;fill:#44ccee;stroke:none;" transform="rotate(0.000000, -1000.000000, -1000.000000)"/>
<ellipse id="ellipse361" rx="0.300000" ry="0.150000" cx="-1000.000000" cy="-1000.000000" style="stroke-width:0.000000;fill:#44ccee;stroke:none;" transform="rotate(0.000000, -1000.000000, -1000.000000)"/>
<ellipse id="ellipse362" rx="0.300000" ry="0.150000" cx="-1000.000000" cy="-1000.000000" style="stroke-width:0.000000;fill:#44ccee;stroke:none;" transform="rotate(0.000000, -1000.000000, -1000.000000)"/>
<ellipse id="ellipse363" rx="0.300000" ry="0.150000" cx="-1000.000000" cy="-1000.000000" style="stroke-width:0.000000;fill:#44ccee;stroke:none;" transform="rotate(0.000000, -1000.000000, -1000.000000)"/>
<ellipse id="ellipse364" rx="0.300000" ry="0.150000" cx="-1000.000000" cy="-1000.000000" style="stroke-width:0.000000;fill:#44ccee;stroke:none;" transform="rotate(0.000000, -1000.000000, -1000.000000)"/>
<ellipse id="ellipse365" rx="0.300000" ry="0.150000" cx="-1000.000000" cy="-1000.000000" style="stroke-width:0.000000;fill:#44ccee;stroke:none;" transform="rotate(0.000000, -1000.000000, -1000.000000)"/>
<ellipse id="ellipse366" rx="0.300000" ry="0.150000" cx="1.315107" cy="-1.701444" style="stroke-width:0.000000;fill:#44ccee;stroke:none;" transform="rotate(0.000000, 1.315107, -1.701444)"/>
<ellipse id="ellipse367" rx="0.300000" ry="0.150000" cx="-1000.000000" cy="-1000.000000" style="stroke-width:0.000000;fill:#44ccee;stroke:none;" transform="rotate(0.000000, -1000.000000, -1000.000000)"/>
<ellipse id="ellipse368" rx="0.300000" ry="0.150000" cx="-1000.000000" cy="-1000.000000" style="stroke-width:0.000000;fill:#44ccee;stroke:none;" transform="rotate(0.000000, -1000.000000, -1000.000000)"/>
<ellipse id="ellipse369" rx="0.300000" ry="0.150000" cx="-1000.000000" cy="-1000.000000" style="stroke-width:0.000000;fill:#44ccee;stroke:none;" transform="rotate(0.000000, -1000.000000, -1000.000000)"/>
<ellipse id="ellipse370" rx="0.300000" ry="0.150000" cx="-1000.000000" cy="-1000.000000" style="stroke-width:0.000000;fill:#44ccee;stroke:none;" transform="rotate(0.000000, -1000.000000, -1000.000000)"/>
<ellipse id="ellipse371" rx="0.300000" ry="0.150000" cx="-1000.000000" cy="-1000.000000" style="stroke-width:0.000000;fill:#44ccee;stroke:none;" transform="rotate(0.000000, -1000.000000, -1000.000000)"/>
<ellipse id="ellipse372" rx="0.300000" ry="0.150000" cx="-1000.000000" cy="-1000.000000" style="stroke-width:0.000000;fill:#44ccee;stroke:none;" transform="rotate(0.000000, -1000.000000, -1000.000000)"/>
<ellipse id="ellipse373" rx="0.300000" ry="0.150000" cx="-1000.000000" cy="-1000.000000" style="stroke-width:0.000000;fill:#44ccee;stroke:none;" transform="rotate(0.000000, -1000.000000, -1000.000000)"/>
<ellipse id="ellipse374" rx="0.300000" ry="0.150000" cx="-1000.000000" cy="-1000.000000" style="stroke-width:0.000000;fill:#44ccee;stroke:none;" transform="rotate(0.000000, -1000.000000, -1000.000000)"/>
<ellipse id="ellipse375" rx="0.300000" ry="0.150000" cx="-1000.000000" cy="-1000.000000" style="stroke-width:0.000000;fill:#44ccee;stroke:none;" transform="rotate(0.000000, -1000.000000, -1000.000000)"/>
<ellipse id="ellipse376" rx="0.300000" ry="0.150000" cx="-1000.000000" cy="-1000.000000" style="stroke-width:0.000000;fill:#44ccee;stroke:none;" transform="rotate(0.000000, -1000.000000, -1000.000000)"/>
<ellipse id="ellipse377" rx="0.300000" ry="0.150000" cx="-1000.000000" cy="-1000.000000" style="stroke-width:0.000000;fill:#44ccee;stroke:none;" transform="rotate(0.000000, -1000.000000, -1000.000000)"/>
<ellipse id="ellipse378" rx="0.300000" ry="0.150000" cx="-1000.000000" cy="-1000.000000" style="stroke-width:0.000000;fill:#44ccee;stroke:none;" transform="rotate(0.000000, -1000.000000, -1000.000000)"/>
<ellipse id="ellipse379" rx="0.300000" ry="0.150000" cx="-1000.000000" cy="-1000.000000" style="stroke-width:0.000000;fill:#44ccee;stroke:none;" transform="rotate(0.000000, -1000.000000, -1000.000000)"/>
<ellipse id="ellipse380" rx="0.300000" ry="0.150000" cx="-1000.000000" cy="-1000.000000" style="stroke-width:0.000000;fill:#44ccee;stroke:none;" transform="rotate(0.000000, -1000.000000, -1000.000000)"/>
<ellipse id="ellipse381" rx="0.300000" ry="0.150000" cx="-1000.000000" cy="-1000.000000" style="stroke-width:0.000000;fill:#44ccee;stroke:none;" transform="rotate(0.000000, -1000.000000, -1000.000000)"/>
<ellipse id="ellipse382" rx="0.300000" ry="0.150000" cx="-1000.000000" cy="-1000.000000" style="stroke-width:0.000000;fill:#44ccee;stroke:none;" transform="rotate(0.000000, -1000.000000, -1000.000000)"/>
<ellipse id="ellipse383" rx="0.300000" ry="0.150000" cx="-1000.000000" cy="-1000.000000" style="stroke-width:0.000000;fill:#44ccee;stroke:none;" transform="rotate(0.000000, -1000.000000, -1000.000000)"/>
<ellipse id="ellipse384" rx="0.300000" ry="0.150000" cx="-1000.000000" cy="-1000.000000" style="stroke-width:0.000000;fill:#44ccee;stroke:none;" transform="rotate(0.000000, -1000.000000, -1000.000000)"/>
<ellipse id="ellipse385" rx="0.300000" ry="0.150000" cx="-1000.000000" cy="-1000.000000" style="stroke-width:0.000000;fill:#44ccee;stroke:none;" transform="rotate(0.000000, -1000.000000, -1000.000000)"/>
<ellipse id="ellipse386" rx="0.300000" ry="0.150000" cx="-1000.000000" cy="-1000.000000" style="stroke-width:0.000000;fill:#44ccee;stroke:none;" transform="rotate(0.000000, -1000.000000, -1000.000000)"/>
<ellipse id="ellipse387" rx="0.300000" ry="0.150000" cx="-1000.000000" cy="-1000.000000" style="stroke-width:0.000000;fill:#44ccee;stroke:none;" transform="rotate(0.000000, -1000.000000, -1000.000000)"/>
<ellipse id="ellipse388" rx="0.300000" ry="0.150000" cx="-1000.000000" cy="-1000.000000" style="stroke-width:0.000000;fill:#44ccee;stroke:none;" transform="rotate(0.000000, -1000.000000, -1000.000000)"/>
<ellipse id="ellipse389" rx="0.300000" ry="0.150000" cx="-1000.000000" cy="-1000.000000" style="stroke-width:0.000000;fill:#44ccee;stroke:none;" transform="rotate(0.000000, -1000.000000, -1000.000000)"/>
<ellipse id="ellipse390" rx="0.300000" ry="0.150000" cx="-1000.000000" cy="-1000.000000" style="stroke-width:0.000000;fill:#44ccee;stroke:none;" transform="rotate(0.000000, -1000.000000, -1000.000000)"/>
<ellipse id="ellipse391" rx="0.300000" ry="0.150000" cx="-1000.000000" cy="-1000.000000" style="stroke-width:0.000000;fill:#44ccee;stroke:none;" transform="rotate(0.000000, -1000.000000, -1000.000000)"/>
<ellipse id="ellipse392" rx="0.300000" ry="0.150000" cx="-1000.000000" cy="-1000.000000" style="stroke-width:0.000000;fill:#44ccee;stroke:none;" transform="rotate(0.000000, -1000.000000, -1000.000000)"/>
<ellipse id="ellipse393" rx="0.300000" ry="0.150000" cx="-1000.000000" cy="-1000.000000" style="stroke-width:0.000000;fill:#44ccee;stroke:none;" transform="rotate(0.000000, -1000.000000, -1000.000000)"/>
<ellipse id="ellipse394" rx="0.300000" ry="0.150000" cx="-1000.000000" cy="-1000.000000" style="stroke-width:0.000000;fill:#44ccee;stroke:none;" transform="rotate(0.000000, -1000.000000, -1000.000000)"/>
<ellipse id="ellipse395" rx="0.300000" ry="0.150000" cx="-1000.000000" cy="-1000.000000" style="stroke-width:0.000000;fill:#44ccee;stroke:none;" transform="rotate(0.000000, -1000.000000, -1000.000000)"/>
<ellipse id="ellipse396" rx="0.300000" ry="0.150000" cx="-1000.000000" cy="-1000.000000" style="stroke-width:0.000000;fill:#44ccee;stroke:none;" transform="rotate(0.000000, -1000.000000, -1000.000000)"/>
<ellipse id="ellipse397" rx="0.300000" ry="0.150000" cx="-1000.000000" cy="-1000.000000" style="stroke-width:0.000000;fill:#44ccee;stroke:none;" transform="rotate(0.000000, -1000.000000, -1000.000000)"/>
<ellipse id="ellipse398" rx="0.300000" ry="0.150000" cx="-1000.000000" cy="-1000.000000" style="stroke-width:0.000000;fill:#44ccee;stroke:none;" transform="rotate(0.000000, -1000.000000, -1000.000000)"/>
<ellipse id="ellipse399" rx="0.300000" ry="0.150000" cx="-1000.000000" cy="-1000.000000" style="stroke-width:0.000000;fill:#44ccee;stroke:none;" transform="rotate(0.000000, -1000.000000, -1000.000000)"/>
<path id="path400" style="stroke-width:0.200000;fill:none;stroke:#f39112;" d="M -4.546597,2.259814  L -4.499116,2.223769  L -4.451635,2.187725  L -4.404154,2.151680  L -4.356673,2.115636  L -4.309192,2.079592  L -4.261711,2.043547  L -4.214230,2.007503  L -4.166749,1.971458  L -4.119268,1.935414  L -4.071787,1.899369  L -4.007464,1.858404  L -3.943140,1.817440  L -3.878817,1.776475  L -3.814493,1.735510  L -3.750170,1.694545  L -3.685846,1.653580  L -3.621523,1.612615  L -3.557199,1.571650  L -3.492876,1.530685  L -3.428552,1.489720  L -3.380113,1.451274  L -3.331673,1.412828  L -3.283233,1.374382  L -3.234794,1.335937  L -3.186354,1.297491  L -3.137914,1.259045  L -3.089474,1.220599  L -3.041035,1.182153  L -2.992595,1.143707  L -2.944155,1.105262  L -2.890495,1.076261  L -2.836835,1.047260  L -2.783174,1.018259  L -2.729514,0.989258  L -2.675854,0.960257  L -2.622194,0.931256  L -2.568533,0.902255  L -2.514873,0.873254  L -2.461213,0.844253  L -2.407553,0.815252  L -2.362194,0.774190  L -2.316836,0.733128  L -2.271478,0.692066  L -2.226120,0.651004  L -2.180762,0.609942  L -2.135404,0.568880  L -2.090045,0.527817  L -2.044687,0.486755  L -1.999329,0.445693  L -1.953971,0.404631  L -1.906206,0.378707  L -1.858442,0.352782  L -1.810677,0.326858  L -1.762913,0.300933  L -1.715148,0.275009  L -1.667383,0.249084  L -1.619619,0.223160  L -1.571854,0.197235  L -1.524090,0.171311  L -1.476325,0.145386  L -1.420028,0.117891  L -1.363732,0.090396  L -1.307435,0.062901  L -1.251139,0.035406  L -1.194842,0.007910  L -1.138546,-0.019585  L -1.082249,-0.047080  L -1.025953,-0.074575  L -0.969656,-0.102070  L -0.913360,-0.129565  L -0.855308,-0.153239  L -0.797256,-0.176913  L -0.739204,-0.200587  L -0.681152,-0.224261  L -0.623100,-0.247935  L -0.565049,-0.271609  L -0.506997,-0.295283  L -0.448945,-0.318957  L -0.390893,-0.342632  L -0.332841,-0.366306  L -0.275111,-0.386223  L -0.217381,-0.406140  L -0.159651,-0.426058  L -0.101921,-0.445975  L -0.044191,-0.465892  L 0.013539,-0.485810  L 0.071268,-0.505727  L 0.128998,-0.525644  L 0.186728,-0.545562  L 0.244458,-0.565479  L 0.298639,-0.587635  L 0.352820,-0.609790  L 0.407000,-0.631946  L 0.461181,-0.654101  L 0.515362,-0.676257  L 0.569542,-0.698413  L 0.623723,-0.720568  L 0.677904,-0.742724  L 0.732084,-0.764879  L 0.786265,-0.787035  L 0.833682,-0.803807  L 0.881100,-0.820579  L 0.928517,-0.837352  L 0.975934,-0.854124  L 1.023352,-0.870896  L 1.070769,-0.887669  L 1.118186,-0.904441  L 1.165604,-0.921213  L 1.213021,-0.937986  L 1.260439,-0.954758  L 1.319675,-0.980724  L 1.378912,-1.006690  L 1.438149,-1.032656  L 1.497385,-1.058623  L 1.556622,-1.084589  L 1.615859,-1.110555  L 1.675095,-1.136521 " />
<path id="path401" style="stroke-width:0.050000;fill:none;stroke:#aa55dd;" d="M 11.675095,-1.136521  L 11.673572,-0.961997  L 11.669003,-0.787526  L 11.661391,-0.613162  L 11.650736,-0.438956  L 11.637042,-0.264964  L 11.620314,-0.091236  L 11.600557,0.082172  L 11.577776,0.255210  L 11.551979,0.427824  L 11.523173,0.599961  L 11.491367,0.771569  L 11.456571,0.942596  L 11.418796,1.112989  L 11.378052,1.282698  L 11.334353,1.451669  L 11.287712,1.619852  L 11.238143,1.787196  L 11.185660,1.953649  L 11.130281,2.119160  L 11.072021,2.283680  L 11.010899,2.447158  L 10.946934,2.609545  L 10.880144,2.770790  L 10.810550,2.930845  L 10.738173,3.089662  L 10.663036,3.247190  L 10.585160,3.403384  L 10.504571,3.558195  L 10.421292,3.711575  L 10.335349,3.863479  L 10.246768,4.013860  L 10.155576,4.162672  L 10.061801,4.309869  L 9.965471,4.455408  L 9.866616,4.599243  L 9.765265,4.741331  L 9.661450,4.881629  L 9.555203,5.020094  L 9.446555,5.156683  L 9.335540,5.291355  L 9.222191,5.424069  L 9.106543,5.554785  L 8.988632,5.683462  L 8.868493,5.810063  L 8.746163,5.934547  L 8.621679,6.056877  L 8.495079,6.177016  L 8.366401,6.294927  L 8.235685,6.410575  L 8.102971,6.523923  L 7.968299,6.634939  L 7.831710,6.743586  L 7.693245,6.849834  L 7.552948,6.953649  L 7.410860,7.054999  L 7.267024,7.153855  L 7.121486,7.250185  L 6.974288,7.343960  L 6.825476,7.435152  L 6.675095,7.523733  L 6.523191,7.609676  L 6.369811,7.692955  L 6.215000,7.773544  L 6.058807,7.851419  L 5.901278,7.926557  L 5.742462,7.998933  L 5.582406,8.068527  L 5.421161,8.135317  L 5.258775,8.199283  L 5.095297,8.260405  L 4.930777,8.318665  L 4.765265,8.374044  L 4.598812,8.426526  L 4.431469,8.476096  L 4.263286,8.522737  L 4.094314,8.566436  L 3.924606,8.607180  L 3.754212,8.644955  L 3.583185,8.679751  L 3.411577,8.711556  L 3.239440,8.740362  L 3.066826,8.766160  L 2.893789,8.788940  L 2.720380,8.808698  L 2.546653,8.825426  L 2.372660,8.839119  L 2.198455,8.849774  L 2.024090,8.857387  L 1.849619,8.861956  L 1.675095,8.863479  L 1.500571,8.861956  L 1.326100,8.857387  L 1.151736,8.849774  L 0.977530,8.839119  L 0.803538,8.825426  L 0.629811,8.808698  L 0.456402,8.788940  L 0.283364,8.766160  L 0.110751,8.740362  L -0.061387,8.711556  L -0.232995,8.679751  L -0.404022,8.644955  L -0.574415,8.607180  L -0.744124,8.566436  L -0.913095,8.522737  L -1.081278,8.476096  L -1.248622,8.426526  L -1.415075,8.374044  L -1.580586,8.318665  L -1.745106,8.260405  L -1.908584,8.199283  L -2.070971,8.135317  L -2.232216,8.068527  L -2.392271,7.998933  L -2.551087,7.926557  L -2.708616,7.851419  L -2.864810,7.773544  L -3.019620,7.692955  L -3.173001,7.609676  L -3.324905,7.523733  L -3.475286,7.435152  L -3.624097,7.343960  L -3.771295,7.250185  L -3.916834,7.153855  L -4.060669,7.054999  L -4.202757,6.953649  L -4.343055,6.849834  L -4.481520,6.743586  L -4.618109,6.634939  L -4.752781,6.523923  L -4.885495,6.410575  L -5.016211,6.294927  L -5.144888,6.177016  L -0.447106,1.061082  L -5.395973,5.934547  L -5.518303,5.810063  L -5.638442,5.683462  L -5.756353,5.554785  L -5.872001,5.424069  L -5.985349,5.291355  L -6.096364,5.156683  L -6.205012,5.020094  L -6.311260,4.881629  L -6.415075,4.741331  L -6.516425,4.599243  L -6.615281,4.455408  L -6.711610,4.309869  L -6.805386,4.162672  L -6.896578,4.013860  L -6.985159,3.863479  L -7.071102,3.711575  L -7.154381,3.558195  L -7.234970,3.403384  L -7.312845,3.247190  L -7.387983,3.089662  L -7.460359,2.930845  L -7.529953,2.770790  L -7.596743,2.609545  L -7.660709,2.447158  L -7.721831,2.283680  L -7.780091,2.119160  L -7.835470,1.953649  L -7.887952,1.787196  L -7.937522,1.619852  L -7.984163,1.451669  L -8.027862,1.282698  L -8.068605,1.112989  L -8.106381,0.942596  L -8.141177,0.771569  L -8.172982,0.599961  L -8.201788,0.427824  L -8.227585,0.255210  L -8.250366,0.082172  L -8.270124,-0.091236  L -0.480793,-0.947905  L -0.443725,-0.988359  L -0.441309,-1.025605  L -8.318813,-0.787526  L -8.323382,-0.961997  L -8.324905,-1.136521  L -8.323382,-1.311045  L -8.318813,-1.485516  L -8.311200,-1.659881  L -0.686978,-1.301693  L -0.563903,-1.332408  L -0.504719,-1.365629  L -0.471363,-1.400073  L -0.456740,-1.436131  L -0.460794,-1.474813  L -0.491421,-1.518536  L -8.141177,-3.044611  L -8.106381,-3.215638  L -8.068605,-3.386032  L -8.027862,-3.555740  L -7.984163,-3.724712  L -7.937522,-3.892895  L -7.887952,-4.060238  L -7.835470,-4.226691  L -7.780091,-4.392203  L 0.832325,-1.443264  L 0.893728,-1.436460  L 0.934979,-1.435547  L 0.967586,-1.436841  L 0.994966,-1.439334  L 1.018725,-1.442592  L 1.039778,-1.446386  L 1.058705,-1.450588  L 1.075904,-1.455117  L 1.091661,-1.459924  L 1.106186,-1.464981  L 1.119643,-1.470270  L 1.132157,-1.475786  L 1.143826,-1.481531  L 1.154726,-1.487514  L 1.164918,-1.493751  L 1.174443,-1.500266  L 1.183332,-1.507091  L 1.191599,-1.514270  L 1.199242,-1.521859  L 1.206241,-1.529936  L 1.212547,-1.538608  L 1.218071,-1.548028  L 1.222656,-1.558427  L 1.240557,-1.556149  L 1.257368,-1.554249  L 1.272973,-1.552931  L 1.287583,-1.552077  L 1.301355,-1.551602  L 1.314408,-1.551445  L 1.326837,-1.551559  L 1.338720,-1.551910  L 1.350121,-1.552469  L 1.361092,-1.553217  L 1.371681,-1.554135  L 1.381925,-1.555212  L 1.391859,-1.556436  L 1.401513,-1.557801  L 1.410914,-1.559299  L 1.420086,-1.560928  L 1.429050,-1.562684  L 1.437825,-1.564568  L 1.446429,-1.566579  L 1.454879,-1.568719  L 1.463190,-1.570992  L 1.471375,-1.573401  L 1.479448,-1.575953  L 1.487420,-1.578656  L 1.495305,-1.581518  L 1.503112,-1.584553  L 1.510853,-1.587774  L 1.518537,-1.591199  L 1.526175,-1.594849  L 1.533777,-1.598751  L 1.541352,-1.602939  L 1.548909,-1.607454  L 1.556457,-1.612352  L 1.564005,-1.617704  L 1.571561,-1.623612  L 1.579130,-1.630219  L 1.586715,-1.637748  L 1.594311,-1.646570  L 1.601889,-1.657410  L 1.609329,-1.672146  L 0.629811,-11.081740  L 0.803538,-11.098468  L 0.977530,-11.112162  L 1.151736,-11.122816  L 1.326100,-11.130429  L 1.500571,-11.134998  L 1.675095,-11.136521  L 1.849619,-11.134998  L 2.024090,-11.130429  L 2.198455,-11.122816  L 2.372660,-11.112162  L 2.546653,-11.098468  L 2.720380,-11.081740  L 2.893789,-11.061983  L 3.066826,-11.039202  L 3.239440,-11.013405  L 3.411577,-10.984599  L 3.583185,-10.952793  L 3.754212,-10.917997  L 3.924606,-10.880222  L 4.094314,-10.839478  L 4.263286,-10.795779  L 4.431469,-10.749138  L 4.598812,-10.699569  L 4.765265,-10.647086  L 4.930777,-10.591707  L 5.095297,-10.533447  L 5.258775,-10.472325  L 5.421161,-10.408360  L 5.582406,-10.341570  L 5.742462,-10.271976  L 5.901278,-10.199599  L 6.058807,-10.124462  L 6.215000,-10.046586  L 6.369811,-9.965997  L 6.523191,-9.882718  L 6.675095,-9.796775  L 6.825476,-9.708194  L 6.974288,-9.617002  L 7.121486,-9.523227  L 7.267024,-9.426897  L 7.410860,-9.328042  L 7.552948,-9.226691  L 7.693245,-9.122876  L 7.831710,-9.016629  L 7.968299,-8.907981  L 8.102971,-8.796966  L 8.235685,-8.683617  L 8.366401,-8.567969  L 8.495079,-8.450058  L 8.621679,-8.329919  L 8.746163,-8.207589  L 8.868493,-8.083105  L 8.988632,-7.956505  L 9.106543,-7.827827  L 9.222191,-7.697111  L 9.335540,-7.564397  L 9.446555,-7.429725  L 9.555203,-7.293136  L 9.661450,-7.154671  L 9.765265,-7.014374  L 9.866616,-6.872285  L 9.965471,-6.728450  L 10.061801,-6.582911  L 10.155576,-6.435714  L 10.246768,-6.286902  L 10.335349,-6.136521  L 10.421292,-5.984617  L 10.504571,-5.831237  L 10.585160,-5.676426  L 10.663036,-5.520233  L 10.738173,-5.362704  L 10.810550,-5.203888  L 10.880144,-5.043832  L 10.946934,-4.882587  L 11.010899,-4.720201  L 11.072021,-4.556723  L 11.130281,-4.392203  L 11.185660,-4.226691  L 11.238143,-4.060238  L 11.287712,-3.892895  L 11.334353,-3.724712  L 11.378052,-3.555740  L 11.418796,-3.386032  L 11.456571,-3.215638  L 11.491367,-3.044611  L 11.523173,-2.873003  L 11.551979,-2.700866  L 11.577776,-2.528252  L 11.600557,-2.355215  L 11.620314,-2.181806  L 11.637042,-2.008079  L 11.650736,-1.834086  L 11.661391,-1.659881  L 11.669003,-1.485516  L 11.673572,-1.311045  z " />
<ellipse id="ellipse402" rx="0.711481" ry="0.871382" cx="1.662090" cy="-1.135896" style="stroke-width:0.050000;fill:none;stroke:#ffff00;" transform="rotate(-135.000000, 1.662090, -1.135896)"/>
<circle id="circle403" r="0.050000" cx="1.662090" cy="-1.135896" style="stroke-width:0.100000;fill:none;stroke:#ffff00;"/>
<ellipse id="ellipse404" rx="1.174048" ry="1.437909" cx="1.701623" cy="-1.172993" style="stroke-width:0.050000;fill:none;stroke:#ff00ff;" transform="rotate(-135.000000, 1.701623, -1.172993)"/>
<circle id="circle405" r="0.050000" cx="1.701623" cy="-1.172993" style="stroke-width:0.100000;fill:none;stroke:#ff00ff;"/></g></svg>