<svg width="1600px" height="900px" viewBox="-25 -13 16.3292717 21.292512"><g id="layer1" transform="rotate(90,-2.4945089,-5.5210241)"><image x="0" y="0" width="800" height="800" xlink:href="../Maps/nonstandard_size/ewap_eth_modified.png" />
<rect id="rect0" style="stroke-width:0.000000;fill:#ffffff;stroke:none;" x="-20.000000" y="-20.000000" width="680.000000" height="520.000000" />
<circle id="circle1" r="0.069566" cx="-0.555426" cy="-2.951879" style="stroke-width:0.000000;fill:#555555;stroke:none;"/>
<circle id="circle2" r="0.069566" cx="-0.509393" cy="-1.011321" style="stroke-width:0.000000;fill:#555555;stroke:none;"/>
<circle id="circle3" r="0.069566" cx="-0.511067" cy="1.088441" style="stroke-width:0.000000;fill:#555555;stroke:none;"/>
<path id="path4" style="stroke-width:0.000000;fill:#555555;stroke:none;" d="M -0.617364,-3.021445  L -0.491147,-3.021445  L -0.491147,-2.882313  L -0.617364,-2.882313  L -0.617364,-3.021445  z " />
<circle id="circle5" r="0.750000" cx="-4.546597" cy="2.259814" style="stroke-width:0.000000;fill:#00ff00;stroke:none;"/>
<circle id="circle6" r="0.500000" cx="-4.546597" cy="2.259814" style="stroke-width:0.000000;fill:#ffffff;stroke:none;"/>
<circle id="circle7" r="0.187500" cx="-4.546597" cy="2.259814" style="stroke-width:0.000000;fill:#00ff00;stroke:none;"/>
<circle id="circle8" r="0.750000" cx="2.204527" cy="-1.489741" style="stroke-width:0.000000;fill:#ff0000;stroke:none;"/>
<circle id="circle9" r="0.500000" cx="2.204527" cy="-1.489741" style="stroke-width:0.000000;fill:#ffffff;stroke:none;"/>
<circle id="circle10" r="0.187500" cx="2.204527" cy="-1.489741" style="stroke-width:0.000000;fill:#ff0000;stroke:none;"/>
<ellipse id="ellipse11" rx="0.300000" ry="0.150000" cx="-1000.000000" cy="-1000.000000" style="stroke-width:0.000000;fill:#44ccee;stroke:none;" transform="rotate(0.000000, -1000.000000, -1000.000000)"/>
<ellipse id="ellipse12" rx="0.300000" ry="0.150000" cx="-1000.000000" cy="-1000.000000" style="stroke-width:0.000000;fill:#44ccee;stroke:none;" transform="rotate(0.000000, -1000.000000, -1000.000000)"/>
<ellipse id="ellipse13" rx="0.300000" ry="0.150000" cx="-1000.000000" cy="-1000.000000" style="stroke-width:0.000000;fill:#44ccee;stroke:none;" transform="rotate(0.000000, -1000.000000, -1000.000000)"/>
<ellipse id="ellipse14" rx="0.300000" ry="0.150000" cx="-1000.000000" cy="-1000.000000" style="stroke-width:0.000000;fill:#44ccee;stroke:none;" transform="rotate(0.000000, -1000.000000, -1000.000000)"/>
<ellipse id="ellipse15" rx="0.300000" ry="0.150000" cx="-1000.000000" cy="-1000.000000" style="stroke-width:0.000000;fill:#44ccee;stroke:none;" transform="rotate(0.000000, -1000.000000, -1000.000000)"/>
<ellipse id="ellipse16" rx="0.300000" ry="0.150000" cx="-1000.000000" cy="-1000.000000" style="stroke-width:0.000000;fill:#44ccee;stroke:none;" transform="rotate(0.000000, -1000.000000, -1000.000000)"/>
<ellipse id="ellipse17" rx="0.300000" ry="0.150000" cx="-1000.000000" cy="-1000.000000" style="stroke-width:0.000000;fill:#44ccee;stroke:none;" transform="rotate(0.000000, -1000.000000, -1000.000000)"/>
<ellipse id="ellipse18" rx="0.300000" ry="0.150000" cx="-1000.000000" cy="-1000.000000" style="stroke-width:0.000000;fill:#44ccee;stroke:none;" transform="rotate(0.000000, -1000.000000, -1000.000000)"/>
<ellipse id="ellipse19" rx="0.300000" ry="0.150000" cx="-1000.000000" cy="-1000.000000" style="stroke-width:0.000000;fill:#44ccee;stroke:none;" transform="rotate(0.000000, -1000.000000, -1000.000000)"/>
<ellipse id="ellipse20" rx="0.300000" ry="0.150000" cx="-1000.000000" cy="-1000.000000" style="stroke-width:0.000000;fill:#44ccee;stroke:none;" transform="rotate(0.000000, -1000.000000, -1000.000000)"/>
<ellipse id="ellipse21" rx="0.300000" ry="0.150000" cx="-1000.000000" cy="-1000.000000" style="stroke-width:0.000000;fill:#44ccee;stroke:none;" transform="rotate(0.000000, -1000.000000, -1000.000000)"/>
<ellipse id="ellipse22" rx="0.300000" ry="0.150000" cx="-1000.000000" cy="-1000.000000" style="stroke-width:0.000000;fill:#44ccee;stroke:none;" transform="rotate(0.000000, -1000.000000, -1000.000000)"/>
<ellipse id="ellipse23" rx="0.300000" ry="0.150000" cx="-1000.000000" cy="-1000.000000" style="stroke-width:0.000000;fill:#44ccee;stroke:none;" transform="rotate(0.000000, -1000.000000, -1000.000000)"/>
<ellipse id="ellipse24" rx="0.300000" ry="0.150000" cx="-1000.000000" cy="-1000.000000" style="stroke-width:0.000000;fill:#44ccee;stroke:none;" transform="rotate(0.000000, -1000.000000, -1000.000000)"/>
<ellipse id="ellipse25" rx="0.300000" ry="0.150000" cx="-1000.000000" cy="-1000.000000" style="stroke-width:0.000000;fill:#44ccee;stroke:none;" transform="rotate(0.000000, -1000.000000, -1000.000000)"/>
<ellipse id="ellipse26" rx="0.300000" ry="0.150000" cx="-1000.000000" cy="-1000.000000" style="stroke-width:0.000000;fill:#44ccee;stroke:none;" transform="rotate(0.000000, -1000.000000, -1000.000000)"/>
<ellipse id="ellipse27" rx="0.300000" ry="0.150000" cx="-1000.000000" cy="-1000.000000" style="stroke-width:0.000000;fill:#44ccee;stroke:none;" transform="rotate(0.000000, -1000.000000, -1000.000000)"/>
<ellipse id="ellipse28" rx="0.300000" ry="0.150000" cx="-1000.000000" cy="-1000.000000" style="stroke-width:0.000000;fill:#44ccee;stroke:none;" transform="rotate(0.000000, -1000.000000, -1000.000000)"/>
<ellipse id="ellipse29" rx="0.300000" ry="0.150000" cx="-1000.000000" cy="-1000.000000" style="stroke-width:0.000000;fill:#44ccee;stroke:none;" transform="rotate(0.000000, -1000.000000, -1000.000000)"/>
<ellipse id="ellipse30" rx="0.300000" ry="0.150000" cx="-1000.000000" cy="-1000.000000" style="stroke-width:0.000000;fill:#44ccee;stroke:none;" transform="rotate(0.000000, -1000.000000, -1000.000000)"/>
<ellipse id="ellipse31" rx="0.300000" ry="0.150000" cx="-1000.000000" cy="-1000.000000" style="stroke-width:0.000000;fill:#44ccee;stroke:none;" transform="rotate(0.000000, -1000.000000, -1000.000000)"/>
<ellipse id="ellipse32" rx="0.300000" ry="0.150000" cx="-1000.000000" cy="-1000.000000" style="stroke-width:0.000000;fill:#44ccee;stroke:none;" transform="rotate(0.000000, -1000.000000, -1000.000000)"/>
<ellipse id="ellipse33" rx="0.300000" ry="0.150000" cx="-1000.000000" cy="-1000.000000" style="stroke-width:0.000000;fill:#44ccee;stroke:none;" transform="rotate(0.000000, -1000.000000, -1000.000000)"/>
<ellipse id="ellipse34" rx="0.300000" ry="0.150000" cx="-1000.000000" cy="-1000.000000" style="stroke-width:0.000000;fill:#44ccee;stroke:none;" transform="rotate(0.000000, -1000.000000, -1000.000000)"/>
<ellipse id="ellipse35" rx="0.300000" ry="0.150000" cx="-1000.000000" cy="-1000.000000" style="stroke-width:0.000000;fill:#44ccee;stroke:none;" transform="rotate(0.000000, -1000.000000, -1000.000000)"/>
<ellipse id="ellipse36" rx="0.300000" ry="0.150000" cx="-1000.000000" cy="-1000.000000" style="stroke-width:0.000000;fill:#44ccee;stroke:none;" transform="rotate(0.000000, -1000.000000, -1000.000000)"/>
<ellipse id="ellipse37" rx="0.300000" ry="0.150000" cx="-1000.000000" cy="-1000.000000" style="stroke-width:0.000000;fill:#44ccee;stroke:none;" transform="rotate(0.000000, -1000.000000, -1000.000000)"/>
<ellipse id="ellipse38" rx="0.300000" ry="0.150000" cx="-1000.000000" cy="-1000.000000" style="stroke-width:0.000000;fill:#44ccee;stroke:none;" transform="rotate(0.000000, -1000.000000, -1000.000000)"/>
<ellipse id="ellipse39" rx="0.300000" ry="0.150000" cx="-1000.000000" cy="-1000.000000" style="stroke-width:0.000000;fill:#44ccee;stroke:none;" transform="rotate(0.000000, -1000.000000, -1000.000000)"/>
<ellipse id="ellipse40" rx="0.300000" ry="0.150000" cx="-1000.000000" cy="-1000.000000" style="stroke-width:0.000000;fill:#44ccee;stroke:none;" transform="rotate(0.000000, -1000.000000, -1000.000000)"/>
<ellipse id="ellipse41" rx="0.300000" ry="0.150000" cx="-1000.000000" cy="-1000.000000" style="stroke-width:0.000000;fill:#44ccee;stroke:none;" transform="rotate(0.000000, -1000.000000, -1000.000000)"/>
<ellipse id="ellipse42" rx="0.300000" ry="0.150000" cx="-1000.000000" cy="-1000.000000" style="stroke-width:0.000000;fill:#44ccee;stroke:none;" transform="rotate(0.000000, -1000.000000, -1000.000000)"/>
<ellipse id="ellipse43" rx="0.300000" ry="0.150000" cx="-1000.000000" cy="-1000.000000" style="stroke-width:0.000000;fill:#44ccee;stroke:none;" transform="rotate(0.000000, -1000.000000, -1000.000000)"/>
<ellipse id="ellipse44" rx="0.300000" ry="0.150000" cx="-1000.000000" cy="-1000.000000" style="stroke-width:0.000000;fill:#44ccee;stroke:none;" transform="rotate(0.000000, -1000.000000, -1000.000000)"/>
<ellipse id="ellipse45" rx="0.300000" ry="0.150000" cx="-1000.000000" cy="-1000.000000" style="stroke-width:0.000000;fill:#44ccee;stroke:none;" transform="rotate(0.000000, -1000.000000, -1000.000000)"/>
<ellipse id="ellipse46" rx="0.300000" ry="0.150000" cx="-1000.000000" cy="-1000.000000" style="stroke-width:0.000000;fill:#44ccee;stroke:none;" transform="rotate(0.000000, -1000.000000, -1000.000000)"/>
<ellipse id="ellipse47" rx="0.300000" ry="0.150000" cx="-1000.000000" cy="-1000.000000" style="stroke-width:0.000000;fill:#44ccee;stroke:none;" transform="rotate(0.000000, -1000.000000, -1000.000000)"/>
<ellipse id="ellipse48" rx="0.300000" ry="0.150000" cx="-1000.000000" cy="-1000.000000" style="stroke-width:0.000000;fill:#44ccee;stroke:none;" transform="rotate(0.000000, -1000.000000, -1000.000000)"/>
<ellipse id="ellipse49" rx="0.300000" ry="0.150000" cx="-1000.000000" cy="-1000.000000" style="stroke-width:0.000000;fill:#44ccee;stroke:none;" transform="rotate(0.000000, -1000.000000, -1000.000000)"/>
<ellipse id="ellipse50" rx="0.300000" ry="0.150000" cx="-1000.000000" cy="-1000.000000" style="stroke-width:0.000000;fill:#44ccee;stroke:none;" transform="rotate(0.000000, -1000.000000, -1000.000000)"/>
<ellipse id="ellipse51" rx="0.300000" ry="0.150000" cx="-1000.000000" cy="-1000.000000" style="stroke-width:0.000000;fill:#44ccee;stroke:none;" transform="rotate(0.000000, -1000.000000, -1000.000000)"/>
<ellipse id="ellipse52" rx="0.300000" ry="0.150000" cx="-1000.000000" cy="-1000.000000" style="stroke-width:0.000000;fill:#44ccee;stroke:none;" transform="rotate(0.000000, -1000.000000, -1000.000000)"/>
<ellipse id="ellipse53" rx="0.300000" ry="0.150000" cx="-1000.000000" cy="-1000.000000" style="stroke-width:0.000000;fill:#44ccee;stroke:none;" transform="rotate(0.000000, -1000.000000, -1000.000000)"/>
<ellipse id="ellipse54" rx="0.300000" ry="0.150000" cx="-1000.000000" cy="-1000.000000" style="stroke-width:0.000000;fill:#44ccee;stroke:none;" transform="rotate(0.000000, -1000.000000, -1000.000000)"/>
<ellipse id="ellipse55" rx="0.300000" ry="0.150000" cx="-1000.000000" cy="-1000.000000" style="stroke-width:0.000000;fill:#44ccee;stroke:none;" transform="rotate(0.000000, -1000.000000, -1000.000000)"/>
<ellipse id="ellipse56" rx="0.300000" ry="0.150000" cx="-1000.000000" cy="-1000.000000" style="stroke-width:0.000000;fill:#44ccee;stroke:none;" transform="rotate(0.000000, -1000.000000, -1000.000000)"/>
<ellipse id="ellipse57" rx="0.300000" ry="0.150000" cx="-1000.000000" cy="-1000.000000" style="stroke-width:0.000000;fill:#44ccee;stroke:none;" transform="rotate(0.000000, -1000.000000, -1000.000000)"/>
<ellipse id="ellipse58" rx="0.300000" ry="0.150000" cx="-1000.000000" cy="-1000.000000" style="stroke-width:0.000000;fill:#44ccee;stroke:none;" transform="rotate(0.000000, -1000.000000, -1000.000000)"/>
<ellipse id="ellipse59" rx="0.300000" ry="0.150000" cx="-1000.000000" cy="-1000.000000" style="stroke-width:0.000000;fill:#44ccee;stroke:none;" transform="rotate(0.000000, -1000.000000, -1000.000000)"/>
<ellipse id="ellipse60" rx="0.300000" ry="0.150000" cx="-1000.000000" cy="-1000.000000" style="stroke-width:0.000000;fill:#44ccee;stroke:none;" transform="rotate(0.000000, -1000.000000, -1000.000000)"/>
<ellipse id="ellipse61" rx="0.300000" ry="0.150000" cx="-1000.000000" cy="-1000.000000" style="stroke-width:0.000000;fill:#44ccee;stroke:none;" transform="rotate(0.000000, -1000.000000, -1000.000000)"/>
<ellipse id="ellipse62" rx="0.300000" ry="0.150000" cx="-1000.000000" cy="-1000.000000" style="stroke-width:0.000000;fill:#44ccee;stroke:none;" transform="rotate(0.000000, -1000.000000, -1000.000000)"/>
<ellipse id="ellipse63" rx="0.300000" ry="0.150000" cx="-1000.000000" cy="-1000.000000" style="stroke-width:0.000000;fill:#44ccee;stroke:none;" transform="rotate(0.000000, -1000.000000, -1000.000000)"/>
<ellipse id="ellipse64" rx="0.300000" ry="0.150000" cx="-1000.000000" cy="-1000.000000" style="stroke-width:0.000000;fill:#44ccee;stroke:none;" transform="rotate(0.000000, -1000.000000, -1000.000000)"/>
<ellipse id="ellipse65" rx="0.300000" ry="0.150000" cx="-1000.000000" cy="-1000.000000" style="stroke-width:0.000000;fill:#44ccee;stroke:none;" transform="rotate(0.000000, -1000.000000, -1000.000000)"/>
<ellipse id="ellipse66" rx="0.300000" ry="0.150000" cx="-1000.000000" cy="-1000.000000" style="stroke-width:0.000000;fill:#44ccee;stroke:none;" transform="rotate(0.000000, -1000.000000, -1000.000000)"/>
<ellipse id="ellipse67" rx="0.300000" ry="0.150000" cx="-1000.000000" cy="-1000.000000" style="stroke-width:0.000000;fill:#44ccee;stroke:none;" transform="rotate(0.000000, -1000.000000, -1000.000000)"/>
<ellipse id="ellipse68" rx="0.300000" ry="0.150000" cx="-1000.000000" cy="-1000.000000" style="stroke-width:0.000000;fill:#44ccee;stroke:none;" transform="rotate(0.000000, -1000.000000, -1000.000000)"/>
<ellipse id="ellipse69" rx="0.300000" ry="0.150000" cx="-1000.000000" cy="-1000.000000" style="stroke-width:0.000000;fill:#44ccee;stroke:none;" transform="rotate(0.000000, -1000.000000, -1000.000000)"/>
<ellipse id="ellipse70" rx="0.300000" ry="0.150000" cx="-1000.000000" cy="-1000.000000" style="stroke-width:0.000000;fill:#44ccee;stroke:none;" transform="rotate(0.000000, -1000.000000, -1000.000000)"/>
<ellipse id="ellipse71" rx="0.300000" ry="0.150000" cx="-1000.000000" cy="-1000.000000" style="stroke-width:0.000000;fill:#44ccee;stroke:none;" transform="rotate(0.000000, -1000.000000, -1000.000000)"/>
<ellipse id="ellipse72" rx="0.300000" ry="0.150000" cx="-1000.000000" cy="-1000.000000" style="stroke-width:0.000000;fill:#44ccee;stroke:none;" transform="rotate(0.000000, -1000.000000, -1000.000000)"/>
<ellipse id="ellipse73" rx="0.300000" ry="0.150000" cx="-1000.000000" cy="-1000.000000" style="stroke-width:0.000000;fill:#44ccee;stroke:none;" transform="rotate(0.000000, -1000.000000, -1000.000000)"/>
<ellipse id="ellipse74" rx="0.300000" ry="0.150000" cx="-1000.000000" cy="-1000.000000" style="stroke-width:0.000000;fill:#44ccee;stroke:none;" transform="rotate(0.000000, -1000.000000, -1000.000000)"/>
<ellipse id="ellipse75" rx="0.300000" ry="0.150000" cx="-1000.000000" cy="-1000.000000" style="stroke-width:0.000000;fill:#44ccee;stroke:none;" transform="rotate(0.000000, -1000.000000, -1000.000000)"/>
<ellipse id="ellipse76" rx="0.300000" ry="0.150000" cx="-1000.000000" cy="-1000.000000" style="stroke-width:0.000000;fill:#44ccee;stroke:none;" transform="rotate(0.000000, -1000.000000, -1000.000000)"/>
<ellipse id="ellipse77" rx="0.300000" ry="0.150000" cx="-1000.000000" cy="-1000.000000" style="stroke-width:0.000000;fill:#44ccee;stroke:none;" transform="rotate(0.000000, -1000.000000, -1000.000000)"/>
<ellipse id="ellipse78" rx="0.300000" ry="0.150000" cx="-1000.000000" cy="-1000.000000" style="stroke-width:0.000000;fill:#44ccee;stroke:none;" transform="rotate(0.000000, -1000.000000, -1000.000000)"/>
<ellipse id="ellipse79" rx="0.300000" ry="0.150000" cx="-1000.000000" cy="-1000.000000" style="stroke-width:0.000000;fill:#44ccee;stroke:none;" transform="rotate(0.000000, -1000.000000, -1000.000000)"/>
<ellipse id="ellipse80" rx="0.300000" ry="0.150000" cx="-1000.000000" cy="-1000.000000" style="stroke-width:0.000000;fill:#44ccee;stroke:none;" transform="rotate(0.000000, -1000.000000, -1000.000000)"/>
<ellipse id="ellipse81" rx="0.300000" ry="0.150000" cx="-1000.000000" cy="-1000.000000" style="stroke-width:0.000000;fill:#44ccee;stroke:none;" transform="rotate(0.000000, -1000.000000, -1000.000000)"/>
<ellipse id="ellipse82" rx="0.300000" ry="0.150000" cx="-1000.000000" cy="-1000.000000" style="stroke-width:0.000000;fill:#44ccee;stroke:none;" transform="rotate(0.000000, -1000.000000, -1000.000000)"/>
<ellipse id="ellipse83" rx="0.300000" ry="0.150000" cx="-1000.000000" cy="-1000.000000" style="stroke-width:0.000000;fill:#44ccee;stroke:none;" transform="rotate(0.000000, -1000.000000, -1000.000000)"/>
<ellipse id="ellipse84" rx="0.300000" ry="0.150000" cx="-1000.000000" cy="-1000.000000" style="stroke-width:0.000000;fill:#44ccee;stroke:none;" transform="rotate(0.000000, -1000.000000, -1000.000000)"/>
<ellipse id="ellipse85" rx="0.300000" ry="0.150000" cx="-1000.000000" cy="-1000.000000" style="stroke-width:0.000000;fill:#44ccee;stroke:none;" transform="rotate(0.000000, -1000.000000, -1000.000000)"/>
<ellipse id="ellipse86" rx="0.300000" ry="0.150000" cx="-1000.000000" cy="-1000.000000" style="stroke-width:0.000000;fill:#44ccee;stroke:none;" transform="rotate(0.000000, -1000.000000, -1000.000000)"/>
<ellipse id="ellipse87" rx="0.300000" ry="0.150000" cx="-1000.000000" cy="-1000.000000" style="stroke-width:0.000000;fill:#44ccee;stroke:none;" transform="rotate(0.000000, -1000.000000, -1000.000000)"/>
<ellipse id="ellipse88" rx="0.300000" ry="0.150000" cx="-1000.000000" cy="-1000.000000" style="stroke-width:0.000000;fill:#44ccee;stroke:none;" transform="rotate(0.000000, -1000.000000, -1000.000000)"/>
<ellipse id="ellipse89" rx="0.300000" ry="0.150000" cx="-1000.000000" cy="-1000.000000" style="stroke-width:0.000000;fill:#44ccee;stroke:none;" transform="rotate(0.000000, -1000.000000, -1000.000000)"/>
<ellipse id="ellipse90" rx="0.300000" ry="0.150000" cx="-1000.000000" cy="-1000.000000" style="stroke-width:0.000000;fill:#44ccee;stroke:none;" transform="rotate(0.000000, -1000.000000, -1000.000000)"/>
<ellipse id="ellipse91" rx="0.300000" ry="0.150000" cx="-1000.000000" cy="-1000.000000" style="stroke-width:0.000000;fill:#44ccee;stroke:none;" transform="rotate(0.000000, -1000.000000, -1000.000000)"/>
<ellipse id="ellipse92" rx="0.300000" ry="0.150000" cx="-1000.000000" cy="-1000.000000" style="stroke-width:0.000000;fill:#44ccee;stroke:none;" transform="rotate(0.000000, -1000.000000, -1000.000000)"/>
<ellipse id="ellipse93" rx="0.300000" ry="0.150000" cx="-1000.000000" cy="-1000.000000" style="stroke-width:0.000000;fill:#44ccee;stroke:none;" transform="rotate(0.000000, -1000.000000, -1000.000000)"/>
<ellipse id="ellipse94" rx="0.300000" ry="0.150000" cx="-1000.000000" cy="-1000.000000" style="stroke-width:0.000000;fill:#44ccee;stroke:none;" transform="rotate(0.000000, -1000.000000, -1000.000000)"/>
<ellipse id="ellipse95" rx="0.300000" ry="0.150000" cx="-1000.000000" cy="-1000.000000" style="stroke-width:0.000000;fill:#44ccee;stroke:none;" transform="rotate(0.000000, -1000.000000, -1000.000000)"/>
<ellipse id="ellipse96" rx="0.300000" ry="0.150000" cx="-1000.000000" cy="-1000.000000" style="stroke-width:0.000000;fill:#44ccee;stroke:none;" transform="rotate(0.000000, -1000.000000, -1000.000000)"/>
<ellipse id="ellipse97" rx="0.300000" ry="0.150000" cx="-1000.000000" cy="-1000.000000" style="stroke-width:0.000000;fill:#44ccee;stroke:none;" transform="rotate(0.000000, -1000.000000, -1000.000000)"/>
<ellipse id="ellipse98" rx="0.300000" ry="0.150000" cx="-1000.000000" cy="-1000.000000" style="stroke-width:0.000000;fill:#44ccee;stroke:none;" transform="rotate(0.000000, -1000.000000, -1000.000000)"/>
<ellipse id="ellipse99" rx="0.300000" ry="0.150000" cx="-1000.000000" cy="-1000.000000" style="stroke-width:0.000000;fill:#44ccee;stroke:none;" transform="rotate(0.000000, -1000.000000, -1000.000000)"/>
<ellipse id="ellipse100" rx="0.300000" ry="0.150000" cx="-1000.000000" cy="-1000.000000" style="stroke-width:0.000000;fill:#44ccee;stroke:none;" transform="rotate(0.000000, -1000.000000, -1000.000000)"/>
<ellipse id="ellipse101" rx="0.300000" ry="0.150000" cx="-1000.000000" cy="-1000.000000" style="stroke-width:0.000000;fill:#44ccee;stroke:none;" transform="rotate(0.000000, -1000.000000, -1000.000000)"/>
<ellipse id="ellipse102" rx="0.300000" ry="0.150000" cx="-1000.000000" cy="-1000.000000" style="stroke-width:0.000000;fill:#44ccee;stroke:none;" transform="rotate(0.000000, -1000.000000, -1000.000000)"/>
<ellipse id="ellipse103" rx="0.300000" ry="0.150000" cx="-1000.000000" cy="-1000.000000" style="stroke-width:0.000000;fill:#44ccee;stroke:none;" transform="rotate(0.000000, -1000.000000, -1000.000000)"/>
<ellipse id="ellipse104" rx="0.300000" ry="0.150000" cx="-1000.000000" cy="-1000.000000" style="stroke-width:0.000000;fill:#44ccee;stroke:none;" transform="rotate(0.000000, -1000.000000, -1000.000000)"/>
<ellipse id="ellipse105" rx="0.300000" ry="0.150000" cx="-1000.000000" cy="-1000.000000" style="stroke-width:0.000000;fill:#44ccee;stroke:none;" transform="rotate(0.000000, -1000.000000, -1000.000000)"/>
<ellipse id="ellipse106" rx="0.300000" ry="0.150000" cx="-1000.000000" cy="-1000.000000" style="stroke-width:0.000000;fill:#44ccee;stroke:none;" transform="rotate(0.000000, -1000.000000, -1000.000000)"/>
<ellipse id="ellipse107" rx="0.300000" ry="0.150000" cx="-1000.000000" cy="-1000.000000" style="stroke-width:0.000000;fill:#44ccee;stroke:none;" transform="rotate(0.000000, -1000.000000, -1000.000000)"/>
<ellipse id="ellipse108" rx="0.300000" ry="0.150000" cx="-1000.000000" cy="-1000.000000" style="stroke-width:0.000000;fill:#44ccee;stroke:none;" transform="rotate(0.000000, -1000.000000, -1000.000000)"/>
<ellipse id="ellipse109" rx="0.300000" ry="0.150000" cx="-1000.000000" cy="-1000.000000" style="stroke-width:0.000000;fill:#44ccee;stroke:none;" transform="rotate(0.000000, -1000.000000, -1000.000000)"/>
<ellipse id="ellipse110" rx="0.300000" ry="0.150000" cx="-1000.000000" cy="-1000.000000" style="stroke-width:0.000000;fill:#44ccee;stroke:none;" transform="rotate(0.000000, -1000.000000, -1000.000000)"/>
<ellipse id="ellipse111" rx="0.300000" ry="0.150000" cx="-1000.000000" cy="-1000.000000" style="stroke-width:0.000000;fill:#44ccee;stroke:none;" transform="rotate(0.000000, -1000.000000, -1000.000000)"/>
<ellipse id="ellipse112" rx="0.300000" ry="0.150000" cx="-1000.000000" cy="-1000.000000" style="stroke-width:0.000000;fill:#44ccee;stroke:none;" transform="rotate(0.000000, -1000.000000, -1000.000000)"/>
<ellipse id="ellipse113" rx="0.300000" ry="0.150000" cx="-1000.000000" cy="-1000.000000" style="stroke-width:0.000000;fill:#44ccee;stroke:none;" transform="rotate(0.000000, -1000.000000, -1000.000000)"/>
<ellipse id="ellipse114" rx="0.300000" ry="0.150000" cx="-1000.000000" cy="-1000.000000" style="stroke-width:0.000000;fill:#44ccee;stroke:none;" transform="rotate(0.000000, -1000.000000, -1000.000000)"/>
<ellipse id="ellipse115" rx="0.300000" ry="0.150000" cx="-1000.000000" cy="-1000.000000" style="stroke-width:0.000000;fill:#44ccee;stroke:none;" transform="rotate(0.000000, -1000.000000, -1000.000000)"/>
<ellipse id="ellipse116" rx="0.300000" ry="0.150000" cx="-1000.000000" cy="-1000.000000" style="stroke-width:0.000000;fill:#44ccee;stroke:none;" transform="rotate(0.000000, -1000.000000, -1000.000000)"/>
<ellipse id="ellipse117" rx="0.300000" ry="0.150000" cx="-1000.000000" cy="-1000.000000" style="stroke-width:0.000000;fill:#44ccee;stroke:none;" transform="rotate(0.000000, -1000.000000, -1000.000000)"/>
<ellipse id="ellipse118" rx="0.300000" ry="0.150000" cx="-1000.000000" cy="-1000.000000" style="stroke-width:0.000000;fill:#44ccee;stroke:none;" transform="rotate(0.000000, -1000.000000, -1000.000000)"/>
<ellipse id="ellipse119" rx="0.300000" ry="0.150000" cx="-1000.000000" cy="-1000.000000" style="stroke-width:0.000000;fill:#44ccee;stroke:none;" transform="rotate(0.000000, -1000.000000, -1000.000000)"/>
<ellipse id="ellipse120" rx="0.300000" ry="0.150000" cx="-1000.000000" cy="-1000.000000" style="stroke-width:0.000000;fill:#44ccee;stroke:none;" transform="rotate(0.000000, -1000.000000, -1000.000000)"/>
<ellipse id="ellipse121" rx="0.300000" ry="0.150000" cx="-1000.000000" cy="-1000.000000" style="stroke-width:0.000000;fill:#44ccee;stroke:none;" transform="rotate(0.000000, -1000.000000, -1000.000000)"/>
<ellipse id="ellipse122" rx="0.300000" ry="0.150000" cx="-1000.000000" cy="-1000.000000" style="stroke-width:0.000000;fill:#44ccee;stroke:none;" transform="rotate(0.000000, -1000.000000, -1000.000000)"/>
<ellipse id="ellipse123" rx="0.300000" ry="0.150000" cx="-1000.000000" cy="-1000.000000" style="stroke-width:0.000000;fill:#44ccee;stroke:none;" transform="rotate(0.000000, -1000.000000, -1000.000000)"/>
<ellipse id="ellipse124" rx="0.300000" ry="0.150000" cx="-1000.000000" cy="-1000.000000" style="stroke-width:0.000000;fill:#44ccee;stroke:none;" transform="rotate(0.000000, -1000.000000, -1000.000000)"/>
<ellipse id="ellipse125" rx="0.300000" ry="0.150000" cx="-1000.000000" cy="-1000.000000" style="stroke-width:0.000000;fill:#44ccee;stroke:none;" transform="rotate(0.000000, -1000.000000, -1000.000000)"/>
<ellipse id="ellipse126" rx="0.300000" ry="0.150000" cx="-1000.000000" cy="-1000.000000" style="stroke-width:0.000000;fill:#44ccee;stroke:none;" transform="rotate(0.000000, -1000.000000, -1000.000000)"/>
<ellipse id="ellipse127" rx="0.300000" ry="0.150000" cx="-1000.000000" cy="-1000.000000" style="stroke-width:0.000000;fill:#44ccee;stroke:none;" transform="rotate(0.000000, -1000.000000, -1000.000000)"/>
<ellipse id="ellipse128" rx="0.300000" ry="0.150000" cx="-1000.000000" cy="-1000.000000" style="stroke-width:0.000000;fill:#44ccee;stroke:none;" transform="rotate(0.000000, -1000.000000, -1000.000000)"/>
<ellipse id="ellipse129" rx="0.300000" ry="0.150000" cx="-1000.000000" cy="-1000.000000" style="stroke-width:0.000000;fill:#44ccee;stroke:none;" transform="rotate(0.000000, -1000.000000, -1000.000000)"/>
<ellipse id="ellipse130" rx="0.300000" ry="0.150000" cx="-1000.000000" cy="-1000.000000" style="stroke-width:0.000000;fill:#44ccee;stroke:none;" transform="rotate(0.000000, -1000.000000, -1000.000000)"/>
<ellipse id="ellipse131" rx="0.300000" ry="0.150000" cx="-1000.000000" cy="-1000.000000" style="stroke-width:0.000000;fill:#44ccee;stroke:none;" transform="rotate(0.000000, -1000.000000, -1000.000000)"/>
<ellipse id="ellipse132" rx="0.300000" ry="0.150000" cx="-1000.000000" cy="-1000.000000" style="stroke-width:0.000000;fill:#44ccee;stroke:none;" transform="rotate(0.000000, -1000.000000, -1000.000000)"/>
<ellipse id="ellipse133" rx="0.300000" ry="0.150000" cx="-1000.000000" cy="-1000.000000" style="stroke-width:0.000000;fill:#44ccee;stroke:none;" transform="rotate(0.000000, -1000.000000, -1000.000000)"/>
<ellipse id="ellipse134" rx="0.300000" ry="0.150000" cx="-1000.000000" cy="-1000.000000" style="stroke-width:0.000000;fill:#44ccee;stroke:none;" transform="rotate(0.000000, -1000.000000, -1000.000000)"/>
<ellipse id="ellipse135" rx="0.300000" ry="0.150000" cx="-1000.000000" cy="-1000.000000" style="stroke-width:0.000000;fill:#44ccee;stroke:none;" transform="rotate(0.000000, -1000.000000, -1000.000000)"/>
<ellipse id="ellipse136" rx="0.300000" ry="0.150000" cx="-1000.000000" cy="-1000.000000" style="stroke-width:0.000000;fill:#44ccee;stroke:none;" transform="rotate(0.000000, -1000.000000, -1000.000000)"/>
<ellipse id="ellipse137" rx="0.300000" ry="0.150000" cx="-1000.000000" cy="-1000.000000" style="stroke-width:0.000000;fill:#44ccee;stroke:none;" transform="rotate(0.000000, -1000.000000, -1000.000000)"/>
<ellipse id="ellipse138" rx="0.300000" ry="0.150000" cx="-1000.000000" cy="-1000.000000" style="stroke-width:0.000000;fill:#44ccee;stroke:none;" transform="rotate(0.000000, -1000.000000, -1000.000000)"/>
<ellipse id="ellipse139" rx="0.300000" ry="0.150000" cx="-1000.000000" cy="-1000.000000" style="stroke-width:0.000000;fill:#44ccee;stroke:none;" transform="rotate(0.000000, -1000.000000, -1000.000000)"/>
<ellipse id="ellipse140" rx="0.300000" ry="0.150000" cx="-1000.000000" cy="-1000.000000" style="stroke-width:0.000000;fill:#44ccee;stroke:none;" transform="rotate(0.000000, -1000.000000, -1000.000000)"/>
<ellipse id="ellipse141" rx="0.300000" ry="0.150000" cx="-1000.000000" cy="-1000.000000" style="stroke-width:0.000000;fill:#44ccee;stroke:none;" transform="rotate(0.000000, -1000.000000, -1000.000000)"/>
<ellipse id="ellipse142" rx="0.300000" ry="0.150000" cx="-1000.000000" cy="-1000.000000" style="stroke-width:0.000000;fill:#44ccee;stroke:none;" transform="rotate(0.000000, -1000.000000, -1000.000000)"/>
<ellipse id="ellipse143" rx="0.300000" ry="0.150000" cx="-1000.000000" cy="-1000.000000" style="stroke-width:0.000000;fill:#44ccee;stroke:none;" transform="rotate(0.000000, -1000.000000, -1000.000000)"/>
<ellipse id="ellipse144" rx="0.300000" ry="0.150000" cx="-1000.000000" cy="-1000.000000" style="stroke-width:0.000000;fill:#44ccee;stroke:none;" transform="rotate(0.000000, -1000.000000, -1000.000000)"/>
<ellipse id="ellipse145" rx="0.300000" ry="0.150000" cx="-1000.000000" cy="-1000.000000" style="stroke-width:0.000000;fill:#44ccee;stroke:none;" transform="rotate(0.000000, -1000.000000, -1000.000000)"/>
<ellipse id="ellipse146" rx="0.300000" ry="0.150000" cx="-1000.000000" cy="-1000.000000" style="stroke-width:0.000000;fill:#44ccee;stroke:none;" transform="rotate(0.000000, -1000.000000, -1000.000000)"/>
<ellipse id="ellipse147" rx="0.300000" ry="0.150000" cx="-1000.000000" cy="-1000.000000" style="stroke-width:0.000000;fill:#44ccee;stroke:none;" transform="rotate(0.000000, -1000.000000, -1000.000000)"/>
<ellipse id="ellipse148" rx="0.300000" ry="0.150000" cx="-1000.000000" cy="-1000.000000" style="stroke-width:0.000000;fill:#44ccee;stroke:none;" transform="rotate(0.000000, -1000.000000, -1000.000000)"/>
<ellipse id="ellipse149" rx="0.300000" ry="0.150000" cx="-1000.000000" cy="-1000.000000" style="stroke-width:0.000000;fill:#44ccee;stroke:none;" transform="rotate(0.000000, -1000.000000, -1000.000000)"/>
<ellipse id="ellipse150" rx="0.300000" ry="0.150000" cx="-1000.000000" cy="-1000.000000" style="stroke-width:0.000000;fill:#44ccee;stroke:none;" transform="rotate(0.000000, -1000.000000, -1000.000000)"/>
<ellipse id="ellipse151" rx="0.300000" ry="0.150000" cx="1.913086" cy="2.567160" style="stroke-width:0.000000;fill:#44ccee;stroke:none;" transform="rotate(-6.488406, 1.913086, 2.567160)"/>
<ellipse id="ellipse152" rx="0.300000" ry="0.150000" cx="-1000.000000" cy="-1000.000000" style="stroke-width:0.000000;fill:#44ccee;stroke:none;" transform="rotate(0.000000, -1000.000000, -1000.000000)"/>
<ellipse id="ellipse153" rx="0.300000" ry="0.150000" cx="-1000.000000" cy="-1000.000000" style="stroke-width:0.000000;fill:#44ccee;stroke:none;" transform="rotate(0.000000, -1000.000000, -1000.000000)"/>
<ellipse id="ellipse154" rx="0.300000" ry="0.150000" cx="-1000.000000" cy="-1000.000000" style="stroke-width:0.000000;fill:#44ccee;stroke:none;" transform="rotate(0.000000, -1000.000000, -1000.000000)"/>
<ellipse id="ellipse155" rx="0.300000" ry="0.150000" cx="-1000.000000" cy="-1000.000000" style="stroke-width:0.000000;fill:#44ccee;stroke:none;" transform="rotate(0.000000, -1000.000000, -1000.000000)"/>
<ellipse id="ellipse156" rx="0.300000" ry="0.150000" cx="-1000.000000" cy="-1000.000000" style="stroke-width:0.000000;fill:#44ccee;stroke:none;" transform="rotate(0.000000, -1000.000000, -1000.000000)"/>
<ellipse id="ellipse157" rx="0.300000" ry="0.150000" cx="-1000.000000" cy="-1000.000000" style="stroke-width:0.000000;fill:#44ccee;stroke:none;" transform="rotate(0.000000, -1000.000000, -1000.000000)"/>
<ellipse id="ellipse158" rx="0.300000" ry="0.150000" cx="-1000.000000" cy="-1000.000000" style="stroke-width:0.000000;fill:#44ccee;stroke:none;" transform="rotate(0.000000, -1000.000000, -1000.000000)"/>
<ellipse id="ellipse159" rx="0.300000" ry="0.150000" cx="-1000.000000" cy="-1000.000000" style="stroke-width:0.000000;fill:#44ccee;stroke:none;" transform="rotate(0.000000, -1000.000000, -1000.000000)"/>
<ellipse id="ellipse160" rx="0.300000" ry="0.150000" cx="-1000.000000" cy="-1000.000000" style="stroke-width:0.000000;fill:#44ccee;stroke:none;" transform="rotate(0.000000, -1000.000000, -1000.000000)"/>
<ellipse id="ellipse161" rx="0.300000" ry="0.150000" cx="-1000.000000" cy="-1000.000000" style="stroke-width:0.000000;fill:#44ccee;stroke:none;" transform="rotate(0.000000, -1000.000000, -1000.000000)"/>
<ellipse id="ellipse162" rx="0.300000" ry="0.150000" cx="-1000.000000" cy="-1000.000000" style="stroke-width:0.000000;fill:#44ccee;stroke:none;" transform="rotate(0.000000, -1000.000000, -1000.000000)"/>
<ellipse id="ellipse163" rx="0.300000" ry="0.150000" cx="-1000.000000" cy="-1000.000000" style="stroke-width:0.000000;fill:#44ccee;stroke:none;" transform="rotate(0.000000, -1000.000000, -1000.000000)"/>
<ellipse id="ellipse164" rx="0.300000" ry="0.150000" cx="-1000.000000" cy="-1000.000000" style="stroke-width:0.000000;fill:#44ccee;stroke:none;" transform="rotate(0.000000, -1000.000000, -1000.000000)"/>
<ellipse id="ellipse165" rx="0.300000" ry="0.150000" cx="-1000.000000" cy="-1000.000000" style="stroke-width:0.000000;fill:#44ccee;stroke:none;" transform="rotate(0.000000, -1000.000000, -1000.000000)"/>
<ellipse id="ellipse166" rx="0.300000" ry="0.150000" cx="-1000.000000" cy="-1000.000000" style="stroke-width:0.000000;fill:#44ccee;stroke:none;" transform="rotate(0.000000, -1000.000000, -1000.000000)"/>
<ellipse id="ellipse167" rx="0.300000" ry="0.150000" cx="-1000.000000" cy="-1000.000000" style="stroke-width:0.000000;fill:#44ccee;stroke:none;" transform="rotate(0.000000, -1000.000000, -1000.000000)"/>
<ellipse id="ellipse168" rx="0.300000" ry="0.150000" cx="-1000.000000" cy="-1000.000000" style="stroke-width:0.000000;fill:#44ccee;stroke:none;" transform="rotate(0.000000, -1000.000000, -1000.000000)"/>
<ellipse id="ellipse169" rx="0.300000" ry="0.150000" cx="-1000.000000" cy="-1000.000000" style="stroke-width:0.000000;fill:#44ccee;stroke:none;" transform="rotate(0.000000, -1000.000000, -1000.000000)"/>
<ellipse id="ellipse170" rx="0.300000" ry="0.150000" cx="-1000.000000" cy="-1000.000000" style="stroke-width:0.000000;fill:#44ccee;stroke:none;" transform="rotate(0.000000, -1000.000000, -1000.000000)"/>
<ellipse id="ellipse171" rx="0.300000" ry="0.150000" cx="-1000.000000" cy="-1000.000000" style="stroke-width:0.000000;fill:#44ccee;stroke:none;" transform="rotate(0.000000, -1000.000000, -1000.000000)"/>
<ellipse id="ellipse172" rx="0.300000" ry="0.150000" cx="-1000.000000" cy="-1000.000000" style="stroke-width:0.000000;fill:#44ccee;stroke:none;" transform="rotate(0.000000, -1000.000000, -1000.000000)"/>
<ellipse id="ellipse173" rx="0.300000" ry="0.150000" cx="-1000.000000" cy="-1000.000000" style="stroke-width:0.000000;fill:#44ccee;stroke:none;" transform="rotate(0.000000, -1000.000000, -1000.000000)"/>
<ellipse id="ellipse174" rx="0.300000" ry="0.150000" cx="-1000.000000" cy="-1000.000000" style="stroke-width:0.000000;fill:#44ccee;stroke:none;" transform="rotate(0.000000, -1000.000000, -1000.000000)"/>
<ellipse id="ellipse175" rx="0.300000" ry="0.150000" cx="-1000.000000" cy="-1000.000000" style="stroke-width:0.000000;fill:#44ccee;stroke:none;" transform="rotate(0.000000, -1000.000000, -1000.000000)"/>
<ellipse id="ellipse176" rx="0.300000" ry="0.150000" cx="-1000.000000" cy="-1000.000000" style="stroke-width:0.000000;fill:#44ccee;stroke:none;" transform="rotate(0.000000, -1000.000000, -1000.000000)"/>
<ellipse id="ellipse177" rx="0.300000" ry="0.150000" cx="-1000.000000" cy="-1000.000000" style="stroke-width:0.000000;fill:#44ccee;stroke:none;" transform="rotate(0.000000, -1000.000000, -1000.000000)"/>
<ellipse id="ellipse178" rx="0.300000" ry="0.150000" cx="-0.755848" cy="-1.447687" style="stroke-width:0.000000;fill:#44ccee;stroke:none;" transform="rotate(0.000000, -0.755848, -1.447687)"/>
<ellipse id="ellipse179" rx="0.300000" ry="0.150000" cx="-1000.000000" cy="-1000.000000" style="stroke-width:0.000000;fill:#44ccee;stroke:none;" transform="rotate(0.000000, -1000.000000, -1000.000000)"/>
<ellipse id="ellipse180" rx="0.300000" ry="0.150000" cx="-1000.000000" cy="-1000.000000" style="stroke-width:0.000000;fill:#44ccee;stroke:none;" transform="rotate(0.000000, -1000.000000, -1000.000000)"/>
<ellipse id="ellipse181" rx="0.300000" ry="0.150000" cx="-1000.000000" cy="-1000.000000" style="stroke-width:0.000000;fill:#44ccee;stroke:none;" transform="rotate(0.000000, -1000.000000, -1000.000000)"/>
<ellipse id="ellipse182" rx="0.300000" ry="0.150000" cx="-1000.000000" cy="-1000.000000" style="stroke-width:0.000000;fill:#44ccee;stroke:none;" transform="rotate(0.000000, -1000.000000, -1000.000000)"/>
<ellipse id="ellipse183" rx="0.300000" ry="0.150000" cx="-1000.000000" cy="-1000.000000" style="stroke-width:0.000000;fill:#44ccee;stroke:none;" transform="rotate(0.000000, -1000.000000, -1000.000000)"/>
<ellipse id="ellipse184" rx="0.300000" ry="0.150000" cx="-1000.000000" cy="-1000.000000" style="stroke-width:0.000000;fill:#44ccee;stroke:none;" transform="rotate(0.000000, -1000.000000, -1000.000000)"/>
<ellipse id="ellipse185" rx="0.300000" ry="0.150000" cx="-1000.000000" cy="-1000.000000" style="stroke-width:0.000000;fill:#44ccee;stroke:none;" transform="rotate(0.000000, -1000.000000, -1000.000000)"/>
<ellipse id="ellipse186" rx="0.300000" ry="0.150000" cx="-1000.000000" cy="-1000.000000" style="stroke-width:0.000000;fill:#44ccee;stroke:none;" transform="rotate(0.000000, -1000.000000, -1000.000000)"/>
<ellipse id="ellipse187" rx="0.300000" ry="0.150000" cx="-1000.000000" cy="-1000.000000" style="stroke-width:0.000000;fill:#44ccee;stroke:none;" transform="rotate(0.000000, -1000.000000, -1000.000000)"/>
<ellipse id="ellipse188" rx="0.300000" ry="0.150000" cx="-1000.000000" cy="-1000.000000" style="stroke-width:0.000000;fill:#44ccee;stroke:none;" transform="rotate(0.000000, -1000.000000, -1000.000000)"/>
<ellipse id="ellipse189" rx="0.300000" ry="0.150000" cx="-1000.000000" cy="-1000.000000" style="stroke-width:0.000000;fill:#44ccee;stroke:none;" transform="rotate(0.000000, -1000.000000, -1000.000000)"/>
<ellipse id="ellipse190" rx="0.300000" ry="0.150000" cx="-1000.000000" cy="-1000.000000" style="stroke-width:0.000000;fill:#44ccee;stroke:none;" transform="rotate(0.000000, -1000.000000, -1000.000000)"/>
<ellipse id="ellipse191" rx="0.300000" ry="0.150000" cx="-1000.000000" cy="-1000.000000" style="stroke-width:0.000000;fill:#44ccee;stroke:none;" transform="rotate(0.000000, -1000.000000, -1000.000000)"/>
<ellipse id="ellipse192" rx="0.300000" ry="0.150000" cx="-1000.000000" cy="-1000.000000" style="stroke-width:0.000000;fill:#44ccee;stroke:none;" transform="rotate(0.000000, -1000.000000, -1000.000000)"/>
<ellipse id="ellipse193" rx="0.300000" ry="0.150000" cx="-1000.000000" cy="-1000.000000" style="stroke-width:0.000000;fill:#44ccee;stroke:none;" transform="rotate(0.000000, -1000.000000, -1000.000000)"/>
<ellipse id="ellipse194" rx="0.300000" ry="0.150000" cx="-1000.000000" cy="-1000.000000" style="stroke-width:0.000000;fill:#44ccee;stroke:none;" transform="rotate(0.000000, -1000.000000, -1000.000000)"/>
<ellipse id="ellipse195" rx="0.300000" ry="0.150000" cx="-1000.000000" cy="-1000.000000" style="stroke-width:0.000000;fill:#44ccee;stroke:none;" transform="rotate(0.000000, -1000.000000, -1000.000000)"/>
<ellipse id="ellipse196" rx="0.300000" ry="0.150000" cx="-1000.000000" cy="-1000.000000" style="stroke-width:0.000000;fill:#44ccee;stroke:none;" transform="rotate(0.000000, -1000.000000, -1000.000000)"/>
<ellipse id="ellipse197" rx="0.300000" ry="0.150000" cx="-1000.000000" cy="-1000.000000" style="stroke-width:0.000000;fill:#44ccee;stroke:none;" transform="rotate(0.000000, -1000.000000, -1000.000000)"/>
<ellipse id="ellipse198" rx="0.300000" ry="0.150000" cx="-1000.000000" cy="-1000.000000" style="stroke-width:0.000000;fill:#44ccee;stroke:none;" transform="rotate(0.000000, -1000.000000, -1000.000000)"/>
<ellipse id="ellipse199" rx="0.300000" ry="0.150000" cx="-1000.000000" cy="-1000.000000" style="stroke-width:0.000000;fill:#44ccee;stroke:none;" transform="rotate(0.000000, -1000.000000, -1000.000000)"/>
<ellipse id="ellipse200" rx="0.300000" ry="0.150000" cx="-1000.000000" cy="-1000.000000" style="stroke-width:0.000000;fill:#44ccee;stroke:none;" transform="rotate(0.000000, -1000.000000, -1000.000000)"/>
<ellipse id="ellipse201" rx="0.300000" ry="0.150000" cx="-1000.000000" cy="-1000.000000" style="stroke-width:0.000000;fill:#44ccee;stroke:none;" transform="rotate(0.000000, -1000.000000, -1000.000000)"/>
<ellipse id="ellipse202" rx="0.300000" ry="0.150000" cx="-1000.000000" cy="-1000.000000" style="stroke-width:0.000000;fill:#44ccee;stroke:none;" transform="rotate(0.000000, -1000.000000, -1000.000000)"/>
<ellipse id="ellipse203" rx="0.300000" ry="0.150000" cx="-1000.000000" cy="-1000.000000" style="stroke-width:0.000000;fill:#44ccee;stroke:none;" transform="rotate(0.000000, -1000.000000, -1000.000000)"/>
<ellipse id="ellipse204" rx="0.300000" ry="0.150000" cx="-1000.000000" cy="-1000.000000" style="stroke-width:0.000000;fill:#44ccee;stroke:none;" transform="rotate(0.000000, -1000.000000, -1000.000000)"/>
<ellipse id="ellipse205" rx="0.300000" ry="0.150000" cx="-1000.000000" cy="-1000.000000" style="stroke-width:0.000000;fill:#44ccee;stroke:none;" transform="rotate(0.000000, -1000.000000, -1000.000000)"/>
<ellipse id="ellipse206" rx="0.300000" ry="0.150000" cx="-1000.000000" cy="-1000.000000" style="stroke-width:0.000000;fill:#44ccee;stroke:none;" transform="rotate(0.000000, -1000.000000, -1000.000000)"/>
<ellipse id="ellipse207" rx="0.300000" ry="0.150000" cx="-1000.000000" cy="-1000.000000" style="stroke-width:0.000000;fill:#44ccee;stroke:none;" transform="rotate(0.000000, -1000.000000, -1000.000000)"/>
<ellipse id="ellipse208" rx="0.300000" ry="0.150000" cx="-1000.000000" cy="-1000.000000" style="stroke-width:0.000000;fill:#44ccee;stroke:none;" transform="rotate(0.000000, -1000.000000, -1000.000000)"/>
<ellipse id="ellipse209" rx="0.300000" ry="0.150000" cx="-1000.000000" cy="-1000.000000" style="stroke-width:0.000000;fill:#44ccee;stroke:none;" transform="rotate(0.000000, -1000.000000, -1000.000000)"/>
<ellipse id="ellipse210" rx="0.300000" ry="0.150000" cx="-1000.000000" cy="-1000.000000" style="stroke-width:0.000000;fill:#44ccee;stroke:none;" transform="rotate(0.000000, -1000.000000, -1000.000000)"/>
<ellipse id="ellipse211" rx="0.300000" ry="0.150000" cx="-1000.000000" cy="-1000.000000" style="stroke-width:0.000000;fill:#44ccee;stroke:none;" transform="rotate(0.000000, -1000.000000, -1000.000000)"/>
<ellipse id="ellipse212" rx="0.300000" ry="0.150000" cx="-1000.000000" cy="-1000.000000" style="stroke-width:0.000000;fill:#44ccee;stroke:none;" transform="rotate(0.000000, -1000.000000, -1000.000000)"/>
<ellipse id="ellipse213" rx="0.300000" ry="0.150000" cx="-1000.000000" cy="-1000.000000" style="stroke-width:0.000000;fill:#44ccee;stroke:none;" transform="rotate(0.000000, -1000.000000, -1000.000000)"/>
<ellipse id="ellipse214" rx="0.300000" ry="0.150000" cx="-1000.000000" cy="-1000.000000" style="stroke-width:0.000000;fill:#44ccee;stroke:none;" transform="rotate(0.000000, -1000.000000, -1000.000000)"/>
<ellipse id="ellipse215" rx="0.300000" ry="0.150000" cx="-1000.000000" cy="-1000.000000" style="stroke-width:0.000000;fill:#44ccee;stroke:none;" transform="rotate(0.000000, -1000.000000, -1000.000000)"/>
<ellipse id="ellipse216" rx="0.300000" ry="0.150000" cx="-1000.000000" cy="-1000.000000" style="stroke-width:0.000000;fill:#44ccee;stroke:none;" transform="rotate(0.000000, -1000.000000, -1000.000000)"/>
<ellipse id="ellipse217" rx="0.300000" ry="0.150000" cx="-1000.000000" cy="-1000.000000" style="stroke-width:0.000000;fill:#44ccee;stroke:none;" transform="rotate(0.000000, -1000.000000, -1000.000000)"/>
<ellipse id="ellipse218" rx="0.300000" ry="0.150000" cx="-1000.000000" cy="-1000.000000" style="stroke-width:0.000000;fill:#44ccee;stroke:none;" transform="rotate(0.000000, -1000.000000, -1000.000000)"/>
<ellipse id="ellipse219" rx="0.300000" ry="0.150000" cx="-1000.000000" cy="-1000.000000" style="stroke-width:0.000000;fill:#44ccee;stroke:none;" transform="rotate(0.000000, -1000.000000, -1000.000000)"/>
<ellipse id="ellipse220" rx="0.300000" ry="0.150000" cx="-1000.000000" cy="-1000.000000" style="stroke-width:0.000000;fill:#44ccee;stroke:none;" transform="rotate(0.000000, -1000.000000, -1000.000000)"/>
<ellipse id="ellipse221" rx="0.300000" ry="0.150000" cx="-1000.000000" cy="-1000.000000" style="stroke-width:0.000000;fill:#44ccee;stroke:none;" transform="rotate(0.000000, -1000.000000, -1000.000000)"/>
<ellipse id="ellipse222" rx="0.300000" ry="0.150000" cx="-1000.000000" cy="-1000.000000" style="stroke-width:0.000000;fill:#44ccee;stroke:none;" transform="rotate(0.000000, -1000.000000, -1000.000000)"/>
<ellipse id="ellipse223" rx="0.300000" ry="0.150000" cx="-1000.000000" cy="-1000.000000" style="stroke-width:0.000000;fill:#44ccee;stroke:none;" transform="rotate(0.000000, -1000.000000, -1000.000000)"/>
<ellipse id="ellipse224" rx="0.300000" ry="0.150000" cx="-1000.000000" cy="-1000.000000" style="stroke-width:0.000000;fill:#44ccee;stroke:none;" transform="rotate(0.000000, -1000.000000, -1000.000000)"/>
<ellipse id="ellipse225" rx="0.300000" ry="0.150000" cx="-1000.000000" cy="-1000.000000" style="stroke-width:0.000000;fill:#44ccee;stroke:none;" transform="rotate(0.000000, -1000.000000, -1000.000000)"/>
<ellipse id="ellipse226" rx="0.300000" ry="0.150000" cx="-1000.000000" cy="-1000.000000" style="stroke-width:0.000000;fill:#44ccee;stroke:none;" transform="rotate(0.000000, -1000.000000, -1000.000000)"/>
<ellipse id="ellipse227" rx="0.300000" ry="0.150000" cx="-1000.000000" cy="-1000.000000" style="stroke-width:0.000000;fill:#44ccee;stroke:none;" transform="rotate(0.000000, -1000.000000, -1000.000000)"/>
<ellipse id="ellipse228" rx="0.300000" ry="0.150000" cx="-1000.000000" cy="-1000.000000" style="stroke-width:0.000000;fill:#44ccee;stroke:none;" transform="rotate(0.000000, -1000.000000, -1000.000000)"/>
<ellipse id="ellipse229" rx="0.300000" ry="0.150000" cx="-1000.000000" cy="-1000.000000" style="stroke-width:0.000000;fill:#44ccee;stroke:none;" transform="rotate(0.000000, -1000.000000, -1000.000000)"/>
<ellipse id="ellipse230" rx="0.300000" ry="0.150000" cx="-1000.000000" cy="-1000.000000" style="stroke-width:0.000000;fill:#44ccee;stroke:none;" transform="rotate(0.000000, -1000.000000, -1000.000000)"/>
<ellipse id="ellipse231" rx="0.300000" ry="0.150000" cx="-1000.000000" cy="-1000.000000" style="stroke-width:0.000000;fill:#44ccee;stroke:none;" transform="rotate(0.000000, -1000.000000, -1000.000000)"/>
<ellipse id="ellipse232" rx="0.300000" ry="0.150000" cx="-1000.000000" cy="-1000.000000" style="stroke-width:0.000000;fill:#44ccee;stroke:none;" transform="rotate(0.000000, -1000.000000, -1000.000000)"/>
<ellipse id="ellipse233" rx="0.300000" ry="0.150000" cx="-1000.000000" cy="-1000.000000" style="stroke-width:0.000000;fill:#44ccee;stroke:none;" transform="rotate(0.000000, -1000.000000, -1000.000000)"/>
<ellipse id="ellipse234" rx="0.300000" ry="0.150000" cx="-1000.000000" cy="-1000.000000" style="stroke-width:0.000000;fill:#44ccee;stroke:none;" transform="rotate(0.000000, -1000.000000, -1000.000000)"/>
<ellipse id="ellipse235" rx="0.300000" ry="0.150000" cx="-1000.000000" cy="-1000.000000" style="stroke-width:0.000000;fill:#44ccee;stroke:none;" transform="rotate(0.000000, -1000.000000, -1000.000000)"/>
<ellipse id="ellipse236" rx="0.300000" ry="0.150000" cx="-1000.000000" cy="-1000.000000" style="stroke-width:0.000000;fill:#44ccee;stroke:none;" transform="rotate(0.000000, -1000.000000, -1000.000000)"/>
<ellipse id="ellipse237" rx="0.300000" ry="0.150000" cx="-1000.000000" cy="-1000.000000" style="stroke-width:0.000000;fill:#44ccee;stroke:none;" transform="rotate(0.000000, -1000.000000, -1000.000000)"/>
<ellipse id="ellipse238" rx="0.300000" ry="0.150000" cx="-1000.000000" cy="-1000.000000" style="stroke-width:0.000000;fill:#44ccee;stroke:none;" transform="rotate(0.000000, -1000.000000, -1000.000000)"/>
<ellipse id="ellipse239" rx="0.300000" ry="0.150000" cx="-1000.000000" cy="-1000.000000" style="stroke-width:0.000000;fill:#44ccee;stroke:none;" transform="rotate(0.000000, -1000.000000, -1000.000000)"/>
<ellipse id="ellipse240" rx="0.300000" ry="0.150000" cx="-1000.000000" cy="-1000.000000" style="stroke-width:0.000000;fill:#44ccee;stroke:none;" transform="rotate(0.000000, -1000.000000, -1000.000000)"/>
<ellipse id="ellipse241" rx="0.300000" ry="0.150000" cx="-1000.000000" cy="-1000.000000" style="stroke-width:0.000000;fill:#44ccee;stroke:none;" transform="rotate(0.000000, -1000.000000, -1000.000000)"/>
<ellipse id="ellipse242" rx="0.300000" ry="0.150000" cx="-1000.000000" cy="-1000.000000" style="stroke-width:0.000000;fill:#44ccee;stroke:none;" transform="rotate(0.000000, -1000.000000, -1000.000000)"/>
<ellipse id="ellipse243" rx="0.300000" ry="0.150000" cx="-1000.000000" cy="-1000.000000" style="stroke-width:0.000000;fill:#44ccee;stroke:none;" transform="rotate(0.000000, -1000.000000, -1000.000000)"/>
<ellipse id="ellipse244" rx="0.300000" ry="0.150000" cx="-1000.000000" cy="-1000.000000" style="stroke-width:0.000000;fill:#44ccee;stroke:none;" transform="rotate(0.000000, -1000.000000, -1000.000000)"/>
<ellipse id="ellipse245" rx="0.300000" ry="0.150000" cx="-1000.000000" cy="-1000.000000" style="stroke-width:0.000000;fill:#44ccee;stroke:none;" transform="rotate(0.000000, -1000.000000, -1000.000000)"/>
<ellipse id="ellipse246" rx="0.300000" ry="0.150000" cx="-1000.000000" cy="-1000.000000" style="stroke-width:0.000000;fill:#44ccee;stroke:none;" transform="rotate(0.000000, -1000.000000, -1000.000000)"/>
<ellipse id="ellipse247" rx="0.300000" ry="0.150000" cx="-1000.000000" cy="-1000.000000" style="stroke-width:0.000000;fill:#44ccee;stroke:none;" transform="rotate(0.000000, -1000.000000, -1000.000000)"/>
<ellipse id="ellipse248" rx="0.300000" ry="0.150000" cx="-1000.000000" cy="-1000.000000" style="stroke-width:0.000000;fill:#44ccee;stroke:none;" transform="rotate(0.000000, -1000.000000, -1000.000000)"/>
<ellipse id="ellipse249" rx="0.300000" ry="0.150000" cx="-1000.000000" cy="-1000.000000" style="stroke-width:0.000000;fill:#44ccee;stroke:none;" transform="rotate(0.000000, -1000.000000, -1000.000000)"/>
<ellipse id="ellipse250" rx="0.300000" ry="0.150000" cx="-1000.000000" cy="-1000.000000" style="stroke-width:0.000000;fill:#44ccee;stroke:none;" transform="rotate(0.000000, -1000.000000, -1000.000000)"/>
<ellipse id="ellipse251" rx="0.300000" ry="0.150000" cx="-1000.000000" cy="-1000.000000" style="stroke-width:0.000000;fill:#44ccee;stroke:none;" transform="rotate(0.000000, -1000.000000, -1000.000000)"/>
<ellipse id="ellipse252" rx="0.300000" ry="0.150000" cx="-1000.000000" cy="-1000.000000" style="stroke-width:0.000000;fill:#44ccee;stroke:none;" transform="rotate(0.000000, -1000.000000, -1000.000000)"/>
<ellipse id="ellipse253" rx="0.300000" ry="0.150000" cx="-1000.000000" cy="-1000.000000" style="stroke-width:0.000000;fill:#44ccee;stroke:none;" transform="rotate(0.000000, -1000.000000, -1000.000000)"/>
<ellipse id="ellipse254" rx="0.300000" ry="0.150000" cx="-1000.000000" cy="-1000.000000" style="stroke-width:0.000000;fill:#44ccee;stroke:none;" transform="rotate(0.000000, -1000.000000, -1000.000000)"/>
<ellipse id="ellipse255" rx="0.300000" ry="0.150000" cx="-1000.000000" cy="-1000.000000" style="stroke-width:0.000000;fill:#44ccee;stroke:none;" transform="rotate(0.000000, -1000.000000, -1000.000000)"/>
<ellipse id="ellipse256" rx="0.300000" ry="0.150000" cx="-1000.000000" cy="-1000.000000" style="stroke-width:0.000000;fill:#44ccee;stroke:none;" transform="rotate(0.000000, -1000.000000, -1000.000000)"/>
<ellipse id="ellipse257" rx="0.300000" ry="0.150000" cx="0.927584" cy="-1.585502" style="stroke-width:0.000000;fill:#44ccee;stroke:none;" transform="rotate(0.000000, 0.927584, -1.585502)"/>
<ellipse id="ellipse258" rx="0.300000" ry="0.150000" cx="-1000.000000" cy="-1000.000000" style="stroke-width:0.000000;fill:#44ccee;stroke:none;" transform="rotate(0.000000, -1000.000000, -1000.000000)"/>
<ellipse id="ellipse259" rx="0.300000" ry="0.150000" cx="-1000.000000" cy="-1000.000000" style="stroke-width:0.000000;fill:#44ccee;stroke:none;" transform="rotate(0.000000, -1000.000000, -1000.000000)"/>
<ellipse id="ellipse260" rx="0.300000" ry="0.150000" cx="-1000.000000" cy="-1000.000000" style="stroke-width:0.000000;fill:#44ccee;stroke:none;" transform="rotate(0.000000, -1000.000000, -1000.000000)"/>
<ellipse id="ellipse261" rx="0.300000" ry="0.150000" cx="-1000.000000" cy="-1000.000000" style="stroke-width:0.000000;fill:#44ccee;stroke:none;" transform="rotate(0.000000, -1000.000000, -1000.000000)"/>
<ellipse id="ellipse262" rx="0.300000" ry="0.150000" cx="-1000.000000" cy="-1000.000000" style="stroke-width:0.000000;fill:#44ccee;stroke:none;" transform="rotate(0.000000, -1000.000000, -1000.000000)"/>
<ellipse id="ellipse263" rx="0.300000" ry="0.150000" cx="-1000.000000" cy="-1000.000000" style="stroke-width:0.000000;fill:#44ccee;stroke:none;" transform="rotate(0.000000, -1000.000000, -1000.000000)"/>
<ellipse id="ellipse264" rx="0.300000" ry="0.150000" cx="-1000.000000" cy="-1000.000000" style="stroke-width:0.000000;fill:#44ccee;stroke:none;" transform="rotate(0.000000, -1000.000000, -1000.000000)"/>
<ellipse id="ellipse265" rx="0.300000" ry="0.150000" cx="-1000.000000" cy="-1000.000000" style="stroke-width:0.000000;fill:#44ccee;stroke:none;" transform="rotate(0.000000, -1000.000000, -1000.000000)"/>
<ellipse id="ellipse266" rx="0.300000" ry="0.150000" cx="-1000.000000" cy="-1000.000000" style="stroke-width:0.000000;fill:#44ccee;stroke:none;" transform="rotate(0.000000, -1000.000000, -1000.000000)"/>
<ellipse id="ellipse267" rx="0.300000" ry="0.150000" cx="-1000.000000" cy="-1000.000000" style="stroke-width:0.000000;fill:#44ccee;stroke:none;" transform="rotate(0.000000, -1000.000000, -1000.000000)"/>
<ellipse id="ellipse268" rx="0.300000" ry="0.150000" cx="-1000.000000" cy="-1000.000000" style="stroke-width:0.000000;fill:#44ccee;stroke:none;" transform="rotate(0.000000, -1000.000000, -1000.000000)"/>
<ellipse id="ellipse269" rx="0.300000" ry="0.150000" cx="-1000.000000" cy="-1000.000000" style="stroke-width:0.000000;fill:#44ccee;stroke:none;" transform="rotate(0.000000, -1000.000000, -1000.000000)"/>
<ellipse id="ellipse270" rx="0.300000" ry="0.150000" cx="-1000.000000" cy="-1000.000000" style="stroke-width:0.000000;fill:#44ccee;stroke:none;" transform="rotate(0.000000, -1000.000000, -1000.000000)"/>
<ellipse id="ellipse271" rx="0.300000" ry="0.150000" cx="-1000.000000" cy="-1000.000000" style="stroke-width:0.000000;fill:#44ccee;stroke:none;" transform="rotate(0.000000, -1000.000000, -1000.000000)"/>
<ellipse id="ellipse272" rx="0.300000" ry="0.150000" cx="-1000.000000" cy="-1000.000000" style="stroke-width:0.000000;fill:#44ccee;stroke:none;" transform="rotate(0.000000, -1000.000000, -1000.000000)"/>
<ellipse id="ellipse273" rx="0.300000" ry="0.150000" cx="-1000.000000" cy="-1000.000000" style="stroke-width:0.000000;fill:#44ccee;stroke:none;" transform="rotate(0.000000, -1000.000000, -1000.000000)"/>
<ellipse id="ellipse274" rx="0.300000" ry="0.150000" cx="-1000.000000" cy="-1000.000000" style="stroke-width:0.000000;fill:#44ccee;stroke:none;" transform="rotate(0.000000, -1000.000000, -1000.000000)"/>
<ellipse id="ellipse275" rx="0.300000" ry="0.150000" cx="-1000.000000" cy="-1000.000000" style="stroke-width:0.000000;fill:#44ccee;stroke:none;" transform="rotate(0.000000, -1000.000000, -1000.000000)"/>
<ellipse id="ellipse276" rx="0.300000" ry="0.150000" cx="-1000.000000" cy="-1000.000000" style="stroke-width:0.000000;fill:#44ccee;stroke:none;" transform="rotate(0.000000, -1000.000000, -1000.000000)"/>
<ellipse id="ellipse277" rx="0.300000" ry="0.150000" cx="-1000.000000" cy="-1000.000000" style="stroke-width:0.000000;fill:#44ccee;stroke:none;" transform="rotate(0.000000, -1000.000000, -1000.000000)"/>
<ellipse id="ellipse278" rx="0.300000" ry="0.150000" cx="-1000.000000" cy="-1000.000000" style="stroke-width:0.000000;fill:#44ccee;stroke:none;" transform="rotate(0.000000, -1000.000000, -1000.000000)"/>
<ellipse id="ellipse279" rx="0.300000" ry="0.150000" cx="-1000.000000" cy="-1000.000000" style="stroke-width:0.000000;fill:#44ccee;stroke:none;" transform="rotate(0.000000, -1000.000000, -1000.000000)"/>
<ellipse id="ellipse280" rx="0.300000" ry="0.150000" cx="-1000.000000" cy="-1000.000000" style="stroke-width:0.000000;fill:#44ccee;stroke:none;" transform="rotate(0.000000, -1000.000000, -1000.000000)"/>
<ellipse id="ellipse281" rx="0.300000" ry="0.150000" cx="-1000.000000" cy="-1000.000000" style="stroke-width:0.000000;fill:#44ccee;stroke:none;" transform="rotate(0.000000, -1000.000000, -1000.000000)"/>
<ellipse id="ellipse282" rx="0.300000" ry="0.150000" cx="-1000.000000" cy="-1000.000000" style="stroke-width:0.000000;fill:#44ccee;stroke:none;" transform="rotate(0.000000, -1000.000000, -1000.000000)"/>
<ellipse id="ellipse283" rx="0.300000" ry="0.150000" cx="-1000.000000" cy="-1000.000000" style="stroke-width:0.000000;fill:#44ccee;stroke:none;" transform="rotate(0.000000, -1000.000000, -1000.000000)"/>
<ellipse id="ellipse284" rx="0.300000" ry="0.150000" cx="-1000.000000" cy="-1000.000000" style="stroke-width:0.000000;fill:#44ccee;stroke:none;" transform="rotate(0.000000, -1000.000000, -1000.000000)"/>
<ellipse id="ellipse285" rx="0.300000" ry="0.150000" cx="-1000.000000" cy="-1000.000000" style="stroke-width:0.000000;fill:#44ccee;stroke:none;" transform="rotate(0.000000, -1000.000000, -1000.000000)"/>
<ellipse id="ellipse286" rx="0.300000" ry="0.150000" cx="-1000.000000" cy="-1000.000000" style="stroke-width:0.000000;fill:#44ccee;stroke:none;" transform="rotate(0.000000, -1000.000000, -1000.000000)"/>
<ellipse id="ellipse287" rx="0.300000" ry="0.150000" cx="-1000.000000" cy="-1000.000000" style="stroke-width:0.000000;fill:#44ccee;stroke:none;" transform="rotate(0.000000, -1000.000000, -1000.000000)"/>
<ellipse id="ellipse288" rx="0.300000" ry="0.150000" cx="-1000.000000" cy="-1000.000000" style="stroke-width:0.000000;fill:#44ccee;stroke:none;" transform="rotate(0.000000, -1000.000000, -1000.000000)"/>
<ellipse id="ellipse289" rx="0.300000" ry="0.150000" cx="-1000.000000" cy="-1000.000000" style="stroke-width:0.000000;fill:#44ccee;stroke:none;" transform="rotate(0.000000, -1000.000000, -1000.000000)"/>
<ellipse id="ellipse290" rx="0.300000" ry="0.150000" cx="-1000.000000" cy="-1000.000000" style="stroke-width:0.000000;fill:#44ccee;stroke:none;" transform="rotate(0.000000, -1000.000000, -1000.000000)"/>
<ellipse id="ellipse291" rx="0.300000" ry="0.150000" cx="-1000.000000" cy="-1000.000000" style="stroke-width:0.000000;fill:#44ccee;stroke:none;" transform="rotate(0.000000, -1000.000000, -1000.000000)"/>
<ellipse id="ellipse292" rx="0.300000" ry="0.150000" cx="-1000.000000" cy="-1000.000000" style="stroke-width:0.000000;fill:#44ccee;stroke:none;" transform="rotate(0.000000, -1000.000000, -1000.000000)"/>
<ellipse id="ellipse293" rx="0.300000" ry="0.150000" cx="-1000.000000" cy="-1000.000000" style="stroke-width:0.000000;fill:#44ccee;stroke:none;" transform="rotate(0.000000, -1000.000000, -1000.000000)"/>
<ellipse id="ellipse294" rx="0.300000" ry="0.150000" cx="-1000.000000" cy="-1000.000000" style="stroke-width:0.000000;fill:#44ccee;stroke:none;" transform="rotate(0.000000, -1000.000000, -1000.000000)"/>
<ellipse id="ellipse295" rx="0.300000" ry="0.150000" cx="-1000.000000" cy="-1000.000000" style="stroke-width:0.000000;fill:#44ccee;stroke:none;" transform="rotate(0.000000, -1000.000000, -1000.000000)"/>
<ellipse id="ellipse296" rx="0.300000" ry="0.150000" cx="-1000.000000" cy="-1000.000000" style="stroke-width:0.000000;fill:#44ccee;stroke:none;" transform="rotate(0.000000, -1000.000000, -1000.000000)"/>
<ellipse id="ellipse297" rx="0.300000" ry="0.150000" cx="-1000.000000" cy="-1000.000000" style="stroke-width:0.000000;fill:#44ccee;stroke:none;" transform="rotate(0.000000, -1000.000000, -1000.000000)"/>
<ellipse id="ellipse298" rx="0.300000" ry="0.150000" cx="-1000.000000" cy="-1000.000000" style="stroke-width:0.000000;fill:#44ccee;stroke:none;" transform="rotate(0.000000, -1000.000000, -1000.000000)"/>
<ellipse id="ellipse299" rx="0.300000" ry="0.150000" cx="-1000.000000" cy="-1000.000000" style="stroke-width:0.000000;fill:#44ccee;stroke:none;" transform="rotate(0.000000, -1000.000000, -1000.000000)"/>
<ellipse id="ellipse300" rx="0.300000" ry="0.150000" cx="-1000.000000" cy="-1000.000000" style="stroke-width:0.000000;fill:#44ccee;stroke:none;" transform="rotate(0.000000, -1000.000000, -1000.000000)"/>
<ellipse id="ellipse301" rx="0.300000" ry="0.150000" cx="-1000.000000" cy="-1000.000000" style="stroke-width:0.000000;fill:#44ccee;stroke:none;" transform="rotate(0.000000, -1000.000000, -1000.000000)"/>
<ellipse id="ellipse302" rx="0.300000" ry="0.150000" cx="-1000.000000" cy="-1000.000000" style="stroke-width:0.000000;fill:#44ccee;stroke:none;" transform="rotate(0.000000, -1000.000000, -1000.000000)"/>
<ellipse id="ellipse303" rx="0.300000" ry="0.150000" cx="-1000.000000" cy="-1000.000000" style="stroke-width:0.000000;fill:#44ccee;stroke:none;" transform="rotate(0.000000, -1000.000000, -1000.000000)"/>
<ellipse id="ellipse304" rx="0.300000" ry="0.150000" cx="-1000.000000" cy="-1000.000000" style="stroke-width:0.000000;fill:#44ccee;stroke:none;" transform="rotate(0.000000, -1000.000000, -1000.000000)"/>
<ellipse id="ellipse305" rx="0.300000" ry="0.150000" cx="-1000.000000" cy="-1000.000000" style="stroke-width:0.000000;fill:#44ccee;stroke:none;" transform="rotate(0.000000, -1000.000000, -1000.000000)"/>
<ellipse id="ellipse306" rx="0.300000" ry="0.150000" cx="-1000.000000" cy="-1000.000000" style="stroke-width:0.000000;fill:#44ccee;stroke:none;" transform="rotate(0.000000, -1000.000000, -1000.000000)"/>
<ellipse id="ellipse307" rx="0.300000" ry="0.150000" cx="-1000.000000" cy="-1000.000000" style="stroke-width:0.000000;fill:#44ccee;stroke:none;" transform="rotate(0.000000, -1000.000000, -1000.000000)"/>
<ellipse id="ellipse308" rx="0.300000" ry="0.150000" cx="-1000.000000" cy="-1000.000000" style="stroke-width:0.000000;fill:#44ccee;stroke:none;" transform="rotate(0.000000, -1000.000000, -1000.000000)"/>
<ellipse id="ellipse309" rx="0.300000" ry="0.150000" cx="-1000.000000" cy="-1000.000000" style="stroke-width:0.000000;fill:#44ccee;stroke:none;" transform="rotate(0.000000, -1000.000000, -1000.000000)"/>
<ellipse id="ellipse310" rx="0.300000" ry="0.150000" cx="-1000.000000" cy="-1000.000000" style="stroke-width:0.000000;fill:#44ccee;stroke:none;" transform="rotate(0.000000, -1000.000000, -1000.000000)"/>
<ellipse id="ellipse311" rx="0.300000" ry="0.150000" cx="-1000.000000" cy="-1000.000000" style="stroke-width:0.000000;fill:#44ccee;stroke:none;" transform="rotate(0.000000, -1000.000000, -1000.000000)"/>
<ellipse id="ellipse312" rx="0.300000" ry="0.150000" cx="-1000.000000" cy="-1000.000000" style="stroke-width:0.000000;fill:#44ccee;stroke:none;" transform="rotate(0.000000, -1000.000000, -1000.000000)"/>
<ellipse id="ellipse313" rx="0.300000" ry="0.150000" cx="-1000.000000" cy="-1000.000000" style="stroke-width:0.000000;fill:#44ccee;stroke:none;" transform="rotate(0.000000, -1000.000000, -1000.000000)"/>
<ellipse id="ellipse314" rx="0.300000" ry="0.150000" cx="-1000.000000" cy="-1000.000000" style="stroke-width:0.000000;fill:#44ccee;stroke:none;" transform="rotate(0.000000, -1000.000000, -1000.000000)"/>
<ellipse id="ellipse315" rx="0.300000" ry="0.150000" cx="-1000.000000" cy="-1000.000000" style="stroke-width:0.000000;fill:#44ccee;stroke:none;" transform="rotate(0.000000, -1000.000000, -1000.000000)"/>
<ellipse id="ellipse316" rx="0.300000" ry="0.150000" cx="-1000.000000" cy="-1000.000000" style="stroke-width:0.000000;fill:#44ccee;stroke:none;" transform="rotate(0.000000, -1000.000000, -1000.000000)"/>
<ellipse id="ellipse317" rx="0.300000" ry="0.150000" cx="-1000.000000" cy="-1000.000000" style="stroke-width:0.000000;fill:#44ccee;stroke:none;" transform="rotate(0.000000, -1000.000000, -1000.000000)"/>
<ellipse id="ellipse318" rx="0.300000" ry="0.150000" cx="-1000.000000" cy="-1000.000000" style="stroke-width:0.000000;fill:#44ccee;stroke:none;" transform="rotate(0.000000, -1000.000000, -1000.000000)"/>
<ellipse id="ellipse319" rx="0.300000" ry="0.150000" cx="-1000.000000" cy="-1000.000000" style="stroke-width:0.000000;fill:#44ccee;stroke:none;" transform="rotate(0.000000, -1000.000000, -1000.000000)"/>
<ellipse id="ellipse320" rx="0.300000" ry="0.150000" cx="-1000.000000" cy="-1000.000000" style="stroke-width:0.000000;fill:#44ccee;stroke:none;" transform="rotate(0.000000, -1000.000000, -1000.000000)"/>
<ellipse id="ellipse321" rx="0.300000" ry="0.150000" cx="-1000.000000" cy="-1000.000000" style="stroke-width:0.000000;fill:#44ccee;stroke:none;" transform="rotate(0.000000, -1000.000000, -1000.000000)"/>
<ellipse id="ellipse322" rx="0.300000" ry="0.150000" cx="-1000.000000" cy="-1000.000000" style="stroke-width:0.000000;fill:#44ccee;stroke:none;" transform="rotate(0.000000, -1000.000000, -1000.000000)"/>
<ellipse id="ellipse323" rx="0.300000" ry="0.150000" cx="-1000.000000" cy="-1000.000000" style="stroke-width:0.000000;fill:#44ccee;stroke:none;" transform="rotate(0.000000, -1000.000000, -1000.000000)"/>
<ellipse id="ellipse324" rx="0.300000" ry="0.150000" cx="-1000.000000" cy="-1000.000000" style="stroke-width:0.000000;fill:#44ccee;stroke:none;" transform="rotate(0.000000, -1000.000000, -1000.000000)"/>
<ellipse id="ellipse325" rx="0.300000" ry="0.150000" cx="-1000.000000" cy="-1000.000000" style="stroke-width:0.000000;fill:#44ccee;stroke:none;" transform="rotate(0.000000, -1000.000000, -1000.000000)"/>
<ellipse id="ellipse326" rx="0.300000" ry="0.150000" cx="-1000.000000" cy="-1000.000000" style="stroke-width:0.000000;fill:#44ccee;stroke:none;" transform="rotate(0.000000, -1000.000000, -1000.000000)"/>
<ellipse id="ellipse327" rx="0.300000" ry="0.150000" cx="-1000.000000" cy="-1000.000000" style="stroke-width:0.000000;fill:#44ccee;stroke:none;" transform="rotate(0.000000, -1000.000000, -1000.000000)"/>
<ellipse id="ellipse328" rx="0.300000" ry="0.150000" cx="-1000.000000" cy="-1000.000000" style="stroke-width:0.000000;fill:#44ccee;stroke:none;" transform="rotate(0.000000, -1000.000000, -1000.000000)"/>
<ellipse id="ellipse329" rx="0.300000" ry="0.150000" cx="-1000.000000" cy="-1000.000000" style="stroke-width:0.000000;fill:#44ccee;stroke:none;" transform="rotate(0.000000, -1000.000000, -1000.000000)"/>
<ellipse id="ellipse330" rx="0.300000" ry="0.150000" cx="-1000.000000" cy="-1000.000000" style="stroke-width:0.000000;fill:#44ccee;stroke:none;" transform="rotate(0.000000, -1000.000000, -1000.000000)"/>
<ellipse id="ellipse331" rx="0.300000" ry="0.150000" cx="-1000.000000" cy="-1000.000000" style="stroke-width:0.000000;fill:#44ccee;stroke:none;" transform="rotate(0.000000, -1000.000000, -1000.000000)"/>
<ellipse id="ellipse332" rx="0.300000" ry="0.150000" cx="-1000.000000" cy="-1000.000000" style="stroke-width:0.000000;fill:#44ccee;stroke:none;" transform="rotate(0.000000, -1000.000000, -1000.000000)"/>
<ellipse id="ellipse333" rx="0.300000" ry="0.150000" cx="-1000.000000" cy="-1000.000000" style="stroke-width:0.000000;fill:#44ccee;stroke:none;" transform="rotate(0.000000, -1000.000000, -1000.000000)"/>
<ellipse id="ellipse334" rx="0.300000" ry="0.150000" cx="-1000.000000" cy="-1000.000000" style="stroke-width:0.000000;fill:#44ccee;stroke:none;" transform="rotate(0.000000, -1000.000000, -1000.000000)"/>
<ellipse id="ellipse335" rx="0.300000" ry="0.150000" cx="-1000.000000" cy="-1000.000000" style="stroke-width:0.000000;fill:#44ccee;stroke:none;" transform="rotate(0.000000, -1000.000000, -1000.000000)"/>
<ellipse id="ellipse336" rx="0.300000" ry="0.150000" cx="-1000.000000" cy="-1000.000000" style="stroke-width:0.000000;fill:#44ccee;stroke:none;" transform="rotate(0.000000, -1000.000000, -1000.000000)"/>
<ellipse id="ellipse337" rx="0.300000" ry="0.150000" cx="-1000.000000" cy="-1000.000000" style="stroke-width:0.000000;fill:#44ccee;stroke:none;" transform="rotate(0.000000, -1000.000000, -1000.000000)"/>
<ellipse id="ellipse338" rx="0.300000" ry="0.150000" cx="-1000.000000" cy="-1000.000000" style="stroke-width:0.000000;fill:#44ccee;stroke:none;" transform="rotate(0.000000, -1000.000000, -1000.000000)"/>
<ellipse id="ellipse339" rx="0.300000" ry="0.150000" cx="-1000.000000" cy="-1000.000000" style="stroke-width:0.000000;fill:#44ccee;stroke:none;" transform="rotate(0.000000, -1000.000000, -1000.000000)"/>
<ellipse id="ellipse340" rx="0.300000" ry="0.150000" cx="-1000.000000" cy="-1000.000000" style="stroke-width:0.000000;fill:#44ccee;stroke:none;" transform="rotate(0.000000, -1000.000000, -1000.000000)"/>
<ellipse id="ellipse341" rx="0.300000" ry="0.150000" cx="-1000.000000" cy="-1000.000000" style="stroke-width:0.000000;fill:#44ccee;stroke:none;" transform="rotate(0.000000, -1000.000000, -1000.000000)"/>
<ellipse id="ellipse342" rx="0.300000" ry="0.150000" cx="-1000.000000" cy="-1000.000000" style="stroke-width:0.000000;fill:#44ccee;stroke:none;" transform="rotate(0.000000, -1000.000000, -1000.000000)"/>
<ellipse id="ellipse343" rx="0.300000" ry="0.150000" cx="-1000.000000" cy="-1000.000000" style="stroke-width:0.000000;fill:#44ccee;stroke:none;" transform="rotate(0.000000, -1000.000000, -1000.000000)"/>
<ellipse id="ellipse344" rx="0.300000" ry="0.150000" cx="-1000.000000" cy="-1000.000000" style="stroke-width:0.000000;fill:#44ccee;stroke:none;" transform="rotate(0.000000, -1000.000000, -1000.000000)"/>
<ellipse id="ellipse345" rx="0.300000" ry="0.150000" cx="-1000.000000" cy="-1000.000000" style="stroke-width:0.000000;fill:#44ccee;stroke:none;" transform="rotate(0.000000, -1000.000000, -1000.000000)"/>
<ellipse id="ellipse346" rx="0.300000" ry="0.150000" cx="-1000.000000" cy="-1000.000000" style="stroke-width:0.000000;fill:#44ccee;stroke:none;" transform="rotate(0.000000, -1000.000000, -1000.000000)"/>
<ellipse id="ellipse347" rx="0.300000" ry="0.150000" cx="-1000.000000" cy="-1000.000000" style="stroke-width:0.000000;fill:#44ccee;stroke:none;" transform="rotate(0.000000, -1000.000000, -1000.000000)"/>
<ellipse id="ellipse348" rx="0.300000" ry="0.150000" cx="-1000.000000" cy="-1000.000000" style="stroke-width:0.000000;fill:#44ccee;stroke:none;" transform="rotate(0.000000, -1000.000000, -1000.000000)"/>
<ellipse id="ellipse349" rx="0.300000" ry="0.150000" cx="-1000.000000" cy="-1000.000000" style="stroke-width:0.000000;fill:#44ccee;stroke:none;" transform="rotate(0.000000, -1000.000000, -1000.000000)"/>
<ellipse id="ellipse350" rx="0.300000" ry="0.150000" cx="-1000.000000" cy="-1000.000000" style="stroke-width:0.000000;fill:#44ccee;stroke:none;" transform="rotate(0.000000, -1000.000000, -1000.000000)"/>
<ellipse id="ellipse351" rx="0.300000" ry="0.150000" cx="-1000.000000" cy="-1000.000000" style="stroke-width:0.000000;fill:#44ccee;stroke:none;" transform="rotate(0.000000, -1000.000000, -1000.000000)"/>
<ellipse id="ellipse352" rx="0.300000" ry="0.150000" cx="-1000.000000" cy="-1000.000000" style="stroke-width:0.000000;fill:#44ccee;stroke:none;" transform="rotate(0.000000, -1000.000000, -1000.000000)"/>
<ellipse id="ellipse353" rx="0.300000" ry="0.150000" cx="-1000.000000" cy="-1000.000000" style="stroke-width:0.000000;fill:#44ccee;stroke:none;" transform="rotate(0.000000, -1000.000000, -1000.000000)"/>
<ellipse id="ellipse354" rx="0.300000" ry="0.150000" cx="-1000.000000" cy="-1000.000000" style="stroke-width:0.000000;fill:#44ccee;stroke:none;" transform="rotate(0.000000, -1000.000000, -1000.000000)"/>
<ellipse id="ellipse355" rx="0.300000" ry="0.150000" cx="-1000.000000" cy="-1000.000000" style="stroke-width:0.000000;fill:#44ccee;stroke:none;" transform="rotate(0.000000, -1000.000000, -1000.000000)"/>
<ellipse id="ellipse356" rx="0.300000" ry="0.150000" cx="-1000.000000" cy="-1000.000000" style="stroke-width:0.000000;fill:#44ccee;stroke:none;" transform="rotate(0.000000, -1000.000000, -1000.000000)"/>
<ellipse id="ellipse357" rx="0.300000" ry="0.150000" cx="-1000.000000" cy="-1000.000000" style="stroke-width:0.000000;fill:#44ccee;stroke:none;" transform="rotate(0.000000, -1000.000000, -1000.000000)"/>
<ellipse id="ellipse358" rx="0.300000" ry="0.150000" cx="-1000.000000" cy="-1000.000000" style="stroke-width:0.000000;fill:#44ccee;stroke:none;" transform="rotate(0.000000, -1000.000000, -1000.000000)"/>
<ellipse id="ellipse359" rx="0.300000" ry="0.150000" cx="-1000.000000" cy="-1000.000000" style="stroke-width:0.000000;fill:#44ccee;stroke:none;" transform="rotate(0.000000, -1000.000000, -1000.000000)"/>
<ellipse id="ellipse360" rx="0.300000" ry="0.150000" cx="-1000.000000" cy="-1000.000000" style="stroke-width:0.000000;fill:#44ccee;stroke:none;" transform="rotate(0.000000, -1000.000000, -1000.000000)"/>
<ellipse id="ellipse361" rx="0.300000" ry="0.150000" cx="-1000.000000" cy="-1000.000000" style="stroke-width:0.000000;fill:#44ccee;stroke:none;" transform="rotate(0.000000, -1000.000000, -1000.000000)"/>
<ellipse id="ellipse362" rx="0.300000" ry="0.150000" cx="-1000.000000" cy="-1000.000000" style="stroke-width:0.000000;fill:#44ccee;stroke:none;" transform="rotate(0.000000, -1000.000000, -1000.000000)"/>
<ellipse id="ellipse363" rx="0.300000" ry="0.150000" cx="-1000.000000" cy="-1000.000000" style="stroke-width:0.000000;fill:#44ccee;stroke:none;" transform="rotate(0.000000, -1000.000000, -1000.000000)"/>
<ellipse id="ellipse364" rx="0.300000" ry="0.150000" cx="-1000.000000" cy="-1000.000000" style="stroke-width:0.000000;fill:#44ccee;stroke:none;" transform="rotate(0.000000, -1000.000000, -1000.000000)"/>
<ellipse id="ellipse365" rx="0.300000" ry="0.150000" cx="-1000.000000" cy="-1000.000000" style="stroke-width:0.000000;fill:#44ccee;stroke:none;" transform="rotate(0.000000, -1000.000000, -1000.000000)"/>
<ellipse id="ellipse366" rx="0.300000" ry="0.150000" cx="1.318164" cy="-1.721150" style="stroke-width:0.000000;fill:#44ccee;stroke:none;" transform="rotate(0.000000, 1.318164, -1.721150)"/>
<ellipse id="ellipse367" rx="0.300000" ry="0.150000" cx="-1000.000000" cy="-1000.000000" style="stroke-width:0.000000;fill:#44ccee;stroke:none;" transform="rotate(0.000000, -1000.000000, -1000.000000)"/>
<ellipse id="ellipse368" rx="0.300000" ry="0.150000" cx="-1000.000000" cy="-1000.000000" style="stroke-width:0.000000;fill:#44ccee;stroke:none;" transform="rotate(0.000000, -1000.000000, -1000.000000)"/>
<ellipse id="ellipse369" rx="0.300000" ry="0.150000" cx="-1000.000000" cy="-1000.000000" style="stroke-width:0.000000;fill:#44ccee;stroke:none;" transform="rotate(0.000000, -1000.000000, -1000.000000)"/>
<ellipse id="ellipse370" rx="0.300000" ry="0.150000" cx="-1000.000000" cy="-1000.000000" style="stroke-width:0.000000;fill:#44ccee;stroke:none;" transform="rotate(0.000000, -1000.000000, -1000.000000)"/>
<ellipse id="ellipse371" rx="0.300000" ry="0.150000" cx="-1000.000000" cy="-1000.000000" style="stroke-width:0.000000;fill:#44ccee;stroke:none;" transform="rotate(0.000000, -1000.000000, -1000.000000)"/>
<ellipse id="ellipse372" rx="0.300000" ry="0.150000" cx="-1000.000000" cy="-1000.000000" style="stroke-width:0.000000;fill:#44ccee;stroke:none;" transform="rotate(0.000000, -1000.000000, -1000.000000)"/>
<ellipse id="ellipse373" rx="0.300000" ry="0.150000" cx="-1000.000000" cy="-1000.000000" style="stroke-width:0.000000;fill:#44ccee;stroke:none;" transform="rotate(0.000000, -1000.000000, -1000.000000)"/>
<ellipse id="ellipse374" rx="0.300000" ry="0.150000" cx="-1000.000000" cy="-1000.000000" style="stroke-width:0.000000;fill:#44ccee;stroke:none;" transform="rotate(0.000000, -1000.000000, -1000.000000)"/>
<ellipse id="ellipse375" rx="0.300000" ry="0.150000" cx="-1000.000000" cy="-1000.000000" style="stroke-width:0.000000;fill:#44ccee;stroke:none;" transform="rotate(0.000000, -1000.000000, -1000.000000)"/>
<ellipse id="ellipse376" rx="0.300000" ry="0.150000" cx="-1000.000000" cy="-1000.000000" style="stroke-width:0.000000;fill:#44ccee;stroke:none;" transform="rotate(0.000000, -1000.000000, -1000.000000)"/>
<ellipse id="ellipse377" rx="0.300000" ry="0.150000" cx="-1000.000000" cy="-1000.000000" style="stroke-width:0.000000;fill:#44ccee;stroke:none;" transform="rotate(0.000000, -1000.000000, -1000.000000)"/>
<ellipse id="ellipse378" rx="0.300000" ry="0.150000" cx="-1000.000000" cy="-1000.000000" style="stroke-width:0.000000;fill:#44ccee;stroke:none;" transform="rotate(0.000000, -1000.000000, -1000.000000)"/>
<ellipse id="ellipse379" rx="0.300000" ry="0.150000" cx="-1000.000000" cy="-1000.000000" style="stroke-width:0.000000;fill:#44ccee;stroke:none;" transform="rotate(0.000000, -1000.000000, -1000.000000)"/>
<ellipse id="ellipse380" rx="0.300000" ry="0.150000" cx="-1000.000000" cy="-1000.000000" style="stroke-width:0.000000;fill:#44ccee;stroke:none;" transform="rotate(0.000000, -1000.000000, -1000.000000)"/>
<ellipse id="ellipse381" rx="0.300000" ry="0.150000" cx="-1000.000000" cy="-1000.000000" style="stroke-width:0.000000;fill:#44ccee;stroke:none;" transform="rotate(0.000000, -1000.000000, -1000.000000)"/>
<ellipse id="ellipse382" rx="0.300000" ry="0.150000" cx="-1000.000000" cy="-1000.000000" style="stroke-width:0.000000;fill:#44ccee;stroke:none;" transform="rotate(0.000000, -1000.000000, -1000.000000)"/>
<ellipse id="ellipse383" rx="0.300000" ry="0.150000" cx="-1000.000000" cy="-1000.000000" style="stroke-width:0.000000;fill:#44ccee;stroke:none;" transform="rotate(0.000000, -1000.000000, -1000.000000)"/>
<ellipse id="ellipse384" rx="0.300000" ry="0.150000" cx="-1000.000000" cy="-1000.000000" style="stroke-width:0.000000;fill:#44ccee;stroke:none;" transform="rotate(0.000000, -1000.000000, -1000.000000)"/>
<ellipse id="ellipse385" rx="0.300000" ry="0.150000" cx="-1000.000000" cy="-1000.000000" style="stroke-width:0.000000;fill:#44ccee;stroke:none;" transform="rotate(0.000000, -1000.000000, -1000.000000)"/>
<ellipse id="ellipse386" rx="0.300000" ry="0.150000" cx="-1000.000000" cy="-1000.000000" style="stroke-width:0.000000;fill:#44ccee;stroke:none;" transform="rotate(0.000000, -1000.000000, -1000.000000)"/>
<ellipse id="ellipse387" rx="0.300000" ry="0.150000" cx="-1000.000000" cy="-1000.000000" style="stroke-width:0.000000;fill:#44ccee;stroke:none;" transform="rotate(0.000000, -1000.000000, -1000.000000)"/>
<ellipse id="ellipse388" rx="0.300000" ry="0.150000" cx="-1000.000000" cy="-1000.000000" style="stroke-width:0.000000;fill:#44ccee;stroke:none;" transform="rotate(0.000000, -1000.000000, -1000.000000)"/>
<ellipse id="ellipse389" rx="0.300000" ry="0.150000" cx="-1000.000000" cy="-1000.000000" style="stroke-width:0.000000;fill:#44ccee;stroke:none;" transform="rotate(0.000000, -1000.000000, -1000.000000)"/>
<ellipse id="ellipse390" rx="0.300000" ry="0.150000" cx="-1000.000000" cy="-1000.000000" style="stroke-width:0.000000;fill:#44ccee;stroke:none;" transform="rotate(0.000000, -1000.000000, -1000.000000)"/>
<ellipse id="ellipse391" rx="0.300000" ry="0.150000" cx="-1000.000000" cy="-1000.000000" style="stroke-width:0.000000;fill:#44ccee;stroke:none;" transform="rotate(0.000000, -1000.000000, -1000.000000)"/>
<ellipse id="ellipse392" rx="0.300000" ry="0.150000" cx="-1000.000000" cy="-1000.000000" style="stroke-width:0.000000;fill:#44ccee;stroke:none;" transform="rotate(0.000000, -1000.000000, -1000.000000)"/>
<ellipse id="ellipse393" rx="0.300000" ry="0.150000" cx="-1000.000000" cy="-1000.000000" style="stroke-width:0.000000;fill:#44ccee;stroke:none;" transform="rotate(0.000000, -1000.000000, -1000.000000)"/>
<ellipse id="ellipse394" rx="0.300000" ry="0.150000" cx="-1000.000000" cy="-1000.000000" style="stroke-width:0.000000;fill:#44ccee;stroke:none;" transform="rotate(0.000000, -1000.000000, -1000.000000)"/>
<ellipse id="ellipse395" rx="0.300000" ry="0.150000" cx="-1000.000000" cy="-1000.000000" style="stroke-width:0.000000;fill:#44ccee;stroke:none;" transform="rotate(0.000000, -1000.000000, -1000.000000)"/>
<ellipse id="ellipse396" rx="0.300000" ry="0.150000" cx="-1000.000000" cy="-1000.000000" style="stroke-width:0.000000;fill:#44ccee;stroke:none;" transform="rotate(0.000000, -1000.000000, -1000.000000)"/>
<ellipse id="ellipse397" rx="0.300000" ry="0.150000" cx="-1000.000000" cy="-1000.000000" style="stroke-width:0.000000;fill:#44ccee;stroke:none;" transform="rotate(0.000000, -1000.000000, -1000.000000)"/>
<ellipse id="ellipse398" rx="0.300000" ry="0.150000" cx="-1000.000000" cy="-1000.000000" style="stroke-width:0.000000;fill:#44ccee;stroke:none;" transform="rotate(0.000000, -1000.000000, -1000.000000)"/>
<ellipse id="ellipse399" rx="0.300000" ry="0.150000" cx="-1000.000000" cy="-1000.000000" style="stroke-width:0.000000;fill:#44ccee;stroke:none;" transform="rotate(0.000000, -1000.000000, -1000.000000)"/>
<path id="path400" style="stroke-width:0.200000;fill:none;stroke:#f39112;" d="M -4.546597,2.259814  L -4.499116,2.223769  L -4.451635,2.187725  L -4.404154,2.151680  L -4.356673,2.115636  L -4.309192,2.079592  L -4.261711,2.043547  L -4.214230,2.007503  L -4.166749,1.971458  L -4.119268,1.935414  L -4.071787,1.899369  L -4.007464,1.858404  L -3.943140,1.817440  L -3.878817,1.776475  L -3.814493,1.735510  L -3.750170,1.694545  L -3.685846,1.653580  L -3.621523,1.612615  L -3.557199,1.571650  L -3.492876,1.530685  L -3.428552,1.489720  L -3.380113,1.451274  L -3.331673,1.412828  L -3.283233,1.374382  L -3.234794,1.335937  L -3.186354,1.297491  L -3.137914,1.259045  L -3.089474,1.220599  L -3.041035,1.182153  L -2.992595,1.143707  L -2.944155,1.105262  L -2.890495,1.076261  L -2.836835,1.047260  L -2.783174,1.018259  L -2.729514,0.989258  L -2.675854,0.960257  L -2.622194,0.931256  L -2.568533,0.902255  L -2.514873,0.873254  L -2.461213,0.844253  L -2.407553,0.815252  L -2.362194,0.774190  L -2.316836,0.733128  L -2.271478,0.692066  L -2.226120,0.651004  L -2.180762,0.609942  L -2.135404,0.568880  L -2.090045,0.527817  L -2.044687,0.486755  L -1.999329,0.445693  L -1.953971,0.404631  L -1.906206,0.378707  L -1.858442,0.352782  L -1.810677,0.326858  L -1.762913,0.300933  L -1.715148,0.275009  L -1.667383,0.249084  L -1.619619,0.223160  L -1.571854,0.197235  L -1.524090,0.171311  L -1.476325,0.145386  L -1.420028,0.117891  L -1.363732,0.090396  L -1.307435,0.062901 " />
<path id="path401" style="stroke-width:0.050000;fill:none;stroke:#aa55dd;" d="M 8.692565,0.062901  L 8.691042,0.237425  L 8.686473,0.411896  L 8.678860,0.586260  L 8.668205,0.760465  L 8.654512,0.934458  L 8.637784,1.108185  L 8.618026,1.281594  L 8.595245,1.454632  L 8.569448,1.627245  L 8.540642,1.799383  L 8.508836,1.970991  L 8.474041,2.142018  L 8.436265,2.312411  L 8.395522,2.482120  L 8.351823,2.651091  L 8.305182,2.819274  L 8.255612,2.986618  L 8.203130,3.153071  L 8.147750,3.318582  L 8.089491,3.483102  L 8.028369,3.646580  L 7.964403,3.808967  L 7.897613,3.970212  L 7.828019,4.130267  L 7.755642,4.289083  L 7.680505,4.446612  L 7.602630,4.602806  L 7.522041,4.757616  L 7.438762,4.910997  L 7.352819,5.062901  L 7.264238,5.213281  L 7.173046,5.362093  L 7.079270,5.509291  L 6.982940,5.654830  L 2.065381,2.424572  L 1.930263,2.415226  L 1.832368,2.428912  L 1.752639,2.453693  L 1.687132,2.487854  L 1.636855,2.533454  L 1.615345,2.603635  L 6.124013,6.754207  L 6.006102,6.882884  L 5.885963,7.009484  L 5.763632,7.133969  L 5.639148,7.256299  L 5.512548,7.376438  L 5.383871,7.494349  L 5.253155,7.609997  L -0.505060,1.019135  L -0.530952,1.021778  L -0.550806,1.031343  L -0.566403,1.046283  L -0.577450,1.067639  L 4.428329,8.254421  L 4.284494,8.353276  L 4.138955,8.449606  L 3.991757,8.543382  L 3.842945,8.634574  L 3.692565,8.723155  L 3.540661,8.809098  L 3.387280,8.892377  L 3.232470,8.972966  L 3.076276,9.050841  L 2.918747,9.125979  L 2.759931,9.198355  L 2.599876,9.267949  L 2.438631,9.334739  L 2.276244,9.398705  L 2.112766,9.459827  L 1.948246,9.518086  L 1.782735,9.573466  L 1.616282,9.625948  L 1.448938,9.675518  L 1.280755,9.722159  L 1.111784,9.765858  L 0.942075,9.806601  L 0.771682,9.844377  L 0.600655,9.879173  L 0.429046,9.910978  L 0.256909,9.939784  L 0.084296,9.965581  L -0.088742,9.988362  L -0.262151,10.008120  L -0.435878,10.024848  L -0.609871,10.038541  L -0.784076,10.049196  L -0.958440,10.056809  L -1.132911,10.061378  L -1.307435,10.062901  L -1.481959,10.061378  L -1.656430,10.056809  L -1.830795,10.049196  L -2.005000,10.038541  L -2.178993,10.024848  L -2.352720,10.008120  L -2.526129,9.988362  L -2.699166,9.965581  L -2.871780,9.939784  L -3.043917,9.910978  L -3.215525,9.879173  L -3.386552,9.844377  L -3.556946,9.806601  L -3.726654,9.765858  L -3.895626,9.722159  L -4.063809,9.675518  L -4.231152,9.625948  L -4.397605,9.573466  L -4.563117,9.518086  L -4.727637,9.459827  L -4.891115,9.398705  L -5.053501,9.334739  L -5.214747,9.267949  L -5.374802,9.198355  L -5.533618,9.125979  L -5.691147,9.050841  L -5.847340,8.972966  L -6.002151,8.892377  L -6.155532,8.809098  L -6.307435,8.723155  L -6.457816,8.634574  L -6.606628,8.543382  L -6.753826,8.449606  L -6.899364,8.353276  L -7.043200,8.254421  L -7.185288,8.153071  L -7.325586,8.049256  L -7.464050,7.943008  L -7.600639,7.834360  L -7.735311,7.723345  L -7.868026,7.609997  L -7.998741,7.494349  L -8.127419,7.376438  L -8.254019,7.256299  L -8.378503,7.133969  L -8.500833,7.009484  L -8.620972,6.882884  L -8.738884,6.754207  L -8.854531,6.623491  L -8.967880,6.490777  L -9.078895,6.356105  L -9.187543,6.219515  L -9.293790,6.081051  L -9.397605,5.940753  L -9.498956,5.798665  L -9.597811,5.654830  L -9.694141,5.509291  L -9.787916,5.362093  L -9.879108,5.213281  L -9.967689,5.062901  L -10.053632,4.910997  L -10.136911,4.757616  L -10.217501,4.602806  L -10.295376,4.446612  L -10.370513,4.289083  L -10.442890,4.130267  L -10.512484,3.970212  L -10.579274,3.808967  L -10.643240,3.646580  L -10.704362,3.483102  L -10.762621,3.318582  L -10.818001,3.153071  L -10.870483,2.986618  L -10.920052,2.819274  L -10.966694,2.651091  L -11.010393,2.482120  L -11.051136,2.312411  L -11.088911,2.142018  L -11.123707,1.970991  L -11.155513,1.799383  L -11.184319,1.627245  L -11.210116,1.454632  L -11.232897,1.281594  L -11.252654,1.108185  L -11.269382,0.934458  L -11.283076,0.760465  L -11.293731,0.586260  L -11.301344,0.411896  L -11.305912,0.237425  L -11.307435,0.062901  L -11.305912,-0.111623  L -11.301344,-0.286094  L -11.293731,-0.460459  L -11.283076,-0.634664  L -11.269382,-0.808657  L -11.252654,-0.982384  L -11.232897,-1.155793  L -11.210116,-1.328830  L -11.184319,-1.501444  L -11.155513,-1.673581  L -11.123707,-1.845189  L -11.088911,-2.016216  L -11.051136,-2.186610  L -11.010393,-2.356318  L -10.966694,-2.525290  L -10.920052,-2.693473  L -10.870483,-2.860816  L -10.818001,-3.027269  L -10.762621,-3.192781  L -10.704362,-3.357301  L -10.643240,-3.520779  L -10.579274,-3.683165  L -10.512484,-3.844411  L -10.442890,-4.004466  L -10.370513,-4.163282  L -10.295376,-4.320811  L -10.217501,-4.477004  L -10.136911,-4.631815  L -10.053632,-4.785195  L -9.967689,-4.937099  L -9.879108,-5.087480  L -9.787916,-5.236292  L -9.694141,-5.383490  L -9.597811,-5.529028  L -9.498956,-5.672864  L -9.397605,-5.814952  L -9.293790,-5.955249  L -9.187543,-6.093714  L -9.078895,-6.230303  L -8.967880,-6.364975  L -8.854531,-6.497690  L -8.738884,-6.628405  L -8.620972,-6.757083  L -8.500833,-6.883683  L -8.378503,-7.008167  L -8.254019,-7.130497  L -8.127419,-7.250636  L -7.998741,-7.368548  L -7.868026,-7.484195  L -7.735311,-7.597544  L -7.600639,-7.708559  L -7.464050,-7.817207  L -7.325586,-7.923454  L -7.185288,-8.027269  L -7.043200,-8.128620  L -6.899364,-8.227475  L -6.753826,-8.323805  L -6.606628,-8.417580  L -6.457816,-8.508772  L -6.307435,-8.597353  L -6.155532,-8.683296  L -6.002151,-8.766575  L -5.847340,-8.847165  L -5.691147,-8.925040  L -5.533618,-9.000177  L -5.374802,-9.072554  L -5.214747,-9.142148  L -5.053501,-9.208938  L -4.891115,-9.272904  L -4.727637,-9.334025  L -4.563117,-9.392285  L -4.397605,-9.447664  L -4.231152,-9.500147  L -4.063809,-9.549716  L -3.895626,-9.596358  L -3.726654,-9.640057  L -3.556946,-9.680800  L -3.386552,-9.718575  L -3.215525,-9.753371  L -3.043917,-9.785177  L -2.871780,-9.813983  L -2.699166,-9.839780  L -2.526129,-9.862561  L -2.352720,-9.882318  L -2.178993,-9.899046  L -2.005000,-9.912740  L -1.830795,-9.923395  L -1.656430,-9.931008  L -1.481959,-9.935576  L -1.307435,-9.937099  L -1.132911,-9.935576  L -0.958440,-9.931008  L -0.784076,-9.923395  L -0.609871,-9.912740  L -0.435878,-9.899046  L -0.262151,-9.882318  L -0.088742,-9.862561  L 0.084296,-9.839780  L 0.256909,-9.813983  L -1.047334,-1.412206  L -1.026404,-1.382881  L -1.004231,-1.363565  L -0.981508,-1.348847  L -0.958392,-1.337035  L -0.934921,-1.327341  L -0.911087,-1.319332  L -0.886858,-1.312746  L -0.862189,-1.307427  L -0.837021,-1.303283  L -0.811282,-1.300270  L -0.784884,-1.298392  L -0.757721,-1.297690  L -0.729657,-1.298260  L -0.700517,-1.300261  L -0.670062,-1.303951  L -0.637945,-1.309757  L -0.603609,-1.318436  L -0.565995,-1.331545  L -0.522284,-1.353549  L 3.692565,-8.597353  L 3.842945,-8.508772  L 3.991757,-8.417580  L 4.138955,-8.323805  L -0.578682,-1.017520  L -0.573751,-0.984910  L -0.560923,-0.964586  L -0.543599,-0.950745  L -0.521661,-0.942845  L 4.985769,-7.708559  L 5.120441,-7.597544  L 5.253155,-7.484195  L 5.383871,-7.368548  L 5.512548,-7.250636  L 5.639148,-7.130497  L 5.763632,-7.008167  L 5.885963,-6.883683  L 6.006102,-6.757083  L 6.124013,-6.628405  L 0.642410,-1.632074  L 0.630829,-1.563497  L 0.653232,-1.524816  L 0.687392,-1.495629  L 0.730178,-1.472551  L 0.781189,-1.454574  L 0.841511,-1.441808  L 0.914257,-1.435650  L 1.008452,-1.441054  L 1.307737,-1.571240  L 1.430114,-1.581985  L 7.352819,-4.937099  L 7.438762,-4.785195  L 7.522041,-4.631815  L 7.602630,-4.477004  L 7.680505,-4.320811  L 7.755642,-4.163282  L 7.828019,-4.004466  L 7.897613,-3.844411  L 7.964403,-3.683165  L 8.028369,-3.520779  L 8.089491,-3.357301  L 8.147750,-3.192781  L 8.203130,-3.027269  L 8.255612,-2.860816  L 8.305182,-2.693473  L 8.351823,-2.525290  L 8.395522,-2.356318  L 8.436265,-2.186610  L 8.474041,-2.016216  L 8.508836,-1.845189  L 8.540642,-1.673581  L 8.569448,-1.501444  L 8.595245,-1.328830  L 8.618026,-1.155793  L 8.637784,-0.982384  L 8.654512,-0.808657  L 8.668205,-0.634664  L 8.678860,-0.460459  L 8.686473,-0.286094  L 8.691042,-0.111623  z " />
<ellipse id="ellipse402" rx="0.871237" ry="0.711362" cx="-1.316956" cy="0.078595" style="stroke-width:0.050000;fill:none;stroke:#ffff00;" transform="rotate(45.000000, -1.316956, 0.078595)"/>
<circle id="circle403" r="0.050000" cx="-1.316956" cy="0.078595" style="stroke-width:0.100000;fill:none;stroke:#ffff00;"/>
<ellipse id="ellipse404" rx="1.437305" ry="1.173554" cx="-1.273290" cy="0.080445" style="stroke-width:0.050000;fill:none;stroke:#ff00ff;" transform="rotate(45.000000, -1.273290, 0.080445)"/>
<circle id="circle405" r="0.050000" cx="-1.273290" cy="0.080445" style="stroke-width:0.100000;fill:none;stroke:#ff00ff;"/></g></svg>