<svg width="1600px" height="900px" viewBox="-25 -13 16.3292717 21.292512"><g id="layer1" transform="rotate(90,-2.4945089,-5.5210241)"><image x="0" y="0" width="800" height="800" xlink:href="../Maps/nonstandard_size/ewap_eth_modified.png" />
<rect id="rect0" style="stroke-width:0.000000;fill:#ffffff;stroke:none;" x="-20.000000" y="-20.000000" width="680.000000" height="520.000000" />
<circle id="circle1" r="0.069566" cx="-0.555426" cy="-2.951879" style="stroke-width:0.000000;fill:#555555;stroke:none;"/>
<circle id="circle2" r="0.069566" cx="-0.509393" cy="-1.011321" style="stroke-width:0.000000;fill:#555555;stroke:none;"/>
<circle id="circle3" r="0.069566" cx="-0.511067" cy="1.088441" style="stroke-width:0.000000;fill:#555555;stroke:none;"/>
<path id="path4" style="stroke-width:0.000000;fill:#555555;stroke:none;" d="M -0.617364,-3.021445  L -0.491147,-3.021445  L -0.491147,-2.882313  L -0.617364,-2.882313  L -0.617364,-3.021445  z " />
<circle id="circle5" r="0.750000" cx="-4.546597" cy="2.259814" style="stroke-width:0.000000;fill:#00ff00;stroke:none;"/>
<circle id="circle6" r="0.500000" cx="-4.546597" cy="2.259814" style="stroke-width:0.000000;fill:#ffffff;stroke:none;"/>
<circle id="circle7" r="0.187500" cx="-4.546597" cy="2.259814" style="stroke-width:0.000000;fill:#00ff00;stroke:none;"/>
<circle id="circle8" r="0.750000" cx="2.204527" cy="-1.489741" style="stroke-width:0.000000;fill:#ff0000;stroke:none;"/>
<circle id="circle9" r="0.500000" cx="2.204527" cy="-1.489741" style="stroke-width:0.000000;fill:#ffffff;stroke:none;"/>
<circle id="circle10" r="0.187500" cx="2.204527" cy="-1.489741" style="stroke-width:0.000000;fill:#ff0000;stroke:none;"/>
<ellipse id="ellipse11" rx="0.300000" ry="0.150000" cx="-1000.000000" cy="-1000.000000" style="stroke-width:0.000000;fill:#44ccee;stroke:none;" transform="rotate(0.000000, -1000.000000, -1000.000000)"/>
<ellipse id="ellipse12" rx="0.300000" ry="0.150000" cx="-1000.000000" cy="-1000.000000" style="stroke-width:0.000000;fill:#44ccee;stroke:none;" transform="rotate(0.000000, -1000.000000, -1000.000000)"/>
<ellipse id="ellipse13" rx="0.300000" ry="0.150000" cx="-1000.000000" cy="-1000.000000" style="stroke-width:0.000000;fill:#44ccee;stroke:none;" transform="rotate(0.000000, -1000.000000, -1000.000000)"/>
<ellipse id="ellipse14" rx="0.300000" ry="0.150000" cx="-1000.000000" cy="-1000.000000" style="stroke-width:0.000000;fill:#44ccee;stroke:none;" transform="rotate(0.000000, -1000.000000, -1000.000000)"/>
<ellipse id="ellipse15" rx="0.300000" ry="0.150000" cx="-1000.000000" cy="-1000.000000" style="stroke-width:0.000000;fill:#44ccee;stroke:none;" transform="rotate(0.000000, -1000.000000, -1000.000000)"/>
<ellipse id="ellipse16" rx="0.300000" ry="0.150000" cx="-1000.000000" cy="-1000.000000" style="stroke-width:0.000000;fill:#44ccee;stroke:none;" transform="rotate(0.000000, -1000.000000, -1000.000000)"/>
<ellipse id="ellipse17" rx="0.300000" ry="0.150000" cx="-1000.000000" cy="-1000.000000" style="stroke-width:0.000000;fill:#44ccee;stroke:none;" transform="rotate(0.000000, -1000.000000, -1000.000000)"/>
<ellipse id="ellipse18" rx="0.300000" ry="0.150000" cx="-1000.000000" cy="-1000.000000" style="stroke-width:0.000000;fill:#44ccee;stroke:none;" transform="rotate(0.000000, -1000.000000, -1000.000000)"/>
<ellipse id="ellipse19" rx="0.300000" ry="0.150000" cx="-1000.000000" cy="-1000.000000" style="stroke-width:0.000000;fill:#44ccee;stroke:none;" transform="rotate(0.000000, -1000.000000, -1000.000000)"/>
<ellipse id="ellipse20" rx="0.300000" ry="0.150000" cx="-1000.000000" cy="-1000.000000" style="stroke-width:0.000000;fill:#44ccee;stroke:none;" transform="rotate(0.000000, -1000.000000, -1000.000000)"/>
<ellipse id="ellipse21" rx="0.300000" ry="0.150000" cx="-1000.000000" cy="-1000.000000" style="stroke-width:0.000000;fill:#44ccee;stroke:none;" transform="rotate(0.000000, -1000.000000, -1000.000000)"/>
<ellipse id="ellipse22" rx="0.300000" ry="0.150000" cx="-1000.000000" cy="-1000.000000" style="stroke-width:0.000000;fill:#44ccee;stroke:none;" transform="rotate(0.000000, -1000.000000, -1000.000000)"/>
<ellipse id="ellipse23" rx="0.300000" ry="0.150000" cx="-1000.000000" cy="-1000.000000" style="stroke-width:0.000000;fill:#44ccee;stroke:none;" transform="rotate(0.000000, -1000.000000, -1000.000000)"/>
<ellipse id="ellipse24" rx="0.300000" ry="0.150000" cx="-1000.000000" cy="-1000.000000" style="stroke-width:0.000000;fill:#44ccee;stroke:none;" transform="rotate(0.000000, -1000.000000, -1000.000000)"/>
<ellipse id="ellipse25" rx="0.300000" ry="0.150000" cx="-1000.000000" cy="-1000.000000" style="stroke-width:0.000000;fill:#44ccee;stroke:none;" transform="rotate(0.000000, -1000.000000, -1000.000000)"/>
<ellipse id="ellipse26" rx="0.300000" ry="0.150000" cx="-1000.000000" cy="-1000.000000" style="stroke-width:0.000000;fill:#44ccee;stroke:none;" transform="rotate(0.000000, -1000.000000, -1000.000000)"/>
<ellipse id="ellipse27" rx="0.300000" ry="0.150000" cx="-1000.000000" cy="-1000.000000" style="stroke-width:0.000000;fill:#44ccee;stroke:none;" transform="rotate(0.000000, -1000.000000, -1000.000000)"/>
<ellipse id="ellipse28" rx="0.300000" ry="0.150000" cx="-1000.000000" cy="-1000.000000" style="stroke-width:0.000000;fill:#44ccee;stroke:none;" transform="rotate(0.000000, -1000.000000, -1000.000000)"/>
<ellipse id="ellipse29" rx="0.300000" ry="0.150000" cx="-1000.000000" cy="-1000.000000" style="stroke-width:0.000000;fill:#44ccee;stroke:none;" transform="rotate(0.000000, -1000.000000, -1000.000000)"/>
<ellipse id="ellipse30" rx="0.300000" ry="0.150000" cx="-1000.000000" cy="-1000.000000" style="stroke-width:0.000000;fill:#44ccee;stroke:none;" transform="rotate(0.000000, -1000.000000, -1000.000000)"/>
<ellipse id="ellipse31" rx="0.300000" ry="0.150000" cx="-1000.000000" cy="-1000.000000" style="stroke-width:0.000000;fill:#44ccee;stroke:none;" transform="rotate(0.000000, -1000.000000, -1000.000000)"/>
<ellipse id="ellipse32" rx="0.300000" ry="0.150000" cx="-1000.000000" cy="-1000.000000" style="stroke-width:0.000000;fill:#44ccee;stroke:none;" transform="rotate(0.000000, -1000.000000, -1000.000000)"/>
<ellipse id="ellipse33" rx="0.300000" ry="0.150000" cx="-1000.000000" cy="-1000.000000" style="stroke-width:0.000000;fill:#44ccee;stroke:none;" transform="rotate(0.000000, -1000.000000, -1000.000000)"/>
<ellipse id="ellipse34" rx="0.300000" ry="0.150000" cx="-1000.000000" cy="-1000.000000" style="stroke-width:0.000000;fill:#44ccee;stroke:none;" transform="rotate(0.000000, -1000.000000, -1000.000000)"/>
<ellipse id="ellipse35" rx="0.300000" ry="0.150000" cx="-1000.000000" cy="-1000.000000" style="stroke-width:0.000000;fill:#44ccee;stroke:none;" transform="rotate(0.000000, -1000.000000, -1000.000000)"/>
<ellipse id="ellipse36" rx="0.300000" ry="0.150000" cx="-1000.000000" cy="-1000.000000" style="stroke-width:0.000000;fill:#44ccee;stroke:none;" transform="rotate(0.000000, -1000.000000, -1000.000000)"/>
<ellipse id="ellipse37" rx="0.300000" ry="0.150000" cx="-1000.000000" cy="-1000.000000" style="stroke-width:0.000000;fill:#44ccee;stroke:none;" transform="rotate(0.000000, -1000.000000, -1000.000000)"/>
<ellipse id="ellipse38" rx="0.300000" ry="0.150000" cx="-1000.000000" cy="-1000.000000" style="stroke-width:0.000000;fill:#44ccee;stroke:none;" transform="rotate(0.000000, -1000.000000, -1000.000000)"/>
<ellipse id="ellipse39" rx="0.300000" ry="0.150000" cx="-1000.000000" cy="-1000.000000" style="stroke-width:0.000000;fill:#44ccee;stroke:none;" transform="rotate(0.000000, -1000.000000, -1000.000000)"/>
<ellipse id="ellipse40" rx="0.300000" ry="0.150000" cx="-1000.000000" cy="-1000.000000" style="stroke-width:0.000000;fill:#44ccee;stroke:none;" transform="rotate(0.000000, -1000.000000, -1000.000000)"/>
<ellipse id="ellipse41" rx="0.300000" ry="0.150000" cx="-1000.000000" cy="-1000.000000" style="stroke-width:0.000000;fill:#44ccee;stroke:none;" transform="rotate(0.000000, -1000.000000, -1000.000000)"/>
<ellipse id="ellipse42" rx="0.300000" ry="0.150000" cx="-1000.000000" cy="-1000.000000" style="stroke-width:0.000000;fill:#44ccee;stroke:none;" transform="rotate(0.000000, -1000.000000, -1000.000000)"/>
<ellipse id="ellipse43" rx="0.300000" ry="0.150000" cx="-1000.000000" cy="-1000.000000" style="stroke-width:0.000000;fill:#44ccee;stroke:none;" transform="rotate(0.000000, -1000.000000, -1000.000000)"/>
<ellipse id="ellipse44" rx="0.300000" ry="0.150000" cx="-1000.000000" cy="-1000.000000" style="stroke-width:0.000000;fill:#44ccee;stroke:none;" transform="rotate(0.000000, -1000.000000, -1000.000000)"/>
<ellipse id="ellipse45" rx="0.300000" ry="0.150000" cx="-1000.000000" cy="-1000.000000" style="stroke-width:0.000000;fill:#44ccee;stroke:none;" transform="rotate(0.000000, -1000.000000, -1000.000000)"/>
<ellipse id="ellipse46" rx="0.300000" ry="0.150000" cx="-1000.000000" cy="-1000.000000" style="stroke-width:0.000000;fill:#44ccee;stroke:none;" transform="rotate(0.000000, -1000.000000, -1000.000000)"/>
<ellipse id="ellipse47" rx="0.300000" ry="0.150000" cx="-1000.000000" cy="-1000.000000" style="stroke-width:0.000000;fill:#44ccee;stroke:none;" transform="rotate(0.000000, -1000.000000, -1000.000000)"/>
<ellipse id="ellipse48" rx="0.300000" ry="0.150000" cx="-1000.000000" cy="-1000.000000" style="stroke-width:0.000000;fill:#44ccee;stroke:none;" transform="rotate(0.000000, -1000.000000, -1000.000000)"/>
<ellipse id="ellipse49" rx="0.300000" ry="0.150000" cx="-1000.000000" cy="-1000.000000" style="stroke-width:0.000000;fill:#44ccee;stroke:none;" transform="rotate(0.000000, -1000.000000, -1000.000000)"/>
<ellipse id="ellipse50" rx="0.300000" ry="0.150000" cx="-1000.000000" cy="-1000.000000" style="stroke-width:0.000000;fill:#44ccee;stroke:none;" transform="rotate(0.000000, -1000.000000, -1000.000000)"/>
<ellipse id="ellipse51" rx="0.300000" ry="0.150000" cx="-1000.000000" cy="-1000.000000" style="stroke-width:0.000000;fill:#44ccee;stroke:none;" transform="rotate(0.000000, -1000.000000, -1000.000000)"/>
<ellipse id="ellipse52" rx="0.300000" ry="0.150000" cx="-1000.000000" cy="-1000.000000" style="stroke-width:0.000000;fill:#44ccee;stroke:none;" transform="rotate(0.000000, -1000.000000, -1000.000000)"/>
<ellipse id="ellipse53" rx="0.300000" ry="0.150000" cx="-1000.000000" cy="-1000.000000" style="stroke-width:0.000000;fill:#44ccee;stroke:none;" transform="rotate(0.000000, -1000.000000, -1000.000000)"/>
<ellipse id="ellipse54" rx="0.300000" ry="0.150000" cx="-1000.000000" cy="-1000.000000" style="stroke-width:0.000000;fill:#44ccee;stroke:none;" transform="rotate(0.000000, -1000.000000, -1000.000000)"/>
<ellipse id="ellipse55" rx="0.300000" ry="0.150000" cx="-1000.000000" cy="-1000.000000" style="stroke-width:0.000000;fill:#44ccee;stroke:none;" transform="rotate(0.000000, -1000.000000, -1000.000000)"/>
<ellipse id="ellipse56" rx="0.300000" ry="0.150000" cx="-1000.000000" cy="-1000.000000" style="stroke-width:0.000000;fill:#44ccee;stroke:none;" transform="rotate(0.000000, -1000.000000, -1000.000000)"/>
<ellipse id="ellipse57" rx="0.300000" ry="0.150000" cx="-1000.000000" cy="-1000.000000" style="stroke-width:0.000000;fill:#44ccee;stroke:none;" transform="rotate(0.000000, -1000.000000, -1000.000000)"/>
<ellipse id="ellipse58" rx="0.300000" ry="0.150000" cx="-1000.000000" cy="-1000.000000" style="stroke-width:0.000000;fill:#44ccee;stroke:none;" transform="rotate(0.000000, -1000.000000, -1000.000000)"/>
<ellipse id="ellipse59" rx="0.300000" ry="0.150000" cx="-1000.000000" cy="-1000.000000" style="stroke-width:0.000000;fill:#44ccee;stroke:none;" transform="rotate(0.000000, -1000.000000, -1000.000000)"/>
<ellipse id="ellipse60" rx="0.300000" ry="0.150000" cx="-1000.000000" cy="-1000.000000" style="stroke-width:0.000000;fill:#44ccee;stroke:none;" transform="rotate(0.000000, -1000.000000, -1000.000000)"/>
<ellipse id="ellipse61" rx="0.300000" ry="0.150000" cx="-1000.000000" cy="-1000.000000" style="stroke-width:0.000000;fill:#44ccee;stroke:none;" transform="rotate(0.000000, -1000.000000, -1000.000000)"/>
<ellipse id="ellipse62" rx="0.300000" ry="0.150000" cx="-1000.000000" cy="-1000.000000" style="stroke-width:0.000000;fill:#44ccee;stroke:none;" transform="rotate(0.000000, -1000.000000, -1000.000000)"/>
<ellipse id="ellipse63" rx="0.300000" ry="0.150000" cx="-1000.000000" cy="-1000.000000" style="stroke-width:0.000000;fill:#44ccee;stroke:none;" transform="rotate(0.000000, -1000.000000, -1000.000000)"/>
<ellipse id="ellipse64" rx="0.300000" ry="0.150000" cx="-1000.000000" cy="-1000.000000" style="stroke-width:0.000000;fill:#44ccee;stroke:none;" transform="rotate(0.000000, -1000.000000, -1000.000000)"/>
<ellipse id="ellipse65" rx="0.300000" ry="0.150000" cx="-1000.000000" cy="-1000.000000" style="stroke-width:0.000000;fill:#44ccee;stroke:none;" transform="rotate(0.000000, -1000.000000, -1000.000000)"/>
<ellipse id="ellipse66" rx="0.300000" ry="0.150000" cx="-1000.000000" cy="-1000.000000" style="stroke-width:0.000000;fill:#44ccee;stroke:none;" transform="rotate(0.000000, -1000.000000, -1000.000000)"/>
<ellipse id="ellipse67" rx="0.300000" ry="0.150000" cx="-1000.000000" cy="-1000.000000" style="stroke-width:0.000000;fill:#44ccee;stroke:none;" transform="rotate(0.000000, -1000.000000, -1000.000000)"/>
<ellipse id="ellipse68" rx="0.300000" ry="0.150000" cx="-1000.000000" cy="-1000.000000" style="stroke-width:0.000000;fill:#44ccee;stroke:none;" transform="rotate(0.000000, -1000.000000, -1000.000000)"/>
<ellipse id="ellipse69" rx="0.300000" ry="0.150000" cx="-1000.000000" cy="-1000.000000" style="stroke-width:0.000000;fill:#44ccee;stroke:none;" transform="rotate(0.000000, -1000.000000, -1000.000000)"/>
<ellipse id="ellipse70" rx="0.300000" ry="0.150000" cx="-1000.000000" cy="-1000.000000" style="stroke-width:0.000000;fill:#44ccee;stroke:none;" transform="rotate(0.000000, -1000.000000, -1000.000000)"/>
<ellipse id="ellipse71" rx="0.300000" ry="0.150000" cx="-1000.000000" cy="-1000.000000" style="stroke-width:0.000000;fill:#44ccee;stroke:none;" transform="rotate(0.000000, -1000.000000, -1000.000000)"/>
<ellipse id="ellipse72" rx="0.300000" ry="0.150000" cx="-1000.000000" cy="-1000.000000" style="stroke-width:0.000000;fill:#44ccee;stroke:none;" transform="rotate(0.000000, -1000.000000, -1000.000000)"/>
<ellipse id="ellipse73" rx="0.300000" ry="0.150000" cx="-1000.000000" cy="-1000.000000" style="stroke-width:0.000000;fill:#44ccee;stroke:none;" transform="rotate(0.000000, -1000.000000, -1000.000000)"/>
<ellipse id="ellipse74" rx="0.300000" ry="0.150000" cx="-1000.000000" cy="-1000.000000" style="stroke-width:0.000000;fill:#44ccee;stroke:none;" transform="rotate(0.000000, -1000.000000, -1000.000000)"/>
<ellipse id="ellipse75" rx="0.300000" ry="0.150000" cx="-1000.000000" cy="-1000.000000" style="stroke-width:0.000000;fill:#44ccee;stroke:none;" transform="rotate(0.000000, -1000.000000, -1000.000000)"/>
<ellipse id="ellipse76" rx="0.300000" ry="0.150000" cx="-1000.000000" cy="-1000.000000" style="stroke-width:0.000000;fill:#44ccee;stroke:none;" transform="rotate(0.000000, -1000.000000, -1000.000000)"/>
<ellipse id="ellipse77" rx="0.300000" ry="0.150000" cx="-1000.000000" cy="-1000.000000" style="stroke-width:0.000000;fill:#44ccee;stroke:none;" transform="rotate(0.000000, -1000.000000, -1000.000000)"/>
<ellipse id="ellipse78" rx="0.300000" ry="0.150000" cx="-1000.000000" cy="-1000.000000" style="stroke-width:0.000000;fill:#44ccee;stroke:none;" transform="rotate(0.000000, -1000.000000, -1000.000000)"/>
<ellipse id="ellipse79" rx="0.300000" ry="0.150000" cx="-1000.000000" cy="-1000.000000" style="stroke-width:0.000000;fill:#44ccee;stroke:none;" transform="rotate(0.000000, -1000.000000, -1000.000000)"/>
<ellipse id="ellipse80" rx="0.300000" ry="0.150000" cx="-1000.000000" cy="-1000.000000" style="stroke-width:0.000000;fill:#44ccee;stroke:none;" transform="rotate(0.000000, -1000.000000, -1000.000000)"/>
<ellipse id="ellipse81" rx="0.300000" ry="0.150000" cx="-1000.000000" cy="-1000.000000" style="stroke-width:0.000000;fill:#44ccee;stroke:none;" transform="rotate(0.000000, -1000.000000, -1000.000000)"/>
<ellipse id="ellipse82" rx="0.300000" ry="0.150000" cx="-1000.000000" cy="-1000.000000" style="stroke-width:0.000000;fill:#44ccee;stroke:none;" transform="rotate(0.000000, -1000.000000, -1000.000000)"/>
<ellipse id="ellipse83" rx="0.300000" ry="0.150000" cx="-1000.000000" cy="-1000.000000" style="stroke-width:0.000000;fill:#44ccee;stroke:none;" transform="rotate(0.000000, -1000.000000, -1000.000000)"/>
<ellipse id="ellipse84" rx="0.300000" ry="0.150000" cx="-1000.000000" cy="-1000.000000" style="stroke-width:0.000000;fill:#44ccee;stroke:none;" transform="rotate(0.000000, -1000.000000, -1000.000000)"/>
<ellipse id="ellipse85" rx="0.300000" ry="0.150000" cx="-1000.000000" cy="-1000.000000" style="stroke-width:0.000000;fill:#44ccee;stroke:none;" transform="rotate(0.000000, -1000.000000, -1000.000000)"/>
<ellipse id="ellipse86" rx="0.300000" ry="0.150000" cx="-1000.000000" cy="-1000.000000" style="stroke-width:0.000000;fill:#44ccee;stroke:none;" transform="rotate(0.000000, -1000.000000, -1000.000000)"/>
<ellipse id="ellipse87" rx="0.300000" ry="0.150000" cx="-1000.000000" cy="-1000.000000" style="stroke-width:0.000000;fill:#44ccee;stroke:none;" transform="rotate(0.000000, -1000.000000, -1000.000000)"/>
<ellipse id="ellipse88" rx="0.300000" ry="0.150000" cx="-1000.000000" cy="-1000.000000" style="stroke-width:0.000000;fill:#44ccee;stroke:none;" transform="rotate(0.000000, -1000.000000, -1000.000000)"/>
<ellipse id="ellipse89" rx="0.300000" ry="0.150000" cx="-1000.000000" cy="-1000.000000" style="stroke-width:0.000000;fill:#44ccee;stroke:none;" transform="rotate(0.000000, -1000.000000, -1000.000000)"/>
<ellipse id="ellipse90" rx="0.300000" ry="0.150000" cx="-1000.000000" cy="-1000.000000" style="stroke-width:0.000000;fill:#44ccee;stroke:none;" transform="rotate(0.000000, -1000.000000, -1000.000000)"/>
<ellipse id="ellipse91" rx="0.300000" ry="0.150000" cx="-1000.000000" cy="-1000.000000" style="stroke-width:0.000000;fill:#44ccee;stroke:none;" transform="rotate(0.000000, -1000.000000, -1000.000000)"/>
<ellipse id="ellipse92" rx="0.300000" ry="0.150000" cx="-1000.000000" cy="-1000.000000" style="stroke-width:0.000000;fill:#44ccee;stroke:none;" transform="rotate(0.000000, -1000.000000, -1000.000000)"/>
<ellipse id="ellipse93" rx="0.300000" ry="0.150000" cx="-1000.000000" cy="-1000.000000" style="stroke-width:0.000000;fill:#44ccee;stroke:none;" transform="rotate(0.000000, -1000.000000, -1000.000000)"/>
<ellipse id="ellipse94" rx="0.300000" ry="0.150000" cx="-1000.000000" cy="-1000.000000" style="stroke-width:0.000000;fill:#44ccee;stroke:none;" transform="rotate(0.000000, -1000.000000, -1000.000000)"/>
<ellipse id="ellipse95" rx="0.300000" ry="0.150000" cx="-1000.000000" cy="-1000.000000" style="stroke-width:0.000000;fill:#44ccee;stroke:none;" transform="rotate(0.000000, -1000.000000, -1000.000000)"/>
<ellipse id="ellipse96" rx="0.300000" ry="0.150000" cx="-1000.000000" cy="-1000.000000" style="stroke-width:0.000000;fill:#44ccee;stroke:none;" transform="rotate(0.000000, -1000.000000, -1000.000000)"/>
<ellipse id="ellipse97" rx="0.300000" ry="0.150000" cx="-1000.000000" cy="-1000.000000" style="stroke-width:0.000000;fill:#44ccee;stroke:none;" transform="rotate(0.000000, -1000.000000, -1000.000000)"/>
<ellipse id="ellipse98" rx="0.300000" ry="0.150000" cx="-1000.000000" cy="-1000.000000" style="stroke-width:0.000000;fill:#44ccee;stroke:none;" transform="rotate(0.000000, -1000.000000, -1000.000000)"/>
<ellipse id="ellipse99" rx="0.300000" ry="0.150000" cx="-1000.000000" cy="-1000.000000" style="stroke-width:0.000000;fill:#44ccee;stroke:none;" transform="rotate(0.000000, -1000.000000, -1000.000000)"/>
<ellipse id="ellipse100" rx="0.300000" ry="0.150000" cx="-1000.000000" cy="-1000.000000" style="stroke-width:0.000000;fill:#44ccee;stroke:none;" transform="rotate(0.000000, -1000.000000, -1000.000000)"/>
<ellipse id="ellipse101" rx="0.300000" ry="0.150000" cx="-1000.000000" cy="-1000.000000" style="stroke-width:0.000000;fill:#44ccee;stroke:none;" transform="rotate(0.000000, -1000.000000, -1000.000000)"/>
<ellipse id="ellipse102" rx="0.300000" ry="0.150000" cx="-1000.000000" cy="-1000.000000" style="stroke-width:0.000000;fill:#44ccee;stroke:none;" transform="rotate(0.000000, -1000.000000, -1000.000000)"/>
<ellipse id="ellipse103" rx="0.300000" ry="0.150000" cx="-1000.000000" cy="-1000.000000" style="stroke-width:0.000000;fill:#44ccee;stroke:none;" transform="rotate(0.000000, -1000.000000, -1000.000000)"/>
<ellipse id="ellipse104" rx="0.300000" ry="0.150000" cx="-1000.000000" cy="-1000.000000" style="stroke-width:0.000000;fill:#44ccee;stroke:none;" transform="rotate(0.000000, -1000.000000, -1000.000000)"/>
<ellipse id="ellipse105" rx="0.300000" ry="0.150000" cx="-1000.000000" cy="-1000.000000" style="stroke-width:0.000000;fill:#44ccee;stroke:none;" transform="rotate(0.000000, -1000.000000, -1000.000000)"/>
<ellipse id="ellipse106" rx="0.300000" ry="0.150000" cx="-1000.000000" cy="-1000.000000" style="stroke-width:0.000000;fill:#44ccee;stroke:none;" transform="rotate(0.000000, -1000.000000, -1000.000000)"/>
<ellipse id="ellipse107" rx="0.300000" ry="0.150000" cx="-1000.000000" cy="-1000.000000" style="stroke-width:0.000000;fill:#44ccee;stroke:none;" transform="rotate(0.000000, -1000.000000, -1000.000000)"/>
<ellipse id="ellipse108" rx="0.300000" ry="0.150000" cx="-1000.000000" cy="-1000.000000" style="stroke-width:0.000000;fill:#44ccee;stroke:none;" transform="rotate(0.000000, -1000.000000, -1000.000000)"/>
<ellipse id="ellipse109" rx="0.300000" ry="0.150000" cx="-1000.000000" cy="-1000.000000" style="stroke-width:0.000000;fill:#44ccee;stroke:none;" transform="rotate(0.000000, -1000.000000, -1000.000000)"/>
<ellipse id="ellipse110" rx="0.300000" ry="0.150000" cx="-1000.000000" cy="-1000.000000" style="stroke-width:0.000000;fill:#44ccee;stroke:none;" transform="rotate(0.000000, -1000.000000, -1000.000000)"/>
<ellipse id="ellipse111" rx="0.300000" ry="0.150000" cx="-1000.000000" cy="-1000.000000" style="stroke-width:0.000000;fill:#44ccee;stroke:none;" transform="rotate(0.000000, -1000.000000, -1000.000000)"/>
<ellipse id="ellipse112" rx="0.300000" ry="0.150000" cx="-1000.000000" cy="-1000.000000" style="stroke-width:0.000000;fill:#44ccee;stroke:none;" transform="rotate(0.000000, -1000.000000, -1000.000000)"/>
<ellipse id="ellipse113" rx="0.300000" ry="0.150000" cx="-1000.000000" cy="-1000.000000" style="stroke-width:0.000000;fill:#44ccee;stroke:none;" transform="rotate(0.000000, -1000.000000, -1000.000000)"/>
<ellipse id="ellipse114" rx="0.300000" ry="0.150000" cx="-1000.000000" cy="-1000.000000" style="stroke-width:0.000000;fill:#44ccee;stroke:none;" transform="rotate(0.000000, -1000.000000, -1000.000000)"/>
<ellipse id="ellipse115" rx="0.300000" ry="0.150000" cx="-1000.000000" cy="-1000.000000" style="stroke-width:0.000000;fill:#44ccee;stroke:none;" transform="rotate(0.000000, -1000.000000, -1000.000000)"/>
<ellipse id="ellipse116" rx="0.300000" ry="0.150000" cx="-1000.000000" cy="-1000.000000" style="stroke-width:0.000000;fill:#44ccee;stroke:none;" transform="rotate(0.000000, -1000.000000, -1000.000000)"/>
<ellipse id="ellipse117" rx="0.300000" ry="0.150000" cx="-1000.000000" cy="-1000.000000" style="stroke-width:0.000000;fill:#44ccee;stroke:none;" transform="rotate(0.000000, -1000.000000, -1000.000000)"/>
<ellipse id="ellipse118" rx="0.300000" ry="0.150000" cx="-1000.000000" cy="-1000.000000" style="stroke-width:0.000000;fill:#44ccee;stroke:none;" transform="rotate(0.000000, -1000.000000, -1000.000000)"/>
<ellipse id="ellipse119" rx="0.300000" ry="0.150000" cx="-1000.000000" cy="-1000.000000" style="stroke-width:0.000000;fill:#44ccee;stroke:none;" transform="rotate(0.000000, -1000.000000, -1000.000000)"/>
<ellipse id="ellipse120" rx="0.300000" ry="0.150000" cx="-1000.000000" cy="-1000.000000" style="stroke-width:0.000000;fill:#44ccee;stroke:none;" transform="rotate(0.000000, -1000.000000, -1000.000000)"/>
<ellipse id="ellipse121" rx="0.300000" ry="0.150000" cx="-1000.000000" cy="-1000.000000" style="stroke-width:0.000000;fill:#44ccee;stroke:none;" transform="rotate(0.000000, -1000.000000, -1000.000000)"/>
<ellipse id="ellipse122" rx="0.300000" ry="0.150000" cx="-1000.000000" cy="-1000.000000" style="stroke-width:0.000000;fill:#44ccee;stroke:none;" transform="rotate(0.000000, -1000.000000, -1000.000000)"/>
<ellipse id="ellipse123" rx="0.300000" ry="0.150000" cx="-1000.000000" cy="-1000.000000" style="stroke-width:0.000000;fill:#44ccee;stroke:none;" transform="rotate(0.000000, -1000.000000, -1000.000000)"/>
<ellipse id="ellipse124" rx="0.300000" ry="0.150000" cx="-1000.000000" cy="-1000.000000" style="stroke-width:0.000000;fill:#44ccee;stroke:none;" transform="rotate(0.000000, -1000.000000, -1000.000000)"/>
<ellipse id="ellipse125" rx="0.300000" ry="0.150000" cx="-1000.000000" cy="-1000.000000" style="stroke-width:0.000000;fill:#44ccee;stroke:none;" transform="rotate(0.000000, -1000.000000, -1000.000000)"/>
<ellipse id="ellipse126" rx="0.300000" ry="0.150000" cx="-1000.000000" cy="-1000.000000" style="stroke-width:0.000000;fill:#44ccee;stroke:none;" transform="rotate(0.000000, -1000.000000, -1000.000000)"/>
<ellipse id="ellipse127" rx="0.300000" ry="0.150000" cx="-1000.000000" cy="-1000.000000" style="stroke-width:0.000000;fill:#44ccee;stroke:none;" transform="rotate(0.000000, -1000.000000, -1000.000000)"/>
<ellipse id="ellipse128" rx="0.300000" ry="0.150000" cx="-1000.000000" cy="-1000.000000" style="stroke-width:0.000000;fill:#44ccee;stroke:none;" transform="rotate(0.000000, -1000.000000, -1000.000000)"/>
<ellipse id="ellipse129" rx="0.300000" ry="0.150000" cx="-1000.000000" cy="-1000.000000" style="stroke-width:0.000000;fill:#44ccee;stroke:none;" transform="rotate(0.000000, -1000.000000, -1000.000000)"/>
<ellipse id="ellipse130" rx="0.300000" ry="0.150000" cx="-1000.000000" cy="-1000.000000" style="stroke-width:0.000000;fill:#44ccee;stroke:none;" transform="rotate(0.000000, -1000.000000, -1000.000000)"/>
<ellipse id="ellipse131" rx="0.300000" ry="0.150000" cx="-1000.000000" cy="-1000.000000" style="stroke-width:0.000000;fill:#44ccee;stroke:none;" transform="rotate(0.000000, -1000.000000, -1000.000000)"/>
<ellipse id="ellipse132" rx="0.300000" ry="0.150000" cx="-1000.000000" cy="-1000.000000" style="stroke-width:0.000000;fill:#44ccee;stroke:none;" transform="rotate(0.000000, -1000.000000, -1000.000000)"/>
<ellipse id="ellipse133" rx="0.300000" ry="0.150000" cx="-1000.000000" cy="-1000.000000" style="stroke-width:0.000000;fill:#44ccee;stroke:none;" transform="rotate(0.000000, -1000.000000, -1000.000000)"/>
<ellipse id="ellipse134" rx="0.300000" ry="0.150000" cx="-1000.000000" cy="-1000.000000" style="stroke-width:0.000000;fill:#44ccee;stroke:none;" transform="rotate(0.000000, -1000.000000, -1000.000000)"/>
<ellipse id="ellipse135" rx="0.300000" ry="0.150000" cx="-1000.000000" cy="-1000.000000" style="stroke-width:0.000000;fill:#44ccee;stroke:none;" transform="rotate(0.000000, -1000.000000, -1000.000000)"/>
<ellipse id="ellipse136" rx="0.300000" ry="0.150000" cx="-1000.000000" cy="-1000.000000" style="stroke-width:0.000000;fill:#44ccee;stroke:none;" transform="rotate(0.000000, -1000.000000, -1000.000000)"/>
<ellipse id="ellipse137" rx="0.300000" ry="0.150000" cx="-1000.000000" cy="-1000.000000" style="stroke-width:0.000000;fill:#44ccee;stroke:none;" transform="rotate(0.000000, -1000.000000, -1000.000000)"/>
<ellipse id="ellipse138" rx="0.300000" ry="0.150000" cx="-1000.000000" cy="-1000.000000" style="stroke-width:0.000000;fill:#44ccee;stroke:none;" transform="rotate(0.000000, -1000.000000, -1000.000000)"/>
<ellipse id="ellipse139" rx="0.300000" ry="0.150000" cx="-1000.000000" cy="-1000.000000" style="stroke-width:0.000000;fill:#44ccee;stroke:none;" transform="rotate(0.000000, -1000.000000, -1000.000000)"/>
<ellipse id="ellipse140" rx="0.300000" ry="0.150000" cx="-1000.000000" cy="-1000.000000" style="stroke-width:0.000000;fill:#44ccee;stroke:none;" transform="rotate(0.000000, -1000.000000, -1000.000000)"/>
<ellipse id="ellipse141" rx="0.300000" ry="0.150000" cx="-1000.000000" cy="-1000.000000" style="stroke-width:0.000000;fill:#44ccee;stroke:none;" transform="rotate(0.000000, -1000.000000, -1000.000000)"/>
<ellipse id="ellipse142" rx="0.300000" ry="0.150000" cx="-1000.000000" cy="-1000.000000" style="stroke-width:0.000000;fill:#44ccee;stroke:none;" transform="rotate(0.000000, -1000.000000, -1000.000000)"/>
<ellipse id="ellipse143" rx="0.300000" ry="0.150000" cx="-1000.000000" cy="-1000.000000" style="stroke-width:0.000000;fill:#44ccee;stroke:none;" transform="rotate(0.000000, -1000.000000, -1000.000000)"/>
<ellipse id="ellipse144" rx="0.300000" ry="0.150000" cx="-1000.000000" cy="-1000.000000" style="stroke-width:0.000000;fill:#44ccee;stroke:none;" transform="rotate(0.000000, -1000.000000, -1000.000000)"/>
<ellipse id="ellipse145" rx="0.300000" ry="0.150000" cx="-1000.000000" cy="-1000.000000" style="stroke-width:0.000000;fill:#44ccee;stroke:none;" transform="rotate(0.000000, -1000.000000, -1000.000000)"/>
<ellipse id="ellipse146" rx="0.300000" ry="0.150000" cx="-1000.000000" cy="-1000.000000" style="stroke-width:0.000000;fill:#44ccee;stroke:none;" transform="rotate(0.000000, -1000.000000, -1000.000000)"/>
<ellipse id="ellipse147" rx="0.300000" ry="0.150000" cx="-1000.000000" cy="-1000.000000" style="stroke-width:0.000000;fill:#44ccee;stroke:none;" transform="rotate(0.000000, -1000.000000, -1000.000000)"/>
<ellipse id="ellipse148" rx="0.300000" ry="0.150000" cx="-1000.000000" cy="-1000.000000" style="stroke-width:0.000000;fill:#44ccee;stroke:none;" transform="rotate(0.000000, -1000.000000, -1000.000000)"/>
<ellipse id="ellipse149" rx="0.300000" ry="0.150000" cx="-1000.000000" cy="-1000.000000" style="stroke-width:0.000000;fill:#44ccee;stroke:none;" transform="rotate(0.000000, -1000.000000, -1000.000000)"/>
<ellipse id="ellipse150" rx="0.300000" ry="0.150000" cx="-1000.000000" cy="-1000.000000" style="stroke-width:0.000000;fill:#44ccee;stroke:none;" transform="rotate(0.000000, -1000.000000, -1000.000000)"/>
<ellipse id="ellipse151" rx="0.300000" ry="0.150000" cx="-1000.000000" cy="-1000.000000" style="stroke-width:0.000000;fill:#44ccee;stroke:none;" transform="rotate(0.000000, -1000.000000, -1000.000000)"/>
<ellipse id="ellipse152" rx="0.300000" ry="0.150000" cx="-1000.000000" cy="-1000.000000" style="stroke-width:0.000000;fill:#44ccee;stroke:none;" transform="rotate(0.000000, -1000.000000, -1000.000000)"/>
<ellipse id="ellipse153" rx="0.300000" ry="0.150000" cx="-1000.000000" cy="-1000.000000" style="stroke-width:0.000000;fill:#44ccee;stroke:none;" transform="rotate(0.000000, -1000.000000, -1000.000000)"/>
<ellipse id="ellipse154" rx="0.300000" ry="0.150000" cx="-1000.000000" cy="-1000.000000" style="stroke-width:0.000000;fill:#44ccee;stroke:none;" transform="rotate(0.000000, -1000.000000, -1000.000000)"/>
<ellipse id="ellipse155" rx="0.300000" ry="0.150000" cx="-1000.000000" cy="-1000.000000" style="stroke-width:0.000000;fill:#44ccee;stroke:none;" transform="rotate(0.000000, -1000.000000, -1000.000000)"/>
<ellipse id="ellipse156" rx="0.300000" ry="0.150000" cx="-1000.000000" cy="-1000.000000" style="stroke-width:0.000000;fill:#44ccee;stroke:none;" transform="rotate(0.000000, -1000.000000, -1000.000000)"/>
<ellipse id="ellipse157" rx="0.300000" ry="0.150000" cx="-1000.000000" cy="-1000.000000" style="stroke-width:0.000000;fill:#44ccee;stroke:none;" transform="rotate(0.000000, -1000.000000, -1000.000000)"/>
<ellipse id="ellipse158" rx="0.300000" ry="0.150000" cx="-1000.000000" cy="-1000.000000" style="stroke-width:0.000000;fill:#44ccee;stroke:none;" transform="rotate(0.000000, -1000.000000, -1000.000000)"/>
<ellipse id="ellipse159" rx="0.300000" ry="0.150000" cx="-1000.000000" cy="-1000.000000" style="stroke-width:0.000000;fill:#44ccee;stroke:none;" transform="rotate(0.000000, -1000.000000, -1000.000000)"/>
<ellipse id="ellipse160" rx="0.300000" ry="0.150000" cx="-1000.000000" cy="-1000.000000" style="stroke-width:0.000000;fill:#44ccee;stroke:none;" transform="rotate(0.000000, -1000.000000, -1000.000000)"/>
<ellipse id="ellipse161" rx="0.300000" ry="0.150000" cx="-1000.000000" cy="-1000.000000" style="stroke-width:0.000000;fill:#44ccee;stroke:none;" transform="rotate(0.000000, -1000.000000, -1000.000000)"/>
<ellipse id="ellipse162" rx="0.300000" ry="0.150000" cx="-1000.000000" cy="-1000.000000" style="stroke-width:0.000000;fill:#44ccee;stroke:none;" transform="rotate(0.000000, -1000.000000, -1000.000000)"/>
<ellipse id="ellipse163" rx="0.300000" ry="0.150000" cx="-1000.000000" cy="-1000.000000" style="stroke-width:0.000000;fill:#44ccee;stroke:none;" transform="rotate(0.000000, -1000.000000, -1000.000000)"/>
<ellipse id="ellipse164" rx="0.300000" ry="0.150000" cx="-1000.000000" cy="-1000.000000" style="stroke-width:0.000000;fill:#44ccee;stroke:none;" transform="rotate(0.000000, -1000.000000, -1000.000000)"/>
<ellipse id="ellipse165" rx="0.300000" ry="0.150000" cx="-1000.000000" cy="-1000.000000" style="stroke-width:0.000000;fill:#44ccee;stroke:none;" transform="rotate(0.000000, -1000.000000, -1000.000000)"/>
<ellipse id="ellipse166" rx="0.300000" ry="0.150000" cx="-1000.000000" cy="-1000.000000" style="stroke-width:0.000000;fill:#44ccee;stroke:none;" transform="rotate(0.000000, -1000.000000, -1000.000000)"/>
<ellipse id="ellipse167" rx="0.300000" ry="0.150000" cx="-1000.000000" cy="-1000.000000" style="stroke-width:0.000000;fill:#44ccee;stroke:none;" transform="rotate(0.000000, -1000.000000, -1000.000000)"/>
<ellipse id="ellipse168" rx="0.300000" ry="0.150000" cx="-1000.000000" cy="-1000.000000" style="stroke-width:0.000000;fill:#44ccee;stroke:none;" transform="rotate(0.000000, -1000.000000, -1000.000000)"/>
<ellipse id="ellipse169" rx="0.300000" ry="0.150000" cx="-1000.000000" cy="-1000.000000" style="stroke-width:0.000000;fill:#44ccee;stroke:none;" transform="rotate(0.000000, -1000.000000, -1000.000000)"/>
<ellipse id="ellipse170" rx="0.300000" ry="0.150000" cx="-1000.000000" cy="-1000.000000" style="stroke-width:0.000000;fill:#44ccee;stroke:none;" transform="rotate(0.000000, -1000.000000, -1000.000000)"/>
<ellipse id="ellipse171" rx="0.300000" ry="0.150000" cx="-1000.000000" cy="-1000.000000" style="stroke-width:0.000000;fill:#44ccee;stroke:none;" transform="rotate(0.000000, -1000.000000, -1000.000000)"/>
<ellipse id="ellipse172" rx="0.300000" ry="0.150000" cx="-1000.000000" cy="-1000.000000" style="stroke-width:0.000000;fill:#44ccee;stroke:none;" transform="rotate(0.000000, -1000.000000, -1000.000000)"/>
<ellipse id="ellipse173" rx="0.300000" ry="0.150000" cx="-1000.000000" cy="-1000.000000" style="stroke-width:0.000000;fill:#44ccee;stroke:none;" transform="rotate(0.000000, -1000.000000, -1000.000000)"/>
<ellipse id="ellipse174" rx="0.300000" ry="0.150000" cx="-1000.000000" cy="-1000.000000" style="stroke-width:0.000000;fill:#44ccee;stroke:none;" transform="rotate(0.000000, -1000.000000, -1000.000000)"/>
<ellipse id="ellipse175" rx="0.300000" ry="0.150000" cx="-1000.000000" cy="-1000.000000" style="stroke-width:0.000000;fill:#44ccee;stroke:none;" transform="rotate(0.000000, -1000.000000, -1000.000000)"/>
<ellipse id="ellipse176" rx="0.300000" ry="0.150000" cx="-1000.000000" cy="-1000.000000" style="stroke-width:0.000000;fill:#44ccee;stroke:none;" transform="rotate(0.000000, -1000.000000, -1000.000000)"/>
<ellipse id="ellipse177" rx="0.300000" ry="0.150000" cx="-1000.000000" cy="-1000.000000" style="stroke-width:0.000000;fill:#44ccee;stroke:none;" transform="rotate(0.000000, -1000.000000, -1000.000000)"/>
<ellipse id="ellipse178" rx="0.300000" ry="0.150000" cx="-0.755848" cy="-1.447687" style="stroke-width:0.000000;fill:#44ccee;stroke:none;" transform="rotate(0.000000, -0.755848, -1.447687)"/>
<ellipse id="ellipse179" rx="0.300000" ry="0.150000" cx="-1000.000000" cy="-1000.000000" style="stroke-width:0.000000;fill:#44ccee;stroke:none;" transform="rotate(0.000000, -1000.000000, -1000.000000)"/>
<ellipse id="ellipse180" rx="0.300000" ry="0.150000" cx="-1000.000000" cy="-1000.000000" style="stroke-width:0.000000;fill:#44ccee;stroke:none;" transform="rotate(0.000000, -1000.000000, -1000.000000)"/>
<ellipse id="ellipse181" rx="0.300000" ry="0.150000" cx="-1000.000000" cy="-1000.000000" style="stroke-width:0.000000;fill:#44ccee;stroke:none;" transform="rotate(0.000000, -1000.000000, -1000.000000)"/>
<ellipse id="ellipse182" rx="0.300000" ry="0.150000" cx="-1000.000000" cy="-1000.000000" style="stroke-width:0.000000;fill:#44ccee;stroke:none;" transform="rotate(0.000000, -1000.000000, -1000.000000)"/>
<ellipse id="ellipse183" rx="0.300000" ry="0.150000" cx="-1000.000000" cy="-1000.000000" style="stroke-width:0.000000;fill:#44ccee;stroke:none;" transform="rotate(0.000000, -1000.000000, -1000.000000)"/>
<ellipse id="ellipse184" rx="0.300000" ry="0.150000" cx="-1000.000000" cy="-1000.000000" style="stroke-width:0.000000;fill:#44ccee;stroke:none;" transform="rotate(0.000000, -1000.000000, -1000.000000)"/>
<ellipse id="ellipse185" rx="0.300000" ry="0.150000" cx="-1000.000000" cy="-1000.000000" style="stroke-width:0.000000;fill:#44ccee;stroke:none;" transform="rotate(0.000000, -1000.000000, -1000.000000)"/>
<ellipse id="ellipse186" rx="0.300000" ry="0.150000" cx="-1000.000000" cy="-1000.000000" style="stroke-width:0.000000;fill:#44ccee;stroke:none;" transform="rotate(0.000000, -1000.000000, -1000.000000)"/>
<ellipse id="ellipse187" rx="0.300000" ry="0.150000" cx="-1000.000000" cy="-1000.000000" style="stroke-width:0.000000;fill:#44ccee;stroke:none;" transform="rotate(0.000000, -1000.000000, -1000.000000)"/>
<ellipse id="ellipse188" rx="0.300000" ry="0.150000" cx="-1000.000000" cy="-1000.000000" style="stroke-width:0.000000;fill:#44ccee;stroke:none;" transform="rotate(0.000000, -1000.000000, -1000.000000)"/>
<ellipse id="ellipse189" rx="0.300000" ry="0.150000" cx="-1000.000000" cy="-1000.000000" style="stroke-width:0.000000;fill:#44ccee;stroke:none;" transform="rotate(0.000000, -1000.000000, -1000.000000)"/>
<ellipse id="ellipse190" rx="0.300000" ry="0.150000" cx="-1000.000000" cy="-1000.000000" style="stroke-width:0.000000;fill:#44ccee;stroke:none;" transform="rotate(0.000000, -1000.000000, -1000.000000)"/>
<ellipse id="ellipse191" rx="0.300000" ry="0.150000" cx="-1000.000000" cy="-1000.000000" style="stroke-width:0.000000;fill:#44ccee;stroke:none;" transform="rotate(0.000000, -1000.000000, -1000.000000)"/>
<ellipse id="ellipse192" rx="0.300000" ry="0.150000" cx="-1000.000000" cy="-1000.000000" style="stroke-width:0.000000;fill:#44ccee;stroke:none;" transform="rotate(0.000000, -1000.000000, -1000.000000)"/>
<ellipse id="ellipse193" rx="0.300000" ry="0.150000" cx="-1000.000000" cy="-1000.000000" style="stroke-width:0.000000;fill:#44ccee;stroke:none;" transform="rotate(0.000000, -1000.000000, -1000.000000)"/>
<ellipse id="ellipse194" rx="0.300000" ry="0.150000" cx="-1000.000000" cy="-1000.000000" style="stroke-width:0.000000;fill:#44ccee;stroke:none;" transform="rotate(0.000000, -1000.000000, -1000.000000)"/>
<ellipse id="ellipse195" rx="0.300000" ry="0.150000" cx="-1000.000000" cy="-1000.000000" style="stroke-width:0.000000;fill:#44ccee;stroke:none;" transform="rotate(0.000000, -1000.000000, -1000.000000)"/>
<ellipse id="ellipse196" rx="0.300000" ry="0.150000" cx="-1000.000000" cy="-1000.000000" style="stroke-width:0.000000;fill:#44ccee;stroke:none;" transform="rotate(0.000000, -1000.000000, -1000.000000)"/>
<ellipse id="ellipse197" rx="0.300000" ry="0.150000" cx="-1000.000000" cy="-1000.000000" style="stroke-width:0.000000;fill:#44ccee;stroke:none;" transform="rotate(0.000000, -1000.000000, -1000.000000)"/>
<ellipse id="ellipse198" rx="0.300000" ry="0.150000" cx="-1000.000000" cy="-1000.000000" style="stroke-width:0.000000;fill:#44ccee;stroke:none;" transform="rotate(0.000000, -1000.000000, -1000.000000)"/>
<ellipse id="ellipse199" rx="0.300000" ry="0.150000" cx="-1000.000000" cy="-1000.000000" style="stroke-width:0.000000;fill:#44ccee;stroke:none;" transform="rotate(0.000000, -1000.000000, -1000.000000)"/>
<ellipse id="ellipse200" rx="0.300000" ry="0.150000" cx="-1000.000000" cy="-1000.000000" style="stroke-width:0.000000;fill:#44ccee;stroke:none;" transform="rotate(0.000000, -1000.000000, -1000.000000)"/>
<ellipse id="ellipse201" rx="0.300000" ry="0.150000" cx="-1000.000000" cy="-1000.000000" style="stroke-width:0.000000;fill:#44ccee;stroke:none;" transform="rotate(0.000000, -1000.000000, -1000.000000)"/>
<ellipse id="ellipse202" rx="0.300000" ry="0.150000" cx="-1000.000000" cy="-1000.000000" style="stroke-width:0.000000;fill:#44ccee;stroke:none;" transform="rotate(0.000000, -1000.000000, -1000.000000)"/>
<ellipse id="ellipse203" rx="0.300000" ry="0.150000" cx="-1000.000000" cy="-1000.000000" style="stroke-width:0.000000;fill:#44ccee;stroke:none;" transform="rotate(0.000000, -1000.000000, -1000.000000)"/>
<ellipse id="ellipse204" rx="0.300000" ry="0.150000" cx="-1000.000000" cy="-1000.000000" style="stroke-width:0.000000;fill:#44ccee;stroke:none;" transform="rotate(0.000000, -1000.000000, -1000.000000)"/>
<ellipse id="ellipse205" rx="0.300000" ry="0.150000" cx="-1000.000000" cy="-1000.000000" style="stroke-width:0.000000;fill:#44ccee;stroke:none;" transform="rotate(0.000000, -1000.000000, -1000.000000)"/>
<ellipse id="ellipse206" rx="0.300000" ry="0.150000" cx="-1000.000000" cy="-1000.000000" style="stroke-width:0.000000;fill:#44ccee;stroke:none;" transform="rotate(0.000000, -1000.000000, -1000.000000)"/>
<ellipse id="ellipse207" rx="0.300000" ry="0.150000" cx="-1000.000000" cy="-1000.000000" style="stroke-width:0.000000;fill:#44ccee;stroke:none;" transform="rotate(0.000000, -1000.000000, -1000.000000)"/>
<ellipse id="ellipse208" rx="0.300000" ry="0.150000" cx="-1000.000000" cy="-1000.000000" style="stroke-width:0.000000;fill:#44ccee;stroke:none;" transform="rotate(0.000000, -1000.000000, -1000.000000)"/>
<ellipse id="ellipse209" rx="0.300000" ry="0.150000" cx="-1000.000000" cy="-1000.000000" style="stroke-width:0.000000;fill:#44ccee;stroke:none;" transform="rotate(0.000000, -1000.000000, -1000.000000)"/>
<ellipse id="ellipse210" rx="0.300000" ry="0.150000" cx="-1000.000000" cy="-1000.000000" style="stroke-width:0.000000;fill:#44ccee;stroke:none;" transform="rotate(0.000000, -1000.000000, -1000.000000)"/>
<ellipse id="ellipse211" rx="0.300000" ry="0.150000" cx="-1000.000000" cy="-1000.000000" style="stroke-width:0.000000;fill:#44ccee;stroke:none;" transform="rotate(0.000000, -1000.000000, -1000.000000)"/>
<ellipse id="ellipse212" rx="0.300000" ry="0.150000" cx="-1000.000000" cy="-1000.000000" style="stroke-width:0.000000;fill:#44ccee;stroke:none;" transform="rotate(0.000000, -1000.000000, -1000.000000)"/>
<ellipse id="ellipse213" rx="0.300000" ry="0.150000" cx="-1000.000000" cy="-1000.000000" style="stroke-width:0.000000;fill:#44ccee;stroke:none;" transform="rotate(0.000000, -1000.000000, -1000.000000)"/>
<ellipse id="ellipse214" rx="0.300000" ry="0.150000" cx="-1000.000000" cy="-1000.000000" style="stroke-width:0.000000;fill:#44ccee;stroke:none;" transform="rotate(0.000000, -1000.000000, -1000.000000)"/>
<ellipse id="ellipse215" rx="0.300000" ry="0.150000" cx="-1000.000000" cy="-1000.000000" style="stroke-width:0.000000;fill:#44ccee;stroke:none;" transform="rotate(0.000000, -1000.000000, -1000.000000)"/>
<ellipse id="ellipse216" rx="0.300000" ry="0.150000" cx="-1000.000000" cy="-1000.000000" style="stroke-width:0.000000;fill:#44ccee;stroke:none;" transform="rotate(0.000000, -1000.000000, -1000.000000)"/>
<ellipse id="ellipse217" rx="0.300000" ry="0.150000" cx="-1000.000000" cy="-1000.000000" style="stroke-width:0.000000;fill:#44ccee;stroke:none;" transform="rotate(0.000000, -1000.000000, -1000.000000)"/>
<ellipse id="ellipse218" rx="0.300000" ry="0.150000" cx="-1000.000000" cy="-1000.000000" style="stroke-width:0.000000;fill:#44ccee;stroke:none;" transform="rotate(0.000000, -1000.000000, -1000.000000)"/>
<ellipse id="ellipse219" rx="0.300000" ry="0.150000" cx="-1000.000000" cy="-1000.000000" style="stroke-width:0.000000;fill:#44ccee;stroke:none;" transform="rotate(0.000000, -1000.000000, -1000.000000)"/>
<ellipse id="ellipse220" rx="0.300000" ry="0.150000" cx="-1000.000000" cy="-1000.000000" style="stroke-width:0.000000;fill:#44ccee;stroke:none;" transform="rotate(0.000000, -1000.000000, -1000.000000)"/>
<ellipse id="ellipse221" rx="0.300000" ry="0.150000" cx="-1000.000000" cy="-1000.000000" style="stroke-width:0.000000;fill:#44ccee;stroke:none;" transform="rotate(0.000000, -1000.000000, -1000.000000)"/>
<ellipse id="ellipse222" rx="0.300000" ry="0.150000" cx="-1000.000000" cy="-1000.000000" style="stroke-width:0.000000;fill:#44ccee;stroke:none;" transform="rotate(0.000000, -1000.000000, -1000.000000)"/>
<ellipse id="ellipse223" rx="0.300000" ry="0.150000" cx="-1000.000000" cy="-1000.000000" style="stroke-width:0.000000;fill:#44ccee;stroke:none;" transform="rotate(0.000000, -1000.000000, -1000.000000)"/>
<ellipse id="ellipse224" rx="0.300000" ry="0.150000" cx="-1000.000000" cy="-1000.000000" style="stroke-width:0.000000;fill:#44ccee;stroke:none;" transform="rotate(0.000000, -1000.000000, -1000.000000)"/>
<ellipse id="ellipse225" rx="0.300000" ry="0.150000" cx="-1000.000000" cy="-1000.000000" style="stroke-width:0.000000;fill:#44ccee;stroke:none;" transform="rotate(0.000000, -1000.000000, -1000.000000)"/>
<ellipse id="ellipse226" rx="0.300000" ry="0.150000" cx="-1000.000000" cy="-1000.000000" style="stroke-width:0.000000;fill:#44ccee;stroke:none;" transform="rotate(0.000000, -1000.000000, -1000.000000)"/>
<ellipse id="ellipse227" rx="0.300000" ry="0.150000" cx="-1000.000000" cy="-1000.000000" style="stroke-width:0.000000;fill:#44ccee;stroke:none;" transform="rotate(0.000000, -1000.000000, -1000.000000)"/>
<ellipse id="ellipse228" rx="0.300000" ry="0.150000" cx="-1000.000000" cy="-1000.000000" style="stroke-width:0.000000;fill:#44ccee;stroke:none;" transform="rotate(0.000000, -1000.000000, -1000.000000)"/>
<ellipse id="ellipse229" rx="0.300000" ry="0.150000" cx="-1000.000000" cy="-1000.000000" style="stroke-width:0.000000;fill:#44ccee;stroke:none;" transform="rotate(0.000000, -1000.000000, -1000.000000)"/>
<ellipse id="ellipse230" rx="0.300000" ry="0.150000" cx="-1000.000000" cy="-1000.000000" style="stroke-width:0.000000;fill:#44ccee;stroke:none;" transform="rotate(0.000000, -1000.000000, -1000.000000)"/>
<ellipse id="ellipse231" rx="0.300000" ry="0.150000" cx="-1000.000000" cy="-1000.000000" style="stroke-width:0.000000;fill:#44ccee;stroke:none;" transform="rotate(0.000000, -1000.000000, -1000.000000)"/>
<ellipse id="ellipse232" rx="0.300000" ry="0.150000" cx="-1000.000000" cy="-1000.000000" style="stroke-width:0.000000;fill:#44ccee;stroke:none;" transform="rotate(0.000000, -1000.000000, -1000.000000)"/>
<ellipse id="ellipse233" rx="0.300000" ry="0.150000" cx="-1000.000000" cy="-1000.000000" style="stroke-width:0.000000;fill:#44ccee;stroke:none;" transform="rotate(0.000000, -1000.000000, -1000.000000)"/>
<ellipse id="ellipse234" rx="0.300000" ry="0.150000" cx="-1000.000000" cy="-1000.000000" style="stroke-width:0.000000;fill:#44ccee;stroke:none;" transform="rotate(0.000000, -1000.000000, -1000.000000)"/>
<ellipse id="ellipse235" rx="0.300000" ry="0.150000" cx="-1000.000000" cy="-1000.000000" style="stroke-width:0.000000;fill:#44ccee;stroke:none;" transform="rotate(0.000000, -1000.000000, -1000.000000)"/>
<ellipse id="ellipse236" rx="0.300000" ry="0.150000" cx="-1000.000000" cy="-1000.000000" style="stroke-width:0.000000;fill:#44ccee;stroke:none;" transform="rotate(0.000000, -1000.000000, -1000.000000)"/>
<ellipse id="ellipse237" rx="0.300000" ry="0.150000" cx="-1000.000000" cy="-1000.000000" style="stroke-width:0.000000;fill:#44ccee;stroke:none;" transform="rotate(0.000000, -1000.000000, -1000.000000)"/>
<ellipse id="ellipse238" rx="0.300000" ry="0.150000" cx="-1000.000000" cy="-1000.000000" style="stroke-width:0.000000;fill:#44ccee;stroke:none;" transform="rotate(0.000000, -1000.000000, -1000.000000)"/>
<ellipse id="ellipse239" rx="0.300000" ry="0.150000" cx="-1000.000000" cy="-1000.000000" style="stroke-width:0.000000;fill:#44ccee;stroke:none;" transform="rotate(0.000000, -1000.000000, -1000.000000)"/>
<ellipse id="ellipse240" rx="0.300000" ry="0.150000" cx="-1000.000000" cy="-1000.000000" style="stroke-width:0.000000;fill:#44ccee;stroke:none;" transform="rotate(0.000000, -1000.000000, -1000.000000)"/>
<ellipse id="ellipse241" rx="0.300000" ry="0.150000" cx="-1000.000000" cy="-1000.000000" style="stroke-width:0.000000;fill:#44ccee;stroke:none;" transform="rotate(0.000000, -1000.000000, -1000.000000)"/>
<ellipse id="ellipse242" rx="0.300000" ry="0.150000" cx="-1000.000000" cy="-1000.000000" style="stroke-width:0.000000;fill:#44ccee;stroke:none;" transform="rotate(0.000000, -1000.000000, -1000.000000)"/>
<ellipse id="ellipse243" rx="0.300000" ry="0.150000" cx="-1000.000000" cy="-1000.000000" style="stroke-width:0.000000;fill:#44ccee;stroke:none;" transform="rotate(0.000000, -1000.000000, -1000.000000)"/>
<ellipse id="ellipse244" rx="0.300000" ry="0.150000" cx="-1000.000000" cy="-1000.000000" style="stroke-width:0.000000;fill:#44ccee;stroke:none;" transform="rotate(0.000000, -1000.000000, -1000.000000)"/>
<ellipse id="ellipse245" rx="0.300000" ry="0.150000" cx="-1000.000000" cy="-1000.000000" style="stroke-width:0.000000;fill:#44ccee;stroke:none;" transform="rotate(0.000000, -1000.000000, -1000.000000)"/>
<ellipse id="ellipse246" rx="0.300000" ry="0.150000" cx="-1000.000000" cy="-1000.000000" style="stroke-width:0.000000;fill:#44ccee;stroke:none;" transform="rotate(0.000000, -1000.000000, -1000.000000)"/>
<ellipse id="ellipse247" rx="0.300000" ry="0.150000" cx="-1000.000000" cy="-1000.000000" style="stroke-width:0.000000;fill:#44ccee;stroke:none;" transform="rotate(0.000000, -1000.000000, -1000.000000)"/>
<ellipse id="ellipse248" rx="0.300000" ry="0.150000" cx="-1000.000000" cy="-1000.000000" style="stroke-width:0.000000;fill:#44ccee;stroke:none;" transform="rotate(0.000000, -1000.000000, -1000.000000)"/>
<ellipse id="ellipse249" rx="0.300000" ry="0.150000" cx="-1000.000000" cy="-1000.000000" style="stroke-width:0.000000;fill:#44ccee;stroke:none;" transform="rotate(0.000000, -1000.000000, -1000.000000)"/>
<ellipse id="ellipse250" rx="0.300000" ry="0.150000" cx="-1000.000000" cy="-1000.000000" style="stroke-width:0.000000;fill:#44ccee;stroke:none;" transform="rotate(0.000000, -1000.000000, -1000.000000)"/>
<ellipse id="ellipse251" rx="0.300000" ry="0.150000" cx="-1000.000000" cy="-1000.000000" style="stroke-width:0.000000;fill:#44ccee;stroke:none;" transform="rotate(0.000000, -1000.000000, -1000.000000)"/>
<ellipse id="ellipse252" rx="0.300000" ry="0.150000" cx="-1000.000000" cy="-1000.000000" style="stroke-width:0.000000;fill:#44ccee;stroke:none;" transform="rotate(0.000000, -1000.000000, -1000.000000)"/>
<ellipse id="ellipse253" rx="0.300000" ry="0.150000" cx="-1000.000000" cy="-1000.000000" style="stroke-width:0.000000;fill:#44ccee;stroke:none;" transform="rotate(0.000000, -1000.000000, -1000.000000)"/>
<ellipse id="ellipse254" rx="0.300000" ry="0.150000" cx="-1000.000000" cy="-1000.000000" style="stroke-width:0.000000;fill:#44ccee;stroke:none;" transform="rotate(0.000000, -1000.000000, -1000.000000)"/>
<ellipse id="ellipse255" rx="0.300000" ry="0.150000" cx="-1000.000000" cy="-1000.000000" style="stroke-width:0.000000;fill:#44ccee;stroke:none;" transform="rotate(0.000000, -1000.000000, -1000.000000)"/>
<ellipse id="ellipse256" rx="0.300000" ry="0.150000" cx="-1000.000000" cy="-1000.000000" style="stroke-width:0.000000;fill:#44ccee;stroke:none;" transform="rotate(0.000000, -1000.000000, -1000.000000)"/>
<ellipse id="ellipse257" rx="0.300000" ry="0.150000" cx="0.927584" cy="-1.585502" style="stroke-width:0.000000;fill:#44ccee;stroke:none;" transform="rotate(0.000000, 0.927584, -1.585502)"/>
<ellipse id="ellipse258" rx="0.300000" ry="0.150000" cx="-1000.000000" cy="-1000.000000" style="stroke-width:0.000000;fill:#44ccee;stroke:none;" transform="rotate(0.000000, -1000.000000, -1000.000000)"/>
<ellipse id="ellipse259" rx="0.300000" ry="0.150000" cx="-1000.000000" cy="-1000.000000" style="stroke-width:0.000000;fill:#44ccee;stroke:none;" transform="rotate(0.000000, -1000.000000, -1000.000000)"/>
<ellipse id="ellipse260" rx="0.300000" ry="0.150000" cx="-1000.000000" cy="-1000.000000" style="stroke-width:0.000000;fill:#44ccee;stroke:none;" transform="rotate(0.000000, -1000.000000, -1000.000000)"/>
<ellipse id="ellipse261" rx="0.300000" ry="0.150000" cx="-1000.000000" cy="-1000.000000" style="stroke-width:0.000000;fill:#44ccee;stroke:none;" transform="rotate(0.000000, -1000.000000, -1000.000000)"/>
<ellipse id="ellipse262" rx="0.300000" ry="0.150000" cx="-1000.000000" cy="-1000.000000" style="stroke-width:0.000000;fill:#44ccee;stroke:none;" transform="rotate(0.000000, -1000.000000, -1000.000000)"/>
<ellipse id="ellipse263" rx="0.300000" ry="0.150000" cx="-1000.000000" cy="-1000.000000" style="stroke-width:0.000000;fill:#44ccee;stroke:none;" transform="rotate(0.000000, -1000.000000, -1000.000000)"/>
<ellipse id="ellipse264" rx="0.300000" ry="0.150000" cx="-1000.000000" cy="-1000.000000" style="stroke-width:0.000000;fill:#44ccee;stroke:none;" transform="rotate(0.000000, -1000.000000, -1000.000000)"/>
<ellipse id="ellipse265" rx="0.300000" ry="0.150000" cx="-1000.000000" cy="-1000.000000" style="stroke-width:0.000000;fill:#44ccee;stroke:none;" transform="rotate(0.000000, -1000.000000, -1000.000000)"/>
<ellipse id="ellipse266" rx="0.300000" ry="0.150000" cx="-1000.000000" cy="-1000.000000" style="stroke-width:0.000000;fill:#44ccee;stroke:none;" transform="rotate(0.000000, -1000.000000, -1000.000000)"/>
<ellipse id="ellipse267" rx="0.300000" ry="0.150000" cx="-1000.000000" cy="-1000.000000" style="stroke-width:0.000000;fill:#44ccee;stroke:none;" transform="rotate(0.000000, -1000.000000, -1000.000000)"/>
<ellipse id="ellipse268" rx="0.300000" ry="0.150000" cx="-1000.000000" cy="-1000.000000" style="stroke-width:0.000000;fill:#44ccee;stroke:none;" transform="rotate(0.000000, -1000.000000, -1000.000000)"/>
<ellipse id="ellipse269" rx="0.300000" ry="0.150000" cx="-1000.000000" cy="-1000.000000" style="stroke-width:0.000000;fill:#44ccee;stroke:none;" transform="rotate(0.000000, -1000.000000, -1000.000000)"/>
<ellipse id="ellipse270" rx="0.300000" ry="0.150000" cx="-1000.000000" cy="-1000.000000" style="stroke-width:0.000000;fill:#44ccee;stroke:none;" transform="rotate(0.000000, -1000.000000, -1000.000000)"/>
<ellipse id="ellipse271" rx="0.300000" ry="0.150000" cx="-1000.000000" cy="-1000.000000" style="stroke-width:0.000000;fill:#44ccee;stroke:none;" transform="rotate(0.000000, -1000.000000, -1000.000000)"/>
<ellipse id="ellipse272" rx="0.300000" ry="0.150000" cx="-1000.000000" cy="-1000.000000" style="stroke-width:0.000000;fill:#44ccee;stroke:none;" transform="rotate(0.000000, -1000.000000, -1000.000000)"/>
<ellipse id="ellipse273" rx="0.300000" ry="0.150000" cx="-1000.000000" cy="-1000.000000" style="stroke-width:0.000000;fill:#44ccee;stroke:none;" transform="rotate(0.000000, -1000.000000, -1000.000000)"/>
<ellipse id="ellipse274" rx="0.300000" ry="0.150000" cx="-1000.000000" cy="-1000.000000" style="stroke-width:0.000000;fill:#44ccee;stroke:none;" transform="rotate(0.000000, -1000.000000, -1000.000000)"/>
<ellipse id="ellipse275" rx="0.300000" ry="0.150000" cx="-1000.000000" cy="-1000.000000" style="stroke-width:0.000000;fill:#44ccee;stroke:none;" transform="rotate(0.000000, -1000.000000, -1000.000000)"/>
<ellipse id="ellipse276" rx="0.300000" ry="0.150000" cx="-1000.000000" cy="-1000.000000" style="stroke-width:0.000000;fill:#44ccee;stroke:none;" transform="rotate(0.000000, -1000.000000, -1000.000000)"/>
<ellipse id="ellipse277" rx="0.300000" ry="0.150000" cx="-1000.000000" cy="-1000.000000" style="stroke-width:0.000000;fill:#44ccee;stroke:none;" transform="rotate(0.000000, -1000.000000, -1000.000000)"/>
<ellipse id="ellipse278" rx="0.300000" ry="0.150000" cx="-1000.000000" cy="-1000.000000" style="stroke-width:0.000000;fill:#44ccee;stroke:none;" transform="rotate(0.000000, -1000.000000, -1000.000000)"/>
<ellipse id="ellipse279" rx="0.300000" ry="0.150000" cx="-1000.000000" cy="-1000.000000" style="stroke-width:0.000000;fill:#44ccee;stroke:none;" transform="rotate(0.000000, -1000.000000, -1000.000000)"/>
<ellipse id="ellipse280" rx="0.300000" ry="0.150000" cx="-1000.000000" cy="-1000.000000" style="stroke-width:0.000000;fill:#44ccee;stroke:none;" transform="rotate(0.000000, -1000.000000, -1000.000000)"/>
<ellipse id="ellipse281" rx="0.300000" ry="0.150000" cx="-1000.000000" cy="-1000.000000" style="stroke-width:0.000000;fill:#44ccee;stroke:none;" transform="rotate(0.000000, -1000.000000, -1000.000000)"/>
<ellipse id="ellipse282" rx="0.300000" ry="0.150000" cx="-1000.000000" cy="-1000.000000" style="stroke-width:0.000000;fill:#44ccee;stroke:none;" transform="rotate(0.000000, -1000.000000, -1000.000000)"/>
<ellipse id="ellipse283" rx="0.300000" ry="0.150000" cx="-1000.000000" cy="-1000.000000" style="stroke-width:0.000000;fill:#44ccee;stroke:none;" transform="rotate(0.000000, -1000.000000, -1000.000000)"/>
<ellipse id="ellipse284" rx="0.300000" ry="0.150000" cx="-1000.000000" cy="-1000.000000" style="stroke-width:0.000000;fill:#44ccee;stroke:none;" transform="rotate(0.000000, -1000.000000, -1000.000000)"/>
<ellipse id="ellipse285" rx="0.300000" ry="0.150000" cx="-1000.000000" cy="-1000.000000" style="stroke-width:0.000000;fill:#44ccee;stroke:none;" transform="rotate(0.000000, -1000.000000, -1000.000000)"/>
<ellipse id="ellipse286" rx="0.300000" ry="0.150000" cx="-1000.000000" cy="-1000.000000" style="stroke-width:0.000000;fill:#44ccee;stroke:none;" transform="rotate(0.000000, -1000.000000, -1000.000000)"/>
<ellipse id="ellipse287" rx="0.300000" ry="0.150000" cx="-1000.000000" cy="-1000.000000" style="stroke-width:0.000000;fill:#44ccee;stroke:none;" transform="rotate(0.000000, -1000.000000, -1000.000000)"/>
<ellipse id="ellipse288" rx="0.300000" ry="0.150000" cx="-1000.000000" cy="-1000.000000" style="stroke-width:0.000000;fill:#44ccee;stroke:none;" transform="rotate(0.000000, -1000.000000, -1000.000000)"/>
<ellipse id="ellipse289" rx="0.300000" ry="0.150000" cx="-1000.000000" cy="-1000.000000" style="stroke-width:0.000000;fill:#44ccee;stroke:none;" transform="rotate(0.000000, -1000.000000, -1000.000000)"/>
<ellipse id="ellipse290" rx="0.300000" ry="0.150000" cx="-1000.000000" cy="-1000.000000" style="stroke-width:0.000000;fill:#44ccee;stroke:none;" transform="rotate(0.000000, -1000.000000, -1000.000000)"/>
<ellipse id="ellipse291" rx="0.300000" ry="0.150000" cx="-1000.000000" cy="-1000.000000" style="stroke-width:0.000000;fill:#44ccee;stroke:none;" transform="rotate(0.000000, -1000.000000, -1000.000000)"/>
<ellipse id="ellipse292" rx="0.300000" ry="0.150000" cx="-1000.000000" cy="-1000.000000" style="stroke-width:0.000000;fill:#44ccee;stroke:none;" transform="rotate(0.000000, -1000.000000, -1000.000000)"/>
<ellipse id="ellipse293" rx="0.300000" ry="0.150000" cx="-1000.000000" cy="-1000.000000" style="stroke-width:0.000000;fill:#44ccee;stroke:none;" transform="rotate(0.000000, -1000.000000, -1000.000000)"/>
<ellipse id="ellipse294" rx="0.300000" ry="0.150000" cx="-1000.000000" cy="-1000.000000" style="stroke-width:0.000000;fill:#44ccee;stroke:none;" transform="rotate(0.000000, -1000.000000, -1000.000000)"/>
<ellipse id="ellipse295" rx="0.300000" ry="0.150000" cx="-1000.000000" cy="-1000.000000" style="stroke-width:0.000000;fill:#44ccee;stroke:none;" transform="rotate(0.000000, -1000.000000, -1000.000000)"/>
<ellipse id="ellipse296" rx="0.300000" ry="0.150000" cx="-1000.000000" cy="-1000.000000" style="stroke-width:0.000000;fill:#44ccee;stroke:none;" transform="rotate(0.000000, -1000.000000, -1000.000000)"/>
<ellipse id="ellipse297" rx="0.300000" ry="0.150000" cx="-1000.000000" cy="-1000.000000" style="stroke-width:0.000000;fill:#44ccee;stroke:none;" transform="rotate(0.000000, -1000.000000, -1000.000000)"/>
<ellipse id="ellipse298" rx="0.300000" ry="0.150000" cx="-1000.000000" cy="-1000.000000" style="stroke-width:0.000000;fill:#44ccee;stroke:none;" transform="rotate(0.000000, -1000.000000, -1000.000000)"/>
<ellipse id="ellipse299" rx="0.300000" ry="0.150000" cx="-1000.000000" cy="-1000.000000" style="stroke-width:0.000000;fill:#44ccee;stroke:none;" transform="rotate(0.000000, -1000.000000, -1000.000000)"/>
<ellipse id="ellipse300" rx="0.300000" ry="0.150000" cx="-1000.000000" cy="-1000.000000" style="stroke-width:0.000000;fill:#44ccee;stroke:none;" transform="rotate(0.000000, -1000.000000, -1000.000000)"/>
<ellipse id="ellipse301" rx="0.300000" ry="0.150000" cx="-1000.000000" cy="-1000.000000" style="stroke-width:0.000000;fill:#44ccee;stroke:none;" transform="rotate(0.000000, -1000.000000, -1000.000000)"/>
<ellipse id="ellipse302" rx="0.300000" ry="0.150000" cx="-1000.000000" cy="-1000.000000" style="stroke-width:0.000000;fill:#44ccee;stroke:none;" transform="rotate(0.000000, -1000.000000, -1000.000000)"/>
<ellipse id="ellipse303" rx="0.300000" ry="0.150000" cx="-1000.000000" cy="-1000.000000" style="stroke-width:0.000000;fill:#44ccee;stroke:none;" transform="rotate(0.000000, -1000.000000, -1000.000000)"/>
<ellipse id="ellipse304" rx="0.300000" ry="0.150000" cx="-1000.000000" cy="-1000.000000" style="stroke-width:0.000000;fill:#44ccee;stroke:none;" transform="rotate(0.000000, -1000.000000, -1000.000000)"/>
<ellipse id="ellipse305" rx="0.300000" ry="0.150000" cx="-1000.000000" cy="-1000.000000" style="stroke-width:0.000000;fill:#44ccee;stroke:none;" transform="rotate(0.000000, -1000.000000, -1000.000000)"/>
<ellipse id="ellipse306" rx="0.300000" ry="0.150000" cx="-1000.000000" cy="-1000.000000" style="stroke-width:0.000000;fill:#44ccee;stroke:none;" transform="rotate(0.000000, -1000.000000, -1000.000000)"/>
<ellipse id="ellipse307" rx="0.300000" ry="0.150000" cx="-1000.000000" cy="-1000.000000" style="stroke-width:0.000000;fill:#44ccee;stroke:none;" transform="rotate(0.000000, -1000.000000, -1000.000000)"/>
<ellipse id="ellipse308" rx="0.300000" ry="0.150000" cx="-1000.000000" cy="-1000.000000" style="stroke-width:0.000000;fill:#44ccee;stroke:none;" transform="rotate(0.000000, -1000.000000, -1000.000000)"/>
<ellipse id="ellipse309" rx="0.300000" ry="0.150000" cx="-1000.000000" cy="-1000.000000" style="stroke-width:0.000000;fill:#44ccee;stroke:none;" transform="rotate(0.000000, -1000.000000, -1000.000000)"/>
<ellipse id="ellipse310" rx="0.300000" ry="0.150000" cx="-1000.000000" cy="-1000.000000" style="stroke-width:0.000000;fill:#44ccee;stroke:none;" transform="rotate(0.000000, -1000.000000, -1000.000000)"/>
<ellipse id="ellipse311" rx="0.300000" ry="0.150000" cx="-1000.000000" cy="-1000.000000" style="stroke-width:0.000000;fill:#44ccee;stroke:none;" transform="rotate(0.000000, -1000.000000, -1000.000000)"/>
<ellipse id="ellipse312" rx="0.300000" ry="0.150000" cx="-1000.000000" cy="-1000.000000" style="stroke-width:0.000000;fill:#44ccee;stroke:none;" transform="rotate(0.000000, -1000.000000, -1000.000000)"/>
<ellipse id="ellipse313" rx="0.300000" ry="0.150000" cx="-1000.000000" cy="-1000.000000" style="stroke-width:0.000000;fill:#44ccee;stroke:none;" transform="rotate(0.000000, -1000.000000, -1000.000000)"/>
<ellipse id="ellipse314" rx="0.300000" ry="0.150000" cx="-1000.000000" cy="-1000.000000" style="stroke-width:0.000000;fill:#44ccee;stroke:none;" transform="rotate(0.000000, -1000.000000, -1000.000000)"/>
<ellipse id="ellipse315" rx="0.300000" ry="0.150000" cx="-1000.000000" cy="-1000.000000" style="stroke-width:0.000000;fill:#44ccee;stroke:none;" transform="rotate(0.000000, -1000.000000, -1000.000000)"/>
<ellipse id="ellipse316" rx="0.300000" ry="0.150000" cx="-1000.000000" cy="-1000.000000" style="stroke-width:0.000000;fill:#44ccee;stroke:none;" transform="rotate(0.000000, -1000.000000, -1000.000000)"/>
<ellipse id="ellipse317" rx="0.300000" ry="0.150000" cx="-1000.000000" cy="-1000.000000" style="stroke-width:0.000000;fill:#44ccee;stroke:none;" transform="rotate(0.000000, -1000.000000, -1000.000000)"/>
<ellipse id="ellipse318" rx="0.300000" ry="0.150000" cx="-1000.000000" cy="-1000.000000" style="stroke-width:0.000000;fill:#44ccee;stroke:none;" transform="rotate(0.000000, -1000.000000, -1000.000000)"/>
<ellipse id="ellipse319" rx="0.300000" ry="0.150000" cx="-1000.000000" cy="-1000.000000" style="stroke-width:0.000000;fill:#44ccee;stroke:none;" transform="rotate(0.000000, -1000.000000, -1000.000000)"/>
<ellipse id="ellipse320" rx="0.300000" ry="0.150000" cx="-1000.000000" cy="-1000.000000" style="stroke-width:0.000000;fill:#44ccee;stroke:none;" transform="rotate(0.000000, -1000.000000, -1000.000000)"/>
<ellipse id="ellipse321" rx="0.300000" ry="0.150000" cx="-1000.000000" cy="-1000.000000" style="stroke-width:0.000000;fill:#44ccee;stroke:none;" transform="rotate(0.000000, -1000.000000, -1000.000000)"/>
<ellipse id="ellipse322" rx="0.300000" ry="0.150000" cx="-1000.000000" cy="-1000.000000" style="stroke-width:0.000000;fill:#44ccee;stroke:none;" transform="rotate(0.000000, -1000.000000, -1000.000000)"/>
<ellipse id="ellipse323" rx="0.300000" ry="0.150000" cx="-1000.000000" cy="-1000.000000" style="stroke-width:0.000000;fill:#44ccee;stroke:none;" transform="rotate(0.000000, -1000.000000, -1000.000000)"/>
<ellipse id="ellipse324" rx="0.300000" ry="0.150000" cx="-1000.000000" cy="-1000.000000" style="stroke-width:0.000000;fill:#44ccee;stroke:none;" transform="rotate(0.000000, -1000.000000, -1000.000000)"/>
<ellipse id="ellipse325" rx="0.300000" ry="0.150000" cx="-1000.000000" cy="-1000.000000" style="stroke-width:0.000000;fill:#44ccee;stroke:none;" transform="rotate(0.000000, -1000.000000, -1000.000000)"/>
<ellipse id="ellipse326" rx="0.300000" ry="0.150000" cx="-1000.000000" cy="-1000.000000" style="stroke-width:0.000000;fill:#44ccee;stroke:none;" transform="rotate(0.000000, -1000.000000, -1000.000000)"/>
<ellipse id="ellipse327" rx="0.300000" ry="0.150000" cx="-1000.000000" cy="-1000.000000" style="stroke-width:0.000000;fill:#44ccee;stroke:none;" transform="rotate(0.000000, -1000.000000, -1000.000000)"/>
<ellipse id="ellipse328" rx="0.300000" ry="0.150000" cx="-1000.000000" cy="-1000.000000" style="stroke-width:0.000000;fill:#44ccee;stroke:none;" transform="rotate(0.000000, -1000.000000, -1000.000000)"/>
<ellipse id="ellipse329" rx="0.300000" ry="0.150000" cx="-1000.000000" cy="-1000.000000" style="stroke-width:0.000000;fill:#44ccee;stroke:none;" transform="rotate(0.000000, -1000.000000, -1000.000000)"/>
<ellipse id="ellipse330" rx="0.300000" ry="0.150000" cx="-1000.000000" cy="-1000.000000" style="stroke-width:0.000000;fill:#44ccee;stroke:none;" transform="rotate(0.000000, -1000.000000, -1000.000000)"/>
<ellipse id="ellipse331" rx="0.300000" ry="0.150000" cx="-1000.000000" cy="-1000.000000" style="stroke-width:0.000000;fill:#44ccee;stroke:none;" transform="rotate(0.000000, -1000.000000, -1000.000000)"/>
<ellipse id="ellipse332" rx="0.300000" ry="0.150000" cx="-1000.000000" cy="-1000.000000" style="stroke-width:0.000000;fill:#44ccee;stroke:none;" transform="rotate(0.000000, -1000.000000, -1000.000000)"/>
<ellipse id="ellipse333" rx="0.300000" ry="0.150000" cx="-1000.000000" cy="-1000.000000" style="stroke-width:0.000000;fill:#44ccee;stroke:none;" transform="rotate(0.000000, -1000.000000, -1000.000000)"/>
<ellipse id="ellipse334" rx="0.300000" ry="0.150000" cx="-1000.000000" cy="-1000.000000" style="stroke-width:0.000000;fill:#44ccee;stroke:none;" transform="rotate(0.000000, -1000.000000, -1000.000000)"/>
<ellipse id="ellipse335" rx="0.300000" ry="0.150000" cx="-1000.000000" cy="-1000.000000" style="stroke-width:0.000000;fill:#44ccee;stroke:none;" transform="rotate(0.000000, -1000.000000, -1000.000000)"/>
<ellipse id="ellipse336" rx="0.300000" ry="0.150000" cx="-1000.000000" cy="-1000.000000" style="stroke-width:0.000000;fill:#44ccee;stroke:none;" transform="rotate(0.000000, -1000.000000, -1000.000000)"/>
<ellipse id="ellipse337" rx="0.300000" ry="0.150000" cx="-1000.000000" cy="-1000.000000" style="stroke-width:0.000000;fill:#44ccee;stroke:none;" transform="rotate(0.000000, -1000.000000, -1000.000000)"/>
<ellipse id="ellipse338" rx="0.300000" ry="0.150000" cx="-1000.000000" cy="-1000.000000" style="stroke-width:0.000000;fill:#44ccee;stroke:none;" transform="rotate(0.000000, -1000.000000, -1000.000000)"/>
<ellipse id="ellipse339" rx="0.300000" ry="0.150000" cx="-1000.000000" cy="-1000.000000" style="stroke-width:0.000000;fill:#44ccee;stroke:none;" transform="rotate(0.000000, -1000.000000, -1000.000000)"/>
<ellipse id="ellipse340" rx="0.300000" ry="0.150000" cx="-1000.000000" cy="-1000.000000" style="stroke-width:0.000000;fill:#44ccee;stroke:none;" transform="rotate(0.000000, -1000.000000, -1000.000000)"/>
<ellipse id="ellipse341" rx="0.300000" ry="0.150000" cx="-1000.000000" cy="-1000.000000" style="stroke-width:0.000000;fill:#44ccee;stroke:none;" transform="rotate(0.000000, -1000.000000, -1000.000000)"/>
<ellipse id="ellipse342" rx="0.300000" ry="0.150000" cx="-1000.000000" cy="-1000.000000" style="stroke-width:0.000000;fill:#44ccee;stroke:none;" transform="rotate(0.000000, -1000.000000, -1000.000000)"/>
<ellipse id="ellipse343" rx="0.300000" ry="0.150000" cx="-1000.000000" cy="-1000.000000" style="stroke-width:0.000000;fill:#44ccee;stroke:none;" transform="rotate(0.000000, -1000.000000, -1000.000000)"/>
<ellipse id="ellipse344" rx="0.300000" ry="0.150000" cx="-1000.000000" cy="-1000.000000" style="stroke-width:0.000000;fill:#44ccee;stroke:none;" transform="rotate(0.000000, -1000.000000, -1000.000000)"/>
<ellipse id="ellipse345" rx="0.300000" ry="0.150000" cx="-1000.000000" cy="-1000.000000" style="stroke-width:0.000000;fill:#44ccee;stroke:none;" transform="rotate(0.000000, -1000.000000, -1000.000000)"/>
<ellipse id="ellipse346" rx="0.300000" ry="0.150000" cx="-1000.000000" cy="-1000.000000" style="stroke-width:0.000000;fill:#44ccee;stroke:none;" transform="rotate(0.000000, -1000.000000, -1000.000000)"/>
<ellipse id="ellipse347" rx="0.300000" ry="0.150000" cx="-1000.000000" cy="-1000.000000" style="stroke-width:0.000000;fill:#44ccee;stroke:none;" transform="rotate(0.000000, -1000.000000, -1000.000000)"/>
<ellipse id="ellipse348" rx="0.300000" ry="0.150000" cx="-1000.000000" cy="-1000.000000" style="stroke-width:0.000000;fill:#44ccee;stroke:none;" transform="rotate(0.000000, -1000.000000, -1000.000000)"/>
<ellipse id="ellipse349" rx="0.300000" ry="0.150000" cx="-1000.000000" cy="-1000.000000" style="stroke-width:0.000000;fill:#44ccee;stroke:none;" transform="rotate(0.000000, -1000.000000, -1000.000000)"/>
<ellipse id="ellipse350" rx="0.300000" ry="0.150000" cx="-1000.000000" cy="-1000.000000" style="stroke-width:0.000000;fill:#44ccee;stroke:none;" transform="rotate(0.000000, -1000.000000, -1000.000000)"/>
<ellipse id="ellipse351" rx="0.300000" ry="0.150000" cx="-1000.000000" cy="-1000.000000" style="stroke-width:0.000000;fill:#44ccee;stroke:none;" transform="rotate(0.000000, -1000.000000, -1000.000000)"/>
<ellipse id="ellipse352" rx="0.300000" ry="0.150000" cx="-1000.000000" cy="-1000.000000" style="stroke-width:0.000000;fill:#44ccee;stroke:none;" transform="rotate(0.000000, -1000.000000, -1000.000000)"/>
<ellipse id="ellipse353" rx="0.300000" ry="0.150000" cx="-1000.000000" cy="-1000.000000" style="stroke-width:0.000000;fill:#44ccee;stroke:none;" transform="rotate(0.000000, -1000.000000, -1000.000000)"/>
<ellipse id="ellipse354" rx="0.300000" ry="0.150000" cx="-1000.000000" cy="-1000.000000" style="stroke-width:0.000000;fill:#44ccee;stroke:none;" transform="rotate(0.000000, -1000.000000, -1000.000000)"/>
<ellipse id="ellipse355" rx="0.300000" ry="0.150000" cx="-1000.000000" cy="-1000.000000" style="stroke-width:0.000000;fill:#44ccee;stroke:none;" transform="rotate(0.000000, -1000.000000, -1000.000000)"/>
<ellipse id="ellipse356" rx="0.300000" ry="0.150000" cx="-1000.000000" cy="-1000.000000" style="stroke-width:0.000000;fill:#44ccee;stroke:none;" transform="rotate(0.000000, -1000.000000, -1000.000000)"/>
<ellipse id="ellipse357" rx="0.300000" ry="0.150000" cx="-1000.000000" cy="-1000.000000" style="stroke-width:0.000000;fill:#44ccee;stroke:none;" transform="rotate(0.000000, -1000.000000, -1000.000000)"/>
<ellipse id="ellipse358" rx="0.300000" ry="0.150000" cx="-1000.000000" cy="-1000.000000" style="stroke-width:0.000000;fill:#44ccee;stroke:none;" transform="rotate(0.000000, -1000.000000, -1000.000000)"/>
<ellipse id="ellipse359" rx="0.300000" ry="0.150000" cx="-1000.000000" cy="-1000.000000" style="stroke-width:0.000000;fill:#44ccee;stroke:none;" transform="rotate(0.000000, -1000.000000, -1000.000000)"/>
<ellipse id="ellipse360" rx="0.300000" ry="0.150000" cx="-1000.000000" cy="-1000.000000" style="stroke-width:0.000000;fill:#44ccee;stroke:none;" transform="rotate(0.000000, -1000.000000, -1000.000000)"/>
<ellipse id="ellipse361" rx="0.300000" ry="0.150000" cx="-1000.000000" cy="-1000.000000" style="stroke-width:0.000000;fill:#44ccee;stroke:none;" transform="rotate(0.000000, -1000.000000, -1000.000000)"/>
<ellipse id="ellipse362" rx="0.300000" ry="0.150000" cx="-1000.000000" cy="-1000.000000" style="stroke-width:0.000000;fill:#44ccee;stroke:none;" transform="rotate(0.000000, -1000.000000, -1000.000000)"/>
<ellipse id="ellipse363" rx="0.300000" ry="0.150000" cx="-1000.000000" cy="-1000.000000" style="stroke-width:0.000000;fill:#44ccee;stroke:none;" transform="rotate(0.000000, -1000.000000, -1000.000000)"/>
<ellipse id="ellipse364" rx="0.300000" ry="0.150000" cx="-1000.000000" cy="-1000.000000" style="stroke-width:0.000000;fill:#44ccee;stroke:none;" transform="rotate(0.000000, -1000.000000, -1000.000000)"/>
<ellipse id="ellipse365" rx="0.300000" ry="0.150000" cx="-1000.000000" cy="-1000.000000" style="stroke-width:0.000000;fill:#44ccee;stroke:none;" transform="rotate(0.000000, -1000.000000, -1000.000000)"/>
<ellipse id="ellipse366" rx="0.300000" ry="0.150000" cx="1.317247" cy="-1.715238" style="stroke-width:0.000000;fill:#44ccee;stroke:none;" transform="rotate(98.819670, 1.317247, -1.715238)"/>
<ellipse id="ellipse367" rx="0.300000" ry="0.150000" cx="-1000.000000" cy="-1000.000000" style="stroke-width:0.000000;fill:#44ccee;stroke:none;" transform="rotate(0.000000, -1000.000000, -1000.000000)"/>
<ellipse id="ellipse368" rx="0.300000" ry="0.150000" cx="-1000.000000" cy="-1000.000000" style="stroke-width:0.000000;fill:#44ccee;stroke:none;" transform="rotate(0.000000, -1000.000000, -1000.000000)"/>
<ellipse id="ellipse369" rx="0.300000" ry="0.150000" cx="-1000.000000" cy="-1000.000000" style="stroke-width:0.000000;fill:#44ccee;stroke:none;" transform="rotate(0.000000, -1000.000000, -1000.000000)"/>
<ellipse id="ellipse370" rx="0.300000" ry="0.150000" cx="-1000.000000" cy="-1000.000000" style="stroke-width:0.000000;fill:#44ccee;stroke:none;" transform="rotate(0.000000, -1000.000000, -1000.000000)"/>
<ellipse id="ellipse371" rx="0.300000" ry="0.150000" cx="-1000.000000" cy="-1000.000000" style="stroke-width:0.000000;fill:#44ccee;stroke:none;" transform="rotate(0.000000, -1000.000000, -1000.000000)"/>
<ellipse id="ellipse372" rx="0.300000" ry="0.150000" cx="-1000.000000" cy="-1000.000000" style="stroke-width:0.000000;fill:#44ccee;stroke:none;" transform="rotate(0.000000, -1000.000000, -1000.000000)"/>
<ellipse id="ellipse373" rx="0.300000" ry="0.150000" cx="-1000.000000" cy="-1000.000000" style="stroke-width:0.000000;fill:#44ccee;stroke:none;" transform="rotate(0.000000, -1000.000000, -1000.000000)"/>
<ellipse id="ellipse374" rx="0.300000" ry="0.150000" cx="-1000.000000" cy="-1000.000000" style="stroke-width:0.000000;fill:#44ccee;stroke:none;" transform="rotate(0.000000, -1000.000000, -1000.000000)"/>
<ellipse id="ellipse375" rx="0.300000" ry="0.150000" cx="-1000.000000" cy="-1000.000000" style="stroke-width:0.000000;fill:#44ccee;stroke:none;" transform="rotate(0.000000, -1000.000000, -1000.000000)"/>
<ellipse id="ellipse376" rx="0.300000" ry="0.150000" cx="-1000.000000" cy="-1000.000000" style="stroke-width:0.000000;fill:#44ccee;stroke:none;" transform="rotate(0.000000, -1000.000000, -1000.000000)"/>
<ellipse id="ellipse377" rx="0.300000" ry="0.150000" cx="-1000.000000" cy="-1000.000000" style="stroke-width:0.000000;fill:#44ccee;stroke:none;" transform="rotate(0.000000, -1000.000000, -1000.000000)"/>
<ellipse id="ellipse378" rx="0.300000" ry="0.150000" cx="-1000.000000" cy="-1000.000000" style="stroke-width:0.000000;fill:#44ccee;stroke:none;" transform="rotate(0.000000, -1000.000000, -1000.000000)"/>
<ellipse id="ellipse379" rx="0.300000" ry="0.150000" cx="-1000.000000" cy="-1000.000000" style="stroke-width:0.000000;fill:#44ccee;stroke:none;" transform="rotate(0.000000, -1000.000000, -1000.000000)"/>
<ellipse id="ellipse380" rx="0.300000" ry="0.150000" cx="-1000.000000" cy="-1000.000000" style="stroke-width:0.000000;fill:#44ccee;stroke:none;" transform="rotate(0.000000, -1000.000000, -1000.000000)"/>
<ellipse id="ellipse381" rx="0.300000" ry="0.150000" cx="-1000.000000" cy="-1000.000000" style="stroke-width:0.000000;fill:#44ccee;stroke:none;" transform="rotate(0.000000, -1000.000000, -1000.000000)"/>
<ellipse id="ellipse382" rx="0.300000" ry="0.150000" cx="-1000.000000" cy="-1000.000000" style="stroke-width:0.000000;fill:#44ccee;stroke:none;" transform="rotate(0.000000, -1000.000000, -1000.000000)"/>
<ellipse id="ellipse383" rx="0.300000" ry="0.150000" cx="-1000.000000" cy="-1000.000000" style="stroke-width:0.000000;fill:#44ccee;stroke:none;" transform="rotate(0.000000, -1000.000000, -1000.000000)"/>
<ellipse id="ellipse384" rx="0.300000" ry="0.150000" cx="-1000.000000" cy="-1000.000000" style="stroke-width:0.000000;fill:#44ccee;stroke:none;" transform="rotate(0.000000, -1000.000000, -1000.000000)"/>
<ellipse id="ellipse385" rx="0.300000" ry="0.150000" cx="-1000.000000" cy="-1000.000000" style="stroke-width:0.000000;fill:#44ccee;stroke:none;" transform="rotate(0.000000, -1000.000000, -1000.000000)"/>
<ellipse id="ellipse386" rx="0.300000" ry="0.150000" cx="-1000.000000" cy="-1000.000000" style="stroke-width:0.000000;fill:#44ccee;stroke:none;" transform="rotate(0.000000, -1000.000000, -1000.000000)"/>
<ellipse id="ellipse387" rx="0.300000" ry="0.150000" cx="-1000.000000" cy="-1000.000000" style="stroke-width:0.000000;fill:#44ccee;stroke:none;" transform="rotate(0.000000, -1000.000000, -1000.000000)"/>
<ellipse id="ellipse388" rx="0.300000" ry="0.150000" cx="-1000.000000" cy="-1000.000000" style="stroke-width:0.000000;fill:#44ccee;stroke:none;" transform="rotate(0.000000, -1000.000000, -1000.000000)"/>
<ellipse id="ellipse389" rx="0.300000" ry="0.150000" cx="-1000.000000" cy="-1000.000000" style="stroke-width:0.000000;fill:#44ccee;stroke:none;" transform="rotate(0.000000, -1000.000000, -1000.000000)"/>
<ellipse id="ellipse390" rx="0.300000" ry="0.150000" cx="-1000.000000" cy="-1000.000000" style="stroke-width:0.000000;fill:#44ccee;stroke:none;" transform="rotate(0.000000, -1000.000000, -1000.000000)"/>
<ellipse id="ellipse391" rx="0.300000" ry="0.150000" cx="-1000.000000" cy="-1000.000000" style="stroke-width:0.000000;fill:#44ccee;stroke:none;" transform="rotate(0.000000, -1000.000000, -1000.000000)"/>
<ellipse id="ellipse392" rx="0.300000" ry="0.150000" cx="-1000.000000" cy="-1000.000000" style="stroke-width:0.000000;fill:#44ccee;stroke:none;" transform="rotate(0.000000, -1000.000000, -1000.000000)"/>
<ellipse id="ellipse393" rx="0.300000" ry="0.150000" cx="-1000.000000" cy="-1000.000000" style="stroke-width:0.000000;fill:#44ccee;stroke:none;" transform="rotate(0.000000, -1000.000000, -1000.000000)"/>
<ellipse id="ellipse394" rx="0.300000" ry="0.150000" cx="-1000.000000" cy="-1000.000000" style="stroke-width:0.000000;fill:#44ccee;stroke:none;" transform="rotate(0.000000, -1000.000000, -1000.000000)"/>
<ellipse id="ellipse395" rx="0.300000" ry="0.150000" cx="-1000.000000" cy="-1000.000000" style="stroke-width:0.000000;fill:#44ccee;stroke:none;" transform="rotate(0.000000, -1000.000000, -1000.000000)"/>
<ellipse id="ellipse396" rx="0.300000" ry="0.150000" cx="-1000.000000" cy="-1000.000000" style="stroke-width:0.000000;fill:#44ccee;stroke:none;" transform="rotate(0.000000, -1000.000000, -1000.000000)"/>
<ellipse id="ellipse397" rx="0.300000" ry="0.150000" cx="-1000.000000" cy="-1000.000000" style="stroke-width:0.000000;fill:#44ccee;stroke:none;" transform="rotate(0.000000, -1000.000000, -1000.000000)"/>
<ellipse id="ellipse398" rx="0.300000" ry="0.150000" cx="-1000.000000" cy="-1000.000000" style="stroke-width:0.000000;fill:#44ccee;stroke:none;" transform="rotate(0.000000, -1000.000000, -1000.000000)"/>
<ellipse id="ellipse399" rx="0.300000" ry="0.150000" cx="-1000.000000" cy="-1000.000000" style="stroke-width:0.000000;fill:#44ccee;stroke:none;" transform="rotate(0.000000, -1000.000000, -1000.000000)"/>
<path id="path400" style="stroke-width:0.200000;fill:none;stroke:#f39112;" d="M -4.546597,2.259814  L -4.499116,2.223769  L -4.451635,2.187725  L -4.404154,2.151680  L -4.356673,2.115636  L -4.309192,2.079592  L -4.261711,2.043547  L -4.214230,2.007503  L -4.166749,1.971458  L -4.119268,1.935414  L -4.071787,1.899369  L -4.007464,1.858404  L -3.943140,1.817440  L -3.878817,1.776475  L -3.814493,1.735510  L -3.750170,1.694545  L -3.685846,1.653580  L -3.621523,1.612615  L -3.557199,1.571650  L -3.492876,1.530685  L -3.428552,1.489720  L -3.380113,1.451274  L -3.331673,1.412828  L -3.283233,1.374382  L -3.234794,1.335937  L -3.186354,1.297491  L -3.137914,1.259045  L -3.089474,1.220599  L -3.041035,1.182153  L -2.992595,1.143707  L -2.944155,1.105262  L -2.890495,1.076261  L -2.836835,1.047260  L -2.783174,1.018259  L -2.729514,0.989258  L -2.675854,0.960257  L -2.622194,0.931256  L -2.568533,0.902255  L -2.514873,0.873254  L -2.461213,0.844253  L -2.407553,0.815252  L -2.362194,0.774190  L -2.316836,0.733128  L -2.271478,0.692066  L -2.226120,0.651004  L -2.180762,0.609942  L -2.135404,0.568880  L -2.090045,0.527817  L -2.044687,0.486755  L -1.999329,0.445693  L -1.953971,0.404631  L -1.906206,0.378707  L -1.858442,0.352782  L -1.810677,0.326858  L -1.762913,0.300933  L -1.715148,0.275009  L -1.667383,0.249084  L -1.619619,0.223160  L -1.571854,0.197235  L -1.524090,0.171311  L -1.476325,0.145386  L -1.420028,0.117891  L -1.363732,0.090396  L -1.307435,0.062901  L -1.251139,0.035406  L -1.194842,0.007910  L -1.138546,-0.019585  L -1.082249,-0.047080  L -1.025953,-0.074575  L -0.969656,-0.102070  L -0.913360,-0.129565  L -0.855308,-0.153239  L -0.797256,-0.176913  L -0.739204,-0.200587  L -0.681152,-0.224261  L -0.623100,-0.247935  L -0.565049,-0.271609  L -0.506997,-0.295283  L -0.448945,-0.318957  L -0.390893,-0.342632  L -0.332841,-0.366306  L -0.275111,-0.386223  L -0.217381,-0.406140  L -0.159651,-0.426058  L -0.101921,-0.445975  L -0.044191,-0.465892  L 0.013539,-0.485810  L 0.071268,-0.505727  L 0.128998,-0.525644  L 0.186728,-0.545562  L 0.244458,-0.565479  L 0.298639,-0.587635  L 0.352820,-0.609790  L 0.407000,-0.631946  L 0.461181,-0.654101  L 0.515362,-0.676257  L 0.569542,-0.698413  L 0.623723,-0.720568  L 0.677904,-0.742724  L 0.732084,-0.764879  L 0.786265,-0.787035  L 0.833682,-0.803807  L 0.881100,-0.820579  L 0.928517,-0.837352 " />
<path id="path401" style="stroke-width:0.050000;fill:none;stroke:#aa55dd;" d="M 10.928517,-0.837352  L 10.926994,-0.662828  L 10.922425,-0.488357  L 10.914812,-0.313992  L 10.904158,-0.139787  L 10.890464,0.034206  L 10.873736,0.207933  L 10.853979,0.381342  L 10.831198,0.554379  L 10.805400,0.726993  L 10.776595,0.899130  L 10.744789,1.070738  L 10.709993,1.241765  L 10.672218,1.412159  L 10.631474,1.581867  L 10.587775,1.750839  L 10.541134,1.919022  L 10.491565,2.086365  L 10.439082,2.252818  L 10.383703,2.418330  L 10.325443,2.582850  L 10.264321,2.746328  L 10.200356,2.908714  L 10.133566,3.069959  L 10.063972,3.230015  L 9.991595,3.388831  L 9.916458,3.546360  L 9.838582,3.702553  L 9.757993,3.857364  L 9.674714,4.010744  L 9.588771,4.162648  L 9.500190,4.313029  L 9.408998,4.461841  L 9.315223,4.609039  L 9.218893,4.754577  L 9.120038,4.898413  L 9.018687,5.040501  L 8.914872,5.180798  L 8.808625,5.319263  L 8.699977,5.455852  L 8.588962,5.590524  L 8.475613,5.723238  L 8.359965,5.853954  L 8.242054,5.982632  L 8.121915,6.109232  L 7.999585,6.233716  L 7.875101,6.356046  L 7.748501,6.476185  L 7.619823,6.594096  L 7.489107,6.709744  L 7.356393,6.823093  L 7.221721,6.934108  L 7.085132,7.042756  L 6.946667,7.149003  L 6.806370,7.252818  L 6.664281,7.354169  L 6.520446,7.453024  L 6.374907,7.549354  L 6.227710,7.643129  L 6.078898,7.734321  L 5.928517,7.822902  L 5.776613,7.908845  L 5.623233,7.992124  L 5.468422,8.072713  L 5.312229,8.150589  L 5.154700,8.225726  L 4.995884,8.298103  L 4.835828,8.367697  L 4.674583,8.434487  L 4.512197,8.498452  L 4.348719,8.559574  L 4.184199,8.617834  L 4.018687,8.673213  L 3.852234,8.725696  L 3.684891,8.775265  L 3.516708,8.821906  L 3.347736,8.865605  L 3.178028,8.906349  L 3.007634,8.944124  L 2.836607,8.978920  L 2.664999,9.010726  L 2.492862,9.039532  L 2.320248,9.065329  L 2.147211,9.088110  L 1.973802,9.107867  L 1.800075,9.124595  L 1.626082,9.138289  L 1.451877,9.148944  L 1.277512,9.156556  L 1.103041,9.161125  L 0.928517,9.162648  L 0.753993,9.161125  L 0.579522,9.156556  L 0.405158,9.148944  L 0.230952,9.138289  L 0.056960,9.124595  L -0.116768,9.107867  L -0.290176,9.088110  L -0.463214,9.065329  L -0.635828,9.039532  L -0.807965,9.010726  L -0.979573,8.978920  L -1.150600,8.944124  L -1.320993,8.906349  L -1.490702,8.865605  L -1.659673,8.821906  L -1.827856,8.775265  L -1.995200,8.725696  L -2.161653,8.673213  L -2.327164,8.617834  L -2.491684,8.559574  L -2.655162,8.498452  L -2.817549,8.434487  L -2.978794,8.367697  L -3.138849,8.298103  L -3.297666,8.225726  L -3.455194,8.150589  L -3.611388,8.072713  L -3.766199,7.992124  L -3.919579,7.908845  L -4.071483,7.822902  L -4.221864,7.734321  L -4.370676,7.643129  L -4.517873,7.549354  L -4.663412,7.453024  L -4.807247,7.354169  L -0.448523,1.057982  L -0.476976,1.027801  L -5.228098,7.042756  L -5.364687,6.934108  L -5.499359,6.823093  L -5.632073,6.709744  L -5.762789,6.594096  L -5.891467,6.476185  L -6.018067,6.356046  L -6.142551,6.233716  L -6.264881,6.109232  L -6.385020,5.982632  L -6.502931,5.853954  L -6.618579,5.723238  L -6.731927,5.590524  L -6.842943,5.455852  L -6.951590,5.319263  L -7.057838,5.180798  L -7.161653,5.040501  L -7.263003,4.898413  L -7.361859,4.754577  L -7.458189,4.609039  L -7.551964,4.461841  L -7.643156,4.313029  L -7.731737,4.162648  L -7.817680,4.010744  L -7.900959,3.857364  L -7.981548,3.702553  L -8.059423,3.546360  L -8.134561,3.388831  L -8.206937,3.230015  L -8.276531,3.069959  L -8.343321,2.908714  L -8.407287,2.746328  L -8.468409,2.582850  L -8.526669,2.418330  L -8.582048,2.252818  L -8.634530,2.086365  L -8.684100,1.919022  L -8.730741,1.750839  L -8.774440,1.581867  L -8.815184,1.412159  L -8.852959,1.241765  L -8.887755,1.070738  L -8.919560,0.899130  L -8.948366,0.726993  L -8.974164,0.554379  L -8.996944,0.381342  L -9.016702,0.207933  L -9.033430,0.034206  L -9.047123,-0.139787  L -9.057778,-0.313992  L -9.065391,-0.488357  L -9.069960,-0.662828  L -9.071483,-0.837352  L -9.069960,-1.011876  L -9.065391,-1.186347  L -9.057778,-1.360711  L -9.047123,-1.534917  L -0.463399,-0.959129  L -0.446373,-0.981859  L -0.440079,-1.005394  L -0.442387,-1.030020  L -8.948366,-2.401696  L -8.919560,-2.573834  L -8.887755,-2.745442  L -8.852959,-2.916469  L -8.815184,-3.086862  L -8.774440,-3.256571  L -0.794032,-1.298907  L -0.689728,-1.301376  L -0.625726,-1.312532  L -0.578056,-1.326867  L -0.540592,-1.343207  L -0.510739,-1.361198  L -0.487295,-1.380831  L -0.469884,-1.402343  L -0.458918,-1.426283  L -0.456099,-1.453823  L -0.466914,-1.488052  L -8.059423,-5.221063  L -7.981548,-5.377257  L -7.900959,-5.532067  L -7.817680,-5.685448  L -7.731737,-5.837352  L -7.643156,-5.987733  L -7.551964,-6.136544  L -7.458189,-6.283742  L -7.361859,-6.429281  L -7.263003,-6.573116  L -7.161653,-6.715204  L -7.057838,-6.855502  L -6.951590,-6.993967  L -6.842943,-7.130556  L -6.731927,-7.265228  L -6.618579,-7.397942  L -6.502931,-7.528658  L -6.385020,-7.657335  L -6.264881,-7.783936  L -6.142551,-7.908420  L -6.018067,-8.030750  L -5.891467,-8.150889  L -5.762789,-8.268800  L -5.632073,-8.384448  L -5.499359,-8.497796  L -5.364687,-8.608811  L -5.228098,-8.717459  L -0.612471,-2.882313  L -0.557234,-2.882313  L -0.503380,-2.882313  L -4.663412,-9.127728  L -4.517873,-9.224057  L -4.370676,-9.317833  L -4.221864,-9.409025  L -4.071483,-9.497606  L -3.919579,-9.583549  L -3.766199,-9.666828  L -3.611388,-9.747417  L -3.455194,-9.825292  L -3.297666,-9.900430  L -3.138849,-9.972806  L -2.978794,-10.042400  L 0.648454,-1.530532  L 0.671242,-1.507578  L 0.689408,-1.494298  L 0.705663,-1.484567  L 0.720728,-1.476862  L 0.734940,-1.470514  L 0.748496,-1.465161  L 0.761524,-1.460577  L 0.774118,-1.456614  L 0.786345,-1.453165  L 0.798262,-1.450154  L 0.809912,-1.447522  L 0.821333,-1.445225  L 0.832556,-1.443226  L 0.843610,-1.441498  L 0.854519,-1.440018  L 0.865306,-1.438769  L 0.875990,-1.437737  L 0.886592,-1.436909  L 0.897129,-1.436277  L 0.907618,-1.435834  L 0.918075,-1.435577  L 0.928517,-1.435502  L 0.938960,-1.435610  L 0.949419,-1.435900  L 0.959911,-1.436375  L 0.970451,-1.437041  L 0.981059,-1.437904  L 0.991750,-1.438973  L 1.002545,-1.440260  L 1.013464,-1.441779  L 1.024529,-1.443550  L 1.035767,-1.445594  L 1.047204,-1.447942  L 1.058873,-1.450629  L 1.070813,-1.453701  L 1.083068,-1.457220  L 1.095694,-1.461265  L 1.108764,-1.465946  L 1.122371,-1.471421  L 1.136652,-1.477926  L 1.151813,-1.485851  L 1.168219,-1.495927  L 1.185351,-1.506426  L 1.192291,-1.490215  L 1.199648,-1.476095  L 1.207410,-1.463755  L 1.215591,-1.452983  L 1.224226,-1.443645  L 1.233373,-1.435665  L 1.243116,-1.429027  L 1.253578,-1.423777  L 1.264935,-1.420044  L 1.277457,-1.418085  L 1.291586,-1.418384  L 1.308141,-1.421921  L 1.329021,-1.431123  L 1.362403,-1.457005  L 6.806370,-8.927522  L 6.946667,-8.823707  L 7.085132,-8.717459  L 7.221721,-8.608811  L 7.356393,-8.497796  L 7.489107,-8.384448  L 7.619823,-8.268800  L 7.748501,-8.150889  L 7.875101,-8.030750  L 7.999585,-7.908420  L 8.121915,-7.783936  L 8.242054,-7.657335  L 8.359965,-7.528658  L 8.475613,-7.397942  L 8.588962,-7.265228  L 8.699977,-7.130556  L 8.808625,-6.993967  L 8.914872,-6.855502  L 9.018687,-6.715204  L 9.120038,-6.573116  L 9.218893,-6.429281  L 9.315223,-6.283742  L 9.408998,-6.136544  L 9.500190,-5.987733  L 9.588771,-5.837352  L 9.674714,-5.685448  L 9.757993,-5.532067  L 9.838582,-5.377257  L 9.916458,-5.221063  L 9.991595,-5.063534  L 10.063972,-4.904718  L 10.133566,-4.744663  L 10.200356,-4.583418  L 10.264321,-4.421031  L 10.325443,-4.257553  L 10.383703,-4.093033  L 10.439082,-3.927522  L 10.491565,-3.761069  L 10.541134,-3.593725  L 10.587775,-3.425542  L 10.631474,-3.256571  L 10.672218,-3.086862  L 10.709993,-2.916469  L 10.744789,-2.745442  L 10.776595,-2.573834  L 10.805400,-2.401696  L 10.831198,-2.229083  L 10.853979,-2.056045  L 10.873736,-1.882636  L 10.890464,-1.708909  L 10.904158,-1.534917  L 10.914812,-1.360711  L 10.922425,-1.186347  L 10.926994,-1.011876  z " />
<ellipse id="ellipse402" rx="0.871378" ry="0.711477" cx="0.930526" cy="-0.816704" style="stroke-width:0.050000;fill:none;stroke:#ffff00;" transform="rotate(45.000000, 0.930526, -0.816704)"/>
<circle id="circle403" r="0.050000" cx="0.930526" cy="-0.816704" style="stroke-width:0.100000;fill:none;stroke:#ffff00;"/>
<ellipse id="ellipse404" rx="1.437892" ry="1.174034" cx="0.987003" cy="-0.810889" style="stroke-width:0.050000;fill:none;stroke:#ff00ff;" transform="rotate(45.000000, 0.987003, -0.810889)"/>
<circle id="circle405" r="0.050000" cx="0.987003" cy="-0.810889" style="stroke-width:0.100000;fill:none;stroke:#ff00ff;"/></g></svg>