<svg width="1600px" height="900px" viewBox="-25 -13 16.3292717 21.292512"><g id="layer1" transform="rotate(90,-2.4945089,-5.5210241)"><image x="0" y="0" width="800" height="800" xlink:href="../Maps/nonstandard_size/ewap_eth_modified.png" />
<rect id="rect0" style="stroke-width:0.000000;fill:#ffffff;stroke:none;" x="-20.000000" y="-20.000000" width="680.000000" height="520.000000" />
<circle id="circle1" r="0.069566" cx="-0.555426" cy="-2.951879" style="stroke-width:0.000000;fill:#555555;stroke:none;"/>
<circle id="circle2" r="0.069566" cx="-0.509393" cy="-1.011321" style="stroke-width:0.000000;fill:#555555;stroke:none;"/>
<circle id="circle3" r="0.069566" cx="-0.511067" cy="1.088441" style="stroke-width:0.000000;fill:#555555;stroke:none;"/>
<path id="path4" style="stroke-width:0.000000;fill:#555555;stroke:none;" d="M -0.617364,-3.021445  L -0.491147,-3.021445  L -0.491147,-2.882313  L -0.617364,-2.882313  L -0.617364,-3.021445  z " />
<circle id="circle5" r="0.750000" cx="-4.546597" cy="2.259814" style="stroke-width:0.000000;fill:#00ff00;stroke:none;"/>
<circle id="circle6" r="0.500000" cx="-4.546597" cy="2.259814" style="stroke-width:0.000000;fill:#ffffff;stroke:none;"/>
<circle id="circle7" r="0.187500" cx="-4.546597" cy="2.259814" style="stroke-width:0.000000;fill:#00ff00;stroke:none;"/>
<circle id="circle8" r="0.750000" cx="2.204527" cy="-1.489741" style="stroke-width:0.000000;fill:#ff0000;stroke:none;"/>
<circle id="circle9" r="0.500000" cx="2.204527" cy="-1.489741" style="stroke-width:0.000000;fill:#ffffff;stroke:none;"/>
<circle id="circle10" r="0.187500" cx="2.204527" cy="-1.489741" style="stroke-width:0.000000;fill:#ff0000;stroke:none;"/>
<ellipse id="ellipse11" rx="0.300000" ry="0.150000" cx="-1000.000000" cy="-1000.000000" style="stroke-width:0.000000;fill:#44ccee;stroke:none;" transform="rotate(0.000000, -1000.000000, -1000.000000)"/>
<ellipse id="ellipse12" rx="0.300000" ry="0.150000" cx="-1000.000000" cy="-1000.000000" style="stroke-width:0.000000;fill:#44ccee;stroke:none;" transform="rotate(0.000000, -1000.000000, -1000.000000)"/>
<ellipse id="ellipse13" rx="0.300000" ry="0.150000" cx="-1000.000000" cy="-1000.000000" style="stroke-width:0.000000;fill:#44ccee;stroke:none;" transform="rotate(0.000000, -1000.000000, -1000.000000)"/>
<ellipse id="ellipse14" rx="0.300000" ry="0.150000" cx="-1000.000000" cy="-1000.000000" style="stroke-width:0.000000;fill:#44ccee;stroke:none;" transform="rotate(0.000000, -1000.000000, -1000.000000)"/>
<ellipse id="ellipse15" rx="0.300000" ry="0.150000" cx="-1000.000000" cy="-1000.000000" style="stroke-width:0.000000;fill:#44ccee;stroke:none;" transform="rotate(0.000000, -1000.000000, -1000.000000)"/>
<ellipse id="ellipse16" rx="0.300000" ry="0.150000" cx="-1000.000000" cy="-1000.000000" style="stroke-width:0.000000;fill:#44ccee;stroke:none;" transform="rotate(0.000000, -1000.000000, -1000.000000)"/>
<ellipse id="ellipse17" rx="0.300000" ry="0.150000" cx="-1000.000000" cy="-1000.000000" style="stroke-width:0.000000;fill:#44ccee;stroke:none;" transform="rotate(0.000000, -1000.000000, -1000.000000)"/>
<ellipse id="ellipse18" rx="0.300000" ry="0.150000" cx="-1000.000000" cy="-1000.000000" style="stroke-width:0.000000;fill:#44ccee;stroke:none;" transform="rotate(0.000000, -1000.000000, -1000.000000)"/>
<ellipse id="ellipse19" rx="0.300000" ry="0.150000" cx="-1000.000000" cy="-1000.000000" style="stroke-width:0.000000;fill:#44ccee;stroke:none;" transform="rotate(0.000000, -1000.000000, -1000.000000)"/>
<ellipse id="ellipse20" rx="0.300000" ry="0.150000" cx="-1000.000000" cy="-1000.000000" style="stroke-width:0.000000;fill:#44ccee;stroke:none;" transform="rotate(0.000000, -1000.000000, -1000.000000)"/>
<ellipse id="ellipse21" rx="0.300000" ry="0.150000" cx="-1000.000000" cy="-1000.000000" style="stroke-width:0.000000;fill:#44ccee;stroke:none;" transform="rotate(0.000000, -1000.000000, -1000.000000)"/>
<ellipse id="ellipse22" rx="0.300000" ry="0.150000" cx="-1000.000000" cy="-1000.000000" style="stroke-width:0.000000;fill:#44ccee;stroke:none;" transform="rotate(0.000000, -1000.000000, -1000.000000)"/>
<ellipse id="ellipse23" rx="0.300000" ry="0.150000" cx="-1000.000000" cy="-1000.000000" style="stroke-width:0.000000;fill:#44ccee;stroke:none;" transform="rotate(0.000000, -1000.000000, -1000.000000)"/>
<ellipse id="ellipse24" rx="0.300000" ry="0.150000" cx="-1000.000000" cy="-1000.000000" style="stroke-width:0.000000;fill:#44ccee;stroke:none;" transform="rotate(0.000000, -1000.000000, -1000.000000)"/>
<ellipse id="ellipse25" rx="0.300000" ry="0.150000" cx="-1000.000000" cy="-1000.000000" style="stroke-width:0.000000;fill:#44ccee;stroke:none;" transform="rotate(0.000000, -1000.000000, -1000.000000)"/>
<ellipse id="ellipse26" rx="0.300000" ry="0.150000" cx="-1000.000000" cy="-1000.000000" style="stroke-width:0.000000;fill:#44ccee;stroke:none;" transform="rotate(0.000000, -1000.000000, -1000.000000)"/>
<ellipse id="ellipse27" rx="0.300000" ry="0.150000" cx="-1000.000000" cy="-1000.000000" style="stroke-width:0.000000;fill:#44ccee;stroke:none;" transform="rotate(0.000000, -1000.000000, -1000.000000)"/>
<ellipse id="ellipse28" rx="0.300000" ry="0.150000" cx="-1000.000000" cy="-1000.000000" style="stroke-width:0.000000;fill:#44ccee;stroke:none;" transform="rotate(0.000000, -1000.000000, -1000.000000)"/>
<ellipse id="ellipse29" rx="0.300000" ry="0.150000" cx="-1000.000000" cy="-1000.000000" style="stroke-width:0.000000;fill:#44ccee;stroke:none;" transform="rotate(0.000000, -1000.000000, -1000.000000)"/>
<ellipse id="ellipse30" rx="0.300000" ry="0.150000" cx="-1000.000000" cy="-1000.000000" style="stroke-width:0.000000;fill:#44ccee;stroke:none;" transform="rotate(0.000000, -1000.000000, -1000.000000)"/>
<ellipse id="ellipse31" rx="0.300000" ry="0.150000" cx="-1000.000000" cy="-1000.000000" style="stroke-width:0.000000;fill:#44ccee;stroke:none;" transform="rotate(0.000000, -1000.000000, -1000.000000)"/>
<ellipse id="ellipse32" rx="0.300000" ry="0.150000" cx="-1000.000000" cy="-1000.000000" style="stroke-width:0.000000;fill:#44ccee;stroke:none;" transform="rotate(0.000000, -1000.000000, -1000.000000)"/>
<ellipse id="ellipse33" rx="0.300000" ry="0.150000" cx="-1000.000000" cy="-1000.000000" style="stroke-width:0.000000;fill:#44ccee;stroke:none;" transform="rotate(0.000000, -1000.000000, -1000.000000)"/>
<ellipse id="ellipse34" rx="0.300000" ry="0.150000" cx="-1000.000000" cy="-1000.000000" style="stroke-width:0.000000;fill:#44ccee;stroke:none;" transform="rotate(0.000000, -1000.000000, -1000.000000)"/>
<ellipse id="ellipse35" rx="0.300000" ry="0.150000" cx="-1000.000000" cy="-1000.000000" style="stroke-width:0.000000;fill:#44ccee;stroke:none;" transform="rotate(0.000000, -1000.000000, -1000.000000)"/>
<ellipse id="ellipse36" rx="0.300000" ry="0.150000" cx="-1000.000000" cy="-1000.000000" style="stroke-width:0.000000;fill:#44ccee;stroke:none;" transform="rotate(0.000000, -1000.000000, -1000.000000)"/>
<ellipse id="ellipse37" rx="0.300000" ry="0.150000" cx="-1000.000000" cy="-1000.000000" style="stroke-width:0.000000;fill:#44ccee;stroke:none;" transform="rotate(0.000000, -1000.000000, -1000.000000)"/>
<ellipse id="ellipse38" rx="0.300000" ry="0.150000" cx="-1000.000000" cy="-1000.000000" style="stroke-width:0.000000;fill:#44ccee;stroke:none;" transform="rotate(0.000000, -1000.000000, -1000.000000)"/>
<ellipse id="ellipse39" rx="0.300000" ry="0.150000" cx="-1000.000000" cy="-1000.000000" style="stroke-width:0.000000;fill:#44ccee;stroke:none;" transform="rotate(0.000000, -1000.000000, -1000.000000)"/>
<ellipse id="ellipse40" rx="0.300000" ry="0.150000" cx="-1000.000000" cy="-1000.000000" style="stroke-width:0.000000;fill:#44ccee;stroke:none;" transform="rotate(0.000000, -1000.000000, -1000.000000)"/>
<ellipse id="ellipse41" rx="0.300000" ry="0.150000" cx="-1000.000000" cy="-1000.000000" style="stroke-width:0.000000;fill:#44ccee;stroke:none;" transform="rotate(0.000000, -1000.000000, -1000.000000)"/>
<ellipse id="ellipse42" rx="0.300000" ry="0.150000" cx="-1000.000000" cy="-1000.000000" style="stroke-width:0.000000;fill:#44ccee;stroke:none;" transform="rotate(0.000000, -1000.000000, -1000.000000)"/>
<ellipse id="ellipse43" rx="0.300000" ry="0.150000" cx="-1000.000000" cy="-1000.000000" style="stroke-width:0.000000;fill:#44ccee;stroke:none;" transform="rotate(0.000000, -1000.000000, -1000.000000)"/>
<ellipse id="ellipse44" rx="0.300000" ry="0.150000" cx="-1000.000000" cy="-1000.000000" style="stroke-width:0.000000;fill:#44ccee;stroke:none;" transform="rotate(0.000000, -1000.000000, -1000.000000)"/>
<ellipse id="ellipse45" rx="0.300000" ry="0.150000" cx="-1000.000000" cy="-1000.000000" style="stroke-width:0.000000;fill:#44ccee;stroke:none;" transform="rotate(0.000000, -1000.000000, -1000.000000)"/>
<ellipse id="ellipse46" rx="0.300000" ry="0.150000" cx="-1000.000000" cy="-1000.000000" style="stroke-width:0.000000;fill:#44ccee;stroke:none;" transform="rotate(0.000000, -1000.000000, -1000.000000)"/>
<ellipse id="ellipse47" rx="0.300000" ry="0.150000" cx="-1000.000000" cy="-1000.000000" style="stroke-width:0.000000;fill:#44ccee;stroke:none;" transform="rotate(0.000000, -1000.000000, -1000.000000)"/>
<ellipse id="ellipse48" rx="0.300000" ry="0.150000" cx="-1000.000000" cy="-1000.000000" style="stroke-width:0.000000;fill:#44ccee;stroke:none;" transform="rotate(0.000000, -1000.000000, -1000.000000)"/>
<ellipse id="ellipse49" rx="0.300000" ry="0.150000" cx="-1000.000000" cy="-1000.000000" style="stroke-width:0.000000;fill:#44ccee;stroke:none;" transform="rotate(0.000000, -1000.000000, -1000.000000)"/>
<ellipse id="ellipse50" rx="0.300000" ry="0.150000" cx="-1000.000000" cy="-1000.000000" style="stroke-width:0.000000;fill:#44ccee;stroke:none;" transform="rotate(0.000000, -1000.000000, -1000.000000)"/>
<ellipse id="ellipse51" rx="0.300000" ry="0.150000" cx="-1000.000000" cy="-1000.000000" style="stroke-width:0.000000;fill:#44ccee;stroke:none;" transform="rotate(0.000000, -1000.000000, -1000.000000)"/>
<ellipse id="ellipse52" rx="0.300000" ry="0.150000" cx="-1000.000000" cy="-1000.000000" style="stroke-width:0.000000;fill:#44ccee;stroke:none;" transform="rotate(0.000000, -1000.000000, -1000.000000)"/>
<ellipse id="ellipse53" rx="0.300000" ry="0.150000" cx="-1000.000000" cy="-1000.000000" style="stroke-width:0.000000;fill:#44ccee;stroke:none;" transform="rotate(0.000000, -1000.000000, -1000.000000)"/>
<ellipse id="ellipse54" rx="0.300000" ry="0.150000" cx="-1000.000000" cy="-1000.000000" style="stroke-width:0.000000;fill:#44ccee;stroke:none;" transform="rotate(0.000000, -1000.000000, -1000.000000)"/>
<ellipse id="ellipse55" rx="0.300000" ry="0.150000" cx="-1000.000000" cy="-1000.000000" style="stroke-width:0.000000;fill:#44ccee;stroke:none;" transform="rotate(0.000000, -1000.000000, -1000.000000)"/>
<ellipse id="ellipse56" rx="0.300000" ry="0.150000" cx="-1000.000000" cy="-1000.000000" style="stroke-width:0.000000;fill:#44ccee;stroke:none;" transform="rotate(0.000000, -1000.000000, -1000.000000)"/>
<ellipse id="ellipse57" rx="0.300000" ry="0.150000" cx="-1000.000000" cy="-1000.000000" style="stroke-width:0.000000;fill:#44ccee;stroke:none;" transform="rotate(0.000000, -1000.000000, -1000.000000)"/>
<ellipse id="ellipse58" rx="0.300000" ry="0.150000" cx="-1000.000000" cy="-1000.000000" style="stroke-width:0.000000;fill:#44ccee;stroke:none;" transform="rotate(0.000000, -1000.000000, -1000.000000)"/>
<ellipse id="ellipse59" rx="0.300000" ry="0.150000" cx="-1000.000000" cy="-1000.000000" style="stroke-width:0.000000;fill:#44ccee;stroke:none;" transform="rotate(0.000000, -1000.000000, -1000.000000)"/>
<ellipse id="ellipse60" rx="0.300000" ry="0.150000" cx="-1000.000000" cy="-1000.000000" style="stroke-width:0.000000;fill:#44ccee;stroke:none;" transform="rotate(0.000000, -1000.000000, -1000.000000)"/>
<ellipse id="ellipse61" rx="0.300000" ry="0.150000" cx="-1000.000000" cy="-1000.000000" style="stroke-width:0.000000;fill:#44ccee;stroke:none;" transform="rotate(0.000000, -1000.000000, -1000.000000)"/>
<ellipse id="ellipse62" rx="0.300000" ry="0.150000" cx="-1000.000000" cy="-1000.000000" style="stroke-width:0.000000;fill:#44ccee;stroke:none;" transform="rotate(0.000000, -1000.000000, -1000.000000)"/>
<ellipse id="ellipse63" rx="0.300000" ry="0.150000" cx="-1000.000000" cy="-1000.000000" style="stroke-width:0.000000;fill:#44ccee;stroke:none;" transform="rotate(0.000000, -1000.000000, -1000.000000)"/>
<ellipse id="ellipse64" rx="0.300000" ry="0.150000" cx="-1000.000000" cy="-1000.000000" style="stroke-width:0.000000;fill:#44ccee;stroke:none;" transform="rotate(0.000000, -1000.000000, -1000.000000)"/>
<ellipse id="ellipse65" rx="0.300000" ry="0.150000" cx="-1000.000000" cy="-1000.000000" style="stroke-width:0.000000;fill:#44ccee;stroke:none;" transform="rotate(0.000000, -1000.000000, -1000.000000)"/>
<ellipse id="ellipse66" rx="0.300000" ry="0.150000" cx="-1000.000000" cy="-1000.000000" style="stroke-width:0.000000;fill:#44ccee;stroke:none;" transform="rotate(0.000000, -1000.000000, -1000.000000)"/>
<ellipse id="ellipse67" rx="0.300000" ry="0.150000" cx="-1000.000000" cy="-1000.000000" style="stroke-width:0.000000;fill:#44ccee;stroke:none;" transform="rotate(0.000000, -1000.000000, -1000.000000)"/>
<ellipse id="ellipse68" rx="0.300000" ry="0.150000" cx="-1000.000000" cy="-1000.000000" style="stroke-width:0.000000;fill:#44ccee;stroke:none;" transform="rotate(0.000000, -1000.000000, -1000.000000)"/>
<ellipse id="ellipse69" rx="0.300000" ry="0.150000" cx="-1000.000000" cy="-1000.000000" style="stroke-width:0.000000;fill:#44ccee;stroke:none;" transform="rotate(0.000000, -1000.000000, -1000.000000)"/>
<ellipse id="ellipse70" rx="0.300000" ry="0.150000" cx="-1000.000000" cy="-1000.000000" style="stroke-width:0.000000;fill:#44ccee;stroke:none;" transform="rotate(0.000000, -1000.000000, -1000.000000)"/>
<ellipse id="ellipse71" rx="0.300000" ry="0.150000" cx="-1000.000000" cy="-1000.000000" style="stroke-width:0.000000;fill:#44ccee;stroke:none;" transform="rotate(0.000000, -1000.000000, -1000.000000)"/>
<ellipse id="ellipse72" rx="0.300000" ry="0.150000" cx="-1000.000000" cy="-1000.000000" style="stroke-width:0.000000;fill:#44ccee;stroke:none;" transform="rotate(0.000000, -1000.000000, -1000.000000)"/>
<ellipse id="ellipse73" rx="0.300000" ry="0.150000" cx="-1000.000000" cy="-1000.000000" style="stroke-width:0.000000;fill:#44ccee;stroke:none;" transform="rotate(0.000000, -1000.000000, -1000.000000)"/>
<ellipse id="ellipse74" rx="0.300000" ry="0.150000" cx="-1000.000000" cy="-1000.000000" style="stroke-width:0.000000;fill:#44ccee;stroke:none;" transform="rotate(0.000000, -1000.000000, -1000.000000)"/>
<ellipse id="ellipse75" rx="0.300000" ry="0.150000" cx="-1000.000000" cy="-1000.000000" style="stroke-width:0.000000;fill:#44ccee;stroke:none;" transform="rotate(0.000000, -1000.000000, -1000.000000)"/>
<ellipse id="ellipse76" rx="0.300000" ry="0.150000" cx="-1000.000000" cy="-1000.000000" style="stroke-width:0.000000;fill:#44ccee;stroke:none;" transform="rotate(0.000000, -1000.000000, -1000.000000)"/>
<ellipse id="ellipse77" rx="0.300000" ry="0.150000" cx="-1000.000000" cy="-1000.000000" style="stroke-width:0.000000;fill:#44ccee;stroke:none;" transform="rotate(0.000000, -1000.000000, -1000.000000)"/>
<ellipse id="ellipse78" rx="0.300000" ry="0.150000" cx="-1000.000000" cy="-1000.000000" style="stroke-width:0.000000;fill:#44ccee;stroke:none;" transform="rotate(0.000000, -1000.000000, -1000.000000)"/>
<ellipse id="ellipse79" rx="0.300000" ry="0.150000" cx="-1000.000000" cy="-1000.000000" style="stroke-width:0.000000;fill:#44ccee;stroke:none;" transform="rotate(0.000000, -1000.000000, -1000.000000)"/>
<ellipse id="ellipse80" rx="0.300000" ry="0.150000" cx="-1000.000000" cy="-1000.000000" style="stroke-width:0.000000;fill:#44ccee;stroke:none;" transform="rotate(0.000000, -1000.000000, -1000.000000)"/>
<ellipse id="ellipse81" rx="0.300000" ry="0.150000" cx="-1000.000000" cy="-1000.000000" style="stroke-width:0.000000;fill:#44ccee;stroke:none;" transform="rotate(0.000000, -1000.000000, -1000.000000)"/>
<ellipse id="ellipse82" rx="0.300000" ry="0.150000" cx="-1000.000000" cy="-1000.000000" style="stroke-width:0.000000;fill:#44ccee;stroke:none;" transform="rotate(0.000000, -1000.000000, -1000.000000)"/>
<ellipse id="ellipse83" rx="0.300000" ry="0.150000" cx="-1000.000000" cy="-1000.000000" style="stroke-width:0.000000;fill:#44ccee;stroke:none;" transform="rotate(0.000000, -1000.000000, -1000.000000)"/>
<ellipse id="ellipse84" rx="0.300000" ry="0.150000" cx="-1000.000000" cy="-1000.000000" style="stroke-width:0.000000;fill:#44ccee;stroke:none;" transform="rotate(0.000000, -1000.000000, -1000.000000)"/>
<ellipse id="ellipse85" rx="0.300000" ry="0.150000" cx="-1000.000000" cy="-1000.000000" style="stroke-width:0.000000;fill:#44ccee;stroke:none;" transform="rotate(0.000000, -1000.000000, -1000.000000)"/>
<ellipse id="ellipse86" rx="0.300000" ry="0.150000" cx="-1000.000000" cy="-1000.000000" style="stroke-width:0.000000;fill:#44ccee;stroke:none;" transform="rotate(0.000000, -1000.000000, -1000.000000)"/>
<ellipse id="ellipse87" rx="0.300000" ry="0.150000" cx="-1000.000000" cy="-1000.000000" style="stroke-width:0.000000;fill:#44ccee;stroke:none;" transform="rotate(0.000000, -1000.000000, -1000.000000)"/>
<ellipse id="ellipse88" rx="0.300000" ry="0.150000" cx="-1000.000000" cy="-1000.000000" style="stroke-width:0.000000;fill:#44ccee;stroke:none;" transform="rotate(0.000000, -1000.000000, -1000.000000)"/>
<ellipse id="ellipse89" rx="0.300000" ry="0.150000" cx="-1000.000000" cy="-1000.000000" style="stroke-width:0.000000;fill:#44ccee;stroke:none;" transform="rotate(0.000000, -1000.000000, -1000.000000)"/>
<ellipse id="ellipse90" rx="0.300000" ry="0.150000" cx="-1000.000000" cy="-1000.000000" style="stroke-width:0.000000;fill:#44ccee;stroke:none;" transform="rotate(0.000000, -1000.000000, -1000.000000)"/>
<ellipse id="ellipse91" rx="0.300000" ry="0.150000" cx="-1000.000000" cy="-1000.000000" style="stroke-width:0.000000;fill:#44ccee;stroke:none;" transform="rotate(0.000000, -1000.000000, -1000.000000)"/>
<ellipse id="ellipse92" rx="0.300000" ry="0.150000" cx="-1000.000000" cy="-1000.000000" style="stroke-width:0.000000;fill:#44ccee;stroke:none;" transform="rotate(0.000000, -1000.000000, -1000.000000)"/>
<ellipse id="ellipse93" rx="0.300000" ry="0.150000" cx="-1000.000000" cy="-1000.000000" style="stroke-width:0.000000;fill:#44ccee;stroke:none;" transform="rotate(0.000000, -1000.000000, -1000.000000)"/>
<ellipse id="ellipse94" rx="0.300000" ry="0.150000" cx="-1000.000000" cy="-1000.000000" style="stroke-width:0.000000;fill:#44ccee;stroke:none;" transform="rotate(0.000000, -1000.000000, -1000.000000)"/>
<ellipse id="ellipse95" rx="0.300000" ry="0.150000" cx="-1000.000000" cy="-1000.000000" style="stroke-width:0.000000;fill:#44ccee;stroke:none;" transform="rotate(0.000000, -1000.000000, -1000.000000)"/>
<ellipse id="ellipse96" rx="0.300000" ry="0.150000" cx="-1000.000000" cy="-1000.000000" style="stroke-width:0.000000;fill:#44ccee;stroke:none;" transform="rotate(0.000000, -1000.000000, -1000.000000)"/>
<ellipse id="ellipse97" rx="0.300000" ry="0.150000" cx="-1000.000000" cy="-1000.000000" style="stroke-width:0.000000;fill:#44ccee;stroke:none;" transform="rotate(0.000000, -1000.000000, -1000.000000)"/>
<ellipse id="ellipse98" rx="0.300000" ry="0.150000" cx="-1000.000000" cy="-1000.000000" style="stroke-width:0.000000;fill:#44ccee;stroke:none;" transform="rotate(0.000000, -1000.000000, -1000.000000)"/>
<ellipse id="ellipse99" rx="0.300000" ry="0.150000" cx="-1000.000000" cy="-1000.000000" style="stroke-width:0.000000;fill:#44ccee;stroke:none;" transform="rotate(0.000000, -1000.000000, -1000.000000)"/>
<ellipse id="ellipse100" rx="0.300000" ry="0.150000" cx="-1000.000000" cy="-1000.000000" style="stroke-width:0.000000;fill:#44ccee;stroke:none;" transform="rotate(0.000000, -1000.000000, -1000.000000)"/>
<ellipse id="ellipse101" rx="0.300000" ry="0.150000" cx="-1000.000000" cy="-1000.000000" style="stroke-width:0.000000;fill:#44ccee;stroke:none;" transform="rotate(0.000000, -1000.000000, -1000.000000)"/>
<ellipse id="ellipse102" rx="0.300000" ry="0.150000" cx="-1000.000000" cy="-1000.000000" style="stroke-width:0.000000;fill:#44ccee;stroke:none;" transform="rotate(0.000000, -1000.000000, -1000.000000)"/>
<ellipse id="ellipse103" rx="0.300000" ry="0.150000" cx="-1000.000000" cy="-1000.000000" style="stroke-width:0.000000;fill:#44ccee;stroke:none;" transform="rotate(0.000000, -1000.000000, -1000.000000)"/>
<ellipse id="ellipse104" rx="0.300000" ry="0.150000" cx="-1000.000000" cy="-1000.000000" style="stroke-width:0.000000;fill:#44ccee;stroke:none;" transform="rotate(0.000000, -1000.000000, -1000.000000)"/>
<ellipse id="ellipse105" rx="0.300000" ry="0.150000" cx="-1000.000000" cy="-1000.000000" style="stroke-width:0.000000;fill:#44ccee;stroke:none;" transform="rotate(0.000000, -1000.000000, -1000.000000)"/>
<ellipse id="ellipse106" rx="0.300000" ry="0.150000" cx="-1000.000000" cy="-1000.000000" style="stroke-width:0.000000;fill:#44ccee;stroke:none;" transform="rotate(0.000000, -1000.000000, -1000.000000)"/>
<ellipse id="ellipse107" rx="0.300000" ry="0.150000" cx="-1000.000000" cy="-1000.000000" style="stroke-width:0.000000;fill:#44ccee;stroke:none;" transform="rotate(0.000000, -1000.000000, -1000.000000)"/>
<ellipse id="ellipse108" rx="0.300000" ry="0.150000" cx="-1000.000000" cy="-1000.000000" style="stroke-width:0.000000;fill:#44ccee;stroke:none;" transform="rotate(0.000000, -1000.000000, -1000.000000)"/>
<ellipse id="ellipse109" rx="0.300000" ry="0.150000" cx="-1000.000000" cy="-1000.000000" style="stroke-width:0.000000;fill:#44ccee;stroke:none;" transform="rotate(0.000000, -1000.000000, -1000.000000)"/>
<ellipse id="ellipse110" rx="0.300000" ry="0.150000" cx="-1000.000000" cy="-1000.000000" style="stroke-width:0.000000;fill:#44ccee;stroke:none;" transform="rotate(0.000000, -1000.000000, -1000.000000)"/>
<ellipse id="ellipse111" rx="0.300000" ry="0.150000" cx="-1000.000000" cy="-1000.000000" style="stroke-width:0.000000;fill:#44ccee;stroke:none;" transform="rotate(0.000000, -1000.000000, -1000.000000)"/>
<ellipse id="ellipse112" rx="0.300000" ry="0.150000" cx="-1000.000000" cy="-1000.000000" style="stroke-width:0.000000;fill:#44ccee;stroke:none;" transform="rotate(0.000000, -1000.000000, -1000.000000)"/>
<ellipse id="ellipse113" rx="0.300000" ry="0.150000" cx="-1000.000000" cy="-1000.000000" style="stroke-width:0.000000;fill:#44ccee;stroke:none;" transform="rotate(0.000000, -1000.000000, -1000.000000)"/>
<ellipse id="ellipse114" rx="0.300000" ry="0.150000" cx="-1000.000000" cy="-1000.000000" style="stroke-width:0.000000;fill:#44ccee;stroke:none;" transform="rotate(0.000000, -1000.000000, -1000.000000)"/>
<ellipse id="ellipse115" rx="0.300000" ry="0.150000" cx="-1000.000000" cy="-1000.000000" style="stroke-width:0.000000;fill:#44ccee;stroke:none;" transform="rotate(0.000000, -1000.000000, -1000.000000)"/>
<ellipse id="ellipse116" rx="0.300000" ry="0.150000" cx="-1000.000000" cy="-1000.000000" style="stroke-width:0.000000;fill:#44ccee;stroke:none;" transform="rotate(0.000000, -1000.000000, -1000.000000)"/>
<ellipse id="ellipse117" rx="0.300000" ry="0.150000" cx="-1000.000000" cy="-1000.000000" style="stroke-width:0.000000;fill:#44ccee;stroke:none;" transform="rotate(0.000000, -1000.000000, -1000.000000)"/>
<ellipse id="ellipse118" rx="0.300000" ry="0.150000" cx="-1000.000000" cy="-1000.000000" style="stroke-width:0.000000;fill:#44ccee;stroke:none;" transform="rotate(0.000000, -1000.000000, -1000.000000)"/>
<ellipse id="ellipse119" rx="0.300000" ry="0.150000" cx="-1000.000000" cy="-1000.000000" style="stroke-width:0.000000;fill:#44ccee;stroke:none;" transform="rotate(0.000000, -1000.000000, -1000.000000)"/>
<ellipse id="ellipse120" rx="0.300000" ry="0.150000" cx="-1000.000000" cy="-1000.000000" style="stroke-width:0.000000;fill:#44ccee;stroke:none;" transform="rotate(0.000000, -1000.000000, -1000.000000)"/>
<ellipse id="ellipse121" rx="0.300000" ry="0.150000" cx="-1000.000000" cy="-1000.000000" style="stroke-width:0.000000;fill:#44ccee;stroke:none;" transform="rotate(0.000000, -1000.000000, -1000.000000)"/>
<ellipse id="ellipse122" rx="0.300000" ry="0.150000" cx="-1000.000000" cy="-1000.000000" style="stroke-width:0.000000;fill:#44ccee;stroke:none;" transform="rotate(0.000000, -1000.000000, -1000.000000)"/>
<ellipse id="ellipse123" rx="0.300000" ry="0.150000" cx="-1000.000000" cy="-1000.000000" style="stroke-width:0.000000;fill:#44ccee;stroke:none;" transform="rotate(0.000000, -1000.000000, -1000.000000)"/>
<ellipse id="ellipse124" rx="0.300000" ry="0.150000" cx="-1000.000000" cy="-1000.000000" style="stroke-width:0.000000;fill:#44ccee;stroke:none;" transform="rotate(0.000000, -1000.000000, -1000.000000)"/>
<ellipse id="ellipse125" rx="0.300000" ry="0.150000" cx="-1000.000000" cy="-1000.000000" style="stroke-width:0.000000;fill:#44ccee;stroke:none;" transform="rotate(0.000000, -1000.000000, -1000.000000)"/>
<ellipse id="ellipse126" rx="0.300000" ry="0.150000" cx="-1000.000000" cy="-1000.000000" style="stroke-width:0.000000;fill:#44ccee;stroke:none;" transform="rotate(0.000000, -1000.000000, -1000.000000)"/>
<ellipse id="ellipse127" rx="0.300000" ry="0.150000" cx="-1000.000000" cy="-1000.000000" style="stroke-width:0.000000;fill:#44ccee;stroke:none;" transform="rotate(0.000000, -1000.000000, -1000.000000)"/>
<ellipse id="ellipse128" rx="0.300000" ry="0.150000" cx="-1000.000000" cy="-1000.000000" style="stroke-width:0.000000;fill:#44ccee;stroke:none;" transform="rotate(0.000000, -1000.000000, -1000.000000)"/>
<ellipse id="ellipse129" rx="0.300000" ry="0.150000" cx="-1000.000000" cy="-1000.000000" style="stroke-width:0.000000;fill:#44ccee;stroke:none;" transform="rotate(0.000000, -1000.000000, -1000.000000)"/>
<ellipse id="ellipse130" rx="0.300000" ry="0.150000" cx="-1000.000000" cy="-1000.000000" style="stroke-width:0.000000;fill:#44ccee;stroke:none;" transform="rotate(0.000000, -1000.000000, -1000.000000)"/>
<ellipse id="ellipse131" rx="0.300000" ry="0.150000" cx="-1000.000000" cy="-1000.000000" style="stroke-width:0.000000;fill:#44ccee;stroke:none;" transform="rotate(0.000000, -1000.000000, -1000.000000)"/>
<ellipse id="ellipse132" rx="0.300000" ry="0.150000" cx="-1000.000000" cy="-1000.000000" style="stroke-width:0.000000;fill:#44ccee;stroke:none;" transform="rotate(0.000000, -1000.000000, -1000.000000)"/>
<ellipse id="ellipse133" rx="0.300000" ry="0.150000" cx="-1000.000000" cy="-1000.000000" style="stroke-width:0.000000;fill:#44ccee;stroke:none;" transform="rotate(0.000000, -1000.000000, -1000.000000)"/>
<ellipse id="ellipse134" rx="0.300000" ry="0.150000" cx="-1000.000000" cy="-1000.000000" style="stroke-width:0.000000;fill:#44ccee;stroke:none;" transform="rotate(0.000000, -1000.000000, -1000.000000)"/>
<ellipse id="ellipse135" rx="0.300000" ry="0.150000" cx="-1000.000000" cy="-1000.000000" style="stroke-width:0.000000;fill:#44ccee;stroke:none;" transform="rotate(0.000000, -1000.000000, -1000.000000)"/>
<ellipse id="ellipse136" rx="0.300000" ry="0.150000" cx="-1000.000000" cy="-1000.000000" style="stroke-width:0.000000;fill:#44ccee;stroke:none;" transform="rotate(0.000000, -1000.000000, -1000.000000)"/>
<ellipse id="ellipse137" rx="0.300000" ry="0.150000" cx="-1000.000000" cy="-1000.000000" style="stroke-width:0.000000;fill:#44ccee;stroke:none;" transform="rotate(0.000000, -1000.000000, -1000.000000)"/>
<ellipse id="ellipse138" rx="0.300000" ry="0.150000" cx="-1000.000000" cy="-1000.000000" style="stroke-width:0.000000;fill:#44ccee;stroke:none;" transform="rotate(0.000000, -1000.000000, -1000.000000)"/>
<ellipse id="ellipse139" rx="0.300000" ry="0.150000" cx="-1000.000000" cy="-1000.000000" style="stroke-width:0.000000;fill:#44ccee;stroke:none;" transform="rotate(0.000000, -1000.000000, -1000.000000)"/>
<ellipse id="ellipse140" rx="0.300000" ry="0.150000" cx="-1000.000000" cy="-1000.000000" style="stroke-width:0.000000;fill:#44ccee;stroke:none;" transform="rotate(0.000000, -1000.000000, -1000.000000)"/>
<ellipse id="ellipse141" rx="0.300000" ry="0.150000" cx="-1000.000000" cy="-1000.000000" style="stroke-width:0.000000;fill:#44ccee;stroke:none;" transform="rotate(0.000000, -1000.000000, -1000.000000)"/>
<ellipse id="ellipse142" rx="0.300000" ry="0.150000" cx="-1000.000000" cy="-1000.000000" style="stroke-width:0.000000;fill:#44ccee;stroke:none;" transform="rotate(0.000000, -1000.000000, -1000.000000)"/>
<ellipse id="ellipse143" rx="0.300000" ry="0.150000" cx="-1000.000000" cy="-1000.000000" style="stroke-width:0.000000;fill:#44ccee;stroke:none;" transform="rotate(0.000000, -1000.000000, -1000.000000)"/>
<ellipse id="ellipse144" rx="0.300000" ry="0.150000" cx="-1000.000000" cy="-1000.000000" style="stroke-width:0.000000;fill:#44ccee;stroke:none;" transform="rotate(0.000000, -1000.000000, -1000.000000)"/>
<ellipse id="ellipse145" rx="0.300000" ry="0.150000" cx="-1000.000000" cy="-1000.000000" style="stroke-width:0.000000;fill:#44ccee;stroke:none;" transform="rotate(0.000000, -1000.000000, -1000.000000)"/>
<ellipse id="ellipse146" rx="0.300000" ry="0.150000" cx="-1000.000000" cy="-1000.000000" style="stroke-width:0.000000;fill:#44ccee;stroke:none;" transform="rotate(0.000000, -1000.000000, -1000.000000)"/>
<ellipse id="ellipse147" rx="0.300000" ry="0.150000" cx="-1000.000000" cy="-1000.000000" style="stroke-width:0.000000;fill:#44ccee;stroke:none;" transform="rotate(0.000000, -1000.000000, -1000.000000)"/>
<ellipse id="ellipse148" rx="0.300000" ry="0.150000" cx="-1000.000000" cy="-1000.000000" style="stroke-width:0.000000;fill:#44ccee;stroke:none;" transform="rotate(0.000000, -1000.000000, -1000.000000)"/>
<ellipse id="ellipse149" rx="0.300000" ry="0.150000" cx="-1000.000000" cy="-1000.000000" style="stroke-width:0.000000;fill:#44ccee;stroke:none;" transform="rotate(0.000000, -1000.000000, -1000.000000)"/>
<ellipse id="ellipse150" rx="0.300000" ry="0.150000" cx="-1000.000000" cy="-1000.000000" style="stroke-width:0.000000;fill:#44ccee;stroke:none;" transform="rotate(0.000000, -1000.000000, -1000.000000)"/>
<ellipse id="ellipse151" rx="0.300000" ry="0.150000" cx="-1000.000000" cy="-1000.000000" style="stroke-width:0.000000;fill:#44ccee;stroke:none;" transform="rotate(0.000000, -1000.000000, -1000.000000)"/>
<ellipse id="ellipse152" rx="0.300000" ry="0.150000" cx="-1000.000000" cy="-1000.000000" style="stroke-width:0.000000;fill:#44ccee;stroke:none;" transform="rotate(0.000000, -1000.000000, -1000.000000)"/>
<ellipse id="ellipse153" rx="0.300000" ry="0.150000" cx="-1000.000000" cy="-1000.000000" style="stroke-width:0.000000;fill:#44ccee;stroke:none;" transform="rotate(0.000000, -1000.000000, -1000.000000)"/>
<ellipse id="ellipse154" rx="0.300000" ry="0.150000" cx="-1000.000000" cy="-1000.000000" style="stroke-width:0.000000;fill:#44ccee;stroke:none;" transform="rotate(0.000000, -1000.000000, -1000.000000)"/>
<ellipse id="ellipse155" rx="0.300000" ry="0.150000" cx="-1000.000000" cy="-1000.000000" style="stroke-width:0.000000;fill:#44ccee;stroke:none;" transform="rotate(0.000000, -1000.000000, -1000.000000)"/>
<ellipse id="ellipse156" rx="0.300000" ry="0.150000" cx="-1000.000000" cy="-1000.000000" style="stroke-width:0.000000;fill:#44ccee;stroke:none;" transform="rotate(0.000000, -1000.000000, -1000.000000)"/>
<ellipse id="ellipse157" rx="0.300000" ry="0.150000" cx="-1000.000000" cy="-1000.000000" style="stroke-width:0.000000;fill:#44ccee;stroke:none;" transform="rotate(0.000000, -1000.000000, -1000.000000)"/>
<ellipse id="ellipse158" rx="0.300000" ry="0.150000" cx="-1000.000000" cy="-1000.000000" style="stroke-width:0.000000;fill:#44ccee;stroke:none;" transform="rotate(0.000000, -1000.000000, -1000.000000)"/>
<ellipse id="ellipse159" rx="0.300000" ry="0.150000" cx="-1000.000000" cy="-1000.000000" style="stroke-width:0.000000;fill:#44ccee;stroke:none;" transform="rotate(0.000000, -1000.000000, -1000.000000)"/>
<ellipse id="ellipse160" rx="0.300000" ry="0.150000" cx="-1000.000000" cy="-1000.000000" style="stroke-width:0.000000;fill:#44ccee;stroke:none;" transform="rotate(0.000000, -1000.000000, -1000.000000)"/>
<ellipse id="ellipse161" rx="0.300000" ry="0.150000" cx="-1000.000000" cy="-1000.000000" style="stroke-width:0.000000;fill:#44ccee;stroke:none;" transform="rotate(0.000000, -1000.000000, -1000.000000)"/>
<ellipse id="ellipse162" rx="0.300000" ry="0.150000" cx="-1000.000000" cy="-1000.000000" style="stroke-width:0.000000;fill:#44ccee;stroke:none;" transform="rotate(0.000000, -1000.000000, -1000.000000)"/>
<ellipse id="ellipse163" rx="0.300000" ry="0.150000" cx="-1000.000000" cy="-1000.000000" style="stroke-width:0.000000;fill:#44ccee;stroke:none;" transform="rotate(0.000000, -1000.000000, -1000.000000)"/>
<ellipse id="ellipse164" rx="0.300000" ry="0.150000" cx="-1000.000000" cy="-1000.000000" style="stroke-width:0.000000;fill:#44ccee;stroke:none;" transform="rotate(0.000000, -1000.000000, -1000.000000)"/>
<ellipse id="ellipse165" rx="0.300000" ry="0.150000" cx="-1000.000000" cy="-1000.000000" style="stroke-width:0.000000;fill:#44ccee;stroke:none;" transform="rotate(0.000000, -1000.000000, -1000.000000)"/>
<ellipse id="ellipse166" rx="0.300000" ry="0.150000" cx="-1000.000000" cy="-1000.000000" style="stroke-width:0.000000;fill:#44ccee;stroke:none;" transform="rotate(0.000000, -1000.000000, -1000.000000)"/>
<ellipse id="ellipse167" rx="0.300000" ry="0.150000" cx="-1000.000000" cy="-1000.000000" style="stroke-width:0.000000;fill:#44ccee;stroke:none;" transform="rotate(0.000000, -1000.000000, -1000.000000)"/>
<ellipse id="ellipse168" rx="0.300000" ry="0.150000" cx="-1000.000000" cy="-1000.000000" style="stroke-width:0.000000;fill:#44ccee;stroke:none;" transform="rotate(0.000000, -1000.000000, -1000.000000)"/>
<ellipse id="ellipse169" rx="0.300000" ry="0.150000" cx="-1000.000000" cy="-1000.000000" style="stroke-width:0.000000;fill:#44ccee;stroke:none;" transform="rotate(0.000000, -1000.000000, -1000.000000)"/>
<ellipse id="ellipse170" rx="0.300000" ry="0.150000" cx="-1000.000000" cy="-1000.000000" style="stroke-width:0.000000;fill:#44ccee;stroke:none;" transform="rotate(0.000000, -1000.000000, -1000.000000)"/>
<ellipse id="ellipse171" rx="0.300000" ry="0.150000" cx="-1000.000000" cy="-1000.000000" style="stroke-width:0.000000;fill:#44ccee;stroke:none;" transform="rotate(0.000000, -1000.000000, -1000.000000)"/>
<ellipse id="ellipse172" rx="0.300000" ry="0.150000" cx="-1000.000000" cy="-1000.000000" style="stroke-width:0.000000;fill:#44ccee;stroke:none;" transform="rotate(0.000000, -1000.000000, -1000.000000)"/>
<ellipse id="ellipse173" rx="0.300000" ry="0.150000" cx="-1000.000000" cy="-1000.000000" style="stroke-width:0.000000;fill:#44ccee;stroke:none;" transform="rotate(0.000000, -1000.000000, -1000.000000)"/>
<ellipse id="ellipse174" rx="0.300000" ry="0.150000" cx="-1000.000000" cy="-1000.000000" style="stroke-width:0.000000;fill:#44ccee;stroke:none;" transform="rotate(0.000000, -1000.000000, -1000.000000)"/>
<ellipse id="ellipse175" rx="0.300000" ry="0.150000" cx="-1000.000000" cy="-1000.000000" style="stroke-width:0.000000;fill:#44ccee;stroke:none;" transform="rotate(0.000000, -1000.000000, -1000.000000)"/>
<ellipse id="ellipse176" rx="0.300000" ry="0.150000" cx="-1000.000000" cy="-1000.000000" style="stroke-width:0.000000;fill:#44ccee;stroke:none;" transform="rotate(0.000000, -1000.000000, -1000.000000)"/>
<ellipse id="ellipse177" rx="0.300000" ry="0.150000" cx="-1000.000000" cy="-1000.000000" style="stroke-width:0.000000;fill:#44ccee;stroke:none;" transform="rotate(0.000000, -1000.000000, -1000.000000)"/>
<ellipse id="ellipse178" rx="0.300000" ry="0.150000" cx="-0.755848" cy="-1.447687" style="stroke-width:0.000000;fill:#44ccee;stroke:none;" transform="rotate(0.000000, -0.755848, -1.447687)"/>
<ellipse id="ellipse179" rx="0.300000" ry="0.150000" cx="-1000.000000" cy="-1000.000000" style="stroke-width:0.000000;fill:#44ccee;stroke:none;" transform="rotate(0.000000, -1000.000000, -1000.000000)"/>
<ellipse id="ellipse180" rx="0.300000" ry="0.150000" cx="-1000.000000" cy="-1000.000000" style="stroke-width:0.000000;fill:#44ccee;stroke:none;" transform="rotate(0.000000, -1000.000000, -1000.000000)"/>
<ellipse id="ellipse181" rx="0.300000" ry="0.150000" cx="-1000.000000" cy="-1000.000000" style="stroke-width:0.000000;fill:#44ccee;stroke:none;" transform="rotate(0.000000, -1000.000000, -1000.000000)"/>
<ellipse id="ellipse182" rx="0.300000" ry="0.150000" cx="-1000.000000" cy="-1000.000000" style="stroke-width:0.000000;fill:#44ccee;stroke:none;" transform="rotate(0.000000, -1000.000000, -1000.000000)"/>
<ellipse id="ellipse183" rx="0.300000" ry="0.150000" cx="-1000.000000" cy="-1000.000000" style="stroke-width:0.000000;fill:#44ccee;stroke:none;" transform="rotate(0.000000, -1000.000000, -1000.000000)"/>
<ellipse id="ellipse184" rx="0.300000" ry="0.150000" cx="-1000.000000" cy="-1000.000000" style="stroke-width:0.000000;fill:#44ccee;stroke:none;" transform="rotate(0.000000, -1000.000000, -1000.000000)"/>
<ellipse id="ellipse185" rx="0.300000" ry="0.150000" cx="-1000.000000" cy="-1000.000000" style="stroke-width:0.000000;fill:#44ccee;stroke:none;" transform="rotate(0.000000, -1000.000000, -1000.000000)"/>
<ellipse id="ellipse186" rx="0.300000" ry="0.150000" cx="-1000.000000" cy="-1000.000000" style="stroke-width:0.000000;fill:#44ccee;stroke:none;" transform="rotate(0.000000, -1000.000000, -1000.000000)"/>
<ellipse id="ellipse187" rx="0.300000" ry="0.150000" cx="-1000.000000" cy="-1000.000000" style="stroke-width:0.000000;fill:#44ccee;stroke:none;" transform="rotate(0.000000, -1000.000000, -1000.000000)"/>
<ellipse id="ellipse188" rx="0.300000" ry="0.150000" cx="-1000.000000" cy="-1000.000000" style="stroke-width:0.000000;fill:#44ccee;stroke:none;" transform="rotate(0.000000, -1000.000000, -1000.000000)"/>
<ellipse id="ellipse189" rx="0.300000" ry="0.150000" cx="-1000.000000" cy="-1000.000000" style="stroke-width:0.000000;fill:#44ccee;stroke:none;" transform="rotate(0.000000, -1000.000000, -1000.000000)"/>
<ellipse id="ellipse190" rx="0.300000" ry="0.150000" cx="-1000.000000" cy="-1000.000000" style="stroke-width:0.000000;fill:#44ccee;stroke:none;" transform="rotate(0.000000, -1000.000000, -1000.000000)"/>
<ellipse id="ellipse191" rx="0.300000" ry="0.150000" cx="-1000.000000" cy="-1000.000000" style="stroke-width:0.000000;fill:#44ccee;stroke:none;" transform="rotate(0.000000, -1000.000000, -1000.000000)"/>
<ellipse id="ellipse192" rx="0.300000" ry="0.150000" cx="-1000.000000" cy="-1000.000000" style="stroke-width:0.000000;fill:#44ccee;stroke:none;" transform="rotate(0.000000, -1000.000000, -1000.000000)"/>
<ellipse id="ellipse193" rx="0.300000" ry="0.150000" cx="-1000.000000" cy="-1000.000000" style="stroke-width:0.000000;fill:#44ccee;stroke:none;" transform="rotate(0.000000, -1000.000000, -1000.000000)"/>
<ellipse id="ellipse194" rx="0.300000" ry="0.150000" cx="-1000.000000" cy="-1000.000000" style="stroke-width:0.000000;fill:#44ccee;stroke:none;" transform="rotate(0.000000, -1000.000000, -1000.000000)"/>
<ellipse id="ellipse195" rx="0.300000" ry="0.150000" cx="-1000.000000" cy="-1000.000000" style="stroke-width:0.000000;fill:#44ccee;stroke:none;" transform="rotate(0.000000, -1000.000000, -1000.000000)"/>
<ellipse id="ellipse196" rx="0.300000" ry="0.150000" cx="-1000.000000" cy="-1000.000000" style="stroke-width:0.000000;fill:#44ccee;stroke:none;" transform="rotate(0.000000, -1000.000000, -1000.000000)"/>
<ellipse id="ellipse197" rx="0.300000" ry="0.150000" cx="-1000.000000" cy="-1000.000000" style="stroke-width:0.000000;fill:#44ccee;stroke:none;" transform="rotate(0.000000, -1000.000000, -1000.000000)"/>
<ellipse id="ellipse198" rx="0.300000" ry="0.150000" cx="-1000.000000" cy="-1000.000000" style="stroke-width:0.000000;fill:#44ccee;stroke:none;" transform="rotate(0.000000, -1000.000000, -1000.000000)"/>
<ellipse id="ellipse199" rx="0.300000" ry="0.150000" cx="-1000.000000" cy="-1000.000000" style="stroke-width:0.000000;fill:#44ccee;stroke:none;" transform="rotate(0.000000, -1000.000000, -1000.000000)"/>
<ellipse id="ellipse200" rx="0.300000" ry="0.150000" cx="-1000.000000" cy="-1000.000000" style="stroke-width:0.000000;fill:#44ccee;stroke:none;" transform="rotate(0.000000, -1000.000000, -1000.000000)"/>
<ellipse id="ellipse201" rx="0.300000" ry="0.150000" cx="-1000.000000" cy="-1000.000000" style="stroke-width:0.000000;fill:#44ccee;stroke:none;" transform="rotate(0.000000, -1000.000000, -1000.000000)"/>
<ellipse id="ellipse202" rx="0.300000" ry="0.150000" cx="-1000.000000" cy="-1000.000000" style="stroke-width:0.000000;fill:#44ccee;stroke:none;" transform="rotate(0.000000, -1000.000000, -1000.000000)"/>
<ellipse id="ellipse203" rx="0.300000" ry="0.150000" cx="-1000.000000" cy="-1000.000000" style="stroke-width:0.000000;fill:#44ccee;stroke:none;" transform="rotate(0.000000, -1000.000000, -1000.000000)"/>
<ellipse id="ellipse204" rx="0.300000" ry="0.150000" cx="-1000.000000" cy="-1000.000000" style="stroke-width:0.000000;fill:#44ccee;stroke:none;" transform="rotate(0.000000, -1000.000000, -1000.000000)"/>
<ellipse id="ellipse205" rx="0.300000" ry="0.150000" cx="-1000.000000" cy="-1000.000000" style="stroke-width:0.000000;fill:#44ccee;stroke:none;" transform="rotate(0.000000, -1000.000000, -1000.000000)"/>
<ellipse id="ellipse206" rx="0.300000" ry="0.150000" cx="-1000.000000" cy="-1000.000000" style="stroke-width:0.000000;fill:#44ccee;stroke:none;" transform="rotate(0.000000, -1000.000000, -1000.000000)"/>
<ellipse id="ellipse207" rx="0.300000" ry="0.150000" cx="-1000.000000" cy="-1000.000000" style="stroke-width:0.000000;fill:#44ccee;stroke:none;" transform="rotate(0.000000, -1000.000000, -1000.000000)"/>
<ellipse id="ellipse208" rx="0.300000" ry="0.150000" cx="-1000.000000" cy="-1000.000000" style="stroke-width:0.000000;fill:#44ccee;stroke:none;" transform="rotate(0.000000, -1000.000000, -1000.000000)"/>
<ellipse id="ellipse209" rx="0.300000" ry="0.150000" cx="-1000.000000" cy="-1000.000000" style="stroke-width:0.000000;fill:#44ccee;stroke:none;" transform="rotate(0.000000, -1000.000000, -1000.000000)"/>
<ellipse id="ellipse210" rx="0.300000" ry="0.150000" cx="-1000.000000" cy="-1000.000000" style="stroke-width:0.000000;fill:#44ccee;stroke:none;" transform="rotate(0.000000, -1000.000000, -1000.000000)"/>
<ellipse id="ellipse211" rx="0.300000" ry="0.150000" cx="-1000.000000" cy="-1000.000000" style="stroke-width:0.000000;fill:#44ccee;stroke:none;" transform="rotate(0.000000, -1000.000000, -1000.000000)"/>
<ellipse id="ellipse212" rx="0.300000" ry="0.150000" cx="-1000.000000" cy="-1000.000000" style="stroke-width:0.000000;fill:#44ccee;stroke:none;" transform="rotate(0.000000, -1000.000000, -1000.000000)"/>
<ellipse id="ellipse213" rx="0.300000" ry="0.150000" cx="-1000.000000" cy="-1000.000000" style="stroke-width:0.000000;fill:#44ccee;stroke:none;" transform="rotate(0.000000, -1000.000000, -1000.000000)"/>
<ellipse id="ellipse214" rx="0.300000" ry="0.150000" cx="-1000.000000" cy="-1000.000000" style="stroke-width:0.000000;fill:#44ccee;stroke:none;" transform="rotate(0.000000, -1000.000000, -1000.000000)"/>
<ellipse id="ellipse215" rx="0.300000" ry="0.150000" cx="-1000.000000" cy="-1000.000000" style="stroke-width:0.000000;fill:#44ccee;stroke:none;" transform="rotate(0.000000, -1000.000000, -1000.000000)"/>
<ellipse id="ellipse216" rx="0.300000" ry="0.150000" cx="-1000.000000" cy="-1000.000000" style="stroke-width:0.000000;fill:#44ccee;stroke:none;" transform="rotate(0.000000, -1000.000000, -1000.000000)"/>
<ellipse id="ellipse217" rx="0.300000" ry="0.150000" cx="-1000.000000" cy="-1000.000000" style="stroke-width:0.000000;fill:#44ccee;stroke:none;" transform="rotate(0.000000, -1000.000000, -1000.000000)"/>
<ellipse id="ellipse218" rx="0.300000" ry="0.150000" cx="-1000.000000" cy="-1000.000000" style="stroke-width:0.000000;fill:#44ccee;stroke:none;" transform="rotate(0.000000, -1000.000000, -1000.000000)"/>
<ellipse id="ellipse219" rx="0.300000" ry="0.150000" cx="-1000.000000" cy="-1000.000000" style="stroke-width:0.000000;fill:#44ccee;stroke:none;" transform="rotate(0.000000, -1000.000000, -1000.000000)"/>
<ellipse id="ellipse220" rx="0.300000" ry="0.150000" cx="-1000.000000" cy="-1000.000000" style="stroke-width:0.000000;fill:#44ccee;stroke:none;" transform="rotate(0.000000, -1000.000000, -1000.000000)"/>
<ellipse id="ellipse221" rx="0.300000" ry="0.150000" cx="-1000.000000" cy="-1000.000000" style="stroke-width:0.000000;fill:#44ccee;stroke:none;" transform="rotate(0.000000, -1000.000000, -1000.000000)"/>
<ellipse id="ellipse222" rx="0.300000" ry="0.150000" cx="-1000.000000" cy="-1000.000000" style="stroke-width:0.000000;fill:#44ccee;stroke:none;" transform="rotate(0.000000, -1000.000000, -1000.000000)"/>
<ellipse id="ellipse223" rx="0.300000" ry="0.150000" cx="-1000.000000" cy="-1000.000000" style="stroke-width:0.000000;fill:#44ccee;stroke:none;" transform="rotate(0.000000, -1000.000000, -1000.000000)"/>
<ellipse id="ellipse224" rx="0.300000" ry="0.150000" cx="-1000.000000" cy="-1000.000000" style="stroke-width:0.000000;fill:#44ccee;stroke:none;" transform="rotate(0.000000, -1000.000000, -1000.000000)"/>
<ellipse id="ellipse225" rx="0.300000" ry="0.150000" cx="-1000.000000" cy="-1000.000000" style="stroke-width:0.000000;fill:#44ccee;stroke:none;" transform="rotate(0.000000, -1000.000000, -1000.000000)"/>
<ellipse id="ellipse226" rx="0.300000" ry="0.150000" cx="-1000.000000" cy="-1000.000000" style="stroke-width:0.000000;fill:#44ccee;stroke:none;" transform="rotate(0.000000, -1000.000000, -1000.000000)"/>
<ellipse id="ellipse227" rx="0.300000" ry="0.150000" cx="-1000.000000" cy="-1000.000000" style="stroke-width:0.000000;fill:#44ccee;stroke:none;" transform="rotate(0.000000, -1000.000000, -1000.000000)"/>
<ellipse id="ellipse228" rx="0.300000" ry="0.150000" cx="-1000.000000" cy="-1000.000000" style="stroke-width:0.000000;fill:#44ccee;stroke:none;" transform="rotate(0.000000, -1000.000000, -1000.000000)"/>
<ellipse id="ellipse229" rx="0.300000" ry="0.150000" cx="-1000.000000" cy="-1000.000000" style="stroke-width:0.000000;fill:#44ccee;stroke:none;" transform="rotate(0.000000, -1000.000000, -1000.000000)"/>
<ellipse id="ellipse230" rx="0.300000" ry="0.150000" cx="-1000.000000" cy="-1000.000000" style="stroke-width:0.000000;fill:#44ccee;stroke:none;" transform="rotate(0.000000, -1000.000000, -1000.000000)"/>
<ellipse id="ellipse231" rx="0.300000" ry="0.150000" cx="-1000.000000" cy="-1000.000000" style="stroke-width:0.000000;fill:#44ccee;stroke:none;" transform="rotate(0.000000, -1000.000000, -1000.000000)"/>
<ellipse id="ellipse232" rx="0.300000" ry="0.150000" cx="-1000.000000" cy="-1000.000000" style="stroke-width:0.000000;fill:#44ccee;stroke:none;" transform="rotate(0.000000, -1000.000000, -1000.000000)"/>
<ellipse id="ellipse233" rx="0.300000" ry="0.150000" cx="-1000.000000" cy="-1000.000000" style="stroke-width:0.000000;fill:#44ccee;stroke:none;" transform="rotate(0.000000, -1000.000000, -1000.000000)"/>
<ellipse id="ellipse234" rx="0.300000" ry="0.150000" cx="-1000.000000" cy="-1000.000000" style="stroke-width:0.000000;fill:#44ccee;stroke:none;" transform="rotate(0.000000, -1000.000000, -1000.000000)"/>
<ellipse id="ellipse235" rx="0.300000" ry="0.150000" cx="-1000.000000" cy="-1000.000000" style="stroke-width:0.000000;fill:#44ccee;stroke:none;" transform="rotate(0.000000, -1000.000000, -1000.000000)"/>
<ellipse id="ellipse236" rx="0.300000" ry="0.150000" cx="-1000.000000" cy="-1000.000000" style="stroke-width:0.000000;fill:#44ccee;stroke:none;" transform="rotate(0.000000, -1000.000000, -1000.000000)"/>
<ellipse id="ellipse237" rx="0.300000" ry="0.150000" cx="-1000.000000" cy="-1000.000000" style="stroke-width:0.000000;fill:#44ccee;stroke:none;" transform="rotate(0.000000, -1000.000000, -1000.000000)"/>
<ellipse id="ellipse238" rx="0.300000" ry="0.150000" cx="-1000.000000" cy="-1000.000000" style="stroke-width:0.000000;fill:#44ccee;stroke:none;" transform="rotate(0.000000, -1000.000000, -1000.000000)"/>
<ellipse id="ellipse239" rx="0.300000" ry="0.150000" cx="-1000.000000" cy="-1000.000000" style="stroke-width:0.000000;fill:#44ccee;stroke:none;" transform="rotate(0.000000, -1000.000000, -1000.000000)"/>
<ellipse id="ellipse240" rx="0.300000" ry="0.150000" cx="-1000.000000" cy="-1000.000000" style="stroke-width:0.000000;fill:#44ccee;stroke:none;" transform="rotate(0.000000, -1000.000000, -1000.000000)"/>
<ellipse id="ellipse241" rx="0.300000" ry="0.150000" cx="-1000.000000" cy="-1000.000000" style="stroke-width:0.000000;fill:#44ccee;stroke:none;" transform="rotate(0.000000, -1000.000000, -1000.000000)"/>
<ellipse id="ellipse242" rx="0.300000" ry="0.150000" cx="-1000.000000" cy="-1000.000000" style="stroke-width:0.000000;fill:#44ccee;stroke:none;" transform="rotate(0.000000, -1000.000000, -1000.000000)"/>
<ellipse id="ellipse243" rx="0.300000" ry="0.150000" cx="-1000.000000" cy="-1000.000000" style="stroke-width:0.000000;fill:#44ccee;stroke:none;" transform="rotate(0.000000, -1000.000000, -1000.000000)"/>
<ellipse id="ellipse244" rx="0.300000" ry="0.150000" cx="-1000.000000" cy="-1000.000000" style="stroke-width:0.000000;fill:#44ccee;stroke:none;" transform="rotate(0.000000, -1000.000000, -1000.000000)"/>
<ellipse id="ellipse245" rx="0.300000" ry="0.150000" cx="-1000.000000" cy="-1000.000000" style="stroke-width:0.000000;fill:#44ccee;stroke:none;" transform="rotate(0.000000, -1000.000000, -1000.000000)"/>
<ellipse id="ellipse246" rx="0.300000" ry="0.150000" cx="-1000.000000" cy="-1000.000000" style="stroke-width:0.000000;fill:#44ccee;stroke:none;" transform="rotate(0.000000, -1000.000000, -1000.000000)"/>
<ellipse id="ellipse247" rx="0.300000" ry="0.150000" cx="-1000.000000" cy="-1000.000000" style="stroke-width:0.000000;fill:#44ccee;stroke:none;" transform="rotate(0.000000, -1000.000000, -1000.000000)"/>
<ellipse id="ellipse248" rx="0.300000" ry="0.150000" cx="-1000.000000" cy="-1000.000000" style="stroke-width:0.000000;fill:#44ccee;stroke:none;" transform="rotate(0.000000, -1000.000000, -1000.000000)"/>
<ellipse id="ellipse249" rx="0.300000" ry="0.150000" cx="-1000.000000" cy="-1000.000000" style="stroke-width:0.000000;fill:#44ccee;stroke:none;" transform="rotate(0.000000, -1000.000000, -1000.000000)"/>
<ellipse id="ellipse250" rx="0.300000" ry="0.150000" cx="-1000.000000" cy="-1000.000000" style="stroke-width:0.000000;fill:#44ccee;stroke:none;" transform="rotate(0.000000, -1000.000000, -1000.000000)"/>
<ellipse id="ellipse251" rx="0.300000" ry="0.150000" cx="-1000.000000" cy="-1000.000000" style="stroke-width:0.000000;fill:#44ccee;stroke:none;" transform="rotate(0.000000, -1000.000000, -1000.000000)"/>
<ellipse id="ellipse252" rx="0.300000" ry="0.150000" cx="-1000.000000" cy="-1000.000000" style="stroke-width:0.000000;fill:#44ccee;stroke:none;" transform="rotate(0.000000, -1000.000000, -1000.000000)"/>
<ellipse id="ellipse253" rx="0.300000" ry="0.150000" cx="-1000.000000" cy="-1000.000000" style="stroke-width:0.000000;fill:#44ccee;stroke:none;" transform="rotate(0.000000, -1000.000000, -1000.000000)"/>
<ellipse id="ellipse254" rx="0.300000" ry="0.150000" cx="-1000.000000" cy="-1000.000000" style="stroke-width:0.000000;fill:#44ccee;stroke:none;" transform="rotate(0.000000, -1000.000000, -1000.000000)"/>
<ellipse id="ellipse255" rx="0.300000" ry="0.150000" cx="-1000.000000" cy="-1000.000000" style="stroke-width:0.000000;fill:#44ccee;stroke:none;" transform="rotate(0.000000, -1000.000000, -1000.000000)"/>
<ellipse id="ellipse256" rx="0.300000" ry="0.150000" cx="-1000.000000" cy="-1000.000000" style="stroke-width:0.000000;fill:#44ccee;stroke:none;" transform="rotate(0.000000, -1000.000000, -1000.000000)"/>
<ellipse id="ellipse257" rx="0.300000" ry="0.150000" cx="0.927584" cy="-1.585502" style="stroke-width:0.000000;fill:#44ccee;stroke:none;" transform="rotate(0.000000, 0.927584, -1.585502)"/>
<ellipse id="ellipse258" rx="0.300000" ry="0.150000" cx="-1000.000000" cy="-1000.000000" style="stroke-width:0.000000;fill:#44ccee;stroke:none;" transform="rotate(0.000000, -1000.000000, -1000.000000)"/>
<ellipse id="ellipse259" rx="0.300000" ry="0.150000" cx="-1000.000000" cy="-1000.000000" style="stroke-width:0.000000;fill:#44ccee;stroke:none;" transform="rotate(0.000000, -1000.000000, -1000.000000)"/>
<ellipse id="ellipse260" rx="0.300000" ry="0.150000" cx="-1000.000000" cy="-1000.000000" style="stroke-width:0.000000;fill:#44ccee;stroke:none;" transform="rotate(0.000000, -1000.000000, -1000.000000)"/>
<ellipse id="ellipse261" rx="0.300000" ry="0.150000" cx="-1000.000000" cy="-1000.000000" style="stroke-width:0.000000;fill:#44ccee;stroke:none;" transform="rotate(0.000000, -1000.000000, -1000.000000)"/>
<ellipse id="ellipse262" rx="0.300000" ry="0.150000" cx="-1000.000000" cy="-1000.000000" style="stroke-width:0.000000;fill:#44ccee;stroke:none;" transform="rotate(0.000000, -1000.000000, -1000.000000)"/>
<ellipse id="ellipse263" rx="0.300000" ry="0.150000" cx="-1000.000000" cy="-1000.000000" style="stroke-width:0.000000;fill:#44ccee;stroke:none;" transform="rotate(0.000000, -1000.000000, -1000.000000)"/>
<ellipse id="ellipse264" rx="0.300000" ry="0.150000" cx="-1000.000000" cy="-1000.000000" style="stroke-width:0.000000;fill:#44ccee;stroke:none;" transform="rotate(0.000000, -1000.000000, -1000.000000)"/>
<ellipse id="ellipse265" rx="0.300000" ry="0.150000" cx="-1000.000000" cy="-1000.000000" style="stroke-width:0.000000;fill:#44ccee;stroke:none;" transform="rotate(0.000000, -1000.000000, -1000.000000)"/>
<ellipse id="ellipse266" rx="0.300000" ry="0.150000" cx="-1000.000000" cy="-1000.000000" style="stroke-width:0.000000;fill:#44ccee;stroke:none;" transform="rotate(0.000000, -1000.000000, -1000.000000)"/>
<ellipse id="ellipse267" rx="0.300000" ry="0.150000" cx="-1000.000000" cy="-1000.000000" style="stroke-width:0.000000;fill:#44ccee;stroke:none;" transform="rotate(0.000000, -1000.000000, -1000.000000)"/>
<ellipse id="ellipse268" rx="0.300000" ry="0.150000" cx="-1000.000000" cy="-1000.000000" style="stroke-width:0.000000;fill:#44ccee;stroke:none;" transform="rotate(0.000000, -1000.000000, -1000.000000)"/>
<ellipse id="ellipse269" rx="0.300000" ry="0.150000" cx="-1000.000000" cy="-1000.000000" style="stroke-width:0.000000;fill:#44ccee;stroke:none;" transform="rotate(0.000000, -1000.000000, -1000.000000)"/>
<ellipse id="ellipse270" rx="0.300000" ry="0.150000" cx="-1000.000000" cy="-1000.000000" style="stroke-width:0.000000;fill:#44ccee;stroke:none;" transform="rotate(0.000000, -1000.000000, -1000.000000)"/>
<ellipse id="ellipse271" rx="0.300000" ry="0.150000" cx="-1000.000000" cy="-1000.000000" style="stroke-width:0.000000;fill:#44ccee;stroke:none;" transform="rotate(0.000000, -1000.000000, -1000.000000)"/>
<ellipse id="ellipse272" rx="0.300000" ry="0.150000" cx="-1000.000000" cy="-1000.000000" style="stroke-width:0.000000;fill:#44ccee;stroke:none;" transform="rotate(0.000000, -1000.000000, -1000.000000)"/>
<ellipse id="ellipse273" rx="0.300000" ry="0.150000" cx="-1000.000000" cy="-1000.000000" style="stroke-width:0.000000;fill:#44ccee;stroke:none;" transform="rotate(0.000000, -1000.000000, -1000.000000)"/>
<ellipse id="ellipse274" rx="0.300000" ry="0.150000" cx="-1000.000000" cy="-1000.000000" style="stroke-width:0.000000;fill:#44ccee;stroke:none;" transform="rotate(0.000000, -1000.000000, -1000.000000)"/>
<ellipse id="ellipse275" rx="0.300000" ry="0.150000" cx="-1000.000000" cy="-1000.000000" style="stroke-width:0.000000;fill:#44ccee;stroke:none;" transform="rotate(0.000000, -1000.000000, -1000.000000)"/>
<ellipse id="ellipse276" rx="0.300000" ry="0.150000" cx="-1000.000000" cy="-1000.000000" style="stroke-width:0.000000;fill:#44ccee;stroke:none;" transform="rotate(0.000000, -1000.000000, -1000.000000)"/>
<ellipse id="ellipse277" rx="0.300000" ry="0.150000" cx="-1000.000000" cy="-1000.000000" style="stroke-width:0.000000;fill:#44ccee;stroke:none;" transform="rotate(0.000000, -1000.000000, -1000.000000)"/>
<ellipse id="ellipse278" rx="0.300000" ry="0.150000" cx="-1000.000000" cy="-1000.000000" style="stroke-width:0.000000;fill:#44ccee;stroke:none;" transform="rotate(0.000000, -1000.000000, -1000.000000)"/>
<ellipse id="ellipse279" rx="0.300000" ry="0.150000" cx="-1000.000000" cy="-1000.000000" style="stroke-width:0.000000;fill:#44ccee;stroke:none;" transform="rotate(0.000000, -1000.000000, -1000.000000)"/>
<ellipse id="ellipse280" rx="0.300000" ry="0.150000" cx="-1000.000000" cy="-1000.000000" style="stroke-width:0.000000;fill:#44ccee;stroke:none;" transform="rotate(0.000000, -1000.000000, -1000.000000)"/>
<ellipse id="ellipse281" rx="0.300000" ry="0.150000" cx="-1000.000000" cy="-1000.000000" style="stroke-width:0.000000;fill:#44ccee;stroke:none;" transform="rotate(0.000000, -1000.000000, -1000.000000)"/>
<ellipse id="ellipse282" rx="0.300000" ry="0.150000" cx="-1000.000000" cy="-1000.000000" style="stroke-width:0.000000;fill:#44ccee;stroke:none;" transform="rotate(0.000000, -1000.000000, -1000.000000)"/>
<ellipse id="ellipse283" rx="0.300000" ry="0.150000" cx="-1000.000000" cy="-1000.000000" style="stroke-width:0.000000;fill:#44ccee;stroke:none;" transform="rotate(0.000000, -1000.000000, -1000.000000)"/>
<ellipse id="ellipse284" rx="0.300000" ry="0.150000" cx="-1000.000000" cy="-1000.000000" style="stroke-width:0.000000;fill:#44ccee;stroke:none;" transform="rotate(0.000000, -1000.000000, -1000.000000)"/>
<ellipse id="ellipse285" rx="0.300000" ry="0.150000" cx="-1000.000000" cy="-1000.000000" style="stroke-width:0.000000;fill:#44ccee;stroke:none;" transform="rotate(0.000000, -1000.000000, -1000.000000)"/>
<ellipse id="ellipse286" rx="0.300000" ry="0.150000" cx="-1000.000000" cy="-1000.000000" style="stroke-width:0.000000;fill:#44ccee;stroke:none;" transform="rotate(0.000000, -1000.000000, -1000.000000)"/>
<ellipse id="ellipse287" rx="0.300000" ry="0.150000" cx="-1000.000000" cy="-1000.000000" style="stroke-width:0.000000;fill:#44ccee;stroke:none;" transform="rotate(0.000000, -1000.000000, -1000.000000)"/>
<ellipse id="ellipse288" rx="0.300000" ry="0.150000" cx="-1000.000000" cy="-1000.000000" style="stroke-width:0.000000;fill:#44ccee;stroke:none;" transform="rotate(0.000000, -1000.000000, -1000.000000)"/>
<ellipse id="ellipse289" rx="0.300000" ry="0.150000" cx="-1000.000000" cy="-1000.000000" style="stroke-width:0.000000;fill:#44ccee;stroke:none;" transform="rotate(0.000000, -1000.000000, -1000.000000)"/>
<ellipse id="ellipse290" rx="0.300000" ry="0.150000" cx="-1000.000000" cy="-1000.000000" style="stroke-width:0.000000;fill:#44ccee;stroke:none;" transform="rotate(0.000000, -1000.000000, -1000.000000)"/>
<ellipse id="ellipse291" rx="0.300000" ry="0.150000" cx="-1000.000000" cy="-1000.000000" style="stroke-width:0.000000;fill:#44ccee;stroke:none;" transform="rotate(0.000000, -1000.000000, -1000.000000)"/>
<ellipse id="ellipse292" rx="0.300000" ry="0.150000" cx="-1000.000000" cy="-1000.000000" style="stroke-width:0.000000;fill:#44ccee;stroke:none;" transform="rotate(0.000000, -1000.000000, -1000.000000)"/>
<ellipse id="ellipse293" rx="0.300000" ry="0.150000" cx="-1000.000000" cy="-1000.000000" style="stroke-width:0.000000;fill:#44ccee;stroke:none;" transform="rotate(0.000000, -1000.000000, -1000.000000)"/>
<ellipse id="ellipse294" rx="0.300000" ry="0.150000" cx="-1000.000000" cy="-1000.000000" style="stroke-width:0.000000;fill:#44ccee;stroke:none;" transform="rotate(0.000000, -1000.000000, -1000.000000)"/>
<ellipse id="ellipse295" rx="0.300000" ry="0.150000" cx="-1000.000000" cy="-1000.000000" style="stroke-width:0.000000;fill:#44ccee;stroke:none;" transform="rotate(0.000000, -1000.000000, -1000.000000)"/>
<ellipse id="ellipse296" rx="0.300000" ry="0.150000" cx="-1000.000000" cy="-1000.000000" style="stroke-width:0.000000;fill:#44ccee;stroke:none;" transform="rotate(0.000000, -1000.000000, -1000.000000)"/>
<ellipse id="ellipse297" rx="0.300000" ry="0.150000" cx="-1000.000000" cy="-1000.000000" style="stroke-width:0.000000;fill:#44ccee;stroke:none;" transform="rotate(0.000000, -1000.000000, -1000.000000)"/>
<ellipse id="ellipse298" rx="0.300000" ry="0.150000" cx="-1000.000000" cy="-1000.000000" style="stroke-width:0.000000;fill:#44ccee;stroke:none;" transform="rotate(0.000000, -1000.000000, -1000.000000)"/>
<ellipse id="ellipse299" rx="0.300000" ry="0.150000" cx="-1000.000000" cy="-1000.000000" style="stroke-width:0.000000;fill:#44ccee;stroke:none;" transform="rotate(0.000000, -1000.000000, -1000.000000)"/>
<ellipse id="ellipse300" rx="0.300000" ry="0.150000" cx="-1000.000000" cy="-1000.000000" style="stroke-width:0.000000;fill:#44ccee;stroke:none;" transform="rotate(0.000000, -1000.000000, -1000.000000)"/>
<ellipse id="ellipse301" rx="0.300000" ry="0.150000" cx="-1000.000000" cy="-1000.000000" style="stroke-width:0.000000;fill:#44ccee;stroke:none;" transform="rotate(0.000000, -1000.000000, -1000.000000)"/>
<ellipse id="ellipse302" rx="0.300000" ry="0.150000" cx="-1000.000000" cy="-1000.000000" style="stroke-width:0.000000;fill:#44ccee;stroke:none;" transform="rotate(0.000000, -1000.000000, -1000.000000)"/>
<ellipse id="ellipse303" rx="0.300000" ry="0.150000" cx="-1000.000000" cy="-1000.000000" style="stroke-width:0.000000;fill:#44ccee;stroke:none;" transform="rotate(0.000000, -1000.000000, -1000.000000)"/>
<ellipse id="ellipse304" rx="0.300000" ry="0.150000" cx="-1000.000000" cy="-1000.000000" style="stroke-width:0.000000;fill:#44ccee;stroke:none;" transform="rotate(0.000000, -1000.000000, -1000.000000)"/>
<ellipse id="ellipse305" rx="0.300000" ry="0.150000" cx="-1000.000000" cy="-1000.000000" style="stroke-width:0.000000;fill:#44ccee;stroke:none;" transform="rotate(0.000000, -1000.000000, -1000.000000)"/>
<ellipse id="ellipse306" rx="0.300000" ry="0.150000" cx="-1000.000000" cy="-1000.000000" style="stroke-width:0.000000;fill:#44ccee;stroke:none;" transform="rotate(0.000000, -1000.000000, -1000.000000)"/>
<ellipse id="ellipse307" rx="0.300000" ry="0.150000" cx="-1000.000000" cy="-1000.000000" style="stroke-width:0.000000;fill:#44ccee;stroke:none;" transform="rotate(0.000000, -1000.000000, -1000.000000)"/>
<ellipse id="ellipse308" rx="0.300000" ry="0.150000" cx="-1000.000000" cy="-1000.000000" style="stroke-width:0.000000;fill:#44ccee;stroke:none;" transform="rotate(0.000000, -1000.000000, -1000.000000)"/>
<ellipse id="ellipse309" rx="0.300000" ry="0.150000" cx="-1000.000000" cy="-1000.000000" style="stroke-width:0.000000;fill:#44ccee;stroke:none;" transform="rotate(0.000000, -1000.000000, -1000.000000)"/>
<ellipse id="ellipse310" rx="0.300000" ry="0.150000" cx="-1000.000000" cy="-1000.000000" style="stroke-width:0.000000;fill:#44ccee;stroke:none;" transform="rotate(0.000000, -1000.000000, -1000.000000)"/>
<ellipse id="ellipse311" rx="0.300000" ry="0.150000" cx="-1000.000000" cy="-1000.000000" style="stroke-width:0.000000;fill:#44ccee;stroke:none;" transform="rotate(0.000000, -1000.000000, -1000.000000)"/>
<ellipse id="ellipse312" rx="0.300000" ry="0.150000" cx="-1000.000000" cy="-1000.000000" style="stroke-width:0.000000;fill:#44ccee;stroke:none;" transform="rotate(0.000000, -1000.000000, -1000.000000)"/>
<ellipse id="ellipse313" rx="0.300000" ry="0.150000" cx="-1000.000000" cy="-1000.000000" style="stroke-width:0.000000;fill:#44ccee;stroke:none;" transform="rotate(0.000000, -1000.000000, -1000.000000)"/>
<ellipse id="ellipse314" rx="0.300000" ry="0.150000" cx="-1000.000000" cy="-1000.000000" style="stroke-width:0.000000;fill:#44ccee;stroke:none;" transform="rotate(0.000000, -1000.000000, -1000.000000)"/>
<ellipse id="ellipse315" rx="0.300000" ry="0.150000" cx="-1000.000000" cy="-1000.000000" style="stroke-width:0.000000;fill:#44ccee;stroke:none;" transform="rotate(0.000000, -1000.000000, -1000.000000)"/>
<ellipse id="ellipse316" rx="0.300000" ry="0.150000" cx="-1000.000000" cy="-1000.000000" style="stroke-width:0.000000;fill:#44ccee;stroke:none;" transform="rotate(0.000000, -1000.000000, -1000.000000)"/>
<ellipse id="ellipse317" rx="0.300000" ry="0.150000" cx="-1000.000000" cy="-1000.000000" style="stroke-width:0.000000;fill:#44ccee;stroke:none;" transform="rotate(0.000000, -1000.000000, -1000.000000)"/>
<ellipse id="ellipse318" rx="0.300000" ry="0.150000" cx="-1000.000000" cy="-1000.000000" style="stroke-width:0.000000;fill:#44ccee;stroke:none;" transform="rotate(0.000000, -1000.000000, -1000.000000)"/>
<ellipse id="ellipse319" rx="0.300000" ry="0.150000" cx="-1000.000000" cy="-1000.000000" style="stroke-width:0.000000;fill:#44ccee;stroke:none;" transform="rotate(0.000000, -1000.000000, -1000.000000)"/>
<ellipse id="ellipse320" rx="0.300000" ry="0.150000" cx="-1000.000000" cy="-1000.000000" style="stroke-width:0.000000;fill:#44ccee;stroke:none;" transform="rotate(0.000000, -1000.000000, -1000.000000)"/>
<ellipse id="ellipse321" rx="0.300000" ry="0.150000" cx="-1000.000000" cy="-1000.000000" style="stroke-width:0.000000;fill:#44ccee;stroke:none;" transform="rotate(0.000000, -1000.000000, -1000.000000)"/>
<ellipse id="ellipse322" rx="0.300000" ry="0.150000" cx="-1000.000000" cy="-1000.000000" style="stroke-width:0.000000;fill:#44ccee;stroke:none;" transform="rotate(0.000000, -1000.000000, -1000.000000)"/>
<ellipse id="ellipse323" rx="0.300000" ry="0.150000" cx="-1000.000000" cy="-1000.000000" style="stroke-width:0.000000;fill:#44ccee;stroke:none;" transform="rotate(0.000000, -1000.000000, -1000.000000)"/>
<ellipse id="ellipse324" rx="0.300000" ry="0.150000" cx="-1000.000000" cy="-1000.000000" style="stroke-width:0.000000;fill:#44ccee;stroke:none;" transform="rotate(0.000000, -1000.000000, -1000.000000)"/>
<ellipse id="ellipse325" rx="0.300000" ry="0.150000" cx="-1000.000000" cy="-1000.000000" style="stroke-width:0.000000;fill:#44ccee;stroke:none;" transform="rotate(0.000000, -1000.000000, -1000.000000)"/>
<ellipse id="ellipse326" rx="0.300000" ry="0.150000" cx="-1000.000000" cy="-1000.000000" style="stroke-width:0.000000;fill:#44ccee;stroke:none;" transform="rotate(0.000000, -1000.000000, -1000.000000)"/>
<ellipse id="ellipse327" rx="0.300000" ry="0.150000" cx="-1000.000000" cy="-1000.000000" style="stroke-width:0.000000;fill:#44ccee;stroke:none;" transform="rotate(0.000000, -1000.000000, -1000.000000)"/>
<ellipse id="ellipse328" rx="0.300000" ry="0.150000" cx="-1000.000000" cy="-1000.000000" style="stroke-width:0.000000;fill:#44ccee;stroke:none;" transform="rotate(0.000000, -1000.000000, -1000.000000)"/>
<ellipse id="ellipse329" rx="0.300000" ry="0.150000" cx="-1000.000000" cy="-1000.000000" style="stroke-width:0.000000;fill:#44ccee;stroke:none;" transform="rotate(0.000000, -1000.000000, -1000.000000)"/>
<ellipse id="ellipse330" rx="0.300000" ry="0.150000" cx="-1000.000000" cy="-1000.000000" style="stroke-width:0.000000;fill:#44ccee;stroke:none;" transform="rotate(0.000000, -1000.000000, -1000.000000)"/>
<ellipse id="ellipse331" rx="0.300000" ry="0.150000" cx="-1000.000000" cy="-1000.000000" style="stroke-width:0.000000;fill:#44ccee;stroke:none;" transform="rotate(0.000000, -1000.000000, -1000.000000)"/>
<ellipse id="ellipse332" rx="0.300000" ry="0.150000" cx="-1000.000000" cy="-1000.000000" style="stroke-width:0.000000;fill:#44ccee;stroke:none;" transform="rotate(0.000000, -1000.000000, -1000.000000)"/>
<ellipse id="ellipse333" rx="0.300000" ry="0.150000" cx="-1000.000000" cy="-1000.000000" style="stroke-width:0.000000;fill:#44ccee;stroke:none;" transform="rotate(0.000000, -1000.000000, -1000.000000)"/>
<ellipse id="ellipse334" rx="0.300000" ry="0.150000" cx="-1000.000000" cy="-1000.000000" style="stroke-width:0.000000;fill:#44ccee;stroke:none;" transform="rotate(0.000000, -1000.000000, -1000.000000)"/>
<ellipse id="ellipse335" rx="0.300000" ry="0.150000" cx="-1000.000000" cy="-1000.000000" style="stroke-width:0.000000;fill:#44ccee;stroke:none;" transform="rotate(0.000000, -1000.000000, -1000.000000)"/>
<ellipse id="ellipse336" rx="0.300000" ry="0.150000" cx="-1000.000000" cy="-1000.000000" style="stroke-width:0.000000;fill:#44ccee;stroke:none;" transform="rotate(0.000000, -1000.000000, -1000.000000)"/>
<ellipse id="ellipse337" rx="0.300000" ry="0.150000" cx="-1000.000000" cy="-1000.000000" style="stroke-width:0.000000;fill:#44ccee;stroke:none;" transform="rotate(0.000000, -1000.000000, -1000.000000)"/>
<ellipse id="ellipse338" rx="0.300000" ry="0.150000" cx="-1000.000000" cy="-1000.000000" style="stroke-width:0.000000;fill:#44ccee;stroke:none;" transform="rotate(0.000000, -1000.000000, -1000.000000)"/>
<ellipse id="ellipse339" rx="0.300000" ry="0.150000" cx="-1000.000000" cy="-1000.000000" style="stroke-width:0.000000;fill:#44ccee;stroke:none;" transform="rotate(0.000000, -1000.000000, -1000.000000)"/>
<ellipse id="ellipse340" rx="0.300000" ry="0.150000" cx="-1000.000000" cy="-1000.000000" style="stroke-width:0.000000;fill:#44ccee;stroke:none;" transform="rotate(0.000000, -1000.000000, -1000.000000)"/>
<ellipse id="ellipse341" rx="0.300000" ry="0.150000" cx="-1000.000000" cy="-1000.000000" style="stroke-width:0.000000;fill:#44ccee;stroke:none;" transform="rotate(0.000000, -1000.000000, -1000.000000)"/>
<ellipse id="ellipse342" rx="0.300000" ry="0.150000" cx="-1000.000000" cy="-1000.000000" style="stroke-width:0.000000;fill:#44ccee;stroke:none;" transform="rotate(0.000000, -1000.000000, -1000.000000)"/>
<ellipse id="ellipse343" rx="0.300000" ry="0.150000" cx="-1000.000000" cy="-1000.000000" style="stroke-width:0.000000;fill:#44ccee;stroke:none;" transform="rotate(0.000000, -1000.000000, -1000.000000)"/>
<ellipse id="ellipse344" rx="0.300000" ry="0.150000" cx="-1000.000000" cy="-1000.000000" style="stroke-width:0.000000;fill:#44ccee;stroke:none;" transform="rotate(0.000000, -1000.000000, -1000.000000)"/>
<ellipse id="ellipse345" rx="0.300000" ry="0.150000" cx="-1000.000000" cy="-1000.000000" style="stroke-width:0.000000;fill:#44ccee;stroke:none;" transform="rotate(0.000000, -1000.000000, -1000.000000)"/>
<ellipse id="ellipse346" rx="0.300000" ry="0.150000" cx="-1000.000000" cy="-1000.000000" style="stroke-width:0.000000;fill:#44ccee;stroke:none;" transform="rotate(0.000000, -1000.000000, -1000.000000)"/>
<ellipse id="ellipse347" rx="0.300000" ry="0.150000" cx="-1000.000000" cy="-1000.000000" style="stroke-width:0.000000;fill:#44ccee;stroke:none;" transform="rotate(0.000000, -1000.000000, -1000.000000)"/>
<ellipse id="ellipse348" rx="0.300000" ry="0.150000" cx="-1000.000000" cy="-1000.000000" style="stroke-width:0.000000;fill:#44ccee;stroke:none;" transform="rotate(0.000000, -1000.000000, -1000.000000)"/>
<ellipse id="ellipse349" rx="0.300000" ry="0.150000" cx="-1000.000000" cy="-1000.000000" style="stroke-width:0.000000;fill:#44ccee;stroke:none;" transform="rotate(0.000000, -1000.000000, -1000.000000)"/>
<ellipse id="ellipse350" rx="0.300000" ry="0.150000" cx="-1000.000000" cy="-1000.000000" style="stroke-width:0.000000;fill:#44ccee;stroke:none;" transform="rotate(0.000000, -1000.000000, -1000.000000)"/>
<ellipse id="ellipse351" rx="0.300000" ry="0.150000" cx="-1000.000000" cy="-1000.000000" style="stroke-width:0.000000;fill:#44ccee;stroke:none;" transform="rotate(0.000000, -1000.000000, -1000.000000)"/>
<ellipse id="ellipse352" rx="0.300000" ry="0.150000" cx="-1000.000000" cy="-1000.000000" style="stroke-width:0.000000;fill:#44ccee;stroke:none;" transform="rotate(0.000000, -1000.000000, -1000.000000)"/>
<ellipse id="ellipse353" rx="0.300000" ry="0.150000" cx="-1000.000000" cy="-1000.000000" style="stroke-width:0.000000;fill:#44ccee;stroke:none;" transform="rotate(0.000000, -1000.000000, -1000.000000)"/>
<ellipse id="ellipse354" rx="0.300000" ry="0.150000" cx="-1000.000000" cy="-1000.000000" style="stroke-width:0.000000;fill:#44ccee;stroke:none;" transform="rotate(0.000000, -1000.000000, -1000.000000)"/>
<ellipse id="ellipse355" rx="0.300000" ry="0.150000" cx="-1000.000000" cy="-1000.000000" style="stroke-width:0.000000;fill:#44ccee;stroke:none;" transform="rotate(0.000000, -1000.000000, -1000.000000)"/>
<ellipse id="ellipse356" rx="0.300000" ry="0.150000" cx="-1000.000000" cy="-1000.000000" style="stroke-width:0.000000;fill:#44ccee;stroke:none;" transform="rotate(0.000000, -1000.000000, -1000.000000)"/>
<ellipse id="ellipse357" rx="0.300000" ry="0.150000" cx="-1000.000000" cy="-1000.000000" style="stroke-width:0.000000;fill:#44ccee;stroke:none;" transform="rotate(0.000000, -1000.000000, -1000.000000)"/>
<ellipse id="ellipse358" rx="0.300000" ry="0.150000" cx="-1000.000000" cy="-1000.000000" style="stroke-width:0.000000;fill:#44ccee;stroke:none;" transform="rotate(0.000000, -1000.000000, -1000.000000)"/>
<ellipse id="ellipse359" rx="0.300000" ry="0.150000" cx="-1000.000000" cy="-1000.000000" style="stroke-width:0.000000;fill:#44ccee;stroke:none;" transform="rotate(0.000000, -1000.000000, -1000.000000)"/>
<ellipse id="ellipse360" rx="0.300000" ry="0.150000" cx="-1000.000000" cy="-1000.000000" style="stroke-width:0.000000;fill:#44ccee;stroke:none;" transform="rotate(0.000000, -1000.000000, -1000.000000)"/>
<ellipse id="ellipse361" rx="0.300000" ry="0.150000" cx="-1000.000000" cy="-1000.000000" style="stroke-width:0.000000;fill:#44ccee;stroke:none;" transform="rotate(0.000000, -1000.000000, -1000.000000)"/>
<ellipse id="ellipse362" rx="0.300000" ry="0.150000" cx="-1000.000000" cy="-1000.000000" style="stroke-width:0.000000;fill:#44ccee;stroke:none;" transform="rotate(0.000000, -1000.000000, -1000.000000)"/>
<ellipse id="ellipse363" rx="0.300000" ry="0.150000" cx="-1000.000000" cy="-1000.000000" style="stroke-width:0.000000;fill:#44ccee;stroke:none;" transform="rotate(0.000000, -1000.000000, -1000.000000)"/>
<ellipse id="ellipse364" rx="0.300000" ry="0.150000" cx="-1000.000000" cy="-1000.000000" style="stroke-width:0.000000;fill:#44ccee;stroke:none;" transform="rotate(0.000000, -1000.000000, -1000.000000)"/>
<ellipse id="ellipse365" rx="0.300000" ry="0.150000" cx="-1000.000000" cy="-1000.000000" style="stroke-width:0.000000;fill:#44ccee;stroke:none;" transform="rotate(0.000000, -1000.000000, -1000.000000)"/>
<ellipse id="ellipse366" rx="0.300000" ry="0.150000" cx="1.318164" cy="-1.721150" style="stroke-width:0.000000;fill:#44ccee;stroke:none;" transform="rotate(0.000000, 1.318164, -1.721150)"/>
<ellipse id="ellipse367" rx="0.300000" ry="0.150000" cx="-1000.000000" cy="-1000.000000" style="stroke-width:0.000000;fill:#44ccee;stroke:none;" transform="rotate(0.000000, -1000.000000, -1000.000000)"/>
<ellipse id="ellipse368" rx="0.300000" ry="0.150000" cx="-1000.000000" cy="-1000.000000" style="stroke-width:0.000000;fill:#44ccee;stroke:none;" transform="rotate(0.000000, -1000.000000, -1000.000000)"/>
<ellipse id="ellipse369" rx="0.300000" ry="0.150000" cx="-1000.000000" cy="-1000.000000" style="stroke-width:0.000000;fill:#44ccee;stroke:none;" transform="rotate(0.000000, -1000.000000, -1000.000000)"/>
<ellipse id="ellipse370" rx="0.300000" ry="0.150000" cx="-1000.000000" cy="-1000.000000" style="stroke-width:0.000000;fill:#44ccee;stroke:none;" transform="rotate(0.000000, -1000.000000, -1000.000000)"/>
<ellipse id="ellipse371" rx="0.300000" ry="0.150000" cx="-1000.000000" cy="-1000.000000" style="stroke-width:0.000000;fill:#44ccee;stroke:none;" transform="rotate(0.000000, -1000.000000, -1000.000000)"/>
<ellipse id="ellipse372" rx="0.300000" ry="0.150000" cx="-1000.000000" cy="-1000.000000" style="stroke-width:0.000000;fill:#44ccee;stroke:none;" transform="rotate(0.000000, -1000.000000, -1000.000000)"/>
<ellipse id="ellipse373" rx="0.300000" ry="0.150000" cx="-1000.000000" cy="-1000.000000" style="stroke-width:0.000000;fill:#44ccee;stroke:none;" transform="rotate(0.000000, -1000.000000, -1000.000000)"/>
<ellipse id="ellipse374" rx="0.300000" ry="0.150000" cx="-1000.000000" cy="-1000.000000" style="stroke-width:0.000000;fill:#44ccee;stroke:none;" transform="rotate(0.000000, -1000.000000, -1000.000000)"/>
<ellipse id="ellipse375" rx="0.300000" ry="0.150000" cx="-1000.000000" cy="-1000.000000" style="stroke-width:0.000000;fill:#44ccee;stroke:none;" transform="rotate(0.000000, -1000.000000, -1000.000000)"/>
<ellipse id="ellipse376" rx="0.300000" ry="0.150000" cx="-1000.000000" cy="-1000.000000" style="stroke-width:0.000000;fill:#44ccee;stroke:none;" transform="rotate(0.000000, -1000.000000, -1000.000000)"/>
<ellipse id="ellipse377" rx="0.300000" ry="0.150000" cx="-1000.000000" cy="-1000.000000" style="stroke-width:0.000000;fill:#44ccee;stroke:none;" transform="rotate(0.000000, -1000.000000, -1000.000000)"/>
<ellipse id="ellipse378" rx="0.300000" ry="0.150000" cx="-1000.000000" cy="-1000.000000" style="stroke-width:0.000000;fill:#44ccee;stroke:none;" transform="rotate(0.000000, -1000.000000, -1000.000000)"/>
<ellipse id="ellipse379" rx="0.300000" ry="0.150000" cx="-1000.000000" cy="-1000.000000" style="stroke-width:0.000000;fill:#44ccee;stroke:none;" transform="rotate(0.000000, -1000.000000, -1000.000000)"/>
<ellipse id="ellipse380" rx="0.300000" ry="0.150000" cx="-1000.000000" cy="-1000.000000" style="stroke-width:0.000000;fill:#44ccee;stroke:none;" transform="rotate(0.000000, -1000.000000, -1000.000000)"/>
<ellipse id="ellipse381" rx="0.300000" ry="0.150000" cx="-1000.000000" cy="-1000.000000" style="stroke-width:0.000000;fill:#44ccee;stroke:none;" transform="rotate(0.000000, -1000.000000, -1000.000000)"/>
<ellipse id="ellipse382" rx="0.300000" ry="0.150000" cx="-1000.000000" cy="-1000.000000" style="stroke-width:0.000000;fill:#44ccee;stroke:none;" transform="rotate(0.000000, -1000.000000, -1000.000000)"/>
<ellipse id="ellipse383" rx="0.300000" ry="0.150000" cx="-1000.000000" cy="-1000.000000" style="stroke-width:0.000000;fill:#44ccee;stroke:none;" transform="rotate(0.000000, -1000.000000, -1000.000000)"/>
<ellipse id="ellipse384" rx="0.300000" ry="0.150000" cx="-1000.000000" cy="-1000.000000" style="stroke-width:0.000000;fill:#44ccee;stroke:none;" transform="rotate(0.000000, -1000.000000, -1000.000000)"/>
<ellipse id="ellipse385" rx="0.300000" ry="0.150000" cx="-1000.000000" cy="-1000.000000" style="stroke-width:0.000000;fill:#44ccee;stroke:none;" transform="rotate(0.000000, -1000.000000, -1000.000000)"/>
<ellipse id="ellipse386" rx="0.300000" ry="0.150000" cx="-1000.000000" cy="-1000.000000" style="stroke-width:0.000000;fill:#44ccee;stroke:none;" transform="rotate(0.000000, -1000.000000, -1000.000000)"/>
<ellipse id="ellipse387" rx="0.300000" ry="0.150000" cx="-1000.000000" cy="-1000.000000" style="stroke-width:0.000000;fill:#44ccee;stroke:none;" transform="rotate(0.000000, -1000.000000, -1000.000000)"/>
<ellipse id="ellipse388" rx="0.300000" ry="0.150000" cx="-1000.000000" cy="-1000.000000" style="stroke-width:0.000000;fill:#44ccee;stroke:none;" transform="rotate(0.000000, -1000.000000, -1000.000000)"/>
<ellipse id="ellipse389" rx="0.300000" ry="0.150000" cx="-1000.000000" cy="-1000.000000" style="stroke-width:0.000000;fill:#44ccee;stroke:none;" transform="rotate(0.000000, -1000.000000, -1000.000000)"/>
<ellipse id="ellipse390" rx="0.300000" ry="0.150000" cx="-1000.000000" cy="-1000.000000" style="stroke-width:0.000000;fill:#44ccee;stroke:none;" transform="rotate(0.000000, -1000.000000, -1000.000000)"/>
<ellipse id="ellipse391" rx="0.300000" ry="0.150000" cx="-1000.000000" cy="-1000.000000" style="stroke-width:0.000000;fill:#44ccee;stroke:none;" transform="rotate(0.000000, -1000.000000, -1000.000000)"/>
<ellipse id="ellipse392" rx="0.300000" ry="0.150000" cx="-1000.000000" cy="-1000.000000" style="stroke-width:0.000000;fill:#44ccee;stroke:none;" transform="rotate(0.000000, -1000.000000, -1000.000000)"/>
<ellipse id="ellipse393" rx="0.300000" ry="0.150000" cx="-1000.000000" cy="-1000.000000" style="stroke-width:0.000000;fill:#44ccee;stroke:none;" transform="rotate(0.000000, -1000.000000, -1000.000000)"/>
<ellipse id="ellipse394" rx="0.300000" ry="0.150000" cx="-1000.000000" cy="-1000.000000" style="stroke-width:0.000000;fill:#44ccee;stroke:none;" transform="rotate(0.000000, -1000.000000, -1000.000000)"/>
<ellipse id="ellipse395" rx="0.300000" ry="0.150000" cx="-1000.000000" cy="-1000.000000" style="stroke-width:0.000000;fill:#44ccee;stroke:none;" transform="rotate(0.000000, -1000.000000, -1000.000000)"/>
<ellipse id="ellipse396" rx="0.300000" ry="0.150000" cx="-1000.000000" cy="-1000.000000" style="stroke-width:0.000000;fill:#44ccee;stroke:none;" transform="rotate(0.000000, -1000.000000, -1000.000000)"/>
<ellipse id="ellipse397" rx="0.300000" ry="0.150000" cx="-1000.000000" cy="-1000.000000" style="stroke-width:0.000000;fill:#44ccee;stroke:none;" transform="rotate(0.000000, -1000.000000, -1000.000000)"/>
<ellipse id="ellipse398" rx="0.300000" ry="0.150000" cx="-1000.000000" cy="-1000.000000" style="stroke-width:0.000000;fill:#44ccee;stroke:none;" transform="rotate(0.000000, -1000.000000, -1000.000000)"/>
<ellipse id="ellipse399" rx="0.300000" ry="0.150000" cx="-1000.000000" cy="-1000.000000" style="stroke-width:0.000000;fill:#44ccee;stroke:none;" transform="rotate(0.000000, -1000.000000, -1000.000000)"/>
<path id="path400" style="stroke-width:0.200000;fill:none;stroke:#f39112;" d="M -4.546597,2.259814  L -4.499116,2.223769  L -4.451635,2.187725  L -4.404154,2.151680  L -4.356673,2.115636  L -4.309192,2.079592  L -4.261711,2.043547  L -4.214230,2.007503  L -4.166749,1.971458  L -4.119268,1.935414  L -4.071787,1.899369  L -4.007464,1.858404  L -3.943140,1.817440  L -3.878817,1.776475  L -3.814493,1.735510  L -3.750170,1.694545  L -3.685846,1.653580  L -3.621523,1.612615  L -3.557199,1.571650  L -3.492876,1.530685  L -3.428552,1.489720  L -3.380113,1.451274  L -3.331673,1.412828  L -3.283233,1.374382  L -3.234794,1.335937  L -3.186354,1.297491  L -3.137914,1.259045  L -3.089474,1.220599  L -3.041035,1.182153  L -2.992595,1.143707  L -2.944155,1.105262  L -2.890495,1.076261  L -2.836835,1.047260  L -2.783174,1.018259  L -2.729514,0.989258  L -2.675854,0.960257  L -2.622194,0.931256  L -2.568533,0.902255  L -2.514873,0.873254  L -2.461213,0.844253  L -2.407553,0.815252  L -2.362194,0.774190  L -2.316836,0.733128  L -2.271478,0.692066  L -2.226120,0.651004  L -2.180762,0.609942  L -2.135404,0.568880  L -2.090045,0.527817  L -2.044687,0.486755  L -1.999329,0.445693  L -1.953971,0.404631  L -1.906206,0.378707  L -1.858442,0.352782  L -1.810677,0.326858  L -1.762913,0.300933  L -1.715148,0.275009  L -1.667383,0.249084  L -1.619619,0.223160  L -1.571854,0.197235  L -1.524090,0.171311  L -1.476325,0.145386  L -1.420028,0.117891  L -1.363732,0.090396  L -1.307435,0.062901  L -1.251139,0.035406  L -1.194842,0.007910  L -1.138546,-0.019585  L -1.082249,-0.047080  L -1.025953,-0.074575  L -0.969656,-0.102070  L -0.913360,-0.129565  L -0.855308,-0.153239  L -0.797256,-0.176913  L -0.739204,-0.200587 " />
<path id="path401" style="stroke-width:0.050000;fill:none;stroke:#aa55dd;" d="M 9.260796,-0.200587  L 9.259273,-0.026063  L 9.254704,0.148408  L 9.247091,0.322772  L 9.236436,0.496977  L 9.222743,0.670970  L 9.206015,0.844697  L 9.186257,1.018106  L 9.163476,1.191144  L 9.137679,1.363757  L 9.108873,1.535895  L 9.077068,1.707503  L 9.042272,1.878530  L 9.004496,2.048923  L 8.963753,2.218632  L 8.920054,2.387603  L 8.873413,2.555786  L 8.823843,2.723130  L 8.771361,2.889583  L 8.715982,3.055094  L 8.657722,3.219614  L 8.596600,3.383092  L 8.532634,3.545479  L 8.465844,3.706724  L 8.396250,3.866779  L 8.323874,4.025595  L 8.248736,4.183124  L 8.170861,4.339318  L 8.090272,4.494128  L 8.006993,4.647509  L 7.921050,4.799413  L 7.832469,4.949794  L 7.741277,5.098605  L 7.647501,5.245803  L 7.551172,5.391342  L 7.452316,5.535177  L 7.350966,5.677265  L 7.247151,5.817563  L 7.140903,5.956028  L 7.032255,6.092617  L 6.921240,6.227289  L 6.807892,6.360003  L 6.692244,6.490719  L 6.574333,6.619396  L 6.454194,6.745996  L 6.331864,6.870481  L 6.207379,6.992811  L 6.080779,7.112950  L 5.952102,7.230861  L 5.821386,7.346509  L 5.688672,7.459857  L 5.554000,7.570872  L 5.417411,7.679520  L 5.278946,7.785768  L 5.138648,7.889583  L 4.996560,7.990933  L 4.852725,8.089788  L 4.707186,8.186118  L 4.559988,8.279894  L 4.411177,8.371086  L 4.260796,8.459667  L 4.108892,8.545610  L 3.955511,8.628889  L 3.800701,8.709478  L 3.644507,8.787353  L 3.486978,8.862491  L 3.328162,8.934867  L 3.168107,9.004461  L 3.006862,9.071251  L 2.844475,9.135217  L 2.680997,9.196339  L 2.516477,9.254599  L 2.350966,9.309978  L 2.184513,9.362460  L 2.017169,9.412030  L 1.848986,9.458671  L 1.680015,9.502370  L -0.448745,1.057531  L -0.478251,1.027101  L -0.502051,1.019462  L -0.523967,1.020082  L -0.544688,1.027539  L -0.564332,1.043694  L 0.479489,9.724874  L 0.306080,9.744632  L 0.132353,9.761360  L -0.041639,9.775053  L -0.215845,9.785708  L -0.390209,9.793321  L -0.564680,9.797890  L -0.739204,9.799413  L -0.913728,9.797890  L -1.088199,9.793321  L -1.262564,9.785708  L -1.436769,9.775053  L -1.610762,9.761360  L -1.784489,9.744632  L -1.957898,9.724874  L -2.130935,9.702093  L -2.303549,9.676296  L -2.475686,9.647490  L -2.647294,9.615685  L -2.818321,9.580889  L -2.988715,9.543113  L -3.158423,9.502370  L -3.327395,9.458671  L -3.495578,9.412030  L -3.662921,9.362460  L -3.829374,9.309978  L -3.994886,9.254599  L -4.159406,9.196339  L -4.322884,9.135217  L -4.485270,9.071251  L -4.646515,9.004461  L -4.806571,8.934867  L -4.965387,8.862491  L -5.122916,8.787353  L -5.279109,8.709478  L -5.433920,8.628889  L -5.587300,8.545610  L -5.739204,8.459667  L -5.889585,8.371086  L -6.038397,8.279894  L -6.185595,8.186118  L -6.331133,8.089788  L -6.474969,7.990933  L -6.617057,7.889583  L -6.757354,7.785768  L -6.895819,7.679520  L -7.032408,7.570872  L -7.167080,7.459857  L -7.299794,7.346509  L -7.430510,7.230861  L -7.559188,7.112950  L -7.685788,6.992811  L -7.810272,6.870481  L -7.932602,6.745996  L -8.052741,6.619396  L -8.170652,6.490719  L -8.286300,6.360003  L -8.399649,6.227289  L -8.510664,6.092617  L -8.619312,5.956028  L -8.725559,5.817563  L -8.829374,5.677265  L -8.930725,5.535177  L -9.029580,5.391342  L -9.125910,5.245803  L -9.219685,5.098605  L -9.310877,4.949794  L -9.399458,4.799413  L -9.485401,4.647509  L -9.568680,4.494128  L -9.649269,4.339318  L -9.727145,4.183124  L -9.802282,4.025595  L -9.874659,3.866779  L -9.944253,3.706724  L -10.011043,3.545479  L -10.075008,3.383092  L -10.136130,3.219614  L -10.194390,3.055094  L -10.249769,2.889583  L -10.302252,2.723130  L -10.351821,2.555786  L -10.398462,2.387603  L -10.442161,2.218632  L -10.482905,2.048923  L -10.520680,1.878530  L -10.555476,1.707503  L -10.587282,1.535895  L -10.616088,1.363757  L -10.641885,1.191144  L -10.664666,1.018106  L -10.684423,0.844697  L -10.701151,0.670970  L -10.714845,0.496977  L -10.725500,0.322772  L -10.733112,0.148408  L -10.737681,-0.026063  L -10.739204,-0.200587  L -10.737681,-0.375111  L -10.733112,-0.549582  L -10.725500,-0.723947  L -10.714845,-0.898152  L -10.701151,-1.072145  L -10.684423,-1.245872  L -10.664666,-1.419281  L -10.641885,-1.592318  L -10.616088,-1.764932  L -10.587282,-1.937069  L -10.555476,-2.108677  L -10.520680,-2.279704  L -10.482905,-2.450098  L -10.442161,-2.619806  L -10.398462,-2.788778  L -10.351821,-2.956961  L -10.302252,-3.124304  L -10.249769,-3.290757  L -10.194390,-3.456269  L -10.136130,-3.620789  L -10.075008,-3.784267  L -10.011043,-3.946653  L -9.944253,-4.107899  L -9.874659,-4.267954  L -9.802282,-4.426770  L -9.727145,-4.584299  L -9.649269,-4.740492  L -9.568680,-4.895303  L -9.485401,-5.048683  L -9.399458,-5.200587  L -9.310877,-5.350968  L -9.219685,-5.499780  L -9.125910,-5.646978  L -9.029580,-5.792516  L -8.930725,-5.936352  L -8.829374,-6.078440  L -8.725559,-6.218737  L -8.619312,-6.357202  L -8.510664,-6.493791  L -8.399649,-6.628463  L -8.286300,-6.761178  L -8.170652,-6.891893  L -8.052741,-7.020571  L -7.932602,-7.147171  L -7.810272,-7.271655  L -7.685788,-7.393985  L -7.559188,-7.514124  L -7.430510,-7.632035  L -7.299794,-7.747683  L -7.167080,-7.861032  L -7.032408,-7.972047  L -6.895819,-8.080695  L -6.757354,-8.186942  L -6.617057,-8.290757  L -6.474969,-8.392108  L -6.331133,-8.490963  L -6.185595,-8.587293  L -6.038397,-8.681068  L -5.889585,-8.772260  L -5.739204,-8.860841  L -5.587300,-8.946784  L -5.433920,-9.030063  L -5.279109,-9.110652  L -5.122916,-9.188528  L -4.965387,-9.263665  L -4.806571,-9.336042  L -4.646515,-9.405636  L -4.485270,-9.472426  L -4.322884,-9.536392  L -4.159406,-9.597513  L -3.994886,-9.655773  L -3.829374,-9.711152  L -3.662921,-9.763635  L -3.495578,-9.813204  L -3.327395,-9.859846  L -1.037141,-1.395548  L -1.008435,-1.366756  L -0.983521,-1.350008  L -0.960276,-1.337905  L -0.938092,-1.328537  L -0.916670,-1.321062  L -0.895827,-1.315017  L -0.875438,-1.310121  L -0.855408,-1.306188  L -0.835661,-1.303093  L -0.816135,-1.300747  L -0.796774,-1.299090  L -0.777529,-1.298080  L -0.758354,-1.297693  L -0.739204,-1.297918  L -0.720036,-1.298760  L -0.700804,-1.300234  L -0.681462,-1.302372  L -0.661961,-1.305222  L -0.642243,-1.308858  L -0.622245,-1.313384  L -0.601887,-1.318947  L -0.581070,-1.325773  L -0.559656,-1.334210  L -0.537439,-1.344856  L -0.514051,-1.358898  L -0.572909,-0.982945  L -0.562426,-0.966299  L -0.550971,-0.955547  L -0.538855,-0.948301  L -0.526094,-0.943789  L -0.512584,-0.941828  L -0.498084,-0.942680  L -0.482076,-0.947342  L 2.680997,-9.597513  L 2.844475,-9.536392  L 3.006862,-9.472426  L 3.168107,-9.405636  L 3.328162,-9.336042  L 3.486978,-9.263665  L 3.644507,-9.188528  L 3.800701,-9.110652  L 3.955511,-9.030063  L 4.108892,-8.946784  L 4.260796,-8.860841  L 4.411177,-8.772260  L 4.559988,-8.681068  L 4.707186,-8.587293  L 4.852725,-8.490963  L 4.996560,-8.392108  L 5.138648,-8.290757  L 5.278946,-8.186942  L 5.417411,-8.080695  L 5.554000,-7.972047  L 5.688672,-7.861032  L 5.821386,-7.747683  L 5.952102,-7.632035  L 6.080779,-7.514124  L 0.640953,-1.629782  L 0.629369,-1.569161  L 0.644095,-1.536424  L 0.666605,-1.511525  L 0.694214,-1.491243  L 0.726107,-1.474363  L 0.762147,-1.460371  L 0.802623,-1.449134  L 0.848249,-1.440842  L 0.900401,-1.436119  L 0.961862,-1.436484  L 1.040063,-1.446444  L 1.293492,-1.571658  L 1.375541,-1.573919  L 1.508952,-1.605391  L 7.832469,-5.350968  L 7.921050,-5.200587  L 8.006993,-5.048683  L 8.090272,-4.895303  L 8.170861,-4.740492  L 8.248736,-4.584299  L 8.323874,-4.426770  L 8.396250,-4.267954  L 8.465844,-4.107899  L 8.532634,-3.946653  L 8.596600,-3.784267  L 8.657722,-3.620789  L 8.715982,-3.456269  L 8.771361,-3.290757  L 8.823843,-3.124304  L 8.873413,-2.956961  L 8.920054,-2.788778  L 8.963753,-2.619806  L 9.004496,-2.450098  L 9.042272,-2.279704  L 9.077068,-2.108677  L 9.108873,-1.937069  L 9.137679,-1.764932  L 9.163476,-1.592318  L 9.186257,-1.419281  L 9.206015,-1.245872  L 9.222743,-1.072145  L 9.236436,-0.898152  L 9.247091,-0.723947  L 9.254704,-0.549582  L 9.259273,-0.375111  z " />
<ellipse id="ellipse402" rx="0.711428" ry="0.871318" cx="-0.733748" cy="-0.209236" style="stroke-width:0.050000;fill:none;stroke:#ffff00;" transform="rotate(-135.000000, -0.733748, -0.209236)"/>
<circle id="circle403" r="0.050000" cx="-0.733748" cy="-0.209236" style="stroke-width:0.100000;fill:none;stroke:#ffff00;"/>
<ellipse id="ellipse404" rx="1.173829" ry="1.437641" cx="-0.667817" cy="-0.256100" style="stroke-width:0.050000;fill:none;stroke:#ff00ff;" transform="rotate(-135.000000, -0.667817, -0.256100)"/>
<circle id="circle405" r="0.050000" cx="-0.667817" cy="-0.256100" style="stroke-width:0.100000;fill:none;stroke:#ff00ff;"/></g></svg>