<svg width="1600px" height="900px" viewBox="-25 -13 16.3292717 21.292512"><g id="layer1" transform="rotate(90,-2.4945089,-5.5210241)"><image x="0" y="0" width="800" height="800" xlink:href="../Maps/nonstandard_size/ewap_eth_modified.png" />
<rect id="rect0" style="stroke-width:0.000000;fill:#ffffff;stroke:none;" x="-20.000000" y="-20.000000" width="680.000000" height="520.000000" />
<circle id="circle1" r="0.069566" cx="-0.555426" cy="-2.951879" style="stroke-width:0.000000;fill:#555555;stroke:none;"/>
<circle id="circle2" r="0.069566" cx="-0.509393" cy="-1.011321" style="stroke-width:0.000000;fill:#555555;stroke:none;"/>
<circle id="circle3" r="0.069566" cx="-0.511067" cy="1.088441" style="stroke-width:0.000000;fill:#555555;stroke:none;"/>
<path id="path4" style="stroke-width:0.000000;fill:#555555;stroke:none;" d="M -0.617364,-3.021445  L -0.491147,-3.021445  L -0.491147,-2.882313  L -0.617364,-2.882313  L -0.617364,-3.021445  z " />
<circle id="circle5" r="0.750000" cx="-4.546597" cy="2.259814" style="stroke-width:0.000000;fill:#00ff00;stroke:none;"/>
<circle id="circle6" r="0.500000" cx="-4.546597" cy="2.259814" style="stroke-width:0.000000;fill:#ffffff;stroke:none;"/>
<circle id="circle7" r="0.187500" cx="-4.546597" cy="2.259814" style="stroke-width:0.000000;fill:#00ff00;stroke:none;"/>
<circle id="circle8" r="0.750000" cx="2.204527" cy="-1.489741" style="stroke-width:0.000000;fill:#ff0000;stroke:none;"/>
<circle id="circle9" r="0.500000" cx="2.204527" cy="-1.489741" style="stroke-width:0.000000;fill:#ffffff;stroke:none;"/>
<circle id="circle10" r="0.187500" cx="2.204527" cy="-1.489741" style="stroke-width:0.000000;fill:#ff0000;stroke:none;"/>
<ellipse id="ellipse11" rx="0.300000" ry="0.150000" cx="-1000.000000" cy="-1000.000000" style="stroke-width:0.000000;fill:#44ccee;stroke:none;" transform="rotate(0.000000, -1000.000000, -1000.000000)"/>
<ellipse id="ellipse12" rx="0.300000" ry="0.150000" cx="-1000.000000" cy="-1000.000000" style="stroke-width:0.000000;fill:#44ccee;stroke:none;" transform="rotate(0.000000, -1000.000000, -1000.000000)"/>
<ellipse id="ellipse13" rx="0.300000" ry="0.150000" cx="-1000.000000" cy="-1000.000000" style="stroke-width:0.000000;fill:#44ccee;stroke:none;" transform="rotate(0.000000, -1000.000000, -1000.000000)"/>
<ellipse id="ellipse14" rx="0.300000" ry="0.150000" cx="-1000.000000" cy="-1000.000000" style="stroke-width:0.000000;fill:#44ccee;stroke:none;" transform="rotate(0.000000, -1000.000000, -1000.000000)"/>
<ellipse id="ellipse15" rx="0.300000" ry="0.150000" cx="-1000.000000" cy="-1000.000000" style="stroke-width:0.000000;fill:#44ccee;stroke:none;" transform="rotate(0.000000, -1000.000000, -1000.000000)"/>
<ellipse id="ellipse16" rx="0.300000" ry="0.150000" cx="-1000.000000" cy="-1000.000000" style="stroke-width:0.000000;fill:#44ccee;stroke:none;" transform="rotate(0.000000, -1000.000000, -1000.000000)"/>
<ellipse id="ellipse17" rx="0.300000" ry="0.150000" cx="-1000.000000" cy="-1000.000000" style="stroke-width:0.000000;fill:#44ccee;stroke:none;" transform="rotate(0.000000, -1000.000000, -1000.000000)"/>
<ellipse id="ellipse18" rx="0.300000" ry="0.150000" cx="-1000.000000" cy="-1000.000000" style="stroke-width:0.000000;fill:#44ccee;stroke:none;" transform="rotate(0.000000, -1000.000000, -1000.000000)"/>
<ellipse id="ellipse19" rx="0.300000" ry="0.150000" cx="-1000.000000" cy="-1000.000000" style="stroke-width:0.000000;fill:#44ccee;stroke:none;" transform="rotate(0.000000, -1000.000000, -1000.000000)"/>
<ellipse id="ellipse20" rx="0.300000" ry="0.150000" cx="-1000.000000" cy="-1000.000000" style="stroke-width:0.000000;fill:#44ccee;stroke:none;" transform="rotate(0.000000, -1000.000000, -1000.000000)"/>
<ellipse id="ellipse21" rx="0.300000" ry="0.150000" cx="-1000.000000" cy="-1000.000000" style="stroke-width:0.000000;fill:#44ccee;stroke:none;" transform="rotate(0.000000, -1000.000000, -1000.000000)"/>
<ellipse id="ellipse22" rx="0.300000" ry="0.150000" cx="-1000.000000" cy="-1000.000000" style="stroke-width:0.000000;fill:#44ccee;stroke:none;" transform="rotate(0.000000, -1000.000000, -1000.000000)"/>
<ellipse id="ellipse23" rx="0.300000" ry="0.150000" cx="-1000.000000" cy="-1000.000000" style="stroke-width:0.000000;fill:#44ccee;stroke:none;" transform="rotate(0.000000, -1000.000000, -1000.000000)"/>
<ellipse id="ellipse24" rx="0.300000" ry="0.150000" cx="-1000.000000" cy="-1000.000000" style="stroke-width:0.000000;fill:#44ccee;stroke:none;" transform="rotate(0.000000, -1000.000000, -1000.000000)"/>
<ellipse id="ellipse25" rx="0.300000" ry="0.150000" cx="-1000.000000" cy="-1000.000000" style="stroke-width:0.000000;fill:#44ccee;stroke:none;" transform="rotate(0.000000, -1000.000000, -1000.000000)"/>
<ellipse id="ellipse26" rx="0.300000" ry="0.150000" cx="-1000.000000" cy="-1000.000000" style="stroke-width:0.000000;fill:#44ccee;stroke:none;" transform="rotate(0.000000, -1000.000000, -1000.000000)"/>
<ellipse id="ellipse27" rx="0.300000" ry="0.150000" cx="-1000.000000" cy="-1000.000000" style="stroke-width:0.000000;fill:#44ccee;stroke:none;" transform="rotate(0.000000, -1000.000000, -1000.000000)"/>
<ellipse id="ellipse28" rx="0.300000" ry="0.150000" cx="-1000.000000" cy="-1000.000000" style="stroke-width:0.000000;fill:#44ccee;stroke:none;" transform="rotate(0.000000, -1000.000000, -1000.000000)"/>
<ellipse id="ellipse29" rx="0.300000" ry="0.150000" cx="-1000.000000" cy="-1000.000000" style="stroke-width:0.000000;fill:#44ccee;stroke:none;" transform="rotate(0.000000, -1000.000000, -1000.000000)"/>
<ellipse id="ellipse30" rx="0.300000" ry="0.150000" cx="-1000.000000" cy="-1000.000000" style="stroke-width:0.000000;fill:#44ccee;stroke:none;" transform="rotate(0.000000, -1000.000000, -1000.000000)"/>
<ellipse id="ellipse31" rx="0.300000" ry="0.150000" cx="-1000.000000" cy="-1000.000000" style="stroke-width:0.000000;fill:#44ccee;stroke:none;" transform="rotate(0.000000, -1000.000000, -1000.000000)"/>
<ellipse id="ellipse32" rx="0.300000" ry="0.150000" cx="-1000.000000" cy="-1000.000000" style="stroke-width:0.000000;fill:#44ccee;stroke:none;" transform="rotate(0.000000, -1000.000000, -1000.000000)"/>
<ellipse id="ellipse33" rx="0.300000" ry="0.150000" cx="-1000.000000" cy="-1000.000000" style="stroke-width:0.000000;fill:#44ccee;stroke:none;" transform="rotate(0.000000, -1000.000000, -1000.000000)"/>
<ellipse id="ellipse34" rx="0.300000" ry="0.150000" cx="-1000.000000" cy="-1000.000000" style="stroke-width:0.000000;fill:#44ccee;stroke:none;" transform="rotate(0.000000, -1000.000000, -1000.000000)"/>
<ellipse id="ellipse35" rx="0.300000" ry="0.150000" cx="-1000.000000" cy="-1000.000000" style="stroke-width:0.000000;fill:#44ccee;stroke:none;" transform="rotate(0.000000, -1000.000000, -1000.000000)"/>
<ellipse id="ellipse36" rx="0.300000" ry="0.150000" cx="-1000.000000" cy="-1000.000000" style="stroke-width:0.000000;fill:#44ccee;stroke:none;" transform="rotate(0.000000, -1000.000000, -1000.000000)"/>
<ellipse id="ellipse37" rx="0.300000" ry="0.150000" cx="-1000.000000" cy="-1000.000000" style="stroke-width:0.000000;fill:#44ccee;stroke:none;" transform="rotate(0.000000, -1000.000000, -1000.000000)"/>
<ellipse id="ellipse38" rx="0.300000" ry="0.150000" cx="-1000.000000" cy="-1000.000000" style="stroke-width:0.000000;fill:#44ccee;stroke:none;" transform="rotate(0.000000, -1000.000000, -1000.000000)"/>
<ellipse id="ellipse39" rx="0.300000" ry="0.150000" cx="-1000.000000" cy="-1000.000000" style="stroke-width:0.000000;fill:#44ccee;stroke:none;" transform="rotate(0.000000, -1000.000000, -1000.000000)"/>
<ellipse id="ellipse40" rx="0.300000" ry="0.150000" cx="-1000.000000" cy="-1000.000000" style="stroke-width:0.000000;fill:#44ccee;stroke:none;" transform="rotate(0.000000, -1000.000000, -1000.000000)"/>
<ellipse id="ellipse41" rx="0.300000" ry="0.150000" cx="-1000.000000" cy="-1000.000000" style="stroke-width:0.000000;fill:#44ccee;stroke:none;" transform="rotate(0.000000, -1000.000000, -1000.000000)"/>
<ellipse id="ellipse42" rx="0.300000" ry="0.150000" cx="-1000.000000" cy="-1000.000000" style="stroke-width:0.000000;fill:#44ccee;stroke:none;" transform="rotate(0.000000, -1000.000000, -1000.000000)"/>
<ellipse id="ellipse43" rx="0.300000" ry="0.150000" cx="-1000.000000" cy="-1000.000000" style="stroke-width:0.000000;fill:#44ccee;stroke:none;" transform="rotate(0.000000, -1000.000000, -1000.000000)"/>
<ellipse id="ellipse44" rx="0.300000" ry="0.150000" cx="-1000.000000" cy="-1000.000000" style="stroke-width:0.000000;fill:#44ccee;stroke:none;" transform="rotate(0.000000, -1000.000000, -1000.000000)"/>
<ellipse id="ellipse45" rx="0.300000" ry="0.150000" cx="-1000.000000" cy="-1000.000000" style="stroke-width:0.000000;fill:#44ccee;stroke:none;" transform="rotate(0.000000, -1000.000000, -1000.000000)"/>
<ellipse id="ellipse46" rx="0.300000" ry="0.150000" cx="-1000.000000" cy="-1000.000000" style="stroke-width:0.000000;fill:#44ccee;stroke:none;" transform="rotate(0.000000, -1000.000000, -1000.000000)"/>
<ellipse id="ellipse47" rx="0.300000" ry="0.150000" cx="-1000.000000" cy="-1000.000000" style="stroke-width:0.000000;fill:#44ccee;stroke:none;" transform="rotate(0.000000, -1000.000000, -1000.000000)"/>
<ellipse id="ellipse48" rx="0.300000" ry="0.150000" cx="-1000.000000" cy="-1000.000000" style="stroke-width:0.000000;fill:#44ccee;stroke:none;" transform="rotate(0.000000, -1000.000000, -1000.000000)"/>
<ellipse id="ellipse49" rx="0.300000" ry="0.150000" cx="-1000.000000" cy="-1000.000000" style="stroke-width:0.000000;fill:#44ccee;stroke:none;" transform="rotate(0.000000, -1000.000000, -1000.000000)"/>
<ellipse id="ellipse50" rx="0.300000" ry="0.150000" cx="-1000.000000" cy="-1000.000000" style="stroke-width:0.000000;fill:#44ccee;stroke:none;" transform="rotate(0.000000, -1000.000000, -1000.000000)"/>
<ellipse id="ellipse51" rx="0.300000" ry="0.150000" cx="-1000.000000" cy="-1000.000000" style="stroke-width:0.000000;fill:#44ccee;stroke:none;" transform="rotate(0.000000, -1000.000000, -1000.000000)"/>
<ellipse id="ellipse52" rx="0.300000" ry="0.150000" cx="-1000.000000" cy="-1000.000000" style="stroke-width:0.000000;fill:#44ccee;stroke:none;" transform="rotate(0.000000, -1000.000000, -1000.000000)"/>
<ellipse id="ellipse53" rx="0.300000" ry="0.150000" cx="-1000.000000" cy="-1000.000000" style="stroke-width:0.000000;fill:#44ccee;stroke:none;" transform="rotate(0.000000, -1000.000000, -1000.000000)"/>
<ellipse id="ellipse54" rx="0.300000" ry="0.150000" cx="-1000.000000" cy="-1000.000000" style="stroke-width:0.000000;fill:#44ccee;stroke:none;" transform="rotate(0.000000, -1000.000000, -1000.000000)"/>
<ellipse id="ellipse55" rx="0.300000" ry="0.150000" cx="-1000.000000" cy="-1000.000000" style="stroke-width:0.000000;fill:#44ccee;stroke:none;" transform="rotate(0.000000, -1000.000000, -1000.000000)"/>
<ellipse id="ellipse56" rx="0.300000" ry="0.150000" cx="-1000.000000" cy="-1000.000000" style="stroke-width:0.000000;fill:#44ccee;stroke:none;" transform="rotate(0.000000, -1000.000000, -1000.000000)"/>
<ellipse id="ellipse57" rx="0.300000" ry="0.150000" cx="-1000.000000" cy="-1000.000000" style="stroke-width:0.000000;fill:#44ccee;stroke:none;" transform="rotate(0.000000, -1000.000000, -1000.000000)"/>
<ellipse id="ellipse58" rx="0.300000" ry="0.150000" cx="-1000.000000" cy="-1000.000000" style="stroke-width:0.000000;fill:#44ccee;stroke:none;" transform="rotate(0.000000, -1000.000000, -1000.000000)"/>
<ellipse id="ellipse59" rx="0.300000" ry="0.150000" cx="-1000.000000" cy="-1000.000000" style="stroke-width:0.000000;fill:#44ccee;stroke:none;" transform="rotate(0.000000, -1000.000000, -1000.000000)"/>
<ellipse id="ellipse60" rx="0.300000" ry="0.150000" cx="-1000.000000" cy="-1000.000000" style="stroke-width:0.000000;fill:#44ccee;stroke:none;" transform="rotate(0.000000, -1000.000000, -1000.000000)"/>
<ellipse id="ellipse61" rx="0.300000" ry="0.150000" cx="-1000.000000" cy="-1000.000000" style="stroke-width:0.000000;fill:#44ccee;stroke:none;" transform="rotate(0.000000, -1000.000000, -1000.000000)"/>
<ellipse id="ellipse62" rx="0.300000" ry="0.150000" cx="-1000.000000" cy="-1000.000000" style="stroke-width:0.000000;fill:#44ccee;stroke:none;" transform="rotate(0.000000, -1000.000000, -1000.000000)"/>
<ellipse id="ellipse63" rx="0.300000" ry="0.150000" cx="-1000.000000" cy="-1000.000000" style="stroke-width:0.000000;fill:#44ccee;stroke:none;" transform="rotate(0.000000, -1000.000000, -1000.000000)"/>
<ellipse id="ellipse64" rx="0.300000" ry="0.150000" cx="-1000.000000" cy="-1000.000000" style="stroke-width:0.000000;fill:#44ccee;stroke:none;" transform="rotate(0.000000, -1000.000000, -1000.000000)"/>
<ellipse id="ellipse65" rx="0.300000" ry="0.150000" cx="-1000.000000" cy="-1000.000000" style="stroke-width:0.000000;fill:#44ccee;stroke:none;" transform="rotate(0.000000, -1000.000000, -1000.000000)"/>
<ellipse id="ellipse66" rx="0.300000" ry="0.150000" cx="-1000.000000" cy="-1000.000000" style="stroke-width:0.000000;fill:#44ccee;stroke:none;" transform="rotate(0.000000, -1000.000000, -1000.000000)"/>
<ellipse id="ellipse67" rx="0.300000" ry="0.150000" cx="-1000.000000" cy="-1000.000000" style="stroke-width:0.000000;fill:#44ccee;stroke:none;" transform="rotate(0.000000, -1000.000000, -1000.000000)"/>
<ellipse id="ellipse68" rx="0.300000" ry="0.150000" cx="-1000.000000" cy="-1000.000000" style="stroke-width:0.000000;fill:#44ccee;stroke:none;" transform="rotate(0.000000, -1000.000000, -1000.000000)"/>
<ellipse id="ellipse69" rx="0.300000" ry="0.150000" cx="-1000.000000" cy="-1000.000000" style="stroke-width:0.000000;fill:#44ccee;stroke:none;" transform="rotate(0.000000, -1000.000000, -1000.000000)"/>
<ellipse id="ellipse70" rx="0.300000" ry="0.150000" cx="-1000.000000" cy="-1000.000000" style="stroke-width:0.000000;fill:#44ccee;stroke:none;" transform="rotate(0.000000, -1000.000000, -1000.000000)"/>
<ellipse id="ellipse71" rx="0.300000" ry="0.150000" cx="-1000.000000" cy="-1000.000000" style="stroke-width:0.000000;fill:#44ccee;stroke:none;" transform="rotate(0.000000, -1000.000000, -1000.000000)"/>
<ellipse id="ellipse72" rx="0.300000" ry="0.150000" cx="-1000.000000" cy="-1000.000000" style="stroke-width:0.000000;fill:#44ccee;stroke:none;" transform="rotate(0.000000, -1000.000000, -1000.000000)"/>
<ellipse id="ellipse73" rx="0.300000" ry="0.150000" cx="-1000.000000" cy="-1000.000000" style="stroke-width:0.000000;fill:#44ccee;stroke:none;" transform="rotate(0.000000, -1000.000000, -1000.000000)"/>
<ellipse id="ellipse74" rx="0.300000" ry="0.150000" cx="-1000.000000" cy="-1000.000000" style="stroke-width:0.000000;fill:#44ccee;stroke:none;" transform="rotate(0.000000, -1000.000000, -1000.000000)"/>
<ellipse id="ellipse75" rx="0.300000" ry="0.150000" cx="-1000.000000" cy="-1000.000000" style="stroke-width:0.000000;fill:#44ccee;stroke:none;" transform="rotate(0.000000, -1000.000000, -1000.000000)"/>
<ellipse id="ellipse76" rx="0.300000" ry="0.150000" cx="-1000.000000" cy="-1000.000000" style="stroke-width:0.000000;fill:#44ccee;stroke:none;" transform="rotate(0.000000, -1000.000000, -1000.000000)"/>
<ellipse id="ellipse77" rx="0.300000" ry="0.150000" cx="-1000.000000" cy="-1000.000000" style="stroke-width:0.000000;fill:#44ccee;stroke:none;" transform="rotate(0.000000, -1000.000000, -1000.000000)"/>
<ellipse id="ellipse78" rx="0.300000" ry="0.150000" cx="-1000.000000" cy="-1000.000000" style="stroke-width:0.000000;fill:#44ccee;stroke:none;" transform="rotate(0.000000, -1000.000000, -1000.000000)"/>
<ellipse id="ellipse79" rx="0.300000" ry="0.150000" cx="-1000.000000" cy="-1000.000000" style="stroke-width:0.000000;fill:#44ccee;stroke:none;" transform="rotate(0.000000, -1000.000000, -1000.000000)"/>
<ellipse id="ellipse80" rx="0.300000" ry="0.150000" cx="-1000.000000" cy="-1000.000000" style="stroke-width:0.000000;fill:#44ccee;stroke:none;" transform="rotate(0.000000, -1000.000000, -1000.000000)"/>
<ellipse id="ellipse81" rx="0.300000" ry="0.150000" cx="-1000.000000" cy="-1000.000000" style="stroke-width:0.000000;fill:#44ccee;stroke:none;" transform="rotate(0.000000, -1000.000000, -1000.000000)"/>
<ellipse id="ellipse82" rx="0.300000" ry="0.150000" cx="-1000.000000" cy="-1000.000000" style="stroke-width:0.000000;fill:#44ccee;stroke:none;" transform="rotate(0.000000, -1000.000000, -1000.000000)"/>
<ellipse id="ellipse83" rx="0.300000" ry="0.150000" cx="-1000.000000" cy="-1000.000000" style="stroke-width:0.000000;fill:#44ccee;stroke:none;" transform="rotate(0.000000, -1000.000000, -1000.000000)"/>
<ellipse id="ellipse84" rx="0.300000" ry="0.150000" cx="-1000.000000" cy="-1000.000000" style="stroke-width:0.000000;fill:#44ccee;stroke:none;" transform="rotate(0.000000, -1000.000000, -1000.000000)"/>
<ellipse id="ellipse85" rx="0.300000" ry="0.150000" cx="-1000.000000" cy="-1000.000000" style="stroke-width:0.000000;fill:#44ccee;stroke:none;" transform="rotate(0.000000, -1000.000000, -1000.000000)"/>
<ellipse id="ellipse86" rx="0.300000" ry="0.150000" cx="-1000.000000" cy="-1000.000000" style="stroke-width:0.000000;fill:#44ccee;stroke:none;" transform="rotate(0.000000, -1000.000000, -1000.000000)"/>
<ellipse id="ellipse87" rx="0.300000" ry="0.150000" cx="-1000.000000" cy="-1000.000000" style="stroke-width:0.000000;fill:#44ccee;stroke:none;" transform="rotate(0.000000, -1000.000000, -1000.000000)"/>
<ellipse id="ellipse88" rx="0.300000" ry="0.150000" cx="-1000.000000" cy="-1000.000000" style="stroke-width:0.000000;fill:#44ccee;stroke:none;" transform="rotate(0.000000, -1000.000000, -1000.000000)"/>
<ellipse id="ellipse89" rx="0.300000" ry="0.150000" cx="-1000.000000" cy="-1000.000000" style="stroke-width:0.000000;fill:#44ccee;stroke:none;" transform="rotate(0.000000, -1000.000000, -1000.000000)"/>
<ellipse id="ellipse90" rx="0.300000" ry="0.150000" cx="-1000.000000" cy="-1000.000000" style="stroke-width:0.000000;fill:#44ccee;stroke:none;" transform="rotate(0.000000, -1000.000000, -1000.000000)"/>
<ellipse id="ellipse91" rx="0.300000" ry="0.150000" cx="-1000.000000" cy="-1000.000000" style="stroke-width:0.000000;fill:#44ccee;stroke:none;" transform="rotate(0.000000, -1000.000000, -1000.000000)"/>
<ellipse id="ellipse92" rx="0.300000" ry="0.150000" cx="-1000.000000" cy="-1000.000000" style="stroke-width:0.000000;fill:#44ccee;stroke:none;" transform="rotate(0.000000, -1000.000000, -1000.000000)"/>
<ellipse id="ellipse93" rx="0.300000" ry="0.150000" cx="-1000.000000" cy="-1000.000000" style="stroke-width:0.000000;fill:#44ccee;stroke:none;" transform="rotate(0.000000, -1000.000000, -1000.000000)"/>
<ellipse id="ellipse94" rx="0.300000" ry="0.150000" cx="-1000.000000" cy="-1000.000000" style="stroke-width:0.000000;fill:#44ccee;stroke:none;" transform="rotate(0.000000, -1000.000000, -1000.000000)"/>
<ellipse id="ellipse95" rx="0.300000" ry="0.150000" cx="-1000.000000" cy="-1000.000000" style="stroke-width:0.000000;fill:#44ccee;stroke:none;" transform="rotate(0.000000, -1000.000000, -1000.000000)"/>
<ellipse id="ellipse96" rx="0.300000" ry="0.150000" cx="-1000.000000" cy="-1000.000000" style="stroke-width:0.000000;fill:#44ccee;stroke:none;" transform="rotate(0.000000, -1000.000000, -1000.000000)"/>
<ellipse id="ellipse97" rx="0.300000" ry="0.150000" cx="-1000.000000" cy="-1000.000000" style="stroke-width:0.000000;fill:#44ccee;stroke:none;" transform="rotate(0.000000, -1000.000000, -1000.000000)"/>
<ellipse id="ellipse98" rx="0.300000" ry="0.150000" cx="-1000.000000" cy="-1000.000000" style="stroke-width:0.000000;fill:#44ccee;stroke:none;" transform="rotate(0.000000, -1000.000000, -1000.000000)"/>
<ellipse id="ellipse99" rx="0.300000" ry="0.150000" cx="-1000.000000" cy="-1000.000000" style="stroke-width:0.000000;fill:#44ccee;stroke:none;" transform="rotate(0.000000, -1000.000000, -1000.000000)"/>
<ellipse id="ellipse100" rx="0.300000" ry="0.150000" cx="-1000.000000" cy="-1000.000000" style="stroke-width:0.000000;fill:#44ccee;stroke:none;" transform="rotate(0.000000, -1000.000000, -1000.000000)"/>
<ellipse id="ellipse101" rx="0.300000" ry="0.150000" cx="-1000.000000" cy="-1000.000000" style="stroke-width:0.000000;fill:#44ccee;stroke:none;" transform="rotate(0.000000, -1000.000000, -1000.000000)"/>
<ellipse id="ellipse102" rx="0.300000" ry="0.150000" cx="-1000.000000" cy="-1000.000000" style="stroke-width:0.000000;fill:#44ccee;stroke:none;" transform="rotate(0.000000, -1000.000000, -1000.000000)"/>
<ellipse id="ellipse103" rx="0.300000" ry="0.150000" cx="-1000.000000" cy="-1000.000000" style="stroke-width:0.000000;fill:#44ccee;stroke:none;" transform="rotate(0.000000, -1000.000000, -1000.000000)"/>
<ellipse id="ellipse104" rx="0.300000" ry="0.150000" cx="-1000.000000" cy="-1000.000000" style="stroke-width:0.000000;fill:#44ccee;stroke:none;" transform="rotate(0.000000, -1000.000000, -1000.000000)"/>
<ellipse id="ellipse105" rx="0.300000" ry="0.150000" cx="-1000.000000" cy="-1000.000000" style="stroke-width:0.000000;fill:#44ccee;stroke:none;" transform="rotate(0.000000, -1000.000000, -1000.000000)"/>
<ellipse id="ellipse106" rx="0.300000" ry="0.150000" cx="-1000.000000" cy="-1000.000000" style="stroke-width:0.000000;fill:#44ccee;stroke:none;" transform="rotate(0.000000, -1000.000000, -1000.000000)"/>
<ellipse id="ellipse107" rx="0.300000" ry="0.150000" cx="-1000.000000" cy="-1000.000000" style="stroke-width:0.000000;fill:#44ccee;stroke:none;" transform="rotate(0.000000, -1000.000000, -1000.000000)"/>
<ellipse id="ellipse108" rx="0.300000" ry="0.150000" cx="-1000.000000" cy="-1000.000000" style="stroke-width:0.000000;fill:#44ccee;stroke:none;" transform="rotate(0.000000, -1000.000000, -1000.000000)"/>
<ellipse id="ellipse109" rx="0.300000" ry="0.150000" cx="-1000.000000" cy="-1000.000000" style="stroke-width:0.000000;fill:#44ccee;stroke:none;" transform="rotate(0.000000, -1000.000000, -1000.000000)"/>
<ellipse id="ellipse110" rx="0.300000" ry="0.150000" cx="-1000.000000" cy="-1000.000000" style="stroke-width:0.000000;fill:#44ccee;stroke:none;" transform="rotate(0.000000, -1000.000000, -1000.000000)"/>
<ellipse id="ellipse111" rx="0.300000" ry="0.150000" cx="-1000.000000" cy="-1000.000000" style="stroke-width:0.000000;fill:#44ccee;stroke:none;" transform="rotate(0.000000, -1000.000000, -1000.000000)"/>
<ellipse id="ellipse112" rx="0.300000" ry="0.150000" cx="-1000.000000" cy="-1000.000000" style="stroke-width:0.000000;fill:#44ccee;stroke:none;" transform="rotate(0.000000, -1000.000000, -1000.000000)"/>
<ellipse id="ellipse113" rx="0.300000" ry="0.150000" cx="-1000.000000" cy="-1000.000000" style="stroke-width:0.000000;fill:#44ccee;stroke:none;" transform="rotate(0.000000, -1000.000000, -1000.000000)"/>
<ellipse id="ellipse114" rx="0.300000" ry="0.150000" cx="-1000.000000" cy="-1000.000000" style="stroke-width:0.000000;fill:#44ccee;stroke:none;" transform="rotate(0.000000, -1000.000000, -1000.000000)"/>
<ellipse id="ellipse115" rx="0.300000" ry="0.150000" cx="-1000.000000" cy="-1000.000000" style="stroke-width:0.000000;fill:#44ccee;stroke:none;" transform="rotate(0.000000, -1000.000000, -1000.000000)"/>
<ellipse id="ellipse116" rx="0.300000" ry="0.150000" cx="-1000.000000" cy="-1000.000000" style="stroke-width:0.000000;fill:#44ccee;stroke:none;" transform="rotate(0.000000, -1000.000000, -1000.000000)"/>
<ellipse id="ellipse117" rx="0.300000" ry="0.150000" cx="-1000.000000" cy="-1000.000000" style="stroke-width:0.000000;fill:#44ccee;stroke:none;" transform="rotate(0.000000, -1000.000000, -1000.000000)"/>
<ellipse id="ellipse118" rx="0.300000" ry="0.150000" cx="-1000.000000" cy="-1000.000000" style="stroke-width:0.000000;fill:#44ccee;stroke:none;" transform="rotate(0.000000, -1000.000000, -1000.000000)"/>
<ellipse id="ellipse119" rx="0.300000" ry="0.150000" cx="-1000.000000" cy="-1000.000000" style="stroke-width:0.000000;fill:#44ccee;stroke:none;" transform="rotate(0.000000, -1000.000000, -1000.000000)"/>
<ellipse id="ellipse120" rx="0.300000" ry="0.150000" cx="-1000.000000" cy="-1000.000000" style="stroke-width:0.000000;fill:#44ccee;stroke:none;" transform="rotate(0.000000, -1000.000000, -1000.000000)"/>
<ellipse id="ellipse121" rx="0.300000" ry="0.150000" cx="-1000.000000" cy="-1000.000000" style="stroke-width:0.000000;fill:#44ccee;stroke:none;" transform="rotate(0.000000, -1000.000000, -1000.000000)"/>
<ellipse id="ellipse122" rx="0.300000" ry="0.150000" cx="-1000.000000" cy="-1000.000000" style="stroke-width:0.000000;fill:#44ccee;stroke:none;" transform="rotate(0.000000, -1000.000000, -1000.000000)"/>
<ellipse id="ellipse123" rx="0.300000" ry="0.150000" cx="-1000.000000" cy="-1000.000000" style="stroke-width:0.000000;fill:#44ccee;stroke:none;" transform="rotate(0.000000, -1000.000000, -1000.000000)"/>
<ellipse id="ellipse124" rx="0.300000" ry="0.150000" cx="-1000.000000" cy="-1000.000000" style="stroke-width:0.000000;fill:#44ccee;stroke:none;" transform="rotate(0.000000, -1000.000000, -1000.000000)"/>
<ellipse id="ellipse125" rx="0.300000" ry="0.150000" cx="-1000.000000" cy="-1000.000000" style="stroke-width:0.000000;fill:#44ccee;stroke:none;" transform="rotate(0.000000, -1000.000000, -1000.000000)"/>
<ellipse id="ellipse126" rx="0.300000" ry="0.150000" cx="-1000.000000" cy="-1000.000000" style="stroke-width:0.000000;fill:#44ccee;stroke:none;" transform="rotate(0.000000, -1000.000000, -1000.000000)"/>
<ellipse id="ellipse127" rx="0.300000" ry="0.150000" cx="-1000.000000" cy="-1000.000000" style="stroke-width:0.000000;fill:#44ccee;stroke:none;" transform="rotate(0.000000, -1000.000000, -1000.000000)"/>
<ellipse id="ellipse128" rx="0.300000" ry="0.150000" cx="-1000.000000" cy="-1000.000000" style="stroke-width:0.000000;fill:#44ccee;stroke:none;" transform="rotate(0.000000, -1000.000000, -1000.000000)"/>
<ellipse id="ellipse129" rx="0.300000" ry="0.150000" cx="-1000.000000" cy="-1000.000000" style="stroke-width:0.000000;fill:#44ccee;stroke:none;" transform="rotate(0.000000, -1000.000000, -1000.000000)"/>
<ellipse id="ellipse130" rx="0.300000" ry="0.150000" cx="-1000.000000" cy="-1000.000000" style="stroke-width:0.000000;fill:#44ccee;stroke:none;" transform="rotate(0.000000, -1000.000000, -1000.000000)"/>
<ellipse id="ellipse131" rx="0.300000" ry="0.150000" cx="-1000.000000" cy="-1000.000000" style="stroke-width:0.000000;fill:#44ccee;stroke:none;" transform="rotate(0.000000, -1000.000000, -1000.000000)"/>
<ellipse id="ellipse132" rx="0.300000" ry="0.150000" cx="-1000.000000" cy="-1000.000000" style="stroke-width:0.000000;fill:#44ccee;stroke:none;" transform="rotate(0.000000, -1000.000000, -1000.000000)"/>
<ellipse id="ellipse133" rx="0.300000" ry="0.150000" cx="-1000.000000" cy="-1000.000000" style="stroke-width:0.000000;fill:#44ccee;stroke:none;" transform="rotate(0.000000, -1000.000000, -1000.000000)"/>
<ellipse id="ellipse134" rx="0.300000" ry="0.150000" cx="-1000.000000" cy="-1000.000000" style="stroke-width:0.000000;fill:#44ccee;stroke:none;" transform="rotate(0.000000, -1000.000000, -1000.000000)"/>
<ellipse id="ellipse135" rx="0.300000" ry="0.150000" cx="-1000.000000" cy="-1000.000000" style="stroke-width:0.000000;fill:#44ccee;stroke:none;" transform="rotate(0.000000, -1000.000000, -1000.000000)"/>
<ellipse id="ellipse136" rx="0.300000" ry="0.150000" cx="-1000.000000" cy="-1000.000000" style="stroke-width:0.000000;fill:#44ccee;stroke:none;" transform="rotate(0.000000, -1000.000000, -1000.000000)"/>
<ellipse id="ellipse137" rx="0.300000" ry="0.150000" cx="-1000.000000" cy="-1000.000000" style="stroke-width:0.000000;fill:#44ccee;stroke:none;" transform="rotate(0.000000, -1000.000000, -1000.000000)"/>
<ellipse id="ellipse138" rx="0.300000" ry="0.150000" cx="-1000.000000" cy="-1000.000000" style="stroke-width:0.000000;fill:#44ccee;stroke:none;" transform="rotate(0.000000, -1000.000000, -1000.000000)"/>
<ellipse id="ellipse139" rx="0.300000" ry="0.150000" cx="-1000.000000" cy="-1000.000000" style="stroke-width:0.000000;fill:#44ccee;stroke:none;" transform="rotate(0.000000, -1000.000000, -1000.000000)"/>
<ellipse id="ellipse140" rx="0.300000" ry="0.150000" cx="-1000.000000" cy="-1000.000000" style="stroke-width:0.000000;fill:#44ccee;stroke:none;" transform="rotate(0.000000, -1000.000000, -1000.000000)"/>
<ellipse id="ellipse141" rx="0.300000" ry="0.150000" cx="-1000.000000" cy="-1000.000000" style="stroke-width:0.000000;fill:#44ccee;stroke:none;" transform="rotate(0.000000, -1000.000000, -1000.000000)"/>
<ellipse id="ellipse142" rx="0.300000" ry="0.150000" cx="-1000.000000" cy="-1000.000000" style="stroke-width:0.000000;fill:#44ccee;stroke:none;" transform="rotate(0.000000, -1000.000000, -1000.000000)"/>
<ellipse id="ellipse143" rx="0.300000" ry="0.150000" cx="-1000.000000" cy="-1000.000000" style="stroke-width:0.000000;fill:#44ccee;stroke:none;" transform="rotate(0.000000, -1000.000000, -1000.000000)"/>
<ellipse id="ellipse144" rx="0.300000" ry="0.150000" cx="-1000.000000" cy="-1000.000000" style="stroke-width:0.000000;fill:#44ccee;stroke:none;" transform="rotate(0.000000, -1000.000000, -1000.000000)"/>
<ellipse id="ellipse145" rx="0.300000" ry="0.150000" cx="-1000.000000" cy="-1000.000000" style="stroke-width:0.000000;fill:#44ccee;stroke:none;" transform="rotate(0.000000, -1000.000000, -1000.000000)"/>
<ellipse id="ellipse146" rx="0.300000" ry="0.150000" cx="-1000.000000" cy="-1000.000000" style="stroke-width:0.000000;fill:#44ccee;stroke:none;" transform="rotate(0.000000, -1000.000000, -1000.000000)"/>
<ellipse id="ellipse147" rx="0.300000" ry="0.150000" cx="-1000.000000" cy="-1000.000000" style="stroke-width:0.000000;fill:#44ccee;stroke:none;" transform="rotate(0.000000, -1000.000000, -1000.000000)"/>
<ellipse id="ellipse148" rx="0.300000" ry="0.150000" cx="-1000.000000" cy="-1000.000000" style="stroke-width:0.000000;fill:#44ccee;stroke:none;" transform="rotate(0.000000, -1000.000000, -1000.000000)"/>
<ellipse id="ellipse149" rx="0.300000" ry="0.150000" cx="-1000.000000" cy="-1000.000000" style="stroke-width:0.000000;fill:#44ccee;stroke:none;" transform="rotate(0.000000, -1000.000000, -1000.000000)"/>
<ellipse id="ellipse150" rx="0.300000" ry="0.150000" cx="-1000.000000" cy="-1000.000000" style="stroke-width:0.000000;fill:#44ccee;stroke:none;" transform="rotate(0.000000, -1000.000000, -1000.000000)"/>
<ellipse id="ellipse151" rx="0.300000" ry="0.150000" cx="-1.558858" cy="2.754413" style="stroke-width:0.000000;fill:#44ccee;stroke:none;" transform="rotate(-2.884335, -1.558858, 2.754413)"/>
<ellipse id="ellipse152" rx="0.300000" ry="0.150000" cx="-1000.000000" cy="-1000.000000" style="stroke-width:0.000000;fill:#44ccee;stroke:none;" transform="rotate(0.000000, -1000.000000, -1000.000000)"/>
<ellipse id="ellipse153" rx="0.300000" ry="0.150000" cx="-1000.000000" cy="-1000.000000" style="stroke-width:0.000000;fill:#44ccee;stroke:none;" transform="rotate(0.000000, -1000.000000, -1000.000000)"/>
<ellipse id="ellipse154" rx="0.300000" ry="0.150000" cx="-1000.000000" cy="-1000.000000" style="stroke-width:0.000000;fill:#44ccee;stroke:none;" transform="rotate(0.000000, -1000.000000, -1000.000000)"/>
<ellipse id="ellipse155" rx="0.300000" ry="0.150000" cx="-1000.000000" cy="-1000.000000" style="stroke-width:0.000000;fill:#44ccee;stroke:none;" transform="rotate(0.000000, -1000.000000, -1000.000000)"/>
<ellipse id="ellipse156" rx="0.300000" ry="0.150000" cx="-1000.000000" cy="-1000.000000" style="stroke-width:0.000000;fill:#44ccee;stroke:none;" transform="rotate(0.000000, -1000.000000, -1000.000000)"/>
<ellipse id="ellipse157" rx="0.300000" ry="0.150000" cx="-1000.000000" cy="-1000.000000" style="stroke-width:0.000000;fill:#44ccee;stroke:none;" transform="rotate(0.000000, -1000.000000, -1000.000000)"/>
<ellipse id="ellipse158" rx="0.300000" ry="0.150000" cx="-1000.000000" cy="-1000.000000" style="stroke-width:0.000000;fill:#44ccee;stroke:none;" transform="rotate(0.000000, -1000.000000, -1000.000000)"/>
<ellipse id="ellipse159" rx="0.300000" ry="0.150000" cx="-1000.000000" cy="-1000.000000" style="stroke-width:0.000000;fill:#44ccee;stroke:none;" transform="rotate(0.000000, -1000.000000, -1000.000000)"/>
<ellipse id="ellipse160" rx="0.300000" ry="0.150000" cx="-1000.000000" cy="-1000.000000" style="stroke-width:0.000000;fill:#44ccee;stroke:none;" transform="rotate(0.000000, -1000.000000, -1000.000000)"/>
<ellipse id="ellipse161" rx="0.300000" ry="0.150000" cx="-1000.000000" cy="-1000.000000" style="stroke-width:0.000000;fill:#44ccee;stroke:none;" transform="rotate(0.000000, -1000.000000, -1000.000000)"/>
<ellipse id="ellipse162" rx="0.300000" ry="0.150000" cx="-1000.000000" cy="-1000.000000" style="stroke-width:0.000000;fill:#44ccee;stroke:none;" transform="rotate(0.000000, -1000.000000, -1000.000000)"/>
<ellipse id="ellipse163" rx="0.300000" ry="0.150000" cx="-1000.000000" cy="-1000.000000" style="stroke-width:0.000000;fill:#44ccee;stroke:none;" transform="rotate(0.000000, -1000.000000, -1000.000000)"/>
<ellipse id="ellipse164" rx="0.300000" ry="0.150000" cx="-1000.000000" cy="-1000.000000" style="stroke-width:0.000000;fill:#44ccee;stroke:none;" transform="rotate(0.000000, -1000.000000, -1000.000000)"/>
<ellipse id="ellipse165" rx="0.300000" ry="0.150000" cx="-1000.000000" cy="-1000.000000" style="stroke-width:0.000000;fill:#44ccee;stroke:none;" transform="rotate(0.000000, -1000.000000, -1000.000000)"/>
<ellipse id="ellipse166" rx="0.300000" ry="0.150000" cx="-1000.000000" cy="-1000.000000" style="stroke-width:0.000000;fill:#44ccee;stroke:none;" transform="rotate(0.000000, -1000.000000, -1000.000000)"/>
<ellipse id="ellipse167" rx="0.300000" ry="0.150000" cx="-1000.000000" cy="-1000.000000" style="stroke-width:0.000000;fill:#44ccee;stroke:none;" transform="rotate(0.000000, -1000.000000, -1000.000000)"/>
<ellipse id="ellipse168" rx="0.300000" ry="0.150000" cx="-1000.000000" cy="-1000.000000" style="stroke-width:0.000000;fill:#44ccee;stroke:none;" transform="rotate(0.000000, -1000.000000, -1000.000000)"/>
<ellipse id="ellipse169" rx="0.300000" ry="0.150000" cx="-1000.000000" cy="-1000.000000" style="stroke-width:0.000000;fill:#44ccee;stroke:none;" transform="rotate(0.000000, -1000.000000, -1000.000000)"/>
<ellipse id="ellipse170" rx="0.300000" ry="0.150000" cx="-1000.000000" cy="-1000.000000" style="stroke-width:0.000000;fill:#44ccee;stroke:none;" transform="rotate(0.000000, -1000.000000, -1000.000000)"/>
<ellipse id="ellipse171" rx="0.300000" ry="0.150000" cx="-1000.000000" cy="-1000.000000" style="stroke-width:0.000000;fill:#44ccee;stroke:none;" transform="rotate(0.000000, -1000.000000, -1000.000000)"/>
<ellipse id="ellipse172" rx="0.300000" ry="0.150000" cx="-1000.000000" cy="-1000.000000" style="stroke-width:0.000000;fill:#44ccee;stroke:none;" transform="rotate(0.000000, -1000.000000, -1000.000000)"/>
<ellipse id="ellipse173" rx="0.300000" ry="0.150000" cx="-1000.000000" cy="-1000.000000" style="stroke-width:0.000000;fill:#44ccee;stroke:none;" transform="rotate(0.000000, -1000.000000, -1000.000000)"/>
<ellipse id="ellipse174" rx="0.300000" ry="0.150000" cx="-1000.000000" cy="-1000.000000" style="stroke-width:0.000000;fill:#44ccee;stroke:none;" transform="rotate(0.000000, -1000.000000, -1000.000000)"/>
<ellipse id="ellipse175" rx="0.300000" ry="0.150000" cx="-1000.000000" cy="-1000.000000" style="stroke-width:0.000000;fill:#44ccee;stroke:none;" transform="rotate(0.000000, -1000.000000, -1000.000000)"/>
<ellipse id="ellipse176" rx="0.300000" ry="0.150000" cx="-1000.000000" cy="-1000.000000" style="stroke-width:0.000000;fill:#44ccee;stroke:none;" transform="rotate(0.000000, -1000.000000, -1000.000000)"/>
<ellipse id="ellipse177" rx="0.300000" ry="0.150000" cx="-1000.000000" cy="-1000.000000" style="stroke-width:0.000000;fill:#44ccee;stroke:none;" transform="rotate(0.000000, -1000.000000, -1000.000000)"/>
<ellipse id="ellipse178" rx="0.300000" ry="0.150000" cx="-0.755848" cy="-1.447687" style="stroke-width:0.000000;fill:#44ccee;stroke:none;" transform="rotate(0.000000, -0.755848, -1.447687)"/>
<ellipse id="ellipse179" rx="0.300000" ry="0.150000" cx="-1000.000000" cy="-1000.000000" style="stroke-width:0.000000;fill:#44ccee;stroke:none;" transform="rotate(0.000000, -1000.000000, -1000.000000)"/>
<ellipse id="ellipse180" rx="0.300000" ry="0.150000" cx="-1000.000000" cy="-1000.000000" style="stroke-width:0.000000;fill:#44ccee;stroke:none;" transform="rotate(0.000000, -1000.000000, -1000.000000)"/>
<ellipse id="ellipse181" rx="0.300000" ry="0.150000" cx="-1000.000000" cy="-1000.000000" style="stroke-width:0.000000;fill:#44ccee;stroke:none;" transform="rotate(0.000000, -1000.000000, -1000.000000)"/>
<ellipse id="ellipse182" rx="0.300000" ry="0.150000" cx="-1000.000000" cy="-1000.000000" style="stroke-width:0.000000;fill:#44ccee;stroke:none;" transform="rotate(0.000000, -1000.000000, -1000.000000)"/>
<ellipse id="ellipse183" rx="0.300000" ry="0.150000" cx="-1000.000000" cy="-1000.000000" style="stroke-width:0.000000;fill:#44ccee;stroke:none;" transform="rotate(0.000000, -1000.000000, -1000.000000)"/>
<ellipse id="ellipse184" rx="0.300000" ry="0.150000" cx="-1000.000000" cy="-1000.000000" style="stroke-width:0.000000;fill:#44ccee;stroke:none;" transform="rotate(0.000000, -1000.000000, -1000.000000)"/>
<ellipse id="ellipse185" rx="0.300000" ry="0.150000" cx="-1000.000000" cy="-1000.000000" style="stroke-width:0.000000;fill:#44ccee;stroke:none;" transform="rotate(0.000000, -1000.000000, -1000.000000)"/>
<ellipse id="ellipse186" rx="0.300000" ry="0.150000" cx="-1000.000000" cy="-1000.000000" style="stroke-width:0.000000;fill:#44ccee;stroke:none;" transform="rotate(0.000000, -1000.000000, -1000.000000)"/>
<ellipse id="ellipse187" rx="0.300000" ry="0.150000" cx="-1000.000000" cy="-1000.000000" style="stroke-width:0.000000;fill:#44ccee;stroke:none;" transform="rotate(0.000000, -1000.000000, -1000.000000)"/>
<ellipse id="ellipse188" rx="0.300000" ry="0.150000" cx="-1000.000000" cy="-1000.000000" style="stroke-width:0.000000;fill:#44ccee;stroke:none;" transform="rotate(0.000000, -1000.000000, -1000.000000)"/>
<ellipse id="ellipse189" rx="0.300000" ry="0.150000" cx="-1000.000000" cy="-1000.000000" style="stroke-width:0.000000;fill:#44ccee;stroke:none;" transform="rotate(0.000000, -1000.000000, -1000.000000)"/>
<ellipse id="ellipse190" rx="0.300000" ry="0.150000" cx="-1000.000000" cy="-1000.000000" style="stroke-width:0.000000;fill:#44ccee;stroke:none;" transform="rotate(0.000000, -1000.000000, -1000.000000)"/>
<ellipse id="ellipse191" rx="0.300000" ry="0.150000" cx="-1000.000000" cy="-1000.000000" style="stroke-width:0.000000;fill:#44ccee;stroke:none;" transform="rotate(0.000000, -1000.000000, -1000.000000)"/>
<ellipse id="ellipse192" rx="0.300000" ry="0.150000" cx="-1000.000000" cy="-1000.000000" style="stroke-width:0.000000;fill:#44ccee;stroke:none;" transform="rotate(0.000000, -1000.000000, -1000.000000)"/>
<ellipse id="ellipse193" rx="0.300000" ry="0.150000" cx="-1000.000000" cy="-1000.000000" style="stroke-width:0.000000;fill:#44ccee;stroke:none;" transform="rotate(0.000000, -1000.000000, -1000.000000)"/>
<ellipse id="ellipse194" rx="0.300000" ry="0.150000" cx="-1000.000000" cy="-1000.000000" style="stroke-width:0.000000;fill:#44ccee;stroke:none;" transform="rotate(0.000000, -1000.000000, -1000.000000)"/>
<ellipse id="ellipse195" rx="0.300000" ry="0.150000" cx="-1000.000000" cy="-1000.000000" style="stroke-width:0.000000;fill:#44ccee;stroke:none;" transform="rotate(0.000000, -1000.000000, -1000.000000)"/>
<ellipse id="ellipse196" rx="0.300000" ry="0.150000" cx="-1000.000000" cy="-1000.000000" style="stroke-width:0.000000;fill:#44ccee;stroke:none;" transform="rotate(0.000000, -1000.000000, -1000.000000)"/>
<ellipse id="ellipse197" rx="0.300000" ry="0.150000" cx="-1000.000000" cy="-1000.000000" style="stroke-width:0.000000;fill:#44ccee;stroke:none;" transform="rotate(0.000000, -1000.000000, -1000.000000)"/>
<ellipse id="ellipse198" rx="0.300000" ry="0.150000" cx="-1000.000000" cy="-1000.000000" style="stroke-width:0.000000;fill:#44ccee;stroke:none;" transform="rotate(0.000000, -1000.000000, -1000.000000)"/>
<ellipse id="ellipse199" rx="0.300000" ry="0.150000" cx="-1000.000000" cy="-1000.000000" style="stroke-width:0.000000;fill:#44ccee;stroke:none;" transform="rotate(0.000000, -1000.000000, -1000.000000)"/>
<ellipse id="ellipse200" rx="0.300000" ry="0.150000" cx="-1000.000000" cy="-1000.000000" style="stroke-width:0.000000;fill:#44ccee;stroke:none;" transform="rotate(0.000000, -1000.000000, -1000.000000)"/>
<ellipse id="ellipse201" rx="0.300000" ry="0.150000" cx="-1000.000000" cy="-1000.000000" style="stroke-width:0.000000;fill:#44ccee;stroke:none;" transform="rotate(0.000000, -1000.000000, -1000.000000)"/>
<ellipse id="ellipse202" rx="0.300000" ry="0.150000" cx="-1000.000000" cy="-1000.000000" style="stroke-width:0.000000;fill:#44ccee;stroke:none;" transform="rotate(0.000000, -1000.000000, -1000.000000)"/>
<ellipse id="ellipse203" rx="0.300000" ry="0.150000" cx="-1000.000000" cy="-1000.000000" style="stroke-width:0.000000;fill:#44ccee;stroke:none;" transform="rotate(0.000000, -1000.000000, -1000.000000)"/>
<ellipse id="ellipse204" rx="0.300000" ry="0.150000" cx="-1000.000000" cy="-1000.000000" style="stroke-width:0.000000;fill:#44ccee;stroke:none;" transform="rotate(0.000000, -1000.000000, -1000.000000)"/>
<ellipse id="ellipse205" rx="0.300000" ry="0.150000" cx="-1000.000000" cy="-1000.000000" style="stroke-width:0.000000;fill:#44ccee;stroke:none;" transform="rotate(0.000000, -1000.000000, -1000.000000)"/>
<ellipse id="ellipse206" rx="0.300000" ry="0.150000" cx="-1000.000000" cy="-1000.000000" style="stroke-width:0.000000;fill:#44ccee;stroke:none;" transform="rotate(0.000000, -1000.000000, -1000.000000)"/>
<ellipse id="ellipse207" rx="0.300000" ry="0.150000" cx="-1000.000000" cy="-1000.000000" style="stroke-width:0.000000;fill:#44ccee;stroke:none;" transform="rotate(0.000000, -1000.000000, -1000.000000)"/>
<ellipse id="ellipse208" rx="0.300000" ry="0.150000" cx="-1000.000000" cy="-1000.000000" style="stroke-width:0.000000;fill:#44ccee;stroke:none;" transform="rotate(0.000000, -1000.000000, -1000.000000)"/>
<ellipse id="ellipse209" rx="0.300000" ry="0.150000" cx="-1000.000000" cy="-1000.000000" style="stroke-width:0.000000;fill:#44ccee;stroke:none;" transform="rotate(0.000000, -1000.000000, -1000.000000)"/>
<ellipse id="ellipse210" rx="0.300000" ry="0.150000" cx="-1000.000000" cy="-1000.000000" style="stroke-width:0.000000;fill:#44ccee;stroke:none;" transform="rotate(0.000000, -1000.000000, -1000.000000)"/>
<ellipse id="ellipse211" rx="0.300000" ry="0.150000" cx="-1000.000000" cy="-1000.000000" style="stroke-width:0.000000;fill:#44ccee;stroke:none;" transform="rotate(0.000000, -1000.000000, -1000.000000)"/>
<ellipse id="ellipse212" rx="0.300000" ry="0.150000" cx="-1000.000000" cy="-1000.000000" style="stroke-width:0.000000;fill:#44ccee;stroke:none;" transform="rotate(0.000000, -1000.000000, -1000.000000)"/>
<ellipse id="ellipse213" rx="0.300000" ry="0.150000" cx="-1000.000000" cy="-1000.000000" style="stroke-width:0.000000;fill:#44ccee;stroke:none;" transform="rotate(0.000000, -1000.000000, -1000.000000)"/>
<ellipse id="ellipse214" rx="0.300000" ry="0.150000" cx="-1000.000000" cy="-1000.000000" style="stroke-width:0.000000;fill:#44ccee;stroke:none;" transform="rotate(0.000000, -1000.000000, -1000.000000)"/>
<ellipse id="ellipse215" rx="0.300000" ry="0.150000" cx="-1000.000000" cy="-1000.000000" style="stroke-width:0.000000;fill:#44ccee;stroke:none;" transform="rotate(0.000000, -1000.000000, -1000.000000)"/>
<ellipse id="ellipse216" rx="0.300000" ry="0.150000" cx="-1000.000000" cy="-1000.000000" style="stroke-width:0.000000;fill:#44ccee;stroke:none;" transform="rotate(0.000000, -1000.000000, -1000.000000)"/>
<ellipse id="ellipse217" rx="0.300000" ry="0.150000" cx="-1000.000000" cy="-1000.000000" style="stroke-width:0.000000;fill:#44ccee;stroke:none;" transform="rotate(0.000000, -1000.000000, -1000.000000)"/>
<ellipse id="ellipse218" rx="0.300000" ry="0.150000" cx="-1000.000000" cy="-1000.000000" style="stroke-width:0.000000;fill:#44ccee;stroke:none;" transform="rotate(0.000000, -1000.000000, -1000.000000)"/>
<ellipse id="ellipse219" rx="0.300000" ry="0.150000" cx="-1000.000000" cy="-1000.000000" style="stroke-width:0.000000;fill:#44ccee;stroke:none;" transform="rotate(0.000000, -1000.000000, -1000.000000)"/>
<ellipse id="ellipse220" rx="0.300000" ry="0.150000" cx="-1000.000000" cy="-1000.000000" style="stroke-width:0.000000;fill:#44ccee;stroke:none;" transform="rotate(0.000000, -1000.000000, -1000.000000)"/>
<ellipse id="ellipse221" rx="0.300000" ry="0.150000" cx="-1000.000000" cy="-1000.000000" style="stroke-width:0.000000;fill:#44ccee;stroke:none;" transform="rotate(0.000000, -1000.000000, -1000.000000)"/>
<ellipse id="ellipse222" rx="0.300000" ry="0.150000" cx="-1000.000000" cy="-1000.000000" style="stroke-width:0.000000;fill:#44ccee;stroke:none;" transform="rotate(0.000000, -1000.000000, -1000.000000)"/>
<ellipse id="ellipse223" rx="0.300000" ry="0.150000" cx="-1000.000000" cy="-1000.000000" style="stroke-width:0.000000;fill:#44ccee;stroke:none;" transform="rotate(0.000000, -1000.000000, -1000.000000)"/>
<ellipse id="ellipse224" rx="0.300000" ry="0.150000" cx="-1000.000000" cy="-1000.000000" style="stroke-width:0.000000;fill:#44ccee;stroke:none;" transform="rotate(0.000000, -1000.000000, -1000.000000)"/>
<ellipse id="ellipse225" rx="0.300000" ry="0.150000" cx="-1000.000000" cy="-1000.000000" style="stroke-width:0.000000;fill:#44ccee;stroke:none;" transform="rotate(0.000000, -1000.000000, -1000.000000)"/>
<ellipse id="ellipse226" rx="0.300000" ry="0.150000" cx="-1000.000000" cy="-1000.000000" style="stroke-width:0.000000;fill:#44ccee;stroke:none;" transform="rotate(0.000000, -1000.000000, -1000.000000)"/>
<ellipse id="ellipse227" rx="0.300000" ry="0.150000" cx="-1000.000000" cy="-1000.000000" style="stroke-width:0.000000;fill:#44ccee;stroke:none;" transform="rotate(0.000000, -1000.000000, -1000.000000)"/>
<ellipse id="ellipse228" rx="0.300000" ry="0.150000" cx="-1000.000000" cy="-1000.000000" style="stroke-width:0.000000;fill:#44ccee;stroke:none;" transform="rotate(0.000000, -1000.000000, -1000.000000)"/>
<ellipse id="ellipse229" rx="0.300000" ry="0.150000" cx="-1000.000000" cy="-1000.000000" style="stroke-width:0.000000;fill:#44ccee;stroke:none;" transform="rotate(0.000000, -1000.000000, -1000.000000)"/>
<ellipse id="ellipse230" rx="0.300000" ry="0.150000" cx="-1000.000000" cy="-1000.000000" style="stroke-width:0.000000;fill:#44ccee;stroke:none;" transform="rotate(0.000000, -1000.000000, -1000.000000)"/>
<ellipse id="ellipse231" rx="0.300000" ry="0.150000" cx="-1000.000000" cy="-1000.000000" style="stroke-width:0.000000;fill:#44ccee;stroke:none;" transform="rotate(0.000000, -1000.000000, -1000.000000)"/>
<ellipse id="ellipse232" rx="0.300000" ry="0.150000" cx="-1000.000000" cy="-1000.000000" style="stroke-width:0.000000;fill:#44ccee;stroke:none;" transform="rotate(0.000000, -1000.000000, -1000.000000)"/>
<ellipse id="ellipse233" rx="0.300000" ry="0.150000" cx="-1000.000000" cy="-1000.000000" style="stroke-width:0.000000;fill:#44ccee;stroke:none;" transform="rotate(0.000000, -1000.000000, -1000.000000)"/>
<ellipse id="ellipse234" rx="0.300000" ry="0.150000" cx="-1000.000000" cy="-1000.000000" style="stroke-width:0.000000;fill:#44ccee;stroke:none;" transform="rotate(0.000000, -1000.000000, -1000.000000)"/>
<ellipse id="ellipse235" rx="0.300000" ry="0.150000" cx="-1000.000000" cy="-1000.000000" style="stroke-width:0.000000;fill:#44ccee;stroke:none;" transform="rotate(0.000000, -1000.000000, -1000.000000)"/>
<ellipse id="ellipse236" rx="0.300000" ry="0.150000" cx="-1000.000000" cy="-1000.000000" style="stroke-width:0.000000;fill:#44ccee;stroke:none;" transform="rotate(0.000000, -1000.000000, -1000.000000)"/>
<ellipse id="ellipse237" rx="0.300000" ry="0.150000" cx="-1000.000000" cy="-1000.000000" style="stroke-width:0.000000;fill:#44ccee;stroke:none;" transform="rotate(0.000000, -1000.000000, -1000.000000)"/>
<ellipse id="ellipse238" rx="0.300000" ry="0.150000" cx="-1000.000000" cy="-1000.000000" style="stroke-width:0.000000;fill:#44ccee;stroke:none;" transform="rotate(0.000000, -1000.000000, -1000.000000)"/>
<ellipse id="ellipse239" rx="0.300000" ry="0.150000" cx="-1000.000000" cy="-1000.000000" style="stroke-width:0.000000;fill:#44ccee;stroke:none;" transform="rotate(0.000000, -1000.000000, -1000.000000)"/>
<ellipse id="ellipse240" rx="0.300000" ry="0.150000" cx="-1000.000000" cy="-1000.000000" style="stroke-width:0.000000;fill:#44ccee;stroke:none;" transform="rotate(0.000000, -1000.000000, -1000.000000)"/>
<ellipse id="ellipse241" rx="0.300000" ry="0.150000" cx="-1000.000000" cy="-1000.000000" style="stroke-width:0.000000;fill:#44ccee;stroke:none;" transform="rotate(0.000000, -1000.000000, -1000.000000)"/>
<ellipse id="ellipse242" rx="0.300000" ry="0.150000" cx="-1000.000000" cy="-1000.000000" style="stroke-width:0.000000;fill:#44ccee;stroke:none;" transform="rotate(0.000000, -1000.000000, -1000.000000)"/>
<ellipse id="ellipse243" rx="0.300000" ry="0.150000" cx="-1000.000000" cy="-1000.000000" style="stroke-width:0.000000;fill:#44ccee;stroke:none;" transform="rotate(0.000000, -1000.000000, -1000.000000)"/>
<ellipse id="ellipse244" rx="0.300000" ry="0.150000" cx="-1000.000000" cy="-1000.000000" style="stroke-width:0.000000;fill:#44ccee;stroke:none;" transform="rotate(0.000000, -1000.000000, -1000.000000)"/>
<ellipse id="ellipse245" rx="0.300000" ry="0.150000" cx="-1000.000000" cy="-1000.000000" style="stroke-width:0.000000;fill:#44ccee;stroke:none;" transform="rotate(0.000000, -1000.000000, -1000.000000)"/>
<ellipse id="ellipse246" rx="0.300000" ry="0.150000" cx="-1000.000000" cy="-1000.000000" style="stroke-width:0.000000;fill:#44ccee;stroke:none;" transform="rotate(0.000000, -1000.000000, -1000.000000)"/>
<ellipse id="ellipse247" rx="0.300000" ry="0.150000" cx="-1000.000000" cy="-1000.000000" style="stroke-width:0.000000;fill:#44ccee;stroke:none;" transform="rotate(0.000000, -1000.000000, -1000.000000)"/>
<ellipse id="ellipse248" rx="0.300000" ry="0.150000" cx="-1000.000000" cy="-1000.000000" style="stroke-width:0.000000;fill:#44ccee;stroke:none;" transform="rotate(0.000000, -1000.000000, -1000.000000)"/>
<ellipse id="ellipse249" rx="0.300000" ry="0.150000" cx="-1000.000000" cy="-1000.000000" style="stroke-width:0.000000;fill:#44ccee;stroke:none;" transform="rotate(0.000000, -1000.000000, -1000.000000)"/>
<ellipse id="ellipse250" rx="0.300000" ry="0.150000" cx="-1000.000000" cy="-1000.000000" style="stroke-width:0.000000;fill:#44ccee;stroke:none;" transform="rotate(0.000000, -1000.000000, -1000.000000)"/>
<ellipse id="ellipse251" rx="0.300000" ry="0.150000" cx="-1000.000000" cy="-1000.000000" style="stroke-width:0.000000;fill:#44ccee;stroke:none;" transform="rotate(0.000000, -1000.000000, -1000.000000)"/>
<ellipse id="ellipse252" rx="0.300000" ry="0.150000" cx="-1000.000000" cy="-1000.000000" style="stroke-width:0.000000;fill:#44ccee;stroke:none;" transform="rotate(0.000000, -1000.000000, -1000.000000)"/>
<ellipse id="ellipse253" rx="0.300000" ry="0.150000" cx="-1000.000000" cy="-1000.000000" style="stroke-width:0.000000;fill:#44ccee;stroke:none;" transform="rotate(0.000000, -1000.000000, -1000.000000)"/>
<ellipse id="ellipse254" rx="0.300000" ry="0.150000" cx="-1000.000000" cy="-1000.000000" style="stroke-width:0.000000;fill:#44ccee;stroke:none;" transform="rotate(0.000000, -1000.000000, -1000.000000)"/>
<ellipse id="ellipse255" rx="0.300000" ry="0.150000" cx="-1000.000000" cy="-1000.000000" style="stroke-width:0.000000;fill:#44ccee;stroke:none;" transform="rotate(0.000000, -1000.000000, -1000.000000)"/>
<ellipse id="ellipse256" rx="0.300000" ry="0.150000" cx="-1000.000000" cy="-1000.000000" style="stroke-width:0.000000;fill:#44ccee;stroke:none;" transform="rotate(0.000000, -1000.000000, -1000.000000)"/>
<ellipse id="ellipse257" rx="0.300000" ry="0.150000" cx="0.927584" cy="-1.585502" style="stroke-width:0.000000;fill:#44ccee;stroke:none;" transform="rotate(0.000000, 0.927584, -1.585502)"/>
<ellipse id="ellipse258" rx="0.300000" ry="0.150000" cx="-1000.000000" cy="-1000.000000" style="stroke-width:0.000000;fill:#44ccee;stroke:none;" transform="rotate(0.000000, -1000.000000, -1000.000000)"/>
<ellipse id="ellipse259" rx="0.300000" ry="0.150000" cx="-1000.000000" cy="-1000.000000" style="stroke-width:0.000000;fill:#44ccee;stroke:none;" transform="rotate(0.000000, -1000.000000, -1000.000000)"/>
<ellipse id="ellipse260" rx="0.300000" ry="0.150000" cx="-1000.000000" cy="-1000.000000" style="stroke-width:0.000000;fill:#44ccee;stroke:none;" transform="rotate(0.000000, -1000.000000, -1000.000000)"/>
<ellipse id="ellipse261" rx="0.300000" ry="0.150000" cx="-1000.000000" cy="-1000.000000" style="stroke-width:0.000000;fill:#44ccee;stroke:none;" transform="rotate(0.000000, -1000.000000, -1000.000000)"/>
<ellipse id="ellipse262" rx="0.300000" ry="0.150000" cx="-1000.000000" cy="-1000.000000" style="stroke-width:0.000000;fill:#44ccee;stroke:none;" transform="rotate(0.000000, -1000.000000, -1000.000000)"/>
<ellipse id="ellipse263" rx="0.300000" ry="0.150000" cx="-1000.000000" cy="-1000.000000" style="stroke-width:0.000000;fill:#44ccee;stroke:none;" transform="rotate(0.000000, -1000.000000, -1000.000000)"/>
<ellipse id="ellipse264" rx="0.300000" ry="0.150000" cx="-1000.000000" cy="-1000.000000" style="stroke-width:0.000000;fill:#44ccee;stroke:none;" transform="rotate(0.000000, -1000.000000, -1000.000000)"/>
<ellipse id="ellipse265" rx="0.300000" ry="0.150000" cx="-1000.000000" cy="-1000.000000" style="stroke-width:0.000000;fill:#44ccee;stroke:none;" transform="rotate(0.000000, -1000.000000, -1000.000000)"/>
<ellipse id="ellipse266" rx="0.300000" ry="0.150000" cx="-1000.000000" cy="-1000.000000" style="stroke-width:0.000000;fill:#44ccee;stroke:none;" transform="rotate(0.000000, -1000.000000, -1000.000000)"/>
<ellipse id="ellipse267" rx="0.300000" ry="0.150000" cx="-1000.000000" cy="-1000.000000" style="stroke-width:0.000000;fill:#44ccee;stroke:none;" transform="rotate(0.000000, -1000.000000, -1000.000000)"/>
<ellipse id="ellipse268" rx="0.300000" ry="0.150000" cx="-1000.000000" cy="-1000.000000" style="stroke-width:0.000000;fill:#44ccee;stroke:none;" transform="rotate(0.000000, -1000.000000, -1000.000000)"/>
<ellipse id="ellipse269" rx="0.300000" ry="0.150000" cx="-1000.000000" cy="-1000.000000" style="stroke-width:0.000000;fill:#44ccee;stroke:none;" transform="rotate(0.000000, -1000.000000, -1000.000000)"/>
<ellipse id="ellipse270" rx="0.300000" ry="0.150000" cx="-1000.000000" cy="-1000.000000" style="stroke-width:0.000000;fill:#44ccee;stroke:none;" transform="rotate(0.000000, -1000.000000, -1000.000000)"/>
<ellipse id="ellipse271" rx="0.300000" ry="0.150000" cx="-1000.000000" cy="-1000.000000" style="stroke-width:0.000000;fill:#44ccee;stroke:none;" transform="rotate(0.000000, -1000.000000, -1000.000000)"/>
<ellipse id="ellipse272" rx="0.300000" ry="0.150000" cx="-1000.000000" cy="-1000.000000" style="stroke-width:0.000000;fill:#44ccee;stroke:none;" transform="rotate(0.000000, -1000.000000, -1000.000000)"/>
<ellipse id="ellipse273" rx="0.300000" ry="0.150000" cx="-1000.000000" cy="-1000.000000" style="stroke-width:0.000000;fill:#44ccee;stroke:none;" transform="rotate(0.000000, -1000.000000, -1000.000000)"/>
<ellipse id="ellipse274" rx="0.300000" ry="0.150000" cx="-1000.000000" cy="-1000.000000" style="stroke-width:0.000000;fill:#44ccee;stroke:none;" transform="rotate(0.000000, -1000.000000, -1000.000000)"/>
<ellipse id="ellipse275" rx="0.300000" ry="0.150000" cx="-1000.000000" cy="-1000.000000" style="stroke-width:0.000000;fill:#44ccee;stroke:none;" transform="rotate(0.000000, -1000.000000, -1000.000000)"/>
<ellipse id="ellipse276" rx="0.300000" ry="0.150000" cx="-1000.000000" cy="-1000.000000" style="stroke-width:0.000000;fill:#44ccee;stroke:none;" transform="rotate(0.000000, -1000.000000, -1000.000000)"/>
<ellipse id="ellipse277" rx="0.300000" ry="0.150000" cx="-1000.000000" cy="-1000.000000" style="stroke-width:0.000000;fill:#44ccee;stroke:none;" transform="rotate(0.000000, -1000.000000, -1000.000000)"/>
<ellipse id="ellipse278" rx="0.300000" ry="0.150000" cx="-1000.000000" cy="-1000.000000" style="stroke-width:0.000000;fill:#44ccee;stroke:none;" transform="rotate(0.000000, -1000.000000, -1000.000000)"/>
<ellipse id="ellipse279" rx="0.300000" ry="0.150000" cx="-1000.000000" cy="-1000.000000" style="stroke-width:0.000000;fill:#44ccee;stroke:none;" transform="rotate(0.000000, -1000.000000, -1000.000000)"/>
<ellipse id="ellipse280" rx="0.300000" ry="0.150000" cx="-1000.000000" cy="-1000.000000" style="stroke-width:0.000000;fill:#44ccee;stroke:none;" transform="rotate(0.000000, -1000.000000, -1000.000000)"/>
<ellipse id="ellipse281" rx="0.300000" ry="0.150000" cx="-1000.000000" cy="-1000.000000" style="stroke-width:0.000000;fill:#44ccee;stroke:none;" transform="rotate(0.000000, -1000.000000, -1000.000000)"/>
<ellipse id="ellipse282" rx="0.300000" ry="0.150000" cx="-1000.000000" cy="-1000.000000" style="stroke-width:0.000000;fill:#44ccee;stroke:none;" transform="rotate(0.000000, -1000.000000, -1000.000000)"/>
<ellipse id="ellipse283" rx="0.300000" ry="0.150000" cx="-1000.000000" cy="-1000.000000" style="stroke-width:0.000000;fill:#44ccee;stroke:none;" transform="rotate(0.000000, -1000.000000, -1000.000000)"/>
<ellipse id="ellipse284" rx="0.300000" ry="0.150000" cx="-1000.000000" cy="-1000.000000" style="stroke-width:0.000000;fill:#44ccee;stroke:none;" transform="rotate(0.000000, -1000.000000, -1000.000000)"/>
<ellipse id="ellipse285" rx="0.300000" ry="0.150000" cx="-1000.000000" cy="-1000.000000" style="stroke-width:0.000000;fill:#44ccee;stroke:none;" transform="rotate(0.000000, -1000.000000, -1000.000000)"/>
<ellipse id="ellipse286" rx="0.300000" ry="0.150000" cx="-1000.000000" cy="-1000.000000" style="stroke-width:0.000000;fill:#44ccee;stroke:none;" transform="rotate(0.000000, -1000.000000, -1000.000000)"/>
<ellipse id="ellipse287" rx="0.300000" ry="0.150000" cx="-1000.000000" cy="-1000.000000" style="stroke-width:0.000000;fill:#44ccee;stroke:none;" transform="rotate(0.000000, -1000.000000, -1000.000000)"/>
<ellipse id="ellipse288" rx="0.300000" ry="0.150000" cx="-1000.000000" cy="-1000.000000" style="stroke-width:0.000000;fill:#44ccee;stroke:none;" transform="rotate(0.000000, -1000.000000, -1000.000000)"/>
<ellipse id="ellipse289" rx="0.300000" ry="0.150000" cx="-1000.000000" cy="-1000.000000" style="stroke-width:0.000000;fill:#44ccee;stroke:none;" transform="rotate(0.000000, -1000.000000, -1000.000000)"/>
<ellipse id="ellipse290" rx="0.300000" ry="0.150000" cx="-1000.000000" cy="-1000.000000" style="stroke-width:0.000000;fill:#44ccee;stroke:none;" transform="rotate(0.000000, -1000.000000, -1000.000000)"/>
<ellipse id="ellipse291" rx="0.300000" ry="0.150000" cx="-1000.000000" cy="-1000.000000" style="stroke-width:0.000000;fill:#44ccee;stroke:none;" transform="rotate(0.000000, -1000.000000, -1000.000000)"/>
<ellipse id="ellipse292" rx="0.300000" ry="0.150000" cx="-1000.000000" cy="-1000.000000" style="stroke-width:0.000000;fill:#44ccee;stroke:none;" transform="rotate(0.000000, -1000.000000, -1000.000000)"/>
<ellipse id="ellipse293" rx="0.300000" ry="0.150000" cx="-1000.000000" cy="-1000.000000" style="stroke-width:0.000000;fill:#44ccee;stroke:none;" transform="rotate(0.000000, -1000.000000, -1000.000000)"/>
<ellipse id="ellipse294" rx="0.300000" ry="0.150000" cx="-1000.000000" cy="-1000.000000" style="stroke-width:0.000000;fill:#44ccee;stroke:none;" transform="rotate(0.000000, -1000.000000, -1000.000000)"/>
<ellipse id="ellipse295" rx="0.300000" ry="0.150000" cx="-1000.000000" cy="-1000.000000" style="stroke-width:0.000000;fill:#44ccee;stroke:none;" transform="rotate(0.000000, -1000.000000, -1000.000000)"/>
<ellipse id="ellipse296" rx="0.300000" ry="0.150000" cx="-1000.000000" cy="-1000.000000" style="stroke-width:0.000000;fill:#44ccee;stroke:none;" transform="rotate(0.000000, -1000.000000, -1000.000000)"/>
<ellipse id="ellipse297" rx="0.300000" ry="0.150000" cx="-1000.000000" cy="-1000.000000" style="stroke-width:0.000000;fill:#44ccee;stroke:none;" transform="rotate(0.000000, -1000.000000, -1000.000000)"/>
<ellipse id="ellipse298" rx="0.300000" ry="0.150000" cx="-1000.000000" cy="-1000.000000" style="stroke-width:0.000000;fill:#44ccee;stroke:none;" transform="rotate(0.000000, -1000.000000, -1000.000000)"/>
<ellipse id="ellipse299" rx="0.300000" ry="0.150000" cx="-1000.000000" cy="-1000.000000" style="stroke-width:0.000000;fill:#44ccee;stroke:none;" transform="rotate(0.000000, -1000.000000, -1000.000000)"/>
<ellipse id="ellipse300" rx="0.300000" ry="0.150000" cx="-1000.000000" cy="-1000.000000" style="stroke-width:0.000000;fill:#44ccee;stroke:none;" transform="rotate(0.000000, -1000.000000, -1000.000000)"/>
<ellipse id="ellipse301" rx="0.300000" ry="0.150000" cx="-1000.000000" cy="-1000.000000" style="stroke-width:0.000000;fill:#44ccee;stroke:none;" transform="rotate(0.000000, -1000.000000, -1000.000000)"/>
<ellipse id="ellipse302" rx="0.300000" ry="0.150000" cx="-1000.000000" cy="-1000.000000" style="stroke-width:0.000000;fill:#44ccee;stroke:none;" transform="rotate(0.000000, -1000.000000, -1000.000000)"/>
<ellipse id="ellipse303" rx="0.300000" ry="0.150000" cx="-1000.000000" cy="-1000.000000" style="stroke-width:0.000000;fill:#44ccee;stroke:none;" transform="rotate(0.000000, -1000.000000, -1000.000000)"/>
<ellipse id="ellipse304" rx="0.300000" ry="0.150000" cx="-1000.000000" cy="-1000.000000" style="stroke-width:0.000000;fill:#44ccee;stroke:none;" transform="rotate(0.000000, -1000.000000, -1000.000000)"/>
<ellipse id="ellipse305" rx="0.300000" ry="0.150000" cx="-1000.000000" cy="-1000.000000" style="stroke-width:0.000000;fill:#44ccee;stroke:none;" transform="rotate(0.000000, -1000.000000, -1000.000000)"/>
<ellipse id="ellipse306" rx="0.300000" ry="0.150000" cx="-1000.000000" cy="-1000.000000" style="stroke-width:0.000000;fill:#44ccee;stroke:none;" transform="rotate(0.000000, -1000.000000, -1000.000000)"/>
<ellipse id="ellipse307" rx="0.300000" ry="0.150000" cx="-1000.000000" cy="-1000.000000" style="stroke-width:0.000000;fill:#44ccee;stroke:none;" transform="rotate(0.000000, -1000.000000, -1000.000000)"/>
<ellipse id="ellipse308" rx="0.300000" ry="0.150000" cx="-1000.000000" cy="-1000.000000" style="stroke-width:0.000000;fill:#44ccee;stroke:none;" transform="rotate(0.000000, -1000.000000, -1000.000000)"/>
<ellipse id="ellipse309" rx="0.300000" ry="0.150000" cx="-1000.000000" cy="-1000.000000" style="stroke-width:0.000000;fill:#44ccee;stroke:none;" transform="rotate(0.000000, -1000.000000, -1000.000000)"/>
<ellipse id="ellipse310" rx="0.300000" ry="0.150000" cx="-1000.000000" cy="-1000.000000" style="stroke-width:0.000000;fill:#44ccee;stroke:none;" transform="rotate(0.000000, -1000.000000, -1000.000000)"/>
<ellipse id="ellipse311" rx="0.300000" ry="0.150000" cx="-1000.000000" cy="-1000.000000" style="stroke-width:0.000000;fill:#44ccee;stroke:none;" transform="rotate(0.000000, -1000.000000, -1000.000000)"/>
<ellipse id="ellipse312" rx="0.300000" ry="0.150000" cx="-1000.000000" cy="-1000.000000" style="stroke-width:0.000000;fill:#44ccee;stroke:none;" transform="rotate(0.000000, -1000.000000, -1000.000000)"/>
<ellipse id="ellipse313" rx="0.300000" ry="0.150000" cx="-1000.000000" cy="-1000.000000" style="stroke-width:0.000000;fill:#44ccee;stroke:none;" transform="rotate(0.000000, -1000.000000, -1000.000000)"/>
<ellipse id="ellipse314" rx="0.300000" ry="0.150000" cx="-1000.000000" cy="-1000.000000" style="stroke-width:0.000000;fill:#44ccee;stroke:none;" transform="rotate(0.000000, -1000.000000, -1000.000000)"/>
<ellipse id="ellipse315" rx="0.300000" ry="0.150000" cx="-1000.000000" cy="-1000.000000" style="stroke-width:0.000000;fill:#44ccee;stroke:none;" transform="rotate(0.000000, -1000.000000, -1000.000000)"/>
<ellipse id="ellipse316" rx="0.300000" ry="0.150000" cx="-1000.000000" cy="-1000.000000" style="stroke-width:0.000000;fill:#44ccee;stroke:none;" transform="rotate(0.000000, -1000.000000, -1000.000000)"/>
<ellipse id="ellipse317" rx="0.300000" ry="0.150000" cx="-1000.000000" cy="-1000.000000" style="stroke-width:0.000000;fill:#44ccee;stroke:none;" transform="rotate(0.000000, -1000.000000, -1000.000000)"/>
<ellipse id="ellipse318" rx="0.300000" ry="0.150000" cx="-1000.000000" cy="-1000.000000" style="stroke-width:0.000000;fill:#44ccee;stroke:none;" transform="rotate(0.000000, -1000.000000, -1000.000000)"/>
<ellipse id="ellipse319" rx="0.300000" ry="0.150000" cx="-1000.000000" cy="-1000.000000" style="stroke-width:0.000000;fill:#44ccee;stroke:none;" transform="rotate(0.000000, -1000.000000, -1000.000000)"/>
<ellipse id="ellipse320" rx="0.300000" ry="0.150000" cx="-1000.000000" cy="-1000.000000" style="stroke-width:0.000000;fill:#44ccee;stroke:none;" transform="rotate(0.000000, -1000.000000, -1000.000000)"/>
<ellipse id="ellipse321" rx="0.300000" ry="0.150000" cx="-1000.000000" cy="-1000.000000" style="stroke-width:0.000000;fill:#44ccee;stroke:none;" transform="rotate(0.000000, -1000.000000, -1000.000000)"/>
<ellipse id="ellipse322" rx="0.300000" ry="0.150000" cx="-1000.000000" cy="-1000.000000" style="stroke-width:0.000000;fill:#44ccee;stroke:none;" transform="rotate(0.000000, -1000.000000, -1000.000000)"/>
<ellipse id="ellipse323" rx="0.300000" ry="0.150000" cx="-1000.000000" cy="-1000.000000" style="stroke-width:0.000000;fill:#44ccee;stroke:none;" transform="rotate(0.000000, -1000.000000, -1000.000000)"/>
<ellipse id="ellipse324" rx="0.300000" ry="0.150000" cx="-1000.000000" cy="-1000.000000" style="stroke-width:0.000000;fill:#44ccee;stroke:none;" transform="rotate(0.000000, -1000.000000, -1000.000000)"/>
<ellipse id="ellipse325" rx="0.300000" ry="0.150000" cx="-1000.000000" cy="-1000.000000" style="stroke-width:0.000000;fill:#44ccee;stroke:none;" transform="rotate(0.000000, -1000.000000, -1000.000000)"/>
<ellipse id="ellipse326" rx="0.300000" ry="0.150000" cx="-1000.000000" cy="-1000.000000" style="stroke-width:0.000000;fill:#44ccee;stroke:none;" transform="rotate(0.000000, -1000.000000, -1000.000000)"/>
<ellipse id="ellipse327" rx="0.300000" ry="0.150000" cx="-1000.000000" cy="-1000.000000" style="stroke-width:0.000000;fill:#44ccee;stroke:none;" transform="rotate(0.000000, -1000.000000, -1000.000000)"/>
<ellipse id="ellipse328" rx="0.300000" ry="0.150000" cx="-1000.000000" cy="-1000.000000" style="stroke-width:0.000000;fill:#44ccee;stroke:none;" transform="rotate(0.000000, -1000.000000, -1000.000000)"/>
<ellipse id="ellipse329" rx="0.300000" ry="0.150000" cx="-1000.000000" cy="-1000.000000" style="stroke-width:0.000000;fill:#44ccee;stroke:none;" transform="rotate(0.000000, -1000.000000, -1000.000000)"/>
<ellipse id="ellipse330" rx="0.300000" ry="0.150000" cx="-1000.000000" cy="-1000.000000" style="stroke-width:0.000000;fill:#44ccee;stroke:none;" transform="rotate(0.000000, -1000.000000, -1000.000000)"/>
<ellipse id="ellipse331" rx="0.300000" ry="0.150000" cx="-1000.000000" cy="-1000.000000" style="stroke-width:0.000000;fill:#44ccee;stroke:none;" transform="rotate(0.000000, -1000.000000, -1000.000000)"/>
<ellipse id="ellipse332" rx="0.300000" ry="0.150000" cx="-1000.000000" cy="-1000.000000" style="stroke-width:0.000000;fill:#44ccee;stroke:none;" transform="rotate(0.000000, -1000.000000, -1000.000000)"/>
<ellipse id="ellipse333" rx="0.300000" ry="0.150000" cx="-1000.000000" cy="-1000.000000" style="stroke-width:0.000000;fill:#44ccee;stroke:none;" transform="rotate(0.000000, -1000.000000, -1000.000000)"/>
<ellipse id="ellipse334" rx="0.300000" ry="0.150000" cx="-1000.000000" cy="-1000.000000" style="stroke-width:0.000000;fill:#44ccee;stroke:none;" transform="rotate(0.000000, -1000.000000, -1000.000000)"/>
<ellipse id="ellipse335" rx="0.300000" ry="0.150000" cx="-1000.000000" cy="-1000.000000" style="stroke-width:0.000000;fill:#44ccee;stroke:none;" transform="rotate(0.000000, -1000.000000, -1000.000000)"/>
<ellipse id="ellipse336" rx="0.300000" ry="0.150000" cx="-1000.000000" cy="-1000.000000" style="stroke-width:0.000000;fill:#44ccee;stroke:none;" transform="rotate(0.000000, -1000.000000, -1000.000000)"/>
<ellipse id="ellipse337" rx="0.300000" ry="0.150000" cx="-1000.000000" cy="-1000.000000" style="stroke-width:0.000000;fill:#44ccee;stroke:none;" transform="rotate(0.000000, -1000.000000, -1000.000000)"/>
<ellipse id="ellipse338" rx="0.300000" ry="0.150000" cx="-1000.000000" cy="-1000.000000" style="stroke-width:0.000000;fill:#44ccee;stroke:none;" transform="rotate(0.000000, -1000.000000, -1000.000000)"/>
<ellipse id="ellipse339" rx="0.300000" ry="0.150000" cx="-1000.000000" cy="-1000.000000" style="stroke-width:0.000000;fill:#44ccee;stroke:none;" transform="rotate(0.000000, -1000.000000, -1000.000000)"/>
<ellipse id="ellipse340" rx="0.300000" ry="0.150000" cx="-1000.000000" cy="-1000.000000" style="stroke-width:0.000000;fill:#44ccee;stroke:none;" transform="rotate(0.000000, -1000.000000, -1000.000000)"/>
<ellipse id="ellipse341" rx="0.300000" ry="0.150000" cx="-1000.000000" cy="-1000.000000" style="stroke-width:0.000000;fill:#44ccee;stroke:none;" transform="rotate(0.000000, -1000.000000, -1000.000000)"/>
<ellipse id="ellipse342" rx="0.300000" ry="0.150000" cx="-1000.000000" cy="-1000.000000" style="stroke-width:0.000000;fill:#44ccee;stroke:none;" transform="rotate(0.000000, -1000.000000, -1000.000000)"/>
<ellipse id="ellipse343" rx="0.300000" ry="0.150000" cx="-1000.000000" cy="-1000.000000" style="stroke-width:0.000000;fill:#44ccee;stroke:none;" transform="rotate(0.000000, -1000.000000, -1000.000000)"/>
<ellipse id="ellipse344" rx="0.300000" ry="0.150000" cx="-1000.000000" cy="-1000.000000" style="stroke-width:0.000000;fill:#44ccee;stroke:none;" transform="rotate(0.000000, -1000.000000, -1000.000000)"/>
<ellipse id="ellipse345" rx="0.300000" ry="0.150000" cx="-1000.000000" cy="-1000.000000" style="stroke-width:0.000000;fill:#44ccee;stroke:none;" transform="rotate(0.000000, -1000.000000, -1000.000000)"/>
<ellipse id="ellipse346" rx="0.300000" ry="0.150000" cx="-1000.000000" cy="-1000.000000" style="stroke-width:0.000000;fill:#44ccee;stroke:none;" transform="rotate(0.000000, -1000.000000, -1000.000000)"/>
<ellipse id="ellipse347" rx="0.300000" ry="0.150000" cx="-1000.000000" cy="-1000.000000" style="stroke-width:0.000000;fill:#44ccee;stroke:none;" transform="rotate(0.000000, -1000.000000, -1000.000000)"/>
<ellipse id="ellipse348" rx="0.300000" ry="0.150000" cx="-1000.000000" cy="-1000.000000" style="stroke-width:0.000000;fill:#44ccee;stroke:none;" transform="rotate(0.000000, -1000.000000, -1000.000000)"/>
<ellipse id="ellipse349" rx="0.300000" ry="0.150000" cx="-1000.000000" cy="-1000.000000" style="stroke-width:0.000000;fill:#44ccee;stroke:none;" transform="rotate(0.000000, -1000.000000, -1000.000000)"/>
<ellipse id="ellipse350" rx="0.300000" ry="0.150000" cx="-1000.000000" cy="-1000.000000" style="stroke-width:0.000000;fill:#44ccee;stroke:none;" transform="rotate(0.000000, -1000.000000, -1000.000000)"/>
<ellipse id="ellipse351" rx="0.300000" ry="0.150000" cx="-1000.000000" cy="-1000.000000" style="stroke-width:0.000000;fill:#44ccee;stroke:none;" transform="rotate(0.000000, -1000.000000, -1000.000000)"/>
<ellipse id="ellipse352" rx="0.300000" ry="0.150000" cx="-1000.000000" cy="-1000.000000" style="stroke-width:0.000000;fill:#44ccee;stroke:none;" transform="rotate(0.000000, -1000.000000, -1000.000000)"/>
<ellipse id="ellipse353" rx="0.300000" ry="0.150000" cx="-1000.000000" cy="-1000.000000" style="stroke-width:0.000000;fill:#44ccee;stroke:none;" transform="rotate(0.000000, -1000.000000, -1000.000000)"/>
<ellipse id="ellipse354" rx="0.300000" ry="0.150000" cx="-1000.000000" cy="-1000.000000" style="stroke-width:0.000000;fill:#44ccee;stroke:none;" transform="rotate(0.000000, -1000.000000, -1000.000000)"/>
<ellipse id="ellipse355" rx="0.300000" ry="0.150000" cx="-1000.000000" cy="-1000.000000" style="stroke-width:0.000000;fill:#44ccee;stroke:none;" transform="rotate(0.000000, -1000.000000, -1000.000000)"/>
<ellipse id="ellipse356" rx="0.300000" ry="0.150000" cx="-1000.000000" cy="-1000.000000" style="stroke-width:0.000000;fill:#44ccee;stroke:none;" transform="rotate(0.000000, -1000.000000, -1000.000000)"/>
<ellipse id="ellipse357" rx="0.300000" ry="0.150000" cx="-1000.000000" cy="-1000.000000" style="stroke-width:0.000000;fill:#44ccee;stroke:none;" transform="rotate(0.000000, -1000.000000, -1000.000000)"/>
<ellipse id="ellipse358" rx="0.300000" ry="0.150000" cx="-1000.000000" cy="-1000.000000" style="stroke-width:0.000000;fill:#44ccee;stroke:none;" transform="rotate(0.000000, -1000.000000, -1000.000000)"/>
<ellipse id="ellipse359" rx="0.300000" ry="0.150000" cx="-1000.000000" cy="-1000.000000" style="stroke-width:0.000000;fill:#44ccee;stroke:none;" transform="rotate(0.000000, -1000.000000, -1000.000000)"/>
<ellipse id="ellipse360" rx="0.300000" ry="0.150000" cx="-1000.000000" cy="-1000.000000" style="stroke-width:0.000000;fill:#44ccee;stroke:none;" transform="rotate(0.000000, -1000.000000, -1000.000000)"/>
<ellipse id="ellipse361" rx="0.300000" ry="0.150000" cx="-1000.000000" cy="-1000.000000" style="stroke-width:0.000000;fill:#44ccee;stroke:none;" transform="rotate(0.000000, -1000.000000, -1000.000000)"/>
<ellipse id="ellipse362" rx="0.300000" ry="0.150000" cx="-1000.000000" cy="-1000.000000" style="stroke-width:0.000000;fill:#44ccee;stroke:none;" transform="rotate(0.000000, -1000.000000, -1000.000000)"/>
<ellipse id="ellipse363" rx="0.300000" ry="0.150000" cx="2.508077" cy="-2.430933" style="stroke-width:0.000000;fill:#44ccee;stroke:none;" transform="rotate(3.467122, 2.508077, -2.430933)"/>
<ellipse id="ellipse364" rx="0.300000" ry="0.150000" cx="-1000.000000" cy="-1000.000000" style="stroke-width:0.000000;fill:#44ccee;stroke:none;" transform="rotate(0.000000, -1000.000000, -1000.000000)"/>
<ellipse id="ellipse365" rx="0.300000" ry="0.150000" cx="-1000.000000" cy="-1000.000000" style="stroke-width:0.000000;fill:#44ccee;stroke:none;" transform="rotate(0.000000, -1000.000000, -1000.000000)"/>
<ellipse id="ellipse366" rx="0.300000" ry="0.150000" cx="1.318164" cy="-1.721150" style="stroke-width:0.000000;fill:#44ccee;stroke:none;" transform="rotate(0.000000, 1.318164, -1.721150)"/>
<ellipse id="ellipse367" rx="0.300000" ry="0.150000" cx="-1000.000000" cy="-1000.000000" style="stroke-width:0.000000;fill:#44ccee;stroke:none;" transform="rotate(0.000000, -1000.000000, -1000.000000)"/>
<ellipse id="ellipse368" rx="0.300000" ry="0.150000" cx="-1000.000000" cy="-1000.000000" style="stroke-width:0.000000;fill:#44ccee;stroke:none;" transform="rotate(0.000000, -1000.000000, -1000.000000)"/>
<ellipse id="ellipse369" rx="0.300000" ry="0.150000" cx="-1000.000000" cy="-1000.000000" style="stroke-width:0.000000;fill:#44ccee;stroke:none;" transform="rotate(0.000000, -1000.000000, -1000.000000)"/>
<ellipse id="ellipse370" rx="0.300000" ry="0.150000" cx="-1000.000000" cy="-1000.000000" style="stroke-width:0.000000;fill:#44ccee;stroke:none;" transform="rotate(0.000000, -1000.000000, -1000.000000)"/>
<ellipse id="ellipse371" rx="0.300000" ry="0.150000" cx="-1000.000000" cy="-1000.000000" style="stroke-width:0.000000;fill:#44ccee;stroke:none;" transform="rotate(0.000000, -1000.000000, -1000.000000)"/>
<ellipse id="ellipse372" rx="0.300000" ry="0.150000" cx="-1000.000000" cy="-1000.000000" style="stroke-width:0.000000;fill:#44ccee;stroke:none;" transform="rotate(0.000000, -1000.000000, -1000.000000)"/>
<ellipse id="ellipse373" rx="0.300000" ry="0.150000" cx="-1000.000000" cy="-1000.000000" style="stroke-width:0.000000;fill:#44ccee;stroke:none;" transform="rotate(0.000000, -1000.000000, -1000.000000)"/>
<ellipse id="ellipse374" rx="0.300000" ry="0.150000" cx="-1000.000000" cy="-1000.000000" style="stroke-width:0.000000;fill:#44ccee;stroke:none;" transform="rotate(0.000000, -1000.000000, -1000.000000)"/>
<ellipse id="ellipse375" rx="0.300000" ry="0.150000" cx="-1000.000000" cy="-1000.000000" style="stroke-width:0.000000;fill:#44ccee;stroke:none;" transform="rotate(0.000000, -1000.000000, -1000.000000)"/>
<ellipse id="ellipse376" rx="0.300000" ry="0.150000" cx="-1000.000000" cy="-1000.000000" style="stroke-width:0.000000;fill:#44ccee;stroke:none;" transform="rotate(0.000000, -1000.000000, -1000.000000)"/>
<ellipse id="ellipse377" rx="0.300000" ry="0.150000" cx="-1000.000000" cy="-1000.000000" style="stroke-width:0.000000;fill:#44ccee;stroke:none;" transform="rotate(0.000000, -1000.000000, -1000.000000)"/>
<ellipse id="ellipse378" rx="0.300000" ry="0.150000" cx="-1000.000000" cy="-1000.000000" style="stroke-width:0.000000;fill:#44ccee;stroke:none;" transform="rotate(0.000000, -1000.000000, -1000.000000)"/>
<ellipse id="ellipse379" rx="0.300000" ry="0.150000" cx="-1000.000000" cy="-1000.000000" style="stroke-width:0.000000;fill:#44ccee;stroke:none;" transform="rotate(0.000000, -1000.000000, -1000.000000)"/>
<ellipse id="ellipse380" rx="0.300000" ry="0.150000" cx="-1000.000000" cy="-1000.000000" style="stroke-width:0.000000;fill:#44ccee;stroke:none;" transform="rotate(0.000000, -1000.000000, -1000.000000)"/>
<ellipse id="ellipse381" rx="0.300000" ry="0.150000" cx="-1000.000000" cy="-1000.000000" style="stroke-width:0.000000;fill:#44ccee;stroke:none;" transform="rotate(0.000000, -1000.000000, -1000.000000)"/>
<ellipse id="ellipse382" rx="0.300000" ry="0.150000" cx="-1000.000000" cy="-1000.000000" style="stroke-width:0.000000;fill:#44ccee;stroke:none;" transform="rotate(0.000000, -1000.000000, -1000.000000)"/>
<ellipse id="ellipse383" rx="0.300000" ry="0.150000" cx="-1000.000000" cy="-1000.000000" style="stroke-width:0.000000;fill:#44ccee;stroke:none;" transform="rotate(0.000000, -1000.000000, -1000.000000)"/>
<ellipse id="ellipse384" rx="0.300000" ry="0.150000" cx="-1000.000000" cy="-1000.000000" style="stroke-width:0.000000;fill:#44ccee;stroke:none;" transform="rotate(0.000000, -1000.000000, -1000.000000)"/>
<ellipse id="ellipse385" rx="0.300000" ry="0.150000" cx="-1000.000000" cy="-1000.000000" style="stroke-width:0.000000;fill:#44ccee;stroke:none;" transform="rotate(0.000000, -1000.000000, -1000.000000)"/>
<ellipse id="ellipse386" rx="0.300000" ry="0.150000" cx="-1000.000000" cy="-1000.000000" style="stroke-width:0.000000;fill:#44ccee;stroke:none;" transform="rotate(0.000000, -1000.000000, -1000.000000)"/>
<ellipse id="ellipse387" rx="0.300000" ry="0.150000" cx="-1000.000000" cy="-1000.000000" style="stroke-width:0.000000;fill:#44ccee;stroke:none;" transform="rotate(0.000000, -1000.000000, -1000.000000)"/>
<ellipse id="ellipse388" rx="0.300000" ry="0.150000" cx="-1000.000000" cy="-1000.000000" style="stroke-width:0.000000;fill:#44ccee;stroke:none;" transform="rotate(0.000000, -1000.000000, -1000.000000)"/>
<ellipse id="ellipse389" rx="0.300000" ry="0.150000" cx="-1000.000000" cy="-1000.000000" style="stroke-width:0.000000;fill:#44ccee;stroke:none;" transform="rotate(0.000000, -1000.000000, -1000.000000)"/>
<ellipse id="ellipse390" rx="0.300000" ry="0.150000" cx="-1000.000000" cy="-1000.000000" style="stroke-width:0.000000;fill:#44ccee;stroke:none;" transform="rotate(0.000000, -1000.000000, -1000.000000)"/>
<ellipse id="ellipse391" rx="0.300000" ry="0.150000" cx="-1000.000000" cy="-1000.000000" style="stroke-width:0.000000;fill:#44ccee;stroke:none;" transform="rotate(0.000000, -1000.000000, -1000.000000)"/>
<ellipse id="ellipse392" rx="0.300000" ry="0.150000" cx="-1000.000000" cy="-1000.000000" style="stroke-width:0.000000;fill:#44ccee;stroke:none;" transform="rotate(0.000000, -1000.000000, -1000.000000)"/>
<ellipse id="ellipse393" rx="0.300000" ry="0.150000" cx="-1000.000000" cy="-1000.000000" style="stroke-width:0.000000;fill:#44ccee;stroke:none;" transform="rotate(0.000000, -1000.000000, -1000.000000)"/>
<ellipse id="ellipse394" rx="0.300000" ry="0.150000" cx="-1000.000000" cy="-1000.000000" style="stroke-width:0.000000;fill:#44ccee;stroke:none;" transform="rotate(0.000000, -1000.000000, -1000.000000)"/>
<ellipse id="ellipse395" rx="0.300000" ry="0.150000" cx="-1000.000000" cy="-1000.000000" style="stroke-width:0.000000;fill:#44ccee;stroke:none;" transform="rotate(0.000000, -1000.000000, -1000.000000)"/>
<ellipse id="ellipse396" rx="0.300000" ry="0.150000" cx="-1000.000000" cy="-1000.000000" style="stroke-width:0.000000;fill:#44ccee;stroke:none;" transform="rotate(0.000000, -1000.000000, -1000.000000)"/>
<ellipse id="ellipse397" rx="0.300000" ry="0.150000" cx="-1000.000000" cy="-1000.000000" style="stroke-width:0.000000;fill:#44ccee;stroke:none;" transform="rotate(0.000000, -1000.000000, -1000.000000)"/>
<ellipse id="ellipse398" rx="0.300000" ry="0.150000" cx="-1000.000000" cy="-1000.000000" style="stroke-width:0.000000;fill:#44ccee;stroke:none;" transform="rotate(0.000000, -1000.000000, -1000.000000)"/>
<ellipse id="ellipse399" rx="0.300000" ry="0.150000" cx="-1000.000000" cy="-1000.000000" style="stroke-width:0.000000;fill:#44ccee;stroke:none;" transform="rotate(0.000000, -1000.000000, -1000.000000)"/>
<path id="path400" style="stroke-width:0.200000;fill:none;stroke:#f39112;" d="M -4.546597,2.259814  L -4.499116,2.223769  L -4.451635,2.187725  L -4.404154,2.151680  L -4.356673,2.115636  L -4.309192,2.079592  L -4.261711,2.043547  L -4.214230,2.007503  L -4.166749,1.971458  L -4.119268,1.935414  L -4.071787,1.899369  L -4.007464,1.858404  L -3.943140,1.817440 " />
<path id="path401" style="stroke-width:0.050000;fill:none;stroke:#aa55dd;" d="M 6.056860,1.817440  L 6.055337,1.991964  L 6.050768,2.166434  L 6.043155,2.340799  L 6.032500,2.515004  L 6.018807,2.688997  L 6.002079,2.862724  L 5.982321,3.036133  L 5.959540,3.209171  L 5.933743,3.381784  L 5.904937,3.553921  L 5.873131,3.725529  L 5.838336,3.896556  L 5.800560,4.066950  L 5.759817,4.236658  L 5.716118,4.405630  L 5.669477,4.573813  L 5.619907,4.741157  L -1.522324,2.604011  L -1.635241,2.612113  L -1.709667,2.630357  L -1.765380,2.653404  L -1.807774,2.680183  L -1.838418,2.710841  L -1.856159,2.746624  L -1.854027,2.791609  L 5.044800,6.201151  L 4.966925,6.357345  L 4.886336,6.512155  L 4.803057,6.665536  L 4.717114,6.817440  L 4.628533,6.967820  L 4.537341,7.116632  L 4.443565,7.263830  L 4.347235,7.409369  L 4.248380,7.553204  L 4.147030,7.695292  L 4.043215,7.835590  L 3.936967,7.974054  L 3.828319,8.110643  L 3.717304,8.245316  L 3.603955,8.378030  L 3.488308,8.508746  L 3.370397,8.637423  L 3.250258,8.764023  L 3.127927,8.888507  L 3.003443,9.010838  L 2.876843,9.130977  L 2.748166,9.248888  L 2.617450,9.364535  L 2.484736,9.477884  L 2.350064,9.588899  L 2.213474,9.697547  L 2.075010,9.803795  L 1.934712,9.907609  L 1.792624,10.008960  L 1.648789,10.107815  L 1.503250,10.204145  L 1.356052,10.297920  L 1.207240,10.389113  L 1.056860,10.477694  L 0.904956,10.563637  L 0.751575,10.646915  L 0.596765,10.727505  L 0.440571,10.805380  L 0.283042,10.880517  L 0.124226,10.952894  L -0.035829,11.022488  L -0.197074,11.089278  L -0.359461,11.153244  L -0.522939,11.214366  L -0.687459,11.272625  L -0.852970,11.328005  L -1.019423,11.380487  L -1.186767,11.430056  L -1.354950,11.476698  L -1.523921,11.520397  L -1.693630,11.561140  L -1.864023,11.598916  L -2.035050,11.633711  L -2.206659,11.665517  L -2.378796,11.694323  L -2.551409,11.720120  L -2.724447,11.742901  L -2.897856,11.762658  L -3.071583,11.779387  L -3.245576,11.793080  L -3.419781,11.803735  L -3.594145,11.811348  L -3.768616,11.815916  L -3.943140,11.817440  L -4.117664,11.815916  L -4.292135,11.811348  L -4.466500,11.803735  L -4.640705,11.793080  L -4.814698,11.779387  L -4.988425,11.762658  L -5.161834,11.742901  L -5.334871,11.720120  L -5.507485,11.694323  L -5.679622,11.665517  L -5.851230,11.633711  L -6.022257,11.598916  L -6.192651,11.561140  L -6.362359,11.520397  L -6.531331,11.476698  L -6.699514,11.430056  L -6.866857,11.380487  L -7.033310,11.328005  L -7.198822,11.272625  L -7.363342,11.214366  L -7.526820,11.153244  L -7.689206,11.089278  L -7.850452,11.022488  L -8.010507,10.952894  L -8.169323,10.880517  L -8.326852,10.805380  L -8.483045,10.727505  L -8.637856,10.646915  L -8.791237,10.563637  L -8.943140,10.477694  L -9.093521,10.389113  L -9.242333,10.297920  L -9.389531,10.204145  L -9.535069,10.107815  L -9.678905,10.008960  L -9.820993,9.907609  L -9.961291,9.803795  L -10.099755,9.697547  L -10.236344,9.588899  L -10.371016,9.477884  L -10.503731,9.364535  L -10.634446,9.248888  L -10.763124,9.130977  L -10.889724,9.010838  L -11.014208,8.888507  L -11.136538,8.764023  L -11.256677,8.637423  L -11.374589,8.508746  L -11.490236,8.378030  L -11.603585,8.245316  L -11.714600,8.110643  L -11.823248,7.974054  L -11.929496,7.835590  L -12.033310,7.695292  L -12.134661,7.553204  L -12.233516,7.409369  L -12.329846,7.263830  L -12.423621,7.116632  L -12.514813,6.967820  L -12.603394,6.817440  L -12.689337,6.665536  L -12.772616,6.512155  L -12.853206,6.357345  L -12.931081,6.201151  L -13.006218,6.043622  L -13.078595,5.884806  L -13.148189,5.724751  L -13.214979,5.563505  L -13.278945,5.401119  L -13.340067,5.237641  L -13.398326,5.073121  L -13.453706,4.907609  L -13.506188,4.741157  L -13.555757,4.573813  L -13.602399,4.405630  L -13.646098,4.236658  L -13.686841,4.066950  L -13.724616,3.896556  L -13.759412,3.725529  L -13.791218,3.553921  L -13.820024,3.381784  L -13.845821,3.209171  L -13.868602,3.036133  L -13.888359,2.862724  L -13.905087,2.688997  L -13.918781,2.515004  L -13.929436,2.340799  L -13.937049,2.166434  L -13.941617,1.991964  L -13.943140,1.817440  L -13.941617,1.642915  L -13.937049,1.468445  L -13.929436,1.294080  L -13.918781,1.119875  L -13.905087,0.945882  L -13.888359,0.772155  L -13.868602,0.598746  L -13.845821,0.425709  L -13.820024,0.253095  L -13.791218,0.080958  L -13.759412,-0.090650  L -13.724616,-0.261677  L -13.686841,-0.432071  L -13.646098,-0.601779  L -13.602399,-0.770751  L -13.555757,-0.938934  L -13.506188,-1.106278  L -13.453706,-1.272730  L -13.398326,-1.438242  L -13.340067,-1.602762  L -13.278945,-1.766240  L -13.214979,-1.928626  L -13.148189,-2.089872  L -13.078595,-2.249927  L -13.006218,-2.408743  L -12.931081,-2.566272  L -12.853206,-2.722465  L -12.772616,-2.877276  L -12.689337,-3.030657  L -12.603394,-3.182560  L -12.514813,-3.332941  L -12.423621,-3.481753  L -12.329846,-3.628951  L -12.233516,-3.774490  L -12.134661,-3.918325  L -12.033310,-4.060413  L -11.929496,-4.200711  L -11.823248,-4.339175  L -11.714600,-4.475764  L -11.603585,-4.610437  L -11.490236,-4.743151  L -11.374589,-4.873867  L -11.256677,-5.002544  L -11.136538,-5.129144  L -11.014208,-5.253628  L -10.889724,-5.375958  L -10.763124,-5.496097  L -10.634446,-5.614009  L -10.503731,-5.729656  L -10.371016,-5.843005  L -10.236344,-5.954020  L -10.099755,-6.062668  L -9.961291,-6.168916  L -9.820993,-6.272730  L -9.678905,-6.374081  L -9.535069,-6.472936  L -9.389531,-6.569266  L -9.242333,-6.663041  L -9.093521,-6.754233  L -8.943140,-6.842815  L -8.791237,-6.928758  L -8.637856,-7.012036  L -8.483045,-7.092626  L -8.326852,-7.170501  L -8.169323,-7.245638  L -8.010507,-7.318015  L -7.850452,-7.387609  L -7.689206,-7.454399  L -7.526820,-7.518365  L -7.363342,-7.579487  L -7.198822,-7.637746  L -7.033310,-7.693126  L -6.866857,-7.745608  L -6.699514,-7.795177  L -6.531331,-7.841819  L -6.362359,-7.885518  L -6.192651,-7.926261  L -6.022257,-7.964036  L -5.851230,-7.998832  L -5.679622,-8.030638  L -5.507485,-8.059444  L -5.334871,-8.085241  L -5.161834,-8.108022  L -4.988425,-8.127779  L -4.814698,-8.144507  L -4.640705,-8.158201  L -4.466500,-8.168856  L -4.292135,-8.176469  L -4.117664,-8.181037  L -3.943140,-8.182560  L -3.768616,-8.181037  L -3.594145,-8.176469  L -3.419781,-8.168856  L -3.245576,-8.158201  L -3.071583,-8.144507  L -2.897856,-8.127779  L -2.724447,-8.108022  L -2.551409,-8.085241  L -2.378796,-8.059444  L -2.206659,-8.030638  L -2.035050,-7.998832  L -1.864023,-7.964036  L -1.693630,-7.926261  L -1.523921,-7.885518  L -1.354950,-7.841819  L -1.186767,-7.795177  L -1.019423,-7.745608  L -0.852970,-7.693126  L -0.687459,-7.637746  L -0.522939,-7.579487  L -0.359461,-7.518365  L -0.197074,-7.454399  L -0.035829,-7.387609  L 0.124226,-7.318015  L 0.283042,-7.245638  L 0.440571,-7.170501  L 0.596765,-7.092626  L 0.751575,-7.012036  L 0.904956,-6.928758  L 1.056860,-6.842815  L 1.207240,-6.754233  L 1.356052,-6.663041  L 1.503250,-6.569266  L 1.648789,-6.472936  L -0.620621,-2.927610  L 1.934712,-6.272730  L 2.075010,-6.168916  L 2.213474,-6.062668  L 2.350064,-5.954020  L 2.484736,-5.843005  L 2.617450,-5.729656  L -1.042721,-1.403802  L -0.987334,-1.352275  L -0.913333,-1.320018  L -0.824082,-1.301619  L -0.715952,-1.299020  L -0.566479,-1.331348  L 3.488308,-4.873867  L 3.603955,-4.743151  L -0.578727,-1.005639  L 3.828319,-4.475764  L 3.936967,-4.339175  L 0.653200,-1.646151  L 0.654753,-1.523125  L 0.746155,-1.466041  L 0.882113,-1.437235  L 1.277013,-1.572568  L 4.537341,-3.481753  L 4.628533,-3.332941  L 4.717114,-3.182560  L 4.803057,-3.030657  L 4.886336,-2.877276  L 4.966925,-2.722465  L 5.044800,-2.566272  L 5.119937,-2.408743  L 5.192314,-2.249927  L 5.261908,-2.089872  L 5.328698,-1.928626  L 5.392664,-1.766240  L 5.453786,-1.602762  L 5.512045,-1.438242  L 5.567425,-1.272730  L 5.619907,-1.106278  L 5.669477,-0.938934  L 5.716118,-0.770751  L 5.759817,-0.601779  L -0.556199,1.035503  L -0.579215,1.102415  L 5.873131,-0.090650  L 5.904937,0.080958  L 5.933743,0.253095  L 5.959540,0.425709  L 5.982321,0.598746  L 6.002079,0.772155  L 6.018807,0.945882  L 6.032500,1.119875  L 6.043155,1.294080  L 6.050768,1.468445  L 6.055337,1.642915  z " />
<ellipse id="ellipse402" rx="0.865143" ry="0.706387" cx="-3.974318" cy="1.846301" style="stroke-width:0.050000;fill:none;stroke:#ffff00;" transform="rotate(45.000000, -3.974318, 1.846301)"/>
<circle id="circle403" r="0.050000" cx="-3.974318" cy="1.846301" style="stroke-width:0.100000;fill:none;stroke:#ffff00;"/>
<ellipse id="ellipse404" rx="1.411889" ry="1.152803" cx="-3.965740" cy="1.849309" style="stroke-width:0.050000;fill:none;stroke:#ff00ff;" transform="rotate(45.000000, -3.965740, 1.849309)"/>
<circle id="circle405" r="0.050000" cx="-3.965740" cy="1.849309" style="stroke-width:0.100000;fill:none;stroke:#ff00ff;"/></g></svg>